<svg version="1.1" xmlns="http://www.w3.org/2000/svg" viewBox="0 0 966.3893523676197 603.2548683666539" width="966.3893523676197" height="603.2548683666539">
  <!-- svg-source:excalidraw -->
  
  <defs>
    <style>
      @font-face {
        font-family: "Virgil";
        src: url("https://excalidraw.com/Virgil.woff2");
      }
      @font-face {
        font-family: "Cascadia";
        src: url("https://excalidraw.com/Cascadia.woff2");
      }
    </style>
  </defs>
  <rect x="0" y="0" width="966.3893523676197" height="603.2548683666539" fill="#ffffff"></rect><g transform="translate(593.2025162295431 561.3652925106273) rotate(0 176.27848875970062 -168.30609479569387)" stroke="none"><path fill="#000000" d="M -1.56,0 Q -1.56,0 -1.52,-3.05 -1.49,-6.11 -1.46,-11.48 -1.44,-16.85 -1.42,-24.74 -1.40,-32.63 -1.39,-45.15 -1.38,-57.67 -1.88,-74.17 -2.38,-90.68 -3.60,-108.88 -4.83,-127.09 -5.86,-146.56 -6.89,-166.03 -7.33,-179.41 -7.76,-192.79 -7.95,-204.09 -8.13,-215.38 -8.72,-225.24 -9.30,-235.10 -10.06,-241.81 -10.81,-248.53 -11.14,-253.47 -11.46,-258.40 -11.60,-261.52 -11.74,-264.64 -11.80,-266.99 -11.85,-269.34 -11.99,-270.85 -12.12,-272.36 -11.57,-274.70 -11.02,-277.04 -9.75,-280.58 -8.47,-284.12 -5.88,-289.73 -3.28,-295.33 -0.64,-300.75 1.98,-306.17 5.14,-312.55 8.30,-318.92 11.68,-325.71 15.06,-332.49 18.03,-338.43 20.99,-344.37 23.25,-349.90 25.51,-355.44 27.00,-358.84 28.49,-362.24 29.09,-364.16 29.69,-366.08 31.16,-367.35 32.63,-368.62 34.21,-367.90 35.79,-367.19 36.77,-365.10 37.74,-363.01 38.55,-360.09 39.36,-357.17 41.70,-350.40 44.03,-343.63 47.06,-333.05 50.09,-322.47 53.40,-311.38 56.70,-300.28 59.13,-291.47 61.55,-282.66 63.07,-277.93 64.59,-273.21 65.65,-271.35 66.71,-269.48 68.03,-268.91 69.34,-268.34 71.27,-268.03 73.21,-267.72 77.60,-267.55 81.99,-267.39 88.02,-266.80 94.04,-266.20 103.16,-265.95 112.27,-265.70 123.79,-265.59 135.32,-265.48 148.36,-265.43 161.41,-265.38 172.56,-265.35 183.71,-265.33 199.65,-265.32 215.60,-265.31 227.52,-264.28 239.45,-263.26 248.58,-262.31 257.71,-261.36 264.61,-260.96 271.52,-260.56 276.05,-259.88 280.59,-259.19 283.47,-258.91 286.36,-258.62 288.55,-258.49 290.74,-258.36 291.93,-260.69 293.11,-263.01 294.53,-266.97 295.95,-270.93 298.12,-275.74 300.28,-280.54 302.72,-286.61 305.15,-292.68 309.28,-300.42 313.41,-308.17 318.19,-319.03 322.97,-329.89 326.54,-337.59 330.12,-345.29 331.60,-350.50 333.09,-355.71 334.24,-357.96 335.40,-360.21 335.46,-360.36 335.52,-360.51 335.62,-360.64 335.71,-360.76 335.84,-360.87 335.96,-360.97 336.10,-361.04 336.25,-361.11 336.41,-361.14 336.56,-361.17 336.72,-361.17 336.88,-361.16 337.04,-361.12 337.19,-361.07 337.33,-360.99 337.47,-360.91 337.58,-360.80 337.70,-360.69 337.79,-360.56 337.87,-360.42 337.92,-360.27 337.97,-360.12 337.99,-359.96 338.00,-359.80 337.98,-359.64 337.95,-359.48 340.49,-353.96 343.02,-348.43 344.63,-341.55 346.24,-334.67 347.44,-326.09 348.63,-317.50 350.14,-309.85 351.65,-302.19 353.31,-295.38 354.96,-288.57 356.66,-283.69 358.36,-278.81 359.60,-275.18 360.84,-271.55 361.85,-270.19 362.85,-268.82 363.48,-267.55 364.10,-266.28 364.43,-265.15 364.75,-264.03 364.90,-262.46 365.05,-260.90 365.00,-254.63 364.94,-248.37 363.36,-233.41 361.77,-218.45 359.55,-201.93 357.33,-185.41 355.35,-163.15 353.38,-140.89 352.02,-126.83 350.66,-112.77 350.07,-100.21 349.49,-87.65 349.23,-80.77 348.98,-73.90 348.87,-69.45 348.75,-65.01 348.70,-62.61 348.65,-60.21 348.63,-57.67 348.61,-55.13 348.59,-52.52 348.58,-49.91 348.58,-46.77 348.57,-43.62 348.57,-37.70 348.56,-31.78 348.56,-27.74 348.56,-23.69 349.06,-18.47 349.57,-13.25 350.28,-10.06 350.99,-6.88 351.31,-3.89 351.63,-0.90 351.84,0.85 352.05,2.62 352.16,4.41 352.27,6.20 352.76,8.87 353.24,11.54 353.45,13.81 353.66,16.07 354.24,17.89 354.82,19.71 355.14,21.67 355.46,23.62 355.67,24.95 355.89,26.28 356.04,27.37 356.18,28.46 356.30,30.15 356.41,31.84 356.37,32.18 356.32,32.51 356.17,32.81 356.01,33.11 355.77,33.35 355.53,33.59 355.23,33.74 354.92,33.89 354.59,33.93 354.25,33.97 353.92,33.91 353.59,33.84 353.30,33.67 353.00,33.50 352.78,33.25 352.56,33.00 352.42,32.69 352.29,32.38 352.27,32.04 352.24,31.70 352.33,31.37 352.41,31.05 352.59,30.76 352.78,30.48 353.04,30.27 353.31,30.06 353.63,29.94 353.94,29.83 354.28,29.82 354.62,29.82 354.94,29.92 355.26,30.02 355.54,30.22 355.81,30.42 356.01,30.69 356.20,30.97 356.30,31.29 356.40,31.62 356.38,31.95 356.37,32.29 356.25,32.61 356.14,32.93 355.92,33.19 355.71,33.45 355.42,33.63 355.14,33.81 354.81,33.89 354.48,33.97 354.14,33.94 353.81,33.91 353.50,33.77 353.19,33.64 352.94,33.41 352.69,33.18 352.52,32.89 352.36,32.59 352.30,32.26 352.23,31.93 352.23,31.93 352.23,31.93 352.33,29.25 352.43,26.57 352.43,25.31 352.43,24.05 352.23,22.30 352.04,20.56 351.41,18.47 350.77,16.38 350.53,14.24 350.29,12.10 349.70,9.20 349.12,6.30 349.12,4.57 349.12,2.83 349.07,1.10 349.02,-0.62 348.72,-3.47 348.42,-6.31 347.68,-9.65 346.94,-12.99 346.43,-18.34 345.92,-23.69 345.92,-27.74 345.92,-31.78 345.91,-37.70 345.91,-43.62 345.91,-46.77 345.92,-49.92 345.92,-52.54 345.92,-55.15 345.94,-57.71 345.95,-60.26 345.99,-62.67 346.02,-65.07 346.11,-69.53 346.21,-74.00 346.43,-80.88 346.66,-87.77 347.21,-100.41 347.76,-113.04 349.07,-127.10 350.38,-141.15 352.29,-163.49 354.20,-185.82 356.32,-202.31 358.44,-218.79 359.88,-233.57 361.32,-248.35 361.20,-254.52 361.08,-260.68 361.02,-262.89 360.96,-265.10 360.70,-266.16 360.44,-267.22 359.37,-268.94 358.31,-270.66 357.06,-274.29 355.81,-277.92 354.05,-282.92 352.30,-287.92 350.61,-294.78 348.93,-301.65 347.38,-309.38 345.83,-317.11 344.62,-325.55 343.41,-334.00 341.75,-340.82 340.10,-347.64 338.88,-352.63 337.67,-357.61 336.53,-358.91 335.40,-360.21 335.46,-360.36 335.52,-360.51 335.62,-360.64 335.71,-360.76 335.84,-360.87 335.96,-360.97 336.10,-361.04 336.25,-361.11 336.41,-361.14 336.56,-361.17 336.72,-361.17 336.88,-361.16 337.04,-361.12 337.19,-361.07 337.33,-360.99 337.47,-360.91 337.58,-360.80 337.70,-360.69 337.79,-360.56 337.87,-360.42 337.92,-360.27 337.97,-360.12 337.99,-359.96 338.00,-359.80 337.98,-359.64 337.95,-359.48 336.80,-357.23 335.65,-354.97 334.10,-349.57 332.55,-344.16 329.00,-336.48 325.44,-328.80 320.63,-317.84 315.82,-306.89 311.77,-299.27 307.72,-291.65 305.29,-285.52 302.86,-279.39 300.78,-274.68 298.69,-269.97 297.29,-265.92 295.89,-261.87 294.72,-259.32 293.55,-256.77 292.15,-256.27 290.75,-255.77 288.43,-255.88 286.10,-256.00 283.14,-256.29 280.19,-256.59 275.78,-257.26 271.36,-257.93 264.40,-258.33 257.44,-258.74 248.33,-259.68 239.22,-260.62 227.41,-261.64 215.60,-262.65 199.65,-262.66 183.71,-262.66 172.55,-262.68 161.40,-262.69 148.35,-262.73 135.29,-262.77 123.75,-262.87 112.20,-262.96 102.99,-263.20 93.77,-263.44 87.83,-264.00 81.89,-264.55 77.31,-264.70 72.73,-264.84 70.32,-265.26 67.91,-265.68 66.19,-266.83 64.48,-267.97 63.21,-270.15 61.94,-272.33 60.37,-277.12 58.80,-281.90 56.35,-290.67 53.89,-299.44 50.53,-310.53 47.16,-321.62 44.08,-332.09 41.00,-342.57 38.54,-349.37 36.08,-356.18 35.21,-358.84 34.34,-361.51 33.28,-363.33 32.22,-365.15 31.57,-363.17 30.92,-361.18 29.45,-357.81 27.98,-354.43 25.68,-348.80 23.39,-343.18 20.43,-337.23 17.47,-331.29 14.10,-324.51 10.73,-317.72 7.59,-311.35 4.45,-304.97 1.85,-299.57 -0.74,-294.16 -3.26,-288.66 -5.78,-283.17 -6.97,-279.77 -8.16,-276.38 -8.61,-274.39 -9.06,-272.39 -9.14,-270.90 -9.22,-269.41 -9.16,-267.08 -9.11,-264.75 -8.97,-261.67 -8.83,-258.58 -8.51,-253.70 -8.19,-248.83 -7.43,-242.04 -6.66,-235.26 -6.07,-225.34 -5.48,-215.42 -5.29,-204.15 -5.10,-192.88 -4.66,-179.53 -4.21,-166.18 -3.18,-146.72 -2.14,-127.27 -0.89,-109.02 0.34,-90.76 0.86,-74.22 1.38,-57.67 1.39,-45.15 1.40,-32.63 1.42,-24.74 1.44,-16.85 1.46,-11.48 1.49,-6.11 1.52,-3.05 1.56,0 1.53,0.18 1.51,0.37 1.45,0.54 1.38,0.72 1.27,0.88 1.16,1.03 1.02,1.16 0.88,1.28 0.72,1.37 0.55,1.46 0.37,1.50 0.18,1.55 -0.00,1.55 -0.18,1.55 -0.37,1.50 -0.55,1.46 -0.72,1.37 -0.88,1.28 -1.02,1.16 -1.16,1.03 -1.27,0.88 -1.38,0.72 -1.45,0.54 -1.51,0.37 -1.53,0.18 -1.56,-0.00 -1.56,-0.00 L -1.56,0 Z"></path></g><g transform="translate(639.2652369104699 384.2009821993704) rotate(0 36.31868361380771 0.8858215515563188)" stroke="none"><path fill="#000000" d="M 0,-1.59 Q 0,-1.59 2.54,-1.55 5.09,-1.51 8.82,-0.97 12.55,-0.42 19.61,-0.19 26.68,0.03 32.76,0.13 38.84,0.24 43.47,0.29 48.09,0.34 51.58,0.36 55.07,0.39 58.08,0.40 61.09,0.41 63.39,0.42 65.69,0.43 69.16,0.32 72.63,0.22 72.88,0.26 73.13,0.30 73.35,0.42 73.57,0.53 73.74,0.71 73.92,0.90 74.02,1.13 74.13,1.35 74.15,1.60 74.18,1.85 74.13,2.10 74.07,2.34 73.94,2.56 73.81,2.77 73.62,2.93 73.43,3.10 73.20,3.19 72.96,3.28 72.71,3.29 72.46,3.31 72.22,3.24 71.98,3.17 71.77,3.03 71.57,2.89 71.41,2.69 71.26,2.49 71.18,2.25 71.10,2.02 71.10,1.77 71.10,1.51 71.18,1.28 71.26,1.04 71.41,0.84 71.57,0.64 71.77,0.50 71.98,0.36 72.22,0.29 72.47,0.22 72.72,0.24 72.97,0.25 73.20,0.35 73.43,0.44 73.62,0.60 73.82,0.76 73.94,0.98 74.07,1.19 74.13,1.44 74.18,1.68 74.15,1.93 74.13,2.18 74.02,2.41 73.92,2.64 73.74,2.82 73.57,3.00 73.35,3.12 73.13,3.24 72.88,3.28 72.63,3.32 72.63,3.32 72.63,3.32 69.16,3.21 65.69,3.10 63.39,3.10 61.09,3.10 58.07,3.10 55.06,3.10 51.56,3.09 48.06,3.08 43.43,3.05 38.80,3.02 32.70,2.94 26.59,2.87 19.37,2.66 12.14,2.46 8.62,1.99 5.09,1.51 2.54,1.55 0,1.59 -0.19,1.57 -0.38,1.54 -0.56,1.47 -0.74,1.41 -0.89,1.30 -1.05,1.19 -1.18,1.04 -1.31,0.90 -1.40,0.73 -1.49,0.56 -1.53,0.37 -1.58,0.19 -1.58,-0.00 -1.58,-0.19 -1.53,-0.37 -1.49,-0.56 -1.40,-0.73 -1.31,-0.90 -1.18,-1.04 -1.05,-1.19 -0.89,-1.30 -0.74,-1.41 -0.56,-1.47 -0.38,-1.54 -0.19,-1.57 0.00,-1.59 0.00,-1.59 L 0,-1.59 Z"></path></g><g transform="translate(656.1407710728965 387.01021423429984) rotate(0 18.75100380722438 11.661072019418157)" stroke="none"><path fill="#000000" d="M 2.46,0.06 Q 2.46,0.06 2.31,1.99 2.16,3.92 2.20,5.38 2.24,6.84 2.78,8.70 3.32,10.56 4.41,12.11 5.51,13.66 6.30,14.47 7.10,15.29 8.79,16.50 10.47,17.71 12.11,18.50 13.75,19.30 15.21,19.75 16.67,20.20 18.48,20.23 20.29,20.27 21.46,19.93 22.62,19.58 23.86,18.86 25.10,18.14 26.43,17.01 27.76,15.88 28.92,14.70 30.08,13.51 30.81,12.20 31.54,10.88 32.08,9.59 32.62,8.29 33.03,7.26 33.44,6.22 33.69,4.97 33.94,3.71 34.15,2.43 34.37,1.14 34.51,0.62 34.65,0.10 34.95,-0.33 35.25,-0.78 35.68,-1.11 36.11,-1.44 36.62,-1.61 37.13,-1.79 37.67,-1.79 38.21,-1.79 38.72,-1.62 39.23,-1.45 39.66,-1.13 40.09,-0.81 40.40,-0.36 40.70,0.07 40.85,0.59 40.99,1.11 40.97,1.65 40.94,2.19 40.74,2.69 40.55,3.19 40.20,3.60 39.85,4.02 39.39,4.30 38.93,4.58 38.41,4.70 37.88,4.81 37.34,4.76 36.81,4.70 36.32,4.48 35.83,4.25 35.43,3.89 35.04,3.52 34.79,3.04 34.53,2.57 34.44,2.04 34.35,1.50 34.44,0.97 34.52,0.44 34.77,-0.03 35.02,-0.51 35.41,-0.88 35.80,-1.25 36.29,-1.48 36.78,-1.71 37.31,-1.77 37.85,-1.83 38.37,-1.72 38.90,-1.60 39.36,-1.33 39.83,-1.05 40.18,-0.64 40.53,-0.23 40.73,0.26 40.93,0.76 40.97,1.29 41.00,1.83 41.00,1.83 41.00,1.83 40.69,3.58 40.38,5.33 40.12,6.38 39.86,7.43 39.40,8.60 38.95,9.78 38.35,11.05 37.74,12.32 36.90,13.93 36.06,15.54 35.36,16.65 34.66,17.75 33.28,19.12 31.90,20.48 31.05,21.25 30.20,22.02 28.39,23.24 26.58,24.47 24.55,25.23 22.53,25.99 21.35,26.15 20.17,26.31 18.49,26.19 16.80,26.07 15.01,25.58 13.21,25.09 11.38,24.23 9.56,23.37 8.54,22.76 7.52,22.15 6.43,21.39 5.34,20.64 4.33,19.75 3.32,18.86 2.34,17.80 1.36,16.73 0.57,15.61 -0.20,14.48 -0.77,13.30 -1.34,12.11 -1.69,10.86 -2.04,9.61 -2.18,8.28 -2.33,6.94 -2.35,5.37 -2.37,3.79 -2.42,1.86 -2.46,-0.06 -2.42,-0.36 -2.37,-0.65 -2.26,-0.93 -2.15,-1.20 -1.97,-1.44 -1.79,-1.68 -1.57,-1.87 -1.34,-2.06 -1.07,-2.19 -0.81,-2.32 -0.51,-2.39 -0.22,-2.45 0.06,-2.44 0.36,-2.43 0.65,-2.36 0.93,-2.28 1.19,-2.13 1.45,-1.98 1.67,-1.78 1.89,-1.58 2.05,-1.33 2.21,-1.08 2.31,-0.80 2.41,-0.52 2.43,-0.22 2.46,0.06 2.46,0.06 L 2.46,0.06 Z"></path></g><g transform="translate(828.3765723762035 389.8599315319741) rotate(0 25.2203994641568 1.8231614070474507)" stroke="none"><path fill="#000000" d="M 0.11,-1.67 Q 0.11,-1.67 1.42,-1.67 2.74,-1.67 4.69,-1.52 6.64,-1.36 9.23,-1.07 11.83,-0.77 14.65,-0.54 17.47,-0.31 20.83,-0.20 24.19,-0.09 27.30,0.05 30.41,0.19 33.24,0.44 36.07,0.69 38.93,0.97 41.79,1.26 43.72,1.42 45.64,1.59 48.15,1.84 50.66,2.09 50.90,2.16 51.14,2.24 51.35,2.39 51.55,2.54 51.70,2.75 51.84,2.95 51.92,3.20 51.99,3.44 51.98,3.69 51.97,3.95 51.89,4.18 51.80,4.42 51.64,4.62 51.48,4.81 51.26,4.95 51.05,5.09 50.80,5.15 50.55,5.21 50.30,5.18 50.05,5.16 49.82,5.06 49.58,4.96 49.40,4.79 49.21,4.62 49.08,4.40 48.96,4.17 48.91,3.92 48.87,3.68 48.90,3.42 48.94,3.17 49.05,2.95 49.17,2.72 49.35,2.54 49.53,2.36 49.76,2.25 49.98,2.14 50.24,2.11 50.49,2.07 50.74,2.12 50.99,2.17 51.21,2.30 51.43,2.42 51.59,2.61 51.76,2.80 51.86,3.04 51.96,3.27 51.98,3.52 52.00,3.78 51.94,4.02 51.87,4.27 51.74,4.48 51.60,4.70 51.40,4.85 51.20,5.01 50.96,5.10 50.72,5.18 50.47,5.19 50.22,5.19 50.22,5.19 50.22,5.19 47.77,4.84 45.33,4.49 43.43,4.25 41.53,4.01 38.69,3.76 35.85,3.50 33.07,3.29 30.30,3.09 27.21,2.99 24.12,2.90 20.69,2.85 17.27,2.81 14.40,2.67 11.53,2.53 8.97,2.37 6.41,2.21 4.45,2.11 2.49,2.02 1.19,1.85 -0.11,1.67 -0.31,1.63 -0.50,1.60 -0.69,1.51 -0.87,1.43 -1.03,1.30 -1.19,1.18 -1.31,1.02 -1.44,0.85 -1.52,0.67 -1.60,0.48 -1.64,0.29 -1.67,0.09 -1.66,-0.11 -1.65,-0.31 -1.58,-0.50 -1.52,-0.69 -1.42,-0.87 -1.31,-1.04 -1.17,-1.18 -1.02,-1.32 -0.85,-1.43 -0.67,-1.53 -0.48,-1.59 -0.29,-1.65 -0.09,-1.66 0.11,-1.67 0.11,-1.67 L 0.11,-1.67 Z"></path></g><g transform="translate(845.6966057431546 392.29081340803737) rotate(0 9.419667269745275 7.900366097205733)" stroke="none"><path fill="#000000" d="M 2.53,0.54 Q 2.53,0.54 2.28,1.73 2.03,2.93 2.24,4.06 2.45,5.19 3.29,6.81 4.12,8.42 5.03,9.79 5.95,11.16 6.82,11.84 7.69,12.51 8.98,12.62 10.27,12.74 11.63,12.51 12.99,12.29 13.92,11.36 14.85,10.44 15.52,9.19 16.19,7.94 16.36,5.44 16.54,2.95 16.73,2.45 16.93,1.96 17.27,1.55 17.61,1.15 18.07,0.87 18.52,0.59 19.04,0.48 19.56,0.36 20.08,0.42 20.61,0.47 21.10,0.69 21.58,0.92 21.97,1.28 22.35,1.64 22.60,2.11 22.85,2.58 22.94,3.11 23.03,3.63 22.95,4.15 22.86,4.68 22.61,5.15 22.37,5.62 21.98,5.99 21.60,6.35 21.12,6.58 20.64,6.80 20.11,6.86 19.58,6.92 19.06,6.81 18.54,6.70 18.08,6.42 17.63,6.15 17.28,5.75 16.94,5.34 16.74,4.85 16.54,4.36 16.51,3.83 16.48,3.30 16.62,2.78 16.76,2.27 17.06,1.83 17.35,1.39 17.78,1.07 18.20,0.74 18.70,0.57 19.20,0.40 19.74,0.40 20.27,0.40 20.77,0.57 21.27,0.73 21.70,1.05 22.12,1.37 22.42,1.81 22.72,2.25 22.87,2.76 23.01,3.28 22.98,3.81 22.96,4.34 22.96,4.34 22.96,4.34 22.71,6.64 22.46,8.93 21.92,10.39 21.38,11.84 20.52,13.07 19.67,14.30 18.96,15.09 18.24,15.89 17.34,16.53 16.44,17.17 15.43,17.61 14.42,18.05 13.33,18.27 12.23,18.48 10.97,18.52 9.71,18.55 8.39,18.39 7.08,18.23 5.91,17.81 4.75,17.39 3.10,15.88 1.44,14.37 0.52,12.74 -0.40,11.12 -1.08,9.86 -1.77,8.61 -2.16,7.28 -2.55,5.96 -2.81,3.96 -3.08,1.95 -2.80,0.70 -2.53,-0.54 -2.42,-0.83 -2.32,-1.13 -2.15,-1.39 -1.98,-1.65 -1.76,-1.87 -1.53,-2.08 -1.26,-2.23 -0.99,-2.39 -0.69,-2.47 -0.39,-2.55 -0.07,-2.56 0.23,-2.57 0.53,-2.51 0.84,-2.44 1.12,-2.31 1.40,-2.17 1.64,-1.97 1.88,-1.77 2.06,-1.52 2.25,-1.27 2.37,-0.98 2.49,-0.69 2.53,-0.38 2.58,-0.07 2.55,0.23 2.53,0.54 2.53,0.54 L 2.53,0.54 Z"></path></g><g transform="translate(752.1076535147172 430.27334272152643) rotate(0 0.1519301172539258 5.317554103888483)" stroke="none"><path fill="#000000" d="M 2.46,-0.13 Q 2.46,-0.13 2.53,1.43 2.59,3.01 2.66,4.23 2.73,5.45 2.83,8.03 2.93,10.61 2.87,11.03 2.80,11.45 2.60,11.83 2.41,12.21 2.10,12.50 1.79,12.80 1.41,12.98 1.02,13.16 0.60,13.21 0.17,13.26 -0.23,13.17 -0.65,13.08 -1.02,12.86 -1.38,12.65 -1.66,12.32 -1.94,12.00 -2.10,11.61 -2.26,11.21 -2.28,10.79 -2.31,10.36 -2.20,9.95 -2.09,9.54 -1.85,9.19 -1.61,8.83 -1.28,8.57 -0.94,8.31 -0.54,8.17 -0.13,8.04 0.28,8.03 0.71,8.03 1.11,8.16 1.52,8.30 1.86,8.55 2.20,8.81 2.44,9.16 2.68,9.51 2.80,9.92 2.91,10.33 2.89,10.75 2.87,11.18 2.72,11.58 2.56,11.97 2.29,12.30 2.02,12.63 1.65,12.85 1.29,13.07 0.87,13.16 0.46,13.26 0.03,13.21 -0.38,13.17 -0.77,12.99 -1.15,12.82 -1.47,12.53 -1.78,12.24 -1.98,11.86 -2.18,11.49 -2.25,11.07 -2.32,10.65 -2.32,10.65 -2.32,10.65 -2.28,8.13 -2.23,5.60 -2.24,4.44 -2.24,3.27 -2.35,1.70 -2.46,0.13 -2.44,-0.16 -2.42,-0.45 -2.33,-0.74 -2.24,-1.02 -2.09,-1.27 -1.93,-1.53 -1.72,-1.74 -1.51,-1.95 -1.25,-2.10 -1.00,-2.25 -0.71,-2.34 -0.43,-2.43 -0.13,-2.44 0.16,-2.46 0.45,-2.40 0.74,-2.35 1.01,-2.22 1.28,-2.10 1.52,-1.92 1.75,-1.73 1.93,-1.50 2.11,-1.26 2.23,-0.99 2.36,-0.72 2.41,-0.42 2.46,-0.13 2.46,-0.13 L 2.46,-0.13 Z"></path></g><g transform="translate(767.6045254746207 429.96948248701847) rotate(0 -0.30386023450790844 4.5579035176186835)" stroke="none"><path fill="#000000" d="M 2.33,0.22 Q 2.33,0.22 2.09,2.05 1.85,3.87 1.79,6.54 1.73,9.20 1.65,9.57 1.58,9.94 1.38,10.27 1.19,10.60 0.91,10.85 0.63,11.10 0.28,11.24 -0.06,11.39 -0.44,11.42 -0.82,11.44 -1.19,11.35 -1.55,11.25 -1.87,11.04 -2.19,10.83 -2.42,10.54 -2.65,10.24 -2.78,9.88 -2.91,9.53 -2.91,9.15 -2.92,8.77 -2.80,8.41 -2.69,8.05 -2.46,7.74 -2.24,7.44 -1.93,7.22 -1.62,7.00 -1.25,6.89 -0.89,6.79 -0.51,6.80 -0.13,6.82 0.21,6.95 0.56,7.09 0.86,7.33 1.15,7.57 1.35,7.89 1.55,8.21 1.64,8.58 1.72,8.95 1.69,9.33 1.65,9.70 1.50,10.05 1.34,10.39 1.09,10.67 0.83,10.95 0.50,11.13 0.17,11.32 -0.19,11.38 -0.57,11.45 -0.94,11.40 -1.32,11.34 -1.65,11.17 -1.99,11.00 -2.26,10.72 -2.52,10.45 -2.68,10.11 -2.85,9.77 -2.90,9.40 -2.94,9.02 -2.94,9.02 -2.94,9.02 -2.75,6.24 -2.55,3.45 -2.44,1.61 -2.33,-0.22 -2.26,-0.49 -2.20,-0.77 -2.08,-1.02 -1.96,-1.27 -1.77,-1.49 -1.59,-1.71 -1.36,-1.87 -1.14,-2.04 -0.87,-2.15 -0.61,-2.25 -0.33,-2.29 -0.06,-2.33 0.22,-2.31 0.50,-2.28 0.76,-2.19 1.03,-2.09 1.27,-1.94 1.50,-1.79 1.69,-1.58 1.89,-1.37 2.02,-1.13 2.16,-0.88 2.24,-0.61 2.31,-0.34 2.32,-0.05 2.33,0.22 2.33,0.22 L 2.33,0.22 Z"></path></g><g transform="translate(722.9784698517775 502.7908597376297) rotate(0 27.909554364907194 1.2313038690400617)" stroke="none"><path fill="#000000" d="M 0.62,-1.86 Q 0.62,-1.86 2.04,-1.43 3.45,-1.00 12.28,-0.51 21.11,-0.03 27.79,0.22 34.47,0.48 39.43,0.61 44.39,0.74 47.44,0.81 50.49,0.89 53.16,0.80 55.83,0.71 56.11,0.76 56.39,0.81 56.64,0.94 56.88,1.08 57.08,1.28 57.27,1.49 57.38,1.75 57.50,2.01 57.53,2.29 57.56,2.57 57.49,2.84 57.43,3.12 57.28,3.36 57.13,3.60 56.92,3.78 56.70,3.96 56.44,4.06 56.17,4.17 55.89,4.18 55.61,4.19 55.34,4.11 55.07,4.03 54.83,3.87 54.60,3.71 54.43,3.49 54.26,3.26 54.18,2.99 54.09,2.72 54.09,2.44 54.09,2.16 54.19,1.89 54.28,1.63 54.45,1.40 54.63,1.18 54.86,1.02 55.10,0.87 55.37,0.79 55.64,0.72 55.92,0.74 56.21,0.76 56.47,0.86 56.73,0.97 56.94,1.16 57.16,1.34 57.30,1.58 57.44,1.83 57.50,2.10 57.56,2.38 57.52,2.66 57.49,2.94 57.37,3.20 57.25,3.45 57.05,3.65 56.86,3.86 56.61,3.99 56.36,4.12 56.08,4.16 55.80,4.20 55.80,4.20 55.80,4.20 53.13,4.07 50.46,3.93 47.40,3.94 44.34,3.94 39.35,3.92 34.37,3.89 27.65,3.78 20.93,3.66 11.57,3.28 2.20,2.89 0.79,2.37 -0.62,1.86 -0.83,1.76 -1.05,1.66 -1.23,1.51 -1.41,1.36 -1.56,1.17 -1.70,0.98 -1.79,0.76 -1.88,0.54 -1.92,0.31 -1.96,0.08 -1.94,-0.15 -1.92,-0.39 -1.85,-0.61 -1.77,-0.84 -1.65,-1.04 -1.52,-1.24 -1.35,-1.40 -1.18,-1.57 -0.97,-1.69 -0.77,-1.80 -0.54,-1.87 -0.31,-1.94 -0.07,-1.95 0.15,-1.96 0.38,-1.91 0.62,-1.86 0.62,-1.86 L 0.62,-1.86 Z"></path></g><g transform="translate(36.440045764351225 399.64277968517695) rotate(0 112.71808983749759 -62.621161020832005)" stroke="none"><path fill="#000000" d="M 0,-1.76 Q 0,-1.76 17.20,-1.70 34.40,-1.64 53.32,-1.59 72.23,-1.55 91.47,-1.51 110.71,-1.48 127.67,-1.86 144.63,-2.23 159.42,-3.19 174.21,-4.14 182.05,-5.33 189.89,-6.52 194.06,-7.03 198.24,-7.54 199.83,-8.16 201.43,-8.79 201.90,-9.85 202.37,-10.91 202.02,-12.05 201.66,-13.19 200.97,-16.05 200.29,-18.91 199.74,-19.88 199.19,-20.85 198.82,-21.92 198.45,-22.98 197.74,-23.79 197.02,-24.60 196.18,-26.01 195.34,-27.41 194.45,-28.08 193.56,-28.75 192.41,-29.47 191.26,-30.18 189.84,-31.45 188.41,-32.72 187.37,-32.99 186.34,-33.27 185.16,-33.41 183.99,-33.54 182.62,-33.86 181.25,-34.19 181.68,-33.92 182.10,-33.66 181.81,-33.72 181.52,-33.78 181.25,-33.91 180.98,-34.04 180.75,-34.23 180.53,-34.42 180.35,-34.66 180.17,-34.90 180.06,-35.18 179.94,-35.45 179.90,-35.75 179.85,-36.04 179.88,-36.34 179.90,-36.63 180.00,-36.92 180.10,-37.20 180.26,-37.45 180.42,-37.70 180.64,-37.90 180.85,-38.11 181.11,-38.26 181.37,-38.40 181.66,-38.48 181.94,-38.56 182.24,-38.57 182.54,-38.58 183.78,-38.68 185.02,-38.79 186.58,-38.87 188.14,-38.95 189.48,-39.30 190.81,-39.64 192.01,-40.64 193.22,-41.63 194.43,-42.30 195.65,-42.96 195.77,-44.43 195.90,-45.89 195.98,-47.37 196.06,-48.85 195.24,-50.07 194.43,-51.29 192.81,-52.57 191.20,-53.86 190.00,-53.95 188.80,-54.05 187.67,-54.77 186.54,-55.48 184.15,-55.90 181.75,-56.33 180.01,-56.52 178.27,-56.71 176.61,-57.26 174.96,-57.80 173.16,-57.99 171.36,-58.18 170.27,-58.28 169.18,-58.39 168.46,-57.92 167.73,-57.46 167.38,-57.51 167.03,-57.56 166.70,-57.70 166.37,-57.83 166.09,-58.04 165.80,-58.25 165.57,-58.52 165.34,-58.79 165.19,-59.11 165.03,-59.43 164.95,-59.78 164.88,-60.12 164.89,-60.48 164.90,-60.83 164.99,-61.18 165.08,-61.52 165.26,-61.83 165.43,-62.14 165.67,-62.40 165.91,-62.66 166.21,-62.85 166.51,-63.05 166.84,-63.16 167.18,-63.28 167.53,-63.31 167.88,-63.35 170.91,-62.49 173.93,-61.63 177.49,-61.29 181.04,-60.96 185.00,-60.76 188.95,-60.55 191.66,-60.35 194.36,-60.16 195.12,-61.17 195.87,-62.19 195.80,-63.45 195.73,-64.71 195.27,-65.80 194.81,-66.89 194.52,-67.96 194.22,-69.03 193.44,-70.48 192.67,-71.92 191.78,-72.81 190.90,-73.70 189.13,-74.93 187.37,-76.16 186.56,-76.87 185.76,-77.58 184.33,-77.68 182.90,-77.77 180.54,-77.88 178.18,-78.00 177.82,-78.32 177.45,-78.63 177.11,-78.68 176.77,-78.73 176.45,-78.86 176.13,-78.99 175.85,-79.19 175.57,-79.39 175.35,-79.65 175.12,-79.91 174.97,-80.22 174.82,-80.53 174.74,-80.86 174.66,-81.20 174.67,-81.54 174.68,-81.89 174.76,-82.22 174.85,-82.56 175.02,-82.86 175.18,-83.16 175.42,-83.41 175.65,-83.67 175.94,-83.86 176.22,-84.05 176.55,-84.16 176.87,-84.28 177.22,-84.32 177.56,-84.35 179.18,-84.39 180.81,-84.43 183.66,-84.34 186.51,-84.26 189.70,-84.17 192.89,-84.07 197.45,-83.99 202.00,-83.91 205.94,-83.85 209.87,-83.78 213.15,-83.73 216.42,-83.68 220.61,-83.65 224.80,-83.61 227.38,-83.58 229.96,-83.56 231.46,-83.65 232.96,-83.74 235.24,-83.92 237.51,-84.11 238.84,-84.16 240.17,-84.22 241.53,-84.26 242.90,-84.30 244.94,-84.35 246.98,-84.40 247.85,-86.78 248.71,-89.17 249.00,-90.77 249.29,-92.38 249.39,-93.84 249.49,-95.29 249.51,-96.70 249.54,-98.11 249.54,-99.51 249.54,-100.91 249.44,-102.73 249.35,-104.55 249.26,-106.01 249.17,-107.48 249.10,-108.88 249.03,-110.29 248.46,-111.34 247.89,-112.40 246.00,-112.96 244.11,-113.51 243.21,-114.39 242.32,-115.27 241.25,-115.20 240.18,-115.13 238.30,-115.19 236.42,-115.24 234.54,-115.24 232.66,-115.24 230.34,-115.78 228.02,-116.32 225.64,-116.52 223.26,-116.72 221.88,-116.78 220.51,-116.84 219.12,-116.88 217.74,-116.91 216.35,-116.94 214.96,-116.96 212.75,-116.93 210.54,-116.91 208.43,-116.88 206.32,-116.85 205.01,-116.87 203.71,-116.88 201.32,-117.38 198.94,-117.88 197.42,-117.96 195.89,-118.04 194.40,-118.13 192.92,-118.22 191.46,-118.27 190.01,-118.32 187.79,-118.50 185.58,-118.69 183.83,-118.73 182.09,-118.78 178.55,-118.91 175.00,-119.03 171.90,-119.13 168.79,-119.23 164.67,-119.30 160.55,-119.37 158.00,-119.42 155.45,-119.47 153.16,-119.51 150.88,-119.55 149.11,-119.50 147.34,-119.45 146.18,-119.35 145.03,-119.24 143.36,-119.07 141.70,-118.90 140.25,-118.77 138.81,-118.65 137.33,-118.57 135.84,-118.49 134.57,-119.00 133.30,-119.51 131.81,-119.51 130.31,-119.51 129.19,-119.73 128.07,-119.96 127.19,-120.61 126.31,-121.27 124.83,-120.97 123.34,-120.67 121.79,-121.19 120.23,-121.70 117.81,-122.00 115.39,-122.30 108.64,-122.54 101.89,-122.79 94.20,-122.95 86.51,-123.12 75.24,-123.23 63.97,-123.35 51.58,-123.43 39.19,-123.51 30.32,-123.57 21.45,-123.62 13.28,-123.67 5.11,-123.71 -0.35,-123.74 -5.82,-123.77 -10.15,-123.79 -14.47,-123.81 -17.11,-123.83 -19.75,-123.84 -21.27,-123.74 -22.79,-123.65 -24.61,-123.54 -26.44,-123.44 -26.72,-123.49 -27.01,-123.53 -27.27,-123.67 -27.52,-123.81 -27.72,-124.02 -27.92,-124.23 -28.04,-124.49 -28.17,-124.76 -28.20,-125.05 -28.23,-125.33 -28.17,-125.62 -28.10,-125.90 -27.95,-126.15 -27.80,-126.40 -27.58,-126.59 -27.36,-126.78 -27.09,-126.88 -26.82,-126.99 -26.53,-127.01 -26.24,-127.02 -25.96,-126.95 -25.68,-126.87 -25.44,-126.70 -25.20,-126.54 -25.02,-126.31 -24.85,-126.08 -24.75,-125.80 -24.66,-125.53 -24.66,-125.24 -24.66,-124.95 -24.76,-124.67 -24.85,-124.40 -25.02,-124.16 -25.20,-123.93 -25.44,-123.77 -25.68,-123.61 -25.96,-123.53 -26.24,-123.45 -26.53,-123.47 -26.82,-123.48 -27.09,-123.59 -27.36,-123.70 -27.58,-123.89 -27.80,-124.07 -27.95,-124.32 -28.10,-124.57 -28.17,-124.86 -28.23,-125.14 -28.20,-125.43 -28.17,-125.72 -28.04,-125.98 -27.92,-126.25 -27.72,-126.46 -27.52,-126.67 -27.26,-126.80 -27.01,-126.94 -26.72,-126.99 -26.43,-127.03 -26.43,-127.03 -26.44,-127.03 -24.61,-126.93 -22.79,-126.83 -21.27,-126.73 -19.75,-126.63 -17.11,-126.65 -14.47,-126.66 -10.15,-126.69 -5.82,-126.71 -0.35,-126.74 5.11,-126.76 13.28,-126.80 21.45,-126.84 30.32,-126.90 39.19,-126.95 51.58,-127.02 63.98,-127.09 75.25,-127.17 86.53,-127.26 94.24,-127.37 101.94,-127.47 108.83,-127.57 115.72,-127.67 119.02,-127.62 122.33,-127.57 123.65,-127.25 124.98,-126.93 126.66,-126.72 128.35,-126.50 129.46,-125.90 130.57,-125.31 132.22,-125.10 133.88,-124.90 135.03,-124.27 136.18,-123.64 137.50,-123.56 138.81,-123.48 140.25,-123.35 141.70,-123.22 143.36,-123.05 145.03,-122.88 146.18,-122.78 147.34,-122.67 149.11,-122.63 150.88,-122.58 153.16,-122.62 155.45,-122.65 158.00,-122.71 160.55,-122.76 164.67,-122.83 168.79,-122.90 171.90,-122.99 175.01,-123.09 178.55,-123.21 182.09,-123.34 183.84,-123.38 185.59,-123.42 187.82,-123.60 190.06,-123.77 191.54,-123.79 193.03,-123.81 195.67,-123.74 198.32,-123.66 199.87,-123.36 201.42,-123.07 202.56,-122.76 203.71,-122.46 205.01,-122.47 206.32,-122.49 208.43,-122.46 210.54,-122.43 212.76,-122.40 214.98,-122.37 216.38,-122.38 217.79,-122.39 219.21,-122.40 220.63,-122.41 222.08,-122.41 223.54,-122.41 225.08,-122.37 226.63,-122.34 229.65,-121.82 232.68,-121.31 233.82,-121.31 234.97,-121.32 236.68,-121.26 238.40,-121.19 240.69,-120.98 242.99,-120.76 244.80,-119.74 246.61,-118.71 247.64,-118.32 248.66,-117.93 250.32,-117.23 251.97,-116.53 252.80,-115.54 253.63,-114.55 254.17,-112.42 254.71,-110.29 254.64,-108.88 254.57,-107.47 254.48,-106.00 254.38,-104.52 254.26,-102.68 254.14,-100.84 254.10,-99.40 254.05,-97.96 253.98,-96.45 253.90,-94.95 253.76,-93.32 253.62,-91.68 253.35,-89.78 253.07,-87.88 251.47,-84.40 249.86,-80.91 248.73,-80.35 247.60,-79.80 245.25,-79.85 242.90,-79.89 241.53,-79.94 240.17,-79.98 238.84,-80.03 237.51,-80.09 235.24,-80.27 232.96,-80.45 231.46,-80.55 229.96,-80.64 227.38,-80.61 224.80,-80.58 220.61,-80.54 216.42,-80.51 213.15,-80.45 209.88,-80.40 205.95,-80.32 202.01,-80.25 197.47,-80.14 192.93,-80.03 189.78,-79.88 186.63,-79.72 183.97,-79.49 181.31,-79.25 179.38,-78.94 177.45,-78.63 177.11,-78.68 176.77,-78.73 176.45,-78.86 176.13,-78.99 175.85,-79.19 175.57,-79.39 175.35,-79.65 175.12,-79.91 174.97,-80.22 174.82,-80.53 174.74,-80.86 174.66,-81.20 174.67,-81.54 174.68,-81.89 174.76,-82.22 174.85,-82.55 175.02,-82.86 175.18,-83.16 175.42,-83.41 175.65,-83.67 175.94,-83.86 176.22,-84.05 176.55,-84.16 176.87,-84.28 177.22,-84.32 177.56,-84.35 178.25,-83.85 178.94,-83.35 180.07,-83.38 181.19,-83.42 182.28,-83.35 183.36,-83.27 185.27,-83.10 187.19,-82.92 188.31,-82.35 189.43,-81.77 190.87,-80.46 192.31,-79.16 193.64,-78.22 194.97,-77.28 195.65,-76.43 196.33,-75.58 196.99,-74.00 197.65,-72.42 198.33,-70.41 199.01,-68.41 199.50,-66.89 200.00,-65.37 200.01,-63.66 200.03,-61.94 199.25,-60.74 198.47,-59.54 196.76,-58.19 195.05,-56.83 191.96,-56.71 188.87,-56.58 184.83,-56.55 180.80,-56.51 176.85,-56.58 172.90,-56.64 170.32,-57.05 167.74,-57.46 167.38,-57.51 167.03,-57.56 166.70,-57.70 166.38,-57.83 166.09,-58.04 165.80,-58.25 165.57,-58.52 165.34,-58.79 165.19,-59.11 165.03,-59.43 164.95,-59.78 164.88,-60.12 164.89,-60.48 164.89,-60.83 164.99,-61.18 165.08,-61.52 165.26,-61.83 165.43,-62.14 165.67,-62.40 165.91,-62.66 166.21,-62.85 166.51,-63.05 166.84,-63.16 167.18,-63.28 167.53,-63.31 167.88,-63.35 168.28,-63.66 168.67,-63.97 170.21,-64.00 171.74,-64.04 173.13,-63.95 174.52,-63.86 176.62,-63.29 178.71,-62.72 180.09,-62.63 181.47,-62.55 183.49,-61.98 185.50,-61.42 186.89,-61.28 188.27,-61.15 189.21,-60.45 190.15,-59.75 191.39,-59.67 192.63,-59.59 194.25,-58.66 195.87,-57.72 196.96,-56.95 198.04,-56.18 198.85,-55.06 199.65,-53.95 200.23,-52.85 200.80,-51.76 201.31,-50.37 201.81,-48.98 201.65,-46.99 201.48,-44.99 201.19,-43.39 200.90,-41.79 199.95,-40.16 199.00,-38.53 197.96,-37.85 196.92,-37.17 196.01,-36.45 195.11,-35.72 193.94,-35.01 192.78,-34.31 190.47,-33.85 188.15,-33.40 186.60,-33.47 185.06,-33.55 183.58,-33.60 182.10,-33.66 181.81,-33.72 181.52,-33.78 181.25,-33.91 180.98,-34.04 180.76,-34.23 180.53,-34.42 180.35,-34.66 180.17,-34.90 180.06,-35.18 179.94,-35.45 179.90,-35.75 179.85,-36.04 179.88,-36.34 179.90,-36.63 180.00,-36.92 180.10,-37.20 180.26,-37.45 180.42,-37.70 180.64,-37.90 180.85,-38.11 181.11,-38.25 181.37,-38.40 181.66,-38.48 181.94,-38.56 182.24,-38.57 182.54,-38.58 183.61,-38.39 184.68,-38.20 186.28,-37.92 187.87,-37.65 189.58,-36.95 191.28,-36.26 192.55,-35.24 193.81,-34.22 195.23,-33.33 196.64,-32.43 198.02,-31.19 199.40,-29.95 200.13,-28.74 200.86,-27.54 202.10,-25.21 203.34,-22.89 203.99,-21.45 204.65,-20.01 205.21,-17.69 205.78,-15.36 206.20,-14.13 206.62,-12.90 206.21,-11.12 205.80,-9.33 205.20,-8.43 204.60,-7.53 203.53,-6.80 202.46,-6.07 200.53,-5.46 198.59,-4.84 194.45,-4.32 190.31,-3.80 182.35,-2.57 174.40,-1.33 159.55,-0.34 144.70,0.63 127.71,1.06 110.71,1.48 91.47,1.51 72.23,1.55 53.32,1.59 34.40,1.64 17.20,1.70 0,1.76 -0.21,1.73 -0.42,1.71 -0.62,1.63 -0.81,1.56 -0.99,1.44 -1.16,1.32 -1.31,1.16 -1.45,1.00 -1.55,0.81 -1.64,0.62 -1.69,0.41 -1.75,0.21 -1.75,-0.00 -1.75,-0.21 -1.69,-0.41 -1.64,-0.62 -1.55,-0.81 -1.45,-1.00 -1.31,-1.16 -1.16,-1.32 -0.99,-1.44 -0.81,-1.56 -0.62,-1.63 -0.42,-1.71 -0.21,-1.73 0.00,-1.76 0.00,-1.76 L 0,-1.76 Z"></path></g><g stroke-opacity="0.4" fill-opacity="0.4" transform="translate(76.79590508888691 11.391581356018378) rotate(0 4.870534746064777 57.05483559675804)" stroke="none"><path fill="#495057" d="M 1.57,-0.24 Q 1.57,-0.24 2.74,7.35 3.90,14.96 4.79,24.64 5.67,34.32 6.04,43.26 6.41,52.19 6.96,60.35 7.51,68.52 8.14,76.39 8.77,84.26 9.43,90.79 10.09,97.33 10.37,101.74 10.65,106.15 10.77,108.82 10.89,111.50 11.01,113.47 11.13,115.43 11.11,115.66 11.08,115.88 10.99,116.09 10.89,116.29 10.73,116.46 10.57,116.62 10.37,116.72 10.17,116.83 9.95,116.86 9.72,116.90 9.50,116.86 9.28,116.82 9.08,116.71 8.88,116.60 8.72,116.44 8.57,116.27 8.48,116.07 8.38,115.86 8.36,115.63 8.34,115.41 8.39,115.19 8.44,114.97 8.56,114.77 8.68,114.58 8.85,114.44 9.02,114.29 9.24,114.21 9.45,114.13 9.67,114.12 9.90,114.11 10.12,114.17 10.34,114.23 10.52,114.36 10.71,114.49 10.84,114.67 10.98,114.85 11.05,115.07 11.12,115.28 11.12,115.51 11.12,115.73 11.04,115.95 10.97,116.16 10.83,116.34 10.69,116.52 10.50,116.65 10.31,116.77 10.09,116.83 9.88,116.89 9.65,116.88 9.42,116.86 9.21,116.78 9.00,116.69 8.83,116.54 8.66,116.39 8.55,116.20 8.43,116.00 8.38,115.78 8.34,115.56 8.34,115.56 8.34,115.56 8.28,113.59 8.22,111.62 8.10,108.97 7.97,106.32 7.68,101.96 7.39,97.60 6.71,91.04 6.03,84.48 5.38,76.59 4.73,68.71 4.15,60.51 3.57,52.31 3.16,43.46 2.76,34.60 1.83,25.02 0.89,15.44 -0.34,7.84 -1.57,0.24 -1.58,0.05 -1.59,-0.13 -1.55,-0.32 -1.51,-0.51 -1.43,-0.68 -1.34,-0.86 -1.22,-1.00 -1.10,-1.15 -0.94,-1.27 -0.79,-1.38 -0.61,-1.46 -0.43,-1.53 -0.24,-1.56 -0.05,-1.59 0.13,-1.58 0.32,-1.56 0.50,-1.50 0.69,-1.44 0.85,-1.33 1.01,-1.23 1.15,-1.09 1.28,-0.95 1.37,-0.78 1.47,-0.62 1.52,-0.43 1.57,-0.24 1.57,-0.24 L 1.57,-0.24 Z"></path></g><g stroke-opacity="0.4" fill-opacity="0.4" transform="translate(35.04846440833239 12.783162712036983) rotate(0 48.70534746064703 0.6957906780091889)" stroke="none"><path fill="#495057" d="M 0,-1.64 Q 0,-1.64 2.80,-1.60 5.60,-1.55 15.62,-1.12 25.64,-0.68 35.47,-0.49 45.30,-0.30 55.48,-0.21 65.66,-0.12 74.39,-0.07 83.11,-0.03 87.56,-0.40 92.01,-0.78 95.35,-1.06 98.68,-1.34 98.90,-1.32 99.12,-1.31 99.32,-1.22 99.52,-1.13 99.68,-0.99 99.84,-0.84 99.95,-0.66 100.06,-0.47 100.10,-0.25 100.15,-0.04 100.12,0.17 100.09,0.39 99.99,0.58 99.90,0.78 99.74,0.93 99.59,1.09 99.39,1.18 99.20,1.28 98.98,1.31 98.77,1.34 98.55,1.30 98.34,1.26 98.15,1.16 97.96,1.05 97.81,0.89 97.66,0.73 97.58,0.53 97.49,0.33 97.47,0.11 97.45,-0.10 97.50,-0.31 97.56,-0.52 97.67,-0.71 97.79,-0.89 97.96,-1.03 98.13,-1.17 98.33,-1.24 98.54,-1.32 98.76,-1.33 98.97,-1.33 99.18,-1.27 99.39,-1.21 99.57,-1.08 99.75,-0.95 99.88,-0.78 100.00,-0.60 100.07,-0.39 100.13,-0.18 100.13,0.03 100.12,0.24 100.05,0.45 99.97,0.65 99.84,0.82 99.70,1.00 99.52,1.11 99.34,1.23 99.12,1.29 98.91,1.34 98.91,1.34 98.91,1.34 95.58,1.63 92.25,1.92 87.68,2.32 83.10,2.72 74.37,2.70 65.64,2.69 55.44,2.63 45.25,2.58 35.39,2.43 25.52,2.28 15.56,1.92 5.60,1.55 2.80,1.60 0,1.64 -0.19,1.62 -0.39,1.59 -0.57,1.52 -0.76,1.45 -0.92,1.34 -1.09,1.23 -1.22,1.08 -1.35,0.93 -1.44,0.75 -1.53,0.58 -1.58,0.39 -1.63,0.19 -1.63,-0.00 -1.63,-0.19 -1.58,-0.39 -1.53,-0.58 -1.44,-0.75 -1.35,-0.93 -1.22,-1.08 -1.09,-1.23 -0.92,-1.34 -0.76,-1.45 -0.57,-1.52 -0.39,-1.59 -0.19,-1.62 0.00,-1.64 0.00,-1.64 L 0,-1.64 Z"></path></g><g stroke-opacity="0.4" fill-opacity="0.4" transform="translate(119.93492712546004 78.18748644490597) rotate(0 0.6957906780093026 22.961092374305053)" stroke="none"><path fill="#495057" d="M 2.00,0 Q 2.00,0 1.90,2.40 1.81,4.80 2.14,10.56 2.47,16.32 2.59,21.63 2.72,26.94 2.75,30.79 2.79,34.64 2.79,37.08 2.80,39.52 2.91,40.95 3.02,42.39 3.13,44.15 3.24,45.91 3.19,46.20 3.14,46.50 3.00,46.76 2.87,47.03 2.65,47.24 2.43,47.44 2.16,47.57 1.89,47.70 1.59,47.73 1.30,47.77 1.00,47.70 0.71,47.64 0.45,47.49 0.20,47.33 0.00,47.11 -0.18,46.88 -0.30,46.60 -0.41,46.32 -0.43,46.03 -0.44,45.73 -0.37,45.44 -0.29,45.15 -0.12,44.90 0.04,44.65 0.27,44.47 0.51,44.29 0.79,44.19 1.08,44.09 1.38,44.09 1.68,44.09 1.96,44.18 2.24,44.28 2.48,44.46 2.72,44.64 2.89,44.88 3.06,45.13 3.14,45.42 3.23,45.71 3.21,46.01 3.20,46.31 3.09,46.58 2.98,46.86 2.78,47.09 2.59,47.32 2.34,47.48 2.08,47.63 1.79,47.70 1.50,47.76 1.20,47.73 0.90,47.70 0.63,47.58 0.36,47.45 0.14,47.25 -0.07,47.04 -0.21,46.78 -0.35,46.52 -0.40,46.22 -0.45,45.93 -0.45,45.93 -0.45,45.93 -0.37,44.17 -0.28,42.42 -0.19,40.99 -0.10,39.56 -0.16,37.13 -0.22,34.70 -0.33,30.87 -0.44,27.04 -0.65,21.80 -0.87,16.55 -1.34,10.67 -1.81,4.80 -1.90,2.40 -2.00,0 -1.97,-0.23 -1.94,-0.47 -1.85,-0.70 -1.77,-0.93 -1.63,-1.12 -1.49,-1.32 -1.31,-1.48 -1.13,-1.64 -0.92,-1.75 -0.70,-1.87 -0.47,-1.92 -0.24,-1.98 0.00,-1.98 0.24,-1.98 0.47,-1.92 0.71,-1.87 0.92,-1.75 1.13,-1.64 1.31,-1.48 1.49,-1.32 1.63,-1.12 1.77,-0.93 1.85,-0.70 1.94,-0.47 1.97,-0.23 2.00,0.00 2.00,0.00 L 2.00,0 Z"></path></g><g stroke-opacity="0.4" fill-opacity="0.4" transform="translate(125.501252549534 108.80227627731256) rotate(0 -6.262116102083155 5.566325424073966)" stroke="none"><path fill="#495057" d="M 0.61,-2.45 Q 0.61,-2.45 2.37,-1.89 4.13,-1.33 5.39,0.02 6.65,1.39 7.09,3.51 7.53,5.62 7.26,7.20 7.00,8.78 6.23,10.11 5.46,11.44 3.92,12.26 2.38,13.08 0.88,13.31 -0.62,13.54 -2.49,13.71 -4.36,13.87 -5.96,13.42 -7.57,12.96 -9.22,12.31 -10.87,11.65 -12.19,10.92 -13.51,10.20 -16.01,9.88 -18.51,9.56 -18.92,9.43 -19.32,9.29 -19.66,9.03 -20.00,8.77 -20.24,8.42 -20.48,8.07 -20.60,7.65 -20.71,7.24 -20.69,6.82 -20.67,6.39 -20.51,5.99 -20.35,5.59 -20.08,5.27 -19.80,4.94 -19.43,4.72 -19.07,4.50 -18.65,4.40 -18.23,4.31 -17.81,4.36 -17.38,4.40 -16.99,4.58 -16.60,4.76 -16.29,5.06 -15.98,5.35 -15.78,5.73 -15.58,6.11 -15.51,6.53 -15.44,6.95 -15.51,7.37 -15.58,7.79 -15.78,8.17 -15.98,8.55 -16.29,8.85 -16.60,9.14 -16.99,9.32 -17.37,9.50 -17.80,9.55 -18.23,9.59 -18.64,9.50 -19.06,9.41 -19.43,9.19 -19.80,8.97 -20.07,8.64 -20.35,8.32 -20.51,7.92 -20.67,7.52 -20.69,7.10 -20.72,6.67 -20.60,6.26 -20.49,5.85 -20.25,5.49 -20.01,5.14 -19.67,4.88 -19.33,4.62 -18.92,4.48 -18.52,4.34 -18.09,4.34 -17.66,4.34 -17.66,4.34 -17.66,4.34 -14.34,4.97 -11.01,5.60 -10.10,6.15 -9.19,6.71 -6.81,7.50 -4.42,8.30 -2.85,8.28 -1.29,8.25 0.17,8.26 1.63,8.27 2.18,7.28 2.74,6.30 2.50,4.62 2.26,2.93 0.82,2.69 -0.61,2.45 -0.89,2.34 -1.18,2.23 -1.43,2.06 -1.68,1.88 -1.88,1.66 -2.08,1.43 -2.22,1.16 -2.37,0.88 -2.44,0.59 -2.51,0.29 -2.51,-0.00 -2.51,-0.31 -2.43,-0.60 -2.36,-0.90 -2.22,-1.17 -2.07,-1.44 -1.87,-1.67 -1.67,-1.90 -1.42,-2.07 -1.16,-2.24 -0.88,-2.35 -0.59,-2.46 -0.29,-2.49 0.00,-2.53 0.31,-2.49 0.61,-2.45 0.61,-2.45 L 0.61,-2.45 Z"></path></g><g stroke-opacity="0.4" fill-opacity="0.4" transform="translate(150.54971695786685 79.57906780092435) rotate(0 2.783162712036983 25.048464408332848)" stroke="none"><path fill="#495057" d="M 1.95,0 Q 1.95,0 1.87,3.20 1.78,6.40 1.72,10.16 1.65,13.92 1.61,18.31 1.56,22.71 2.31,27.26 3.07,31.80 4.16,35.29 5.25,38.79 5.74,41.19 6.22,43.59 6.54,45.00 6.86,46.41 7.12,48.17 7.38,49.93 7.35,50.23 7.33,50.52 7.22,50.79 7.10,51.06 6.91,51.28 6.71,51.50 6.46,51.65 6.20,51.80 5.91,51.86 5.62,51.91 5.33,51.88 5.04,51.84 4.77,51.71 4.51,51.58 4.30,51.37 4.09,51.17 3.96,50.90 3.82,50.64 3.78,50.35 3.74,50.06 3.79,49.77 3.85,49.48 3.99,49.22 4.13,48.96 4.35,48.76 4.57,48.56 4.84,48.45 5.11,48.33 5.40,48.30 5.70,48.27 5.98,48.34 6.27,48.41 6.52,48.57 6.77,48.73 6.96,48.96 7.14,49.18 7.24,49.46 7.35,49.74 7.36,50.03 7.37,50.33 7.28,50.61 7.20,50.89 7.03,51.13 6.86,51.37 6.62,51.55 6.38,51.72 6.10,51.81 5.82,51.90 5.52,51.89 5.23,51.88 4.95,51.78 4.68,51.68 4.44,51.50 4.21,51.32 4.05,51.07 3.89,50.82 3.82,50.54 3.75,50.25 3.75,50.25 3.75,50.25 3.70,48.57 3.65,46.89 3.56,45.52 3.47,44.16 2.98,41.91 2.50,39.66 1.31,35.99 0.12,32.31 -0.71,27.51 -1.56,22.72 -1.61,18.32 -1.65,13.92 -1.72,10.16 -1.78,6.40 -1.87,3.20 -1.95,0 -1.92,-0.23 -1.90,-0.46 -1.81,-0.68 -1.73,-0.90 -1.59,-1.10 -1.46,-1.29 -1.28,-1.45 -1.11,-1.61 -0.90,-1.72 -0.69,-1.83 -0.46,-1.88 -0.23,-1.94 0.00,-1.94 0.23,-1.94 0.46,-1.88 0.69,-1.83 0.90,-1.72 1.11,-1.61 1.28,-1.45 1.46,-1.29 1.59,-1.10 1.73,-0.90 1.81,-0.68 1.90,-0.46 1.92,-0.23 1.95,0.00 1.95,0.00 L 1.95,0 Z"></path></g><g stroke-opacity="0.4" fill-opacity="0.4" transform="translate(236.8277610310131 117.1517644134235) rotate(0 -2.0873720340276805 -14.611604238194104)" stroke="none"><path fill="#495057" d="M -1.75,0 Q -1.75,0 -1.69,-2.39 -1.63,-4.79 -1.98,-7.71 -2.33,-10.63 -2.87,-13.89 -3.40,-17.15 -4.02,-20.54 -4.63,-23.93 -5.09,-26.44 -5.55,-28.96 -5.55,-29.18 -5.56,-29.41 -5.49,-29.63 -5.43,-29.85 -5.29,-30.03 -5.16,-30.21 -4.98,-30.35 -4.79,-30.48 -4.57,-30.54 -4.36,-30.61 -4.13,-30.60 -3.90,-30.60 -3.69,-30.52 -3.48,-30.44 -3.30,-30.30 -3.12,-30.15 -3.00,-29.96 -2.88,-29.77 -2.82,-29.55 -2.77,-29.33 -2.79,-29.10 -2.81,-28.88 -2.90,-28.67 -2.99,-28.46 -3.14,-28.29 -3.29,-28.12 -3.49,-28.01 -3.69,-27.90 -3.91,-27.86 -4.14,-27.81 -4.36,-27.85 -4.59,-27.88 -4.79,-27.98 -4.99,-28.08 -5.15,-28.24 -5.31,-28.40 -5.41,-28.61 -5.51,-28.81 -5.54,-29.04 -5.57,-29.26 -5.53,-29.48 -5.49,-29.71 -5.37,-29.90 -5.26,-30.10 -5.09,-30.25 -4.92,-30.40 -4.71,-30.49 -4.50,-30.58 -4.28,-30.60 -4.05,-30.62 -3.83,-30.56 -3.61,-30.51 -3.42,-30.38 -3.23,-30.26 -3.09,-30.08 -2.95,-29.91 -2.87,-29.69 -2.79,-29.48 -2.79,-29.48 -2.79,-29.48 -2.30,-26.97 -1.81,-24.47 -1.14,-21.06 -0.47,-17.66 0.12,-14.35 0.73,-11.04 1.18,-7.92 1.63,-4.80 1.69,-2.40 1.75,0 1.73,0.21 1.70,0.42 1.63,0.61 1.55,0.81 1.43,0.99 1.31,1.16 1.15,1.30 0.99,1.44 0.81,1.54 0.62,1.64 0.41,1.69 0.21,1.74 -0.00,1.74 -0.21,1.74 -0.41,1.69 -0.62,1.64 -0.81,1.54 -0.99,1.44 -1.15,1.30 -1.31,1.16 -1.43,0.99 -1.55,0.81 -1.63,0.61 -1.70,0.42 -1.73,0.21 -1.75,-0.00 -1.75,-0.00 L -1.75,0 Z"></path></g><g stroke-opacity="0.4" fill-opacity="0.4" transform="translate(213.17087797869885 75.40432373286899) rotate(0 22.26530169629575 -1.3915813560184915)" stroke="none"><path fill="#495057" d="M -0.10,-1.75 Q -0.10,-1.75 6.29,-2.09 12.70,-2.43 18.24,-2.56 23.79,-2.68 28.89,-3.12 34.00,-3.56 37.01,-3.74 40.01,-3.92 42.22,-4.05 44.43,-4.18 44.66,-4.16 44.88,-4.14 45.09,-4.04 45.30,-3.95 45.47,-3.80 45.63,-3.64 45.74,-3.44 45.85,-3.24 45.89,-3.02 45.93,-2.80 45.90,-2.57 45.86,-2.35 45.76,-2.14 45.65,-1.94 45.49,-1.78 45.33,-1.63 45.12,-1.53 44.92,-1.43 44.69,-1.40 44.47,-1.38 44.25,-1.42 44.02,-1.47 43.83,-1.58 43.63,-1.70 43.48,-1.87 43.33,-2.04 43.25,-2.25 43.16,-2.46 43.14,-2.69 43.13,-2.91 43.19,-3.13 43.24,-3.35 43.37,-3.54 43.49,-3.73 43.67,-3.87 43.85,-4.01 44.07,-4.09 44.28,-4.16 44.51,-4.16 44.74,-4.17 44.95,-4.10 45.17,-4.03 45.35,-3.89 45.53,-3.76 45.66,-3.57 45.79,-3.38 45.86,-3.17 45.92,-2.95 45.91,-2.72 45.90,-2.49 45.82,-2.28 45.74,-2.07 45.59,-1.89 45.45,-1.72 45.25,-1.60 45.06,-1.48 44.84,-1.43 44.62,-1.38 44.62,-1.38 44.62,-1.38 42.41,-1.21 40.21,-1.05 37.24,-0.82 34.27,-0.60 29.08,-0.09 23.89,0.40 18.39,0.62 12.90,0.83 6.50,1.29 0.10,1.75 -0.10,1.74 -0.31,1.73 -0.51,1.66 -0.71,1.60 -0.90,1.49 -1.08,1.38 -1.23,1.23 -1.38,1.08 -1.49,0.90 -1.60,0.72 -1.66,0.52 -1.72,0.32 -1.74,0.10 -1.75,-0.10 -1.71,-0.31 -1.68,-0.51 -1.59,-0.71 -1.50,-0.90 -1.37,-1.07 -1.24,-1.24 -1.07,-1.37 -0.91,-1.50 -0.71,-1.59 -0.52,-1.67 -0.31,-1.71 -0.10,-1.75 -0.10,-1.75 L -0.10,-1.75 Z"></path></g><g stroke-opacity="0.4" fill-opacity="0.4" transform="translate(267.4425508634199 92.10330000509066) rotate(0 9.741069492129327 8.349488136111063)" stroke="none"><path fill="#495057" d="M 0.46,-1.86 Q 0.46,-1.86 2.04,-1.48 3.63,-1.11 5.04,-1.26 6.46,-1.41 7.57,-2.44 8.68,-3.46 8.14,-4.87 7.59,-6.28 5.86,-6.92 4.14,-7.55 3.92,-4.95 3.69,-2.36 3.50,0.70 3.30,3.77 3.19,6.68 3.08,9.58 4.15,13.35 5.22,17.12 7.90,19.35 10.57,21.59 12.82,22.56 15.06,23.54 17.01,23.53 18.96,23.53 19.22,23.48 19.47,23.44 19.73,23.48 19.99,23.52 20.21,23.65 20.44,23.77 20.62,23.95 20.80,24.14 20.91,24.38 21.02,24.61 21.05,24.87 21.08,25.13 21.02,25.38 20.97,25.63 20.83,25.86 20.70,26.08 20.50,26.25 20.31,26.41 20.06,26.51 19.82,26.61 19.57,26.62 19.31,26.64 19.06,26.57 18.81,26.50 18.59,26.35 18.38,26.21 18.22,26.00 18.06,25.80 17.98,25.55 17.90,25.31 17.90,25.05 17.90,24.79 17.98,24.54 18.06,24.30 18.22,24.09 18.37,23.88 18.59,23.74 18.80,23.59 19.05,23.52 19.30,23.45 19.56,23.47 19.82,23.48 20.06,23.57 20.30,23.67 20.50,23.84 20.70,24.00 20.83,24.23 20.96,24.45 21.02,24.70 21.08,24.95 21.05,25.21 21.02,25.47 20.91,25.70 20.80,25.94 20.63,26.13 20.45,26.32 20.22,26.44 19.99,26.56 19.99,26.56 19.99,26.56 16.95,26.36 13.91,26.16 11.29,25.00 8.67,23.83 5.55,21.02 2.42,18.21 1.14,13.89 -0.14,9.57 -0.14,6.60 -0.15,3.64 -0.09,0.43 -0.04,-2.77 0.39,-5.95 0.83,-9.13 2.15,-10.01 3.47,-10.90 5.81,-10.46 8.16,-10.03 9.40,-8.77 10.64,-7.51 11.13,-5.08 11.63,-2.64 9.54,-0.27 7.46,2.09 5.11,2.40 2.77,2.71 1.15,2.28 -0.46,1.86 -0.68,1.78 -0.89,1.69 -1.08,1.56 -1.28,1.43 -1.43,1.26 -1.58,1.08 -1.69,0.88 -1.80,0.67 -1.85,0.45 -1.90,0.22 -1.90,-0.00 -1.90,-0.23 -1.85,-0.46 -1.79,-0.68 -1.68,-0.89 -1.57,-1.09 -1.42,-1.27 -1.27,-1.44 -1.07,-1.57 -0.88,-1.70 -0.67,-1.78 -0.45,-1.86 -0.22,-1.89 0.00,-1.92 0.23,-1.89 0.46,-1.86 0.46,-1.86 L 0.46,-1.86 Z"></path></g><g stroke-opacity="0.4" fill-opacity="0.4" transform="translate(313.36473561203 110.19385763333116) rotate(0 7.653697458101533 -16.6989762722219)" stroke="none"><path fill="#495057" d="M -1.65,1.10 Q -1.65,1.10 -2.50,-0.08 -3.34,-1.28 -3.86,-2.88 -4.38,-4.48 -4.53,-6.42 -4.68,-8.36 -5.02,-11.03 -5.37,-13.71 -5.88,-16.87 -6.40,-20.04 -6.99,-23.39 -7.59,-26.74 -7.83,-29.02 -8.07,-31.31 -8.27,-32.78 -8.46,-34.24 -7.63,-35.53 -6.80,-36.81 -3.45,-36.79 -0.09,-36.77 5.12,-36.64 10.34,-36.52 12.99,-36.44 15.63,-36.37 17.29,-35.72 18.95,-35.07 19.66,-32.53 20.38,-30.00 20.55,-26.14 20.73,-22.28 20.78,-19.48 20.84,-16.68 20.85,-13.88 20.86,-11.09 20.86,-7.90 20.86,-4.71 20.91,-3.03 20.95,-1.36 22.33,0.20 23.70,1.77 23.82,2.02 23.95,2.28 23.98,2.56 24.02,2.85 23.96,3.12 23.90,3.40 23.76,3.65 23.62,3.90 23.40,4.08 23.19,4.27 22.93,4.38 22.67,4.49 22.38,4.51 22.10,4.53 21.82,4.46 21.55,4.39 21.31,4.23 21.07,4.07 20.90,3.85 20.72,3.63 20.62,3.36 20.53,3.09 20.53,2.81 20.52,2.52 20.61,2.25 20.69,1.98 20.86,1.75 21.03,1.52 21.26,1.36 21.50,1.19 21.77,1.11 22.04,1.03 22.33,1.04 22.61,1.06 22.88,1.16 23.14,1.26 23.36,1.44 23.58,1.62 23.73,1.86 23.88,2.10 23.95,2.38 24.01,2.66 23.99,2.94 23.96,3.22 23.85,3.48 23.73,3.74 23.54,3.95 23.35,4.16 23.10,4.30 22.85,4.44 22.57,4.49 22.29,4.54 22.01,4.49 21.72,4.45 21.47,4.32 21.22,4.19 21.02,3.99 20.82,3.79 20.82,3.79 20.82,3.79 19.40,1.37 17.98,-1.03 18.02,-2.86 18.05,-4.69 18.02,-7.87 17.98,-11.05 17.92,-13.82 17.86,-16.59 17.75,-19.35 17.63,-22.12 17.40,-25.71 17.17,-29.30 16.35,-31.29 15.54,-33.28 12.92,-33.27 10.30,-33.25 5.01,-33.26 -0.27,-33.26 -2.68,-33.70 -5.09,-34.13 -5.05,-32.91 -5.01,-31.69 -4.70,-29.53 -4.39,-27.37 -3.68,-24.02 -2.96,-20.68 -2.29,-17.51 -1.61,-14.34 -1.03,-11.52 -0.45,-8.70 -0.15,-6.11 0.14,-3.51 0.90,-2.31 1.65,-1.10 1.76,-0.88 1.87,-0.67 1.92,-0.44 1.97,-0.20 1.97,0.03 1.97,0.27 1.90,0.50 1.84,0.73 1.73,0.94 1.61,1.15 1.45,1.33 1.29,1.50 1.09,1.64 0.89,1.77 0.67,1.85 0.44,1.93 0.20,1.96 -0.03,1.98 -0.26,1.95 -0.50,1.92 -0.73,1.83 -0.95,1.74 -1.14,1.60 -1.34,1.46 -1.49,1.28 -1.65,1.10 -1.65,1.10 L -1.65,1.10 Z"></path></g><g stroke-opacity="0.4" fill-opacity="0.4" transform="translate(360.6785017166585 104.6275322092572) rotate(0 2.783162712036983 -18.78634830624958)" stroke="none"><path fill="#495057" d="M -1.76,0.25 Q -1.76,0.25 -2.09,-2.55 -2.43,-5.36 -4.13,-10.83 -5.82,-16.31 -6.95,-20.31 -8.07,-24.32 -8.95,-28.05 -9.83,-31.79 -9.61,-33.97 -9.39,-36.16 -7.58,-37.16 -5.78,-38.16 -1.24,-38.45 3.30,-38.74 6.34,-38.82 9.38,-38.91 12.32,-39.10 15.25,-39.30 15.53,-39.26 15.81,-39.23 16.06,-39.10 16.31,-38.98 16.51,-38.78 16.71,-38.58 16.83,-38.33 16.96,-38.08 17.00,-37.80 17.03,-37.53 16.98,-37.25 16.93,-36.98 16.79,-36.73 16.66,-36.49 16.45,-36.30 16.24,-36.11 15.98,-36.00 15.73,-35.89 15.45,-35.86 15.17,-35.84 14.90,-35.91 14.62,-35.97 14.39,-36.12 14.15,-36.27 13.97,-36.49 13.80,-36.71 13.70,-36.97 13.60,-37.24 13.59,-37.52 13.59,-37.80 13.67,-38.06 13.75,-38.33 13.91,-38.56 14.07,-38.79 14.30,-38.95 14.53,-39.12 14.80,-39.20 15.06,-39.28 15.34,-39.28 15.62,-39.27 15.89,-39.17 16.15,-39.08 16.37,-38.90 16.59,-38.73 16.74,-38.49 16.89,-38.26 16.96,-37.99 17.03,-37.71 17.01,-37.43 16.98,-37.15 16.87,-36.90 16.76,-36.64 16.58,-36.43 16.39,-36.22 16.15,-36.08 15.90,-35.94 15.63,-35.89 15.35,-35.84 15.35,-35.84 15.36,-35.84 12.43,-35.85 9.51,-35.87 6.51,-35.72 3.51,-35.56 -0.51,-35.28 -4.54,-35.01 -5.78,-33.72 -7.02,-32.44 -6.11,-28.79 -5.21,-25.15 -4.03,-21.20 -2.85,-17.25 -1.00,-11.54 0.83,-5.83 1.29,-3.04 1.76,-0.25 1.76,-0.03 1.76,0.17 1.72,0.38 1.67,0.59 1.58,0.78 1.48,0.97 1.34,1.14 1.20,1.30 1.03,1.43 0.85,1.55 0.66,1.63 0.46,1.71 0.24,1.74 0.03,1.77 -0.17,1.75 -0.38,1.73 -0.59,1.66 -0.79,1.59 -0.97,1.47 -1.15,1.35 -1.29,1.19 -1.44,1.04 -1.54,0.85 -1.64,0.66 -1.70,0.45 -1.76,0.25 -1.76,0.25 L -1.76,0.25 Z"></path></g><g stroke-opacity="0.4" fill-opacity="0.4" transform="translate(360.6785017166585 83.75381186897994) rotate(0 9.74106949212944 0)" stroke="none"><path fill="#495057" d="M 0,-2.07 Q 0,-2.07 1.60,-2.08 3.20,-2.09 6.28,-1.99 9.36,-1.89 11.47,-1.81 13.58,-1.74 16.53,-1.83 19.48,-1.91 19.78,-1.86 20.09,-1.81 20.36,-1.67 20.64,-1.52 20.85,-1.30 21.06,-1.07 21.19,-0.79 21.32,-0.51 21.36,-0.20 21.39,0.10 21.32,0.40 21.26,0.70 21.10,0.97 20.94,1.24 20.70,1.44 20.47,1.64 20.18,1.75 19.89,1.87 19.58,1.88 19.27,1.90 18.97,1.82 18.67,1.73 18.42,1.56 18.16,1.39 17.97,1.14 17.78,0.89 17.68,0.60 17.59,0.30 17.59,-0.00 17.59,-0.31 17.68,-0.60 17.78,-0.89 17.97,-1.14 18.16,-1.39 18.42,-1.56 18.67,-1.73 18.97,-1.82 19.27,-1.90 19.58,-1.88 19.89,-1.87 20.18,-1.75 20.47,-1.64 20.70,-1.44 20.94,-1.24 21.10,-0.97 21.26,-0.70 21.32,-0.40 21.39,-0.10 21.36,0.20 21.32,0.51 21.19,0.79 21.06,1.07 20.85,1.30 20.64,1.52 20.36,1.67 20.09,1.81 19.78,1.86 19.48,1.91 19.48,1.91 19.48,1.91 16.53,1.83 13.58,1.74 11.47,1.81 9.36,1.89 6.28,1.99 3.20,2.09 1.60,2.08 0,2.07 -0.24,2.04 -0.49,2.01 -0.72,1.92 -0.96,1.83 -1.16,1.69 -1.37,1.54 -1.53,1.36 -1.70,1.17 -1.81,0.95 -1.93,0.73 -1.99,0.49 -2.05,0.24 -2.05,-0.00 -2.05,-0.24 -1.99,-0.49 -1.93,-0.73 -1.81,-0.95 -1.70,-1.17 -1.53,-1.36 -1.37,-1.54 -1.16,-1.69 -0.96,-1.83 -0.72,-1.92 -0.49,-2.01 -0.24,-2.04 0.00,-2.07 0.00,-2.07 L 0,-2.07 Z"></path></g><g stroke-opacity="0.4" fill-opacity="0.4" transform="translate(364.8532457847141 103.23595085323859) rotate(0 13.915813560184802 1.3915813560184915)" stroke="none"><path fill="#495057" d="M 0.32,-1.81 Q 0.32,-1.81 4.71,-0.94 9.10,-0.07 13.68,0.30 18.25,0.68 21.02,0.87 23.79,1.05 25.85,1.17 27.90,1.29 28.14,1.34 28.38,1.39 28.58,1.51 28.79,1.64 28.95,1.82 29.11,2.00 29.20,2.23 29.29,2.45 29.30,2.69 29.31,2.94 29.25,3.17 29.18,3.40 29.05,3.60 28.91,3.80 28.72,3.95 28.53,4.10 28.30,4.17 28.07,4.25 27.83,4.25 27.59,4.25 27.36,4.18 27.13,4.10 26.94,3.95 26.74,3.81 26.61,3.61 26.47,3.41 26.41,3.18 26.34,2.94 26.35,2.70 26.37,2.46 26.46,2.24 26.54,2.01 26.70,1.83 26.86,1.64 27.06,1.52 27.27,1.39 27.51,1.34 27.74,1.29 27.98,1.31 28.22,1.34 28.44,1.44 28.66,1.54 28.84,1.71 29.01,1.87 29.13,2.08 29.24,2.30 29.28,2.54 29.32,2.78 29.28,3.01 29.24,3.25 29.13,3.47 29.02,3.68 28.84,3.85 28.67,4.01 28.45,4.12 28.23,4.22 27.99,4.24 27.75,4.27 27.75,4.27 27.75,4.27 25.69,4.18 23.63,4.08 20.83,3.97 18.02,3.87 13.26,3.57 8.49,3.27 4.08,2.54 -0.32,1.81 -0.54,1.74 -0.75,1.68 -0.94,1.56 -1.13,1.45 -1.29,1.29 -1.45,1.13 -1.56,0.94 -1.68,0.75 -1.74,0.54 -1.81,0.33 -1.82,0.11 -1.84,-0.10 -1.80,-0.32 -1.76,-0.54 -1.67,-0.74 -1.57,-0.95 -1.44,-1.12 -1.30,-1.30 -1.13,-1.43 -0.95,-1.57 -0.75,-1.66 -0.55,-1.76 -0.33,-1.80 -0.11,-1.84 0.10,-1.82 0.33,-1.81 0.33,-1.81 L 0.32,-1.81 Z"></path></g><g stroke-opacity="0.4" fill-opacity="0.4" transform="translate(401.03436104119464 65.66325424073943) rotate(0 7.653697458101647 25.048464408332848)" stroke="none"><path fill="#495057" d="M 1.80,-0.65 Q 1.80,-0.65 3.32,3.77 4.85,8.20 6.30,14.17 7.74,20.14 8.74,25.07 9.73,30.01 11.31,34.82 12.90,39.62 13.59,42.56 14.27,45.49 15.52,47.38 16.76,49.26 16.85,49.52 16.95,49.77 16.96,50.04 16.97,50.31 16.89,50.57 16.81,50.83 16.65,51.05 16.49,51.27 16.27,51.43 16.05,51.59 15.79,51.67 15.53,51.75 15.26,51.75 14.99,51.74 14.74,51.65 14.48,51.55 14.27,51.39 14.06,51.22 13.91,50.99 13.76,50.76 13.70,50.50 13.63,50.23 13.65,49.96 13.67,49.69 13.78,49.44 13.89,49.19 14.07,48.99 14.25,48.79 14.48,48.65 14.72,48.52 14.99,48.47 15.25,48.42 15.52,48.45 15.79,48.49 16.03,48.61 16.28,48.73 16.47,48.92 16.66,49.11 16.78,49.35 16.90,49.59 16.94,49.86 16.98,50.13 16.93,50.40 16.88,50.67 16.75,50.90 16.61,51.14 16.41,51.32 16.21,51.50 15.96,51.61 15.71,51.72 15.44,51.74 15.17,51.76 14.91,51.70 14.64,51.63 14.41,51.49 14.19,51.34 14.02,51.13 13.84,50.92 13.84,50.92 13.84,50.92 12.67,48.56 11.49,46.20 10.79,43.38 10.08,40.56 8.39,35.61 6.70,30.65 5.63,25.79 4.57,20.94 3.06,15.17 1.54,9.40 -0.12,5.02 -1.80,0.65 -1.85,0.43 -1.90,0.20 -1.90,-0.02 -1.90,-0.25 -1.84,-0.48 -1.78,-0.70 -1.67,-0.90 -1.56,-1.11 -1.40,-1.28 -1.25,-1.45 -1.06,-1.58 -0.86,-1.71 -0.65,-1.79 -0.43,-1.87 -0.20,-1.89 0.02,-1.92 0.25,-1.88 0.48,-1.85 0.70,-1.77 0.91,-1.68 1.10,-1.55 1.29,-1.42 1.44,-1.24 1.59,-1.06 1.70,-0.86 1.80,-0.65 1.80,-0.65 L 1.80,-0.65 Z"></path></g><g stroke-opacity="0.4" fill-opacity="0.4" transform="translate(409.3838491773056 68.44641695277642) rotate(0 5.566325424073966 9.045278814120138)" stroke="none"><path fill="#495057" d="M 0,-2.05 Q 0,-2.05 3.20,-1.95 6.40,-1.85 8.74,-1.36 11.07,-0.86 12.63,0.75 14.20,2.37 13.39,4.36 12.59,6.35 11.34,8.39 10.09,10.43 8.29,12.55 6.49,14.67 5.90,15.89 5.32,17.11 4.45,17.98 3.57,18.85 0.46,19.58 -2.65,20.31 -3.00,20.27 -3.36,20.23 -3.69,20.08 -4.02,19.93 -4.28,19.69 -4.54,19.44 -4.71,19.12 -4.88,18.81 -4.94,18.45 -5.00,18.10 -4.95,17.74 -4.89,17.39 -4.72,17.07 -4.56,16.75 -4.30,16.50 -4.04,16.25 -3.71,16.10 -3.38,15.94 -3.03,15.90 -2.67,15.86 -2.32,15.94 -1.96,16.01 -1.66,16.20 -1.35,16.38 -1.11,16.65 -0.88,16.93 -0.74,17.26 -0.61,17.60 -0.59,17.96 -0.56,18.32 -0.66,18.66 -0.75,19.01 -0.95,19.31 -1.15,19.61 -1.44,19.83 -1.73,20.05 -2.07,20.16 -2.41,20.28 -2.77,20.28 -3.13,20.28 -3.47,20.17 -3.81,20.06 -4.10,19.84 -4.39,19.62 -4.59,19.33 -4.79,19.03 -4.89,18.68 -4.99,18.34 -4.97,17.98 -4.95,17.62 -4.82,17.28 -4.69,16.95 -4.46,16.67 -4.23,16.40 -3.92,16.21 -3.61,16.02 -3.26,15.94 -2.91,15.86 -2.91,15.86 -2.91,15.86 -0.27,15.59 2.35,15.31 3.20,13.99 4.05,12.67 5.63,10.71 7.20,8.75 8.24,6.82 9.28,4.89 9.82,3.68 10.36,2.46 8.38,2.16 6.39,1.85 3.19,1.95 0,2.05 -0.24,2.02 -0.49,1.99 -0.72,1.90 -0.95,1.82 -1.16,1.68 -1.36,1.53 -1.52,1.35 -1.69,1.16 -1.80,0.94 -1.92,0.72 -1.98,0.48 -2.04,0.24 -2.04,-0.00 -2.04,-0.24 -1.98,-0.48 -1.92,-0.72 -1.80,-0.94 -1.69,-1.16 -1.52,-1.35 -1.36,-1.54 -1.16,-1.68 -0.95,-1.82 -0.72,-1.90 -0.49,-1.99 -0.24,-2.02 0.00,-2.05 0.00,-2.05 L 0,-2.05 Z"></path></g><g stroke-opacity="0.4" fill-opacity="0.4" transform="translate(442.7818017217494 60.09692881666547) rotate(0 2.783162712036983 21.569511018286562)" stroke="none"><path fill="#495057" d="M 1.75,0 Q 1.75,0 1.69,3.60 1.63,7.20 1.99,11.86 2.34,16.53 3.27,23.30 4.21,30.07 4.99,33.72 5.77,37.36 6.35,40.10 6.93,42.83 6.94,43.06 6.96,43.29 6.90,43.51 6.84,43.72 6.71,43.91 6.58,44.10 6.40,44.24 6.22,44.37 6.00,44.45 5.79,44.52 5.56,44.52 5.33,44.52 5.12,44.45 4.90,44.37 4.72,44.24 4.54,44.10 4.41,43.91 4.29,43.72 4.23,43.50 4.17,43.29 4.18,43.06 4.19,42.83 4.27,42.62 4.36,42.41 4.51,42.24 4.65,42.06 4.85,41.95 5.04,41.83 5.26,41.78 5.49,41.73 5.71,41.76 5.94,41.78 6.14,41.88 6.35,41.97 6.51,42.13 6.68,42.28 6.79,42.49 6.89,42.69 6.93,42.91 6.97,43.13 6.93,43.36 6.89,43.58 6.79,43.78 6.68,43.98 6.51,44.14 6.35,44.30 6.14,44.39 5.94,44.49 5.71,44.51 5.48,44.54 5.26,44.49 5.04,44.44 4.85,44.32 4.65,44.20 4.50,44.03 4.36,43.86 4.27,43.65 4.19,43.44 4.19,43.44 4.19,43.44 3.57,40.71 2.96,37.98 2.11,34.24 1.27,30.49 0.26,23.64 -0.74,16.79 -1.19,11.99 -1.63,7.20 -1.69,3.60 -1.75,0 -1.73,-0.21 -1.70,-0.42 -1.63,-0.61 -1.55,-0.81 -1.43,-0.99 -1.31,-1.16 -1.15,-1.30 -0.99,-1.44 -0.81,-1.54 -0.62,-1.64 -0.41,-1.69 -0.21,-1.74 0.00,-1.74 0.21,-1.74 0.41,-1.69 0.62,-1.64 0.81,-1.54 0.99,-1.44 1.15,-1.30 1.31,-1.16 1.43,-0.99 1.55,-0.81 1.63,-0.61 1.70,-0.42 1.73,-0.21 1.75,0.00 1.75,0.00 L 1.75,0 Z"></path></g><g stroke-opacity="0.4" fill-opacity="0.4" transform="translate(448.34812714582336 92.10330000509066) rotate(0 4.174744068055361 6.262116102083382)" stroke="none"><path fill="#495057" d="M -0.40,-2.01 Q -0.40,-2.01 3.64,-2.71 7.68,-3.42 10.63,-2.80 13.58,-2.19 15.10,-0.01 16.62,2.15 15.92,4.00 15.22,5.84 13.01,7.45 10.80,9.07 8.28,10.46 5.76,11.86 4.27,12.56 2.77,13.26 1.62,13.99 0.48,14.71 -1.79,15.17 -4.07,15.63 -5.22,15.78 -6.37,15.94 -6.63,15.94 -6.90,15.94 -7.15,15.88 -7.41,15.82 -7.64,15.69 -7.87,15.57 -8.07,15.40 -8.27,15.22 -8.42,15.01 -8.57,14.79 -8.66,14.54 -8.75,14.30 -8.78,14.04 -8.82,13.77 -8.78,13.51 -8.75,13.25 -8.66,13.01 -8.57,12.76 -8.42,12.54 -8.27,12.33 -8.07,12.15 -7.87,11.98 -7.64,11.86 -7.41,11.73 -7.15,11.67 -6.90,11.61 -4.43,12.43 -1.97,13.25 -1.66,13.44 -1.36,13.62 -1.12,13.89 -0.89,14.16 -0.76,14.49 -0.63,14.82 -0.61,15.18 -0.59,15.54 -0.68,15.88 -0.78,16.22 -0.98,16.52 -1.18,16.81 -1.46,17.03 -1.74,17.25 -2.08,17.36 -2.42,17.48 -2.77,17.48 -3.13,17.48 -3.47,17.36 -3.81,17.25 -4.09,17.04 -4.37,16.82 -4.57,16.53 -4.78,16.23 -4.87,15.89 -4.97,15.54 -4.95,15.19 -4.93,14.83 -4.80,14.50 -4.67,14.17 -4.44,13.90 -4.21,13.63 -3.90,13.44 -3.60,13.26 -3.25,13.18 -2.90,13.10 -2.55,13.14 -2.19,13.18 -1.87,13.33 -1.55,13.48 -1.29,13.72 -1.03,13.97 -0.86,14.28 -0.69,14.60 -0.63,14.95 -0.58,15.30 -0.63,15.65 -0.69,16.00 -0.86,16.32 -1.02,16.63 -1.28,16.88 -1.54,17.12 -1.86,17.27 -2.19,17.42 -2.54,17.46 -2.89,17.50 -3.24,17.43 -3.59,17.35 -3.59,17.35 -3.59,17.35 -4.98,16.65 -6.37,15.94 -6.63,15.94 -6.90,15.94 -7.15,15.88 -7.41,15.82 -7.64,15.69 -7.87,15.57 -8.07,15.40 -8.27,15.22 -8.42,15.01 -8.57,14.79 -8.66,14.54 -8.75,14.30 -8.78,14.04 -8.82,13.77 -8.78,13.51 -8.75,13.25 -8.66,13.01 -8.57,12.76 -8.42,12.54 -8.27,12.33 -8.07,12.15 -7.87,11.98 -7.64,11.86 -7.41,11.73 -7.15,11.67 -6.90,11.61 -5.73,11.58 -4.56,11.56 -3.28,11.58 -2.00,11.61 -0.27,10.82 1.44,10.03 2.80,9.55 4.16,9.07 6.47,7.68 8.78,6.29 10.41,5.12 12.04,3.95 12.23,2.39 12.41,0.83 10.36,0.52 8.31,0.21 4.35,1.11 0.40,2.01 0.15,2.03 -0.09,2.05 -0.33,2.01 -0.57,1.96 -0.80,1.87 -1.03,1.77 -1.23,1.62 -1.42,1.47 -1.58,1.28 -1.73,1.09 -1.84,0.86 -1.94,0.64 -1.99,0.39 -2.04,0.15 -2.03,-0.09 -2.02,-0.33 -1.95,-0.57 -1.88,-0.81 -1.76,-1.02 -1.63,-1.23 -1.46,-1.41 -1.29,-1.59 -1.08,-1.72 -0.87,-1.85 -0.63,-1.93 -0.40,-2.01 -0.40,-2.01 L -0.40,-2.01 Z"></path></g><g stroke-opacity="0.4" fill-opacity="0.4" transform="translate(182.55608814629204 163.0739491620336) rotate(0 12.524232204166424 27.831627120369717)" stroke="none"><path fill="#495057" d="M 1.56,-0.66 Q 1.56,-0.66 2.71,2.15 3.86,4.97 5.54,8.97 7.21,12.98 11.50,21.86 15.79,30.73 18.43,37.78 21.08,44.83 22.56,47.74 24.03,50.64 25.15,52.83 26.26,55.03 26.33,55.24 26.40,55.46 26.40,55.68 26.39,55.90 26.32,56.11 26.25,56.32 26.11,56.49 25.97,56.67 25.79,56.79 25.60,56.91 25.39,56.97 25.17,57.02 24.95,57.01 24.73,56.99 24.53,56.91 24.32,56.82 24.15,56.68 23.99,56.53 23.88,56.34 23.76,56.15 23.72,55.93 23.67,55.71 23.70,55.49 23.73,55.27 23.82,55.07 23.92,54.87 24.07,54.72 24.23,54.56 24.43,54.46 24.62,54.35 24.84,54.32 25.06,54.29 25.28,54.33 25.50,54.37 25.69,54.47 25.89,54.58 26.04,54.74 26.19,54.91 26.28,55.11 26.37,55.31 26.39,55.53 26.41,55.75 26.36,55.97 26.31,56.18 26.19,56.37 26.08,56.56 25.90,56.70 25.73,56.84 25.53,56.92 25.32,57.00 25.10,57.01 24.88,57.02 24.66,56.96 24.45,56.89 24.27,56.77 24.09,56.64 23.96,56.46 23.82,56.28 23.82,56.28 23.82,56.28 22.69,54.10 21.56,51.91 19.99,48.87 18.42,45.84 15.79,38.93 13.16,32.01 8.79,23.09 4.42,14.18 2.68,10.20 0.93,6.22 -0.31,3.44 -1.56,0.66 -1.61,0.47 -1.67,0.27 -1.68,0.07 -1.69,-0.13 -1.65,-0.33 -1.61,-0.53 -1.52,-0.71 -1.43,-0.90 -1.30,-1.06 -1.17,-1.22 -1.01,-1.34 -0.85,-1.46 -0.66,-1.54 -0.47,-1.63 -0.27,-1.66 -0.07,-1.69 0.13,-1.68 0.33,-1.66 0.53,-1.60 0.72,-1.53 0.89,-1.42 1.07,-1.31 1.21,-1.17 1.35,-1.02 1.45,-0.84 1.56,-0.66 1.56,-0.66 L 1.56,-0.66 Z"></path></g><g stroke-opacity="0.4" fill-opacity="0.4" transform="translate(204.8213898425879 204.82138984258836) rotate(0 11.132650848147932 2.7831627120368694)" stroke="none"><path fill="#495057" d="M -0.67,-1.79 Q -0.67,-1.79 2.55,-2.92 5.78,-4.04 8.91,-4.54 12.04,-5.03 13.80,-5.29 15.56,-5.55 17.51,-4.80 19.46,-4.05 20.82,-2.75 22.18,-1.45 22.72,1.00 23.26,3.47 21.23,5.83 19.19,8.19 16.48,9.14 13.77,10.10 11.28,10.82 8.79,11.54 8.49,11.56 8.19,11.58 7.90,11.51 7.61,11.44 7.35,11.28 7.10,11.11 6.91,10.88 6.73,10.64 6.62,10.36 6.52,10.08 6.51,9.78 6.51,9.48 6.60,9.19 6.69,8.91 6.86,8.66 7.04,8.42 7.28,8.25 7.53,8.07 7.81,7.98 8.10,7.90 8.40,7.91 8.70,7.92 8.98,8.02 9.26,8.12 9.50,8.31 9.73,8.50 9.89,8.76 10.05,9.01 10.12,9.30 10.19,9.59 10.17,9.89 10.14,10.19 10.02,10.47 9.90,10.74 9.70,10.96 9.50,11.19 9.24,11.33 8.98,11.48 8.68,11.54 8.39,11.59 8.09,11.55 7.79,11.51 7.52,11.37 7.26,11.24 7.04,11.03 6.83,10.81 6.70,10.54 6.57,10.27 6.53,9.98 6.49,9.68 6.55,9.38 6.61,9.09 6.75,8.83 6.90,8.57 7.13,8.37 7.35,8.17 7.63,8.05 7.90,7.93 7.90,7.93 7.90,7.93 10.30,7.45 12.71,6.98 14.74,6.31 16.78,5.64 18.02,3.31 19.27,0.98 18.55,0.08 17.83,-0.81 16.77,-1.48 15.71,-2.15 14.15,-1.98 12.60,-1.80 9.80,-1.27 7.01,-0.75 3.84,0.52 0.67,1.79 0.44,1.85 0.22,1.90 -0.00,1.90 -0.23,1.90 -0.46,1.85 -0.68,1.79 -0.89,1.68 -1.09,1.57 -1.27,1.42 -1.44,1.26 -1.57,1.07 -1.70,0.88 -1.78,0.66 -1.86,0.45 -1.89,0.22 -1.92,-0.00 -1.89,-0.23 -1.86,-0.46 -1.78,-0.68 -1.69,-0.89 -1.56,-1.08 -1.43,-1.27 -1.25,-1.43 -1.08,-1.58 -0.88,-1.69 -0.67,-1.79 -0.67,-1.79 L -0.67,-1.79 Z"></path></g><g stroke-opacity="0.4" fill-opacity="0.4" transform="translate(186.73083221434763 165.8571118740706) rotate(0 19.482138984258768 -4.8705347460646635)" stroke="none"><path fill="#495057" d="M -0.35,-1.75 Q -0.35,-1.75 1.65,-2.11 3.66,-2.47 7.77,-2.99 11.87,-3.52 17.57,-4.52 23.27,-5.52 27.28,-6.32 31.29,-7.13 33.22,-8.20 35.15,-9.27 36.69,-10.18 38.22,-11.08 38.45,-11.17 38.69,-11.25 38.94,-11.25 39.19,-11.26 39.42,-11.18 39.66,-11.10 39.86,-10.96 40.06,-10.81 40.20,-10.60 40.35,-10.40 40.42,-10.16 40.49,-9.92 40.48,-9.67 40.47,-9.43 40.38,-9.19 40.29,-8.96 40.13,-8.77 39.97,-8.58 39.76,-8.45 39.55,-8.32 39.31,-8.26 39.06,-8.20 38.82,-8.23 38.57,-8.25 38.34,-8.35 38.11,-8.45 37.93,-8.62 37.75,-8.79 37.63,-9.01 37.51,-9.23 37.47,-9.47 37.42,-9.72 37.46,-9.96 37.50,-10.21 37.61,-10.43 37.72,-10.65 37.90,-10.82 38.08,-11.00 38.30,-11.10 38.53,-11.21 38.77,-11.24 39.02,-11.27 39.27,-11.22 39.51,-11.17 39.72,-11.05 39.94,-10.92 40.10,-10.73 40.27,-10.55 40.36,-10.32 40.46,-10.09 40.47,-9.84 40.49,-9.59 40.43,-9.35 40.36,-9.11 40.23,-8.90 40.09,-8.69 39.89,-8.54 39.70,-8.39 39.70,-8.39 39.70,-8.39 38.11,-7.58 36.52,-6.78 34.22,-5.53 31.92,-4.28 27.87,-3.40 23.81,-2.52 18.07,-1.44 12.32,-0.35 8.32,0.25 4.33,0.87 2.34,1.31 0.35,1.75 0.13,1.76 -0.07,1.78 -0.29,1.75 -0.50,1.71 -0.70,1.63 -0.90,1.54 -1.07,1.41 -1.24,1.28 -1.37,1.11 -1.51,0.94 -1.60,0.75 -1.69,0.55 -1.74,0.34 -1.78,0.13 -1.77,-0.07 -1.76,-0.29 -1.70,-0.50 -1.64,-0.70 -1.53,-0.89 -1.42,-1.08 -1.27,-1.23 -1.12,-1.38 -0.94,-1.50 -0.76,-1.61 -0.55,-1.68 -0.35,-1.75 -0.35,-1.75 L -0.35,-1.75 Z"></path></g><g stroke-opacity="0.4" fill-opacity="0.4" transform="translate(253.526737303235 207.60455255462512) rotate(0 7.653697458101647 -9.045278814120138)" stroke="none"><path fill="#495057" d="M -1.53,-0.87 Q -1.53,-0.87 0.11,-3.63 1.76,-6.40 2.40,-8.97 3.05,-11.54 3.35,-15.01 3.65,-18.48 4.10,-20.01 4.55,-21.53 4.58,-21.72 4.62,-21.92 4.71,-22.10 4.79,-22.28 4.92,-22.43 5.04,-22.58 5.20,-22.70 5.36,-22.82 5.54,-22.90 5.72,-22.97 5.92,-23.01 6.11,-23.04 6.31,-23.02 6.51,-23.01 6.70,-22.94 6.88,-22.88 7.05,-22.77 7.22,-22.67 7.35,-22.53 7.49,-22.38 7.59,-22.21 7.69,-22.04 7.74,-21.85 7.80,-21.66 7.81,-21.46 7.81,-21.27 9.46,-16.17 11.12,-11.06 12.69,-7.30 14.26,-3.53 14.97,-0.99 15.68,1.54 16.23,3.34 16.78,5.14 16.81,5.38 16.84,5.63 16.79,5.87 16.73,6.12 16.61,6.33 16.48,6.55 16.29,6.71 16.11,6.87 15.88,6.96 15.65,7.06 15.40,7.07 15.15,7.09 14.91,7.03 14.67,6.96 14.46,6.82 14.26,6.69 14.10,6.49 13.95,6.29 13.87,6.06 13.79,5.82 13.79,5.57 13.78,5.33 13.86,5.09 13.94,4.85 14.09,4.65 14.24,4.46 14.44,4.31 14.65,4.17 14.88,4.10 15.12,4.04 15.37,4.05 15.62,4.06 15.85,4.15 16.08,4.24 16.27,4.40 16.46,4.56 16.59,4.77 16.72,4.98 16.78,5.22 16.84,5.46 16.81,5.71 16.79,5.96 16.68,6.19 16.58,6.41 16.41,6.59 16.24,6.78 16.02,6.89 15.81,7.01 15.56,7.06 15.32,7.10 15.07,7.06 14.82,7.02 14.60,6.91 14.38,6.79 14.21,6.61 14.04,6.43 13.93,6.21 13.83,5.98 13.83,5.99 13.83,5.99 13.34,4.17 12.85,2.35 12.15,0.00 11.45,-2.34 9.72,-6.32 7.99,-10.30 6.98,-14.44 5.97,-18.59 5.26,-20.06 4.55,-21.53 4.58,-21.72 4.62,-21.92 4.71,-22.10 4.79,-22.27 4.92,-22.43 5.04,-22.58 5.20,-22.70 5.36,-22.82 5.54,-22.90 5.72,-22.97 5.92,-23.01 6.11,-23.04 6.31,-23.02 6.51,-23.01 6.70,-22.94 6.88,-22.88 7.05,-22.77 7.22,-22.67 7.35,-22.53 7.49,-22.38 7.59,-22.21 7.69,-22.04 7.74,-21.85 7.80,-21.66 7.81,-21.46 7.81,-21.27 7.21,-19.74 6.62,-18.22 6.34,-14.52 6.07,-10.81 5.35,-7.80 4.63,-4.80 3.08,-1.96 1.53,0.87 1.40,1.04 1.27,1.21 1.11,1.35 0.95,1.48 0.75,1.58 0.56,1.67 0.35,1.71 0.14,1.75 -0.06,1.75 -0.27,1.74 -0.48,1.68 -0.68,1.62 -0.86,1.52 -1.05,1.41 -1.20,1.26 -1.36,1.12 -1.47,0.94 -1.59,0.76 -1.66,0.56 -1.72,0.36 -1.74,0.14 -1.76,-0.06 -1.73,-0.27 -1.69,-0.48 -1.61,-0.68 -1.53,-0.87 -1.53,-0.87 L -1.53,-0.87 Z"></path></g><g stroke-opacity="0.4" fill-opacity="0.4" transform="translate(249.3519932351794 197.8634830624958) rotate(0 12.524232204166424 -1.3915813560184915)" stroke="none"><path fill="#495057" d="M 0,-1.93 Q 0,-1.93 2.00,-1.88 4.00,-1.83 8.05,-1.76 12.10,-1.69 15.39,-1.63 18.69,-1.58 21.51,-2.98 24.33,-4.39 24.61,-4.46 24.88,-4.53 25.17,-4.51 25.45,-4.49 25.71,-4.38 25.98,-4.27 26.19,-4.08 26.40,-3.89 26.54,-3.65 26.69,-3.40 26.74,-3.12 26.80,-2.84 26.76,-2.56 26.73,-2.28 26.60,-2.02 26.48,-1.77 26.28,-1.56 26.08,-1.36 25.83,-1.23 25.58,-1.10 25.29,-1.06 25.01,-1.02 24.73,-1.07 24.45,-1.12 24.20,-1.26 23.96,-1.40 23.76,-1.61 23.57,-1.82 23.46,-2.08 23.34,-2.34 23.32,-2.62 23.29,-2.90 23.36,-3.18 23.42,-3.46 23.57,-3.70 23.72,-3.94 23.94,-4.12 24.16,-4.30 24.43,-4.40 24.70,-4.50 24.98,-4.51 25.26,-4.52 25.54,-4.44 25.81,-4.36 26.04,-4.20 26.27,-4.03 26.44,-3.80 26.61,-3.57 26.70,-3.30 26.78,-3.03 26.78,-2.75 26.77,-2.46 26.68,-2.20 26.58,-1.93 26.41,-1.70 26.23,-1.48 25.99,-1.33 25.75,-1.17 25.75,-1.17 25.75,-1.17 22.27,0.20 18.80,1.58 15.45,1.63 12.10,1.69 8.05,1.76 4.00,1.83 2.00,1.88 0,1.93 -0.23,1.91 -0.46,1.88 -0.68,1.80 -0.90,1.71 -1.09,1.58 -1.28,1.45 -1.44,1.27 -1.59,1.10 -1.70,0.89 -1.81,0.68 -1.86,0.46 -1.92,0.23 -1.92,-0.00 -1.92,-0.23 -1.86,-0.46 -1.81,-0.68 -1.70,-0.89 -1.59,-1.10 -1.44,-1.27 -1.28,-1.45 -1.09,-1.58 -0.90,-1.71 -0.68,-1.80 -0.46,-1.88 -0.23,-1.91 0.00,-1.93 0.00,-1.93 L 0,-1.93 Z"></path></g><g stroke-opacity="0.4" fill-opacity="0.4" transform="translate(288.31627120369717 175.59818136620015) rotate(0 8.34948813611095 22.26530169629575)" stroke="none"><path fill="#495057" d="M 1.61,-0.69 Q 1.61,-0.69 2.76,2.13 3.90,4.95 5.57,8.96 7.24,12.97 9.93,19.07 12.63,25.17 14.20,30.66 15.77,36.16 16.91,40.15 18.04,44.14 18.07,44.36 18.10,44.59 18.05,44.81 18.00,45.03 17.89,45.23 17.77,45.42 17.60,45.57 17.43,45.72 17.22,45.81 17.01,45.89 16.78,45.91 16.56,45.92 16.34,45.86 16.12,45.81 15.93,45.68 15.74,45.56 15.60,45.38 15.46,45.20 15.39,44.98 15.31,44.77 15.31,44.54 15.31,44.31 15.38,44.10 15.45,43.88 15.58,43.70 15.72,43.52 15.90,43.39 16.09,43.26 16.31,43.19 16.53,43.13 16.75,43.14 16.98,43.15 17.19,43.23 17.41,43.32 17.58,43.46 17.75,43.61 17.87,43.80 17.99,43.99 18.04,44.21 18.10,44.43 18.07,44.66 18.05,44.89 17.96,45.09 17.86,45.30 17.71,45.47 17.56,45.63 17.36,45.74 17.16,45.85 16.93,45.89 16.71,45.93 16.48,45.90 16.26,45.86 16.06,45.76 15.86,45.65 15.70,45.49 15.54,45.33 15.44,45.12 15.35,44.92 15.35,44.92 15.35,44.92 14.18,40.94 13.01,36.95 11.46,31.67 9.91,26.38 7.15,20.28 4.39,14.19 2.64,10.21 0.89,6.24 -0.36,3.46 -1.61,0.69 -1.67,0.48 -1.73,0.28 -1.74,0.07 -1.75,-0.13 -1.71,-0.34 -1.66,-0.55 -1.57,-0.74 -1.48,-0.93 -1.35,-1.10 -1.22,-1.26 -1.05,-1.39 -0.88,-1.52 -0.68,-1.60 -0.49,-1.68 -0.28,-1.72 -0.07,-1.75 0.13,-1.74 0.34,-1.72 0.54,-1.65 0.75,-1.59 0.93,-1.47 1.10,-1.36 1.25,-1.21 1.40,-1.05 1.51,-0.87 1.61,-0.69 1.61,-0.69 L 1.61,-0.69 Z"></path></g><g stroke-opacity="0.4" fill-opacity="0.4" transform="translate(293.88259662777114 182.5560881462925) rotate(0 7.653697458101647 4.8705347460646635)" stroke="none"><path fill="#495057" d="M -0.57,-1.99 Q -0.57,-1.99 2.45,-2.68 5.47,-3.36 8.34,-1.96 11.22,-0.56 12.85,1.41 14.47,3.39 15.11,4.88 15.75,6.37 15.86,6.55 15.97,6.72 16.04,6.92 16.10,7.12 16.12,7.33 16.14,7.53 16.10,7.74 16.07,7.94 15.99,8.13 15.91,8.33 15.78,8.49 15.66,8.66 15.50,8.79 15.33,8.92 15.15,9.01 14.96,9.10 14.75,9.14 14.55,9.18 14.34,9.17 14.14,9.17 13.94,9.11 13.74,9.05 13.56,8.95 13.38,8.84 13.23,8.70 13.08,8.55 12.29,9.43 11.50,10.32 9.53,10.97 7.56,11.63 5.80,12.70 4.03,13.77 3.80,13.93 3.57,14.10 3.29,14.19 3.02,14.27 2.73,14.26 2.45,14.26 2.18,14.16 1.91,14.06 1.69,13.88 1.46,13.70 1.31,13.46 1.16,13.22 1.09,12.94 1.02,12.67 1.04,12.38 1.06,12.10 1.17,11.83 1.29,11.57 1.48,11.36 1.67,11.14 1.92,11.00 2.17,10.86 2.45,10.81 2.73,10.75 3.01,10.79 3.29,10.83 3.55,10.96 3.81,11.08 4.01,11.28 4.21,11.49 4.34,11.74 4.47,12.00 4.51,12.28 4.55,12.56 4.49,12.85 4.44,13.13 4.30,13.38 4.16,13.62 3.95,13.82 3.73,14.01 3.47,14.12 3.21,14.23 2.92,14.26 2.64,14.28 2.36,14.21 2.08,14.14 1.84,13.99 1.60,13.84 1.42,13.61 1.24,13.39 1.14,13.12 1.04,12.85 1.03,12.57 1.03,12.28 1.11,12.01 1.19,11.74 1.36,11.50 1.53,11.27 1.53,11.27 1.53,11.27 4.02,9.95 6.52,8.62 8.43,7.92 10.34,7.22 13.05,6.80 15.75,6.37 15.86,6.55 15.97,6.72 16.04,6.92 16.10,7.12 16.12,7.33 16.14,7.53 16.10,7.74 16.07,7.94 15.99,8.13 15.91,8.33 15.78,8.49 15.66,8.66 15.50,8.79 15.33,8.92 15.15,9.01 14.96,9.10 14.75,9.14 14.55,9.18 14.34,9.17 14.14,9.17 13.94,9.11 13.74,9.05 13.56,8.95 13.38,8.84 13.23,8.70 13.08,8.55 12.51,6.97 11.95,5.39 10.74,3.90 9.53,2.41 7.63,1.28 5.73,0.16 3.15,1.08 0.57,1.99 0.32,2.03 0.07,2.07 -0.17,2.05 -0.42,2.03 -0.66,1.95 -0.89,1.87 -1.10,1.73 -1.32,1.60 -1.49,1.42 -1.66,1.24 -1.79,1.02 -1.91,0.80 -1.98,0.56 -2.05,0.32 -2.06,0.07 -2.07,-0.17 -2.01,-0.42 -1.96,-0.66 -1.86,-0.89 -1.75,-1.11 -1.59,-1.31 -1.43,-1.50 -1.23,-1.65 -1.03,-1.80 -0.80,-1.90 -0.57,-1.99 -0.57,-1.99 L -0.57,-1.99 Z"></path></g><g stroke-opacity="0.4" fill-opacity="0.4" transform="translate(337.02161866434426 175.59818136620015) rotate(0 0 7.653697458101533)" stroke="none"><path fill="#495057" d="M -0.87,1.75 Q -0.87,1.75 -1.28,1.42 -1.69,1.08 -3.36,2.67 -5.03,4.27 -5.79,5.33 -6.55,6.39 -5.22,9.04 -3.88,11.69 -1.82,13.01 0.23,14.33 1.85,14.89 3.47,15.46 6.73,15.82 10.00,16.19 10.29,16.28 10.59,16.37 10.84,16.55 11.09,16.73 11.27,16.98 11.45,17.24 11.54,17.53 11.63,17.83 11.63,18.14 11.62,18.45 11.51,18.74 11.40,19.03 11.21,19.27 11.01,19.51 10.75,19.68 10.49,19.85 10.19,19.92 9.89,19.99 9.58,19.97 9.27,19.94 8.99,19.82 8.70,19.70 8.47,19.49 8.24,19.28 8.09,19.01 7.94,18.74 7.88,18.44 7.82,18.14 7.86,17.83 7.91,17.52 8.04,17.24 8.18,16.97 8.40,16.75 8.62,16.53 8.90,16.39 9.18,16.25 9.48,16.21 9.79,16.17 10.09,16.23 10.40,16.29 10.67,16.44 10.94,16.59 11.14,16.82 11.35,17.06 11.47,17.34 11.60,17.62 11.62,17.93 11.64,18.24 11.57,18.54 11.49,18.84 11.33,19.10 11.16,19.37 10.92,19.56 10.68,19.75 10.39,19.86 10.10,19.97 9.79,19.97 9.48,19.98 9.48,19.98 9.48,19.98 5.89,19.41 2.30,18.84 0.30,18.14 -1.69,17.44 -4.39,15.77 -7.08,14.11 -9.13,10.99 -11.19,7.88 -10.65,5.84 -10.12,3.81 -8.99,2.36 -7.86,0.91 -6.41,-0.28 -4.96,-1.48 -3.23,-2.08 -1.50,-2.68 -0.31,-2.22 0.87,-1.75 1.07,-1.62 1.27,-1.49 1.43,-1.32 1.59,-1.14 1.70,-0.93 1.82,-0.73 1.88,-0.50 1.94,-0.27 1.94,-0.03 1.95,0.19 1.90,0.42 1.84,0.66 1.74,0.87 1.63,1.08 1.48,1.26 1.33,1.44 1.13,1.58 0.94,1.72 0.72,1.80 0.50,1.89 0.27,1.93 0.03,1.96 -0.19,1.93 -0.43,1.91 -0.65,1.83 -0.87,1.75 -0.87,1.75 L -0.87,1.75 Z"></path></g><g stroke-opacity="0.4" fill-opacity="0.4" transform="translate(357.8953390046215 168.64027458610758) rotate(0 17.394766950231087 8.34948813611095)" stroke="none"><path fill="#495057" d="M 1.79,-0.79 Q 1.79,-0.79 3.31,2.84 4.83,6.47 5.86,9.25 6.89,12.03 8.01,13.39 9.13,14.75 10.70,13.46 12.27,12.17 13.03,9.83 13.79,7.50 14.12,5.70 14.45,3.90 14.56,2.31 14.67,0.71 15.81,-0.66 16.95,-2.03 19.09,-1.59 21.23,-1.15 22.53,0.49 23.82,2.14 25.01,4.04 26.20,5.94 27.42,7.48 28.65,9.01 30.25,10.41 31.86,11.82 33.78,12.73 35.69,13.63 35.93,13.82 36.18,14.00 36.35,14.26 36.52,14.52 36.60,14.81 36.68,15.11 36.66,15.42 36.64,15.73 36.52,16.01 36.41,16.30 36.21,16.53 36.01,16.76 35.74,16.92 35.48,17.08 35.17,17.14 34.87,17.20 34.57,17.17 34.26,17.13 33.98,17.00 33.70,16.87 33.48,16.66 33.26,16.44 33.12,16.17 32.98,15.90 32.93,15.59 32.88,15.29 32.93,14.98 32.99,14.68 33.13,14.41 33.28,14.14 33.50,13.93 33.73,13.72 34.01,13.59 34.29,13.46 34.60,13.43 34.90,13.40 35.20,13.47 35.50,13.54 35.77,13.70 36.03,13.86 36.23,14.10 36.42,14.33 36.54,14.62 36.65,14.91 36.66,15.22 36.68,15.52 36.59,15.82 36.51,16.12 36.33,16.37 36.16,16.62 35.91,16.81 35.66,16.99 35.37,17.09 35.08,17.18 34.77,17.18 34.46,17.18 34.17,17.08 33.88,16.98 33.88,16.98 33.88,16.98 31.79,15.72 29.70,14.45 27.77,12.93 25.84,11.42 24.40,9.82 22.95,8.23 21.62,6.55 20.29,4.87 19.30,3.07 18.30,1.26 18.12,2.88 17.95,4.51 17.61,6.53 17.27,8.54 16.46,11.41 15.65,14.29 14.36,16.02 13.08,17.76 11.31,18.22 9.55,18.69 8.08,17.75 6.62,16.81 5.22,15.05 3.83,13.29 2.69,10.60 1.56,7.92 -0.11,4.36 -1.79,0.79 -1.85,0.56 -1.92,0.34 -1.94,0.10 -1.95,-0.12 -1.91,-0.35 -1.86,-0.59 -1.76,-0.80 -1.67,-1.02 -1.52,-1.20 -1.37,-1.39 -1.19,-1.53 -1.00,-1.68 -0.78,-1.77 -0.57,-1.87 -0.34,-1.91 -0.10,-1.95 0.12,-1.94 0.36,-1.92 0.58,-1.85 0.81,-1.78 1.01,-1.65 1.21,-1.53 1.38,-1.36 1.54,-1.20 1.66,-0.99 1.79,-0.79 1.79,-0.79 L 1.79,-0.79 Z"></path></g><g stroke-opacity="0.4" fill-opacity="0.4" transform="translate(419.1249186694349 181.16450679027412) rotate(0 -5.5663254240738524 -13.915813560184915)" stroke="none"><path fill="#495057" d="M -1.98,0 Q -1.98,0 -1.89,-2.38 -1.80,-4.77 -2.50,-7.16 -3.20,-9.55 -3.89,-11.87 -4.58,-14.19 -5.25,-16.37 -5.93,-18.56 -6.65,-20.23 -7.36,-21.89 -8.38,-23.25 -9.40,-24.61 -10.81,-25.49 -12.22,-26.38 -12.42,-26.59 -12.62,-26.80 -12.75,-27.07 -12.87,-27.33 -12.91,-27.62 -12.94,-27.92 -12.88,-28.20 -12.82,-28.49 -12.67,-28.74 -12.52,-28.99 -12.29,-29.19 -12.07,-29.38 -11.80,-29.49 -11.53,-29.60 -11.23,-29.61 -10.94,-29.63 -10.66,-29.56 -10.37,-29.48 -10.13,-29.31 -9.89,-29.15 -9.71,-28.92 -9.53,-28.68 -9.43,-28.41 -9.34,-28.13 -9.34,-27.84 -9.33,-27.54 -9.43,-27.26 -9.52,-26.98 -9.70,-26.75 -9.87,-26.52 -10.11,-26.35 -10.36,-26.18 -10.64,-26.10 -10.92,-26.02 -11.22,-26.04 -11.51,-26.05 -11.78,-26.16 -12.06,-26.27 -12.28,-26.46 -12.51,-26.64 -12.66,-26.90 -12.81,-27.15 -12.88,-27.43 -12.94,-27.72 -12.91,-28.01 -12.88,-28.30 -12.76,-28.57 -12.64,-28.84 -12.43,-29.05 -12.23,-29.27 -11.97,-29.41 -11.72,-29.54 -11.43,-29.59 -11.14,-29.64 -10.85,-29.60 -10.56,-29.55 -10.30,-29.41 -10.04,-29.28 -10.04,-29.28 -10.04,-29.28 -8.43,-27.89 -6.82,-26.51 -5.64,-24.80 -4.46,-23.09 -3.77,-21.29 -3.08,-19.50 -2.33,-17.32 -1.58,-15.14 -0.79,-12.84 -0.00,-10.53 0.90,-7.67 1.80,-4.82 1.89,-2.41 1.98,0 1.95,0.23 1.92,0.47 1.84,0.69 1.75,0.92 1.62,1.11 1.48,1.31 1.30,1.47 1.12,1.63 0.91,1.74 0.70,1.85 0.47,1.91 0.23,1.97 -0.00,1.97 -0.23,1.97 -0.47,1.91 -0.70,1.85 -0.91,1.74 -1.12,1.63 -1.30,1.47 -1.48,1.31 -1.62,1.11 -1.75,0.92 -1.84,0.69 -1.92,0.47 -1.95,0.23 -1.98,-0.00 -1.98,-0.00 L -1.98,0 Z"></path></g><g stroke-opacity="0.4" fill-opacity="0.4" transform="translate(417.73333731341654 168.64027458610758) rotate(0 9.045278814120138 -8.34948813611095)" stroke="none"><path fill="#495057" d="M -1.02,-1.70 Q -1.02,-1.70 1.02,-2.82 3.06,-3.94 5.82,-6.31 8.59,-8.67 11.01,-10.89 13.44,-13.10 15.05,-15.43 16.66,-17.76 16.87,-17.96 17.08,-18.16 17.34,-18.28 17.60,-18.41 17.89,-18.44 18.17,-18.47 18.45,-18.41 18.74,-18.35 18.98,-18.20 19.23,-18.06 19.42,-17.84 19.61,-17.62 19.71,-17.35 19.82,-17.09 19.84,-16.80 19.86,-16.51 19.78,-16.23 19.70,-15.96 19.54,-15.72 19.38,-15.48 19.16,-15.30 18.93,-15.13 18.66,-15.03 18.38,-14.94 18.09,-14.94 17.81,-14.94 17.53,-15.03 17.26,-15.12 17.03,-15.29 16.80,-15.46 16.64,-15.70 16.47,-15.94 16.40,-16.22 16.32,-16.49 16.33,-16.78 16.35,-17.07 16.45,-17.34 16.56,-17.60 16.74,-17.82 16.93,-18.04 17.17,-18.19 17.42,-18.34 17.70,-18.41 17.98,-18.47 18.27,-18.44 18.55,-18.41 18.81,-18.29 19.08,-18.17 19.29,-17.98 19.50,-17.78 19.63,-17.52 19.77,-17.27 19.82,-16.99 19.87,-16.70 19.82,-16.42 19.77,-16.13 19.64,-15.88 19.51,-15.62 19.51,-15.62 19.51,-15.62 17.56,-13.21 15.60,-10.80 13.20,-8.48 10.80,-6.16 7.87,-3.50 4.93,-0.85 2.98,0.42 1.02,1.70 0.80,1.80 0.58,1.90 0.34,1.94 0.11,1.98 -0.12,1.97 -0.36,1.95 -0.59,1.88 -0.82,1.81 -1.02,1.68 -1.23,1.56 -1.40,1.39 -1.57,1.22 -1.69,1.01 -1.81,0.81 -1.88,0.58 -1.96,0.35 -1.97,0.11 -1.98,-0.12 -1.94,-0.36 -1.89,-0.59 -1.80,-0.81 -1.70,-1.03 -1.55,-1.22 -1.40,-1.41 -1.21,-1.56 -1.02,-1.70 -1.02,-1.70 L -1.02,-1.70 Z"></path></g><g stroke-opacity="0.4" fill-opacity="0.4" transform="translate(417.73333731341654 163.0739491620336) rotate(0 13.915813560184915 8.34948813611095)" stroke="none"><path fill="#495057" d="M 1.15,-1.53 Q 1.15,-1.53 4.30,0.92 7.45,3.39 10.74,5.63 14.02,7.87 16.63,9.65 19.23,11.43 20.78,12.57 22.32,13.72 25.30,14.35 28.28,14.99 28.54,15.10 28.80,15.22 29.01,15.41 29.22,15.61 29.36,15.86 29.49,16.11 29.54,16.39 29.59,16.67 29.55,16.95 29.51,17.24 29.38,17.49 29.25,17.74 29.04,17.94 28.84,18.14 28.58,18.27 28.32,18.39 28.04,18.42 27.76,18.46 27.48,18.40 27.20,18.34 26.95,18.20 26.70,18.06 26.51,17.84 26.33,17.63 26.22,17.36 26.11,17.10 26.09,16.81 26.07,16.53 26.14,16.25 26.21,15.97 26.37,15.74 26.53,15.50 26.75,15.32 26.98,15.14 27.25,15.05 27.52,14.95 27.80,14.95 28.09,14.95 28.36,15.03 28.63,15.12 28.86,15.29 29.09,15.46 29.26,15.70 29.42,15.93 29.50,16.20 29.58,16.48 29.57,16.76 29.56,17.05 29.45,17.32 29.35,17.58 29.17,17.80 28.99,18.02 28.75,18.18 28.50,18.33 28.22,18.39 27.95,18.46 27.66,18.43 27.38,18.40 27.38,18.40 27.38,18.40 23.94,17.35 20.49,16.30 19.01,15.16 17.52,14.02 14.87,12.31 12.21,10.60 8.78,8.40 5.34,6.20 2.09,3.87 -1.15,1.53 -1.32,1.37 -1.48,1.21 -1.61,1.02 -1.73,0.82 -1.80,0.60 -1.88,0.38 -1.90,0.15 -1.92,-0.07 -1.88,-0.30 -1.84,-0.53 -1.75,-0.74 -1.66,-0.95 -1.52,-1.14 -1.38,-1.33 -1.20,-1.47 -1.02,-1.62 -0.81,-1.72 -0.61,-1.82 -0.38,-1.86 -0.15,-1.91 0.07,-1.90 0.30,-1.89 0.52,-1.83 0.75,-1.76 0.95,-1.65 1.15,-1.53 1.15,-1.53 L 1.15,-1.53 Z"></path></g><g stroke-opacity="0.4" fill-opacity="0.4" transform="translate(477.57133562221156 126.89283390555283) rotate(0 -0.6957906780093026 13.220022882175726)" stroke="none"><path fill="#495057" d="M 1.89,0.37 Q 1.89,0.37 1.43,2.36 0.97,4.35 0.75,7.07 0.53,9.80 0.41,12.98 0.29,16.16 0.22,18.31 0.16,20.47 0.24,23.46 0.32,26.45 0.28,26.72 0.23,27.00 0.10,27.24 -0.02,27.49 -0.23,27.68 -0.43,27.87 -0.69,27.98 -0.94,28.10 -1.22,28.12 -1.49,28.15 -1.76,28.09 -2.04,28.03 -2.27,27.88 -2.51,27.74 -2.69,27.52 -2.87,27.31 -2.97,27.05 -3.07,26.79 -3.08,26.51 -3.10,26.24 -3.02,25.97 -2.94,25.70 -2.78,25.47 -2.63,25.24 -2.40,25.08 -2.18,24.91 -1.92,24.82 -1.65,24.73 -1.37,24.74 -1.10,24.74 -0.83,24.83 -0.57,24.92 -0.35,25.09 -0.13,25.26 0.02,25.49 0.17,25.72 0.24,25.99 0.32,26.26 0.30,26.54 0.28,26.82 0.18,27.08 0.07,27.33 -0.10,27.54 -0.28,27.76 -0.52,27.90 -0.76,28.04 -1.03,28.10 -1.31,28.15 -1.58,28.12 -1.86,28.09 -2.11,27.97 -2.36,27.85 -2.56,27.66 -2.76,27.47 -2.89,27.22 -3.02,26.97 -3.06,26.70 -3.11,26.42 -3.11,26.42 -3.11,26.42 -2.98,23.43 -2.85,20.43 -2.85,18.26 -2.86,16.09 -2.84,12.84 -2.81,9.60 -2.69,6.62 -2.58,3.64 -2.23,1.63 -1.89,-0.37 -1.82,-0.60 -1.75,-0.82 -1.62,-1.02 -1.50,-1.21 -1.33,-1.38 -1.16,-1.54 -0.96,-1.66 -0.76,-1.77 -0.54,-1.84 -0.31,-1.91 -0.08,-1.92 0.14,-1.93 0.37,-1.88 0.60,-1.83 0.81,-1.74 1.02,-1.64 1.21,-1.49 1.39,-1.34 1.53,-1.16 1.67,-0.97 1.76,-0.76 1.85,-0.54 1.89,-0.31 1.93,-0.08 1.91,0.14 1.89,0.38 1.89,0.37 L 1.89,0.37 Z"></path></g><g stroke-opacity="0.4" fill-opacity="0.4" transform="translate(476.17975426619296 178.3813440782369) rotate(0 0.6957906780093026 0)" stroke="none"><path fill="#495057" d="M 2.12,-0.66 Q 2.12,-0.66 2.15,-0.13 2.18,0.40 1.96,0.88 1.74,1.36 1.32,1.69 0.91,2.02 0.38,2.12 -0.13,2.21 -0.64,2.05 -1.14,1.90 -1.52,1.52 -1.90,1.14 -2.05,0.64 -2.21,0.13 -2.12,-0.38 -2.02,-0.91 -1.69,-1.32 -1.36,-1.74 -0.88,-1.96 -0.39,-2.18 0.13,-2.15 0.66,-2.11 1.11,-1.84 1.57,-1.56 1.84,-1.11 L 2.12,-0.66 Z"></path></g><g stroke-opacity="0.4" fill-opacity="0.4" transform="translate(700.22435258517 206.21297119860697) rotate(0 4.8705347460646635 28.52741779837902)" stroke="none"><path fill="#495057" d="M 1.78,0 Q 1.78,0 1.72,2.39 1.66,4.79 3.20,13.27 4.74,21.75 6.18,30.23 7.63,38.71 8.24,43.95 8.85,49.19 9.48,51.28 10.10,53.38 10.66,54.99 11.22,56.60 11.26,56.85 11.29,57.10 11.24,57.35 11.19,57.59 11.07,57.81 10.94,58.03 10.75,58.20 10.57,58.36 10.34,58.46 10.10,58.56 9.85,58.58 9.60,58.60 9.36,58.54 9.12,58.47 8.90,58.34 8.69,58.20 8.54,58.00 8.38,57.81 8.30,57.57 8.21,57.34 8.20,57.08 8.20,56.83 8.27,56.59 8.35,56.35 8.50,56.15 8.64,55.95 8.85,55.80 9.05,55.66 9.29,55.58 9.53,55.51 9.78,55.52 10.04,55.53 10.27,55.61 10.51,55.70 10.70,55.86 10.90,56.02 11.03,56.23 11.17,56.44 11.22,56.69 11.28,56.93 11.26,57.18 11.24,57.43 11.14,57.66 11.04,57.89 10.87,58.08 10.70,58.26 10.48,58.39 10.26,58.51 10.02,58.56 9.77,58.60 9.52,58.57 9.27,58.53 9.05,58.42 8.82,58.31 8.65,58.13 8.47,57.95 8.36,57.72 8.25,57.50 8.25,57.50 8.25,57.50 7.82,55.85 7.40,54.19 6.69,51.87 5.98,49.54 5.33,44.39 4.68,39.23 3.17,30.78 1.66,22.33 -0.00,13.56 -1.66,4.80 -1.72,2.40 -1.78,0 -1.76,-0.21 -1.73,-0.42 -1.66,-0.63 -1.58,-0.83 -1.46,-1.00 -1.33,-1.18 -1.17,-1.33 -1.01,-1.47 -0.82,-1.57 -0.63,-1.67 -0.42,-1.72 -0.21,-1.77 0.00,-1.77 0.21,-1.77 0.42,-1.72 0.63,-1.67 0.82,-1.57 1.01,-1.47 1.17,-1.32 1.33,-1.18 1.46,-1.00 1.58,-0.83 1.66,-0.62 1.73,-0.42 1.76,-0.21 1.78,0.00 1.78,0.00 L 1.78,0 Z"></path></g><g stroke-opacity="0.4" fill-opacity="0.4" transform="translate(705.790678009244 214.5624593347177) rotate(0 11.132650848147819 8.34948813611095)" stroke="none"><path fill="#495057" d="M -0.21,-1.74 Q -0.21,-1.74 2.99,-2.08 6.20,-2.42 10.50,-2.15 14.80,-1.88 16.99,-1.75 19.17,-1.61 20.56,-1.02 21.95,-0.44 22.71,1.38 23.47,3.21 22.79,5.47 22.12,7.73 20.06,10.30 17.99,12.86 16.23,14.35 14.46,15.85 11.89,16.56 9.31,17.27 7.50,17.58 5.69,17.88 5.98,17.19 6.27,16.50 6.51,16.65 6.74,16.81 6.92,17.03 7.09,17.25 7.18,17.52 7.28,17.78 7.28,18.07 7.28,18.35 7.20,18.62 7.11,18.88 6.94,19.11 6.77,19.34 6.54,19.50 6.31,19.66 6.04,19.74 5.77,19.81 5.49,19.80 5.21,19.79 4.94,19.69 4.68,19.59 4.46,19.41 4.25,19.23 4.10,18.99 3.95,18.75 3.89,18.47 3.82,18.20 3.85,17.92 3.88,17.64 3.99,17.38 4.11,17.12 4.30,16.92 4.49,16.71 4.74,16.58 4.99,16.44 5.26,16.39 5.54,16.34 5.82,16.39 6.10,16.43 6.35,16.56 6.60,16.69 6.80,16.89 6.99,17.09 7.11,17.35 7.23,17.60 7.27,17.88 7.30,18.16 7.24,18.44 7.19,18.71 7.04,18.95 6.90,19.20 6.69,19.38 6.48,19.57 6.21,19.67 5.95,19.78 5.67,19.80 5.39,19.82 5.12,19.75 4.85,19.67 4.85,19.67 4.85,19.67 4.97,17.22 5.10,14.76 6.82,14.55 8.55,14.35 10.53,13.87 12.51,13.39 13.93,12.08 15.36,10.76 17.03,8.61 18.71,6.45 19.30,5.13 19.90,3.81 19.42,2.57 18.94,1.32 16.79,1.26 14.63,1.20 10.61,1.01 6.59,0.82 3.40,1.28 0.21,1.74 0.00,1.74 -0.20,1.74 -0.41,1.69 -0.61,1.64 -0.80,1.54 -0.99,1.45 -1.15,1.31 -1.31,1.17 -1.43,0.99 -1.55,0.82 -1.62,0.62 -1.70,0.42 -1.73,0.21 -1.75,0.00 -1.73,-0.20 -1.70,-0.41 -1.63,-0.61 -1.55,-0.81 -1.43,-0.98 -1.32,-1.16 -1.16,-1.30 -1.00,-1.44 -0.81,-1.54 -0.62,-1.64 -0.42,-1.69 -0.21,-1.74 -0.21,-1.74 L -0.21,-1.74 Z"></path></g><g stroke-opacity="0.4" fill-opacity="0.4" transform="translate(743.3633746217431 235.43617967499517) rotate(0 0 -10.436860170138743)" stroke="none"><path fill="#495057" d="M -1.93,0 Q -1.93,0 -1.84,-3.20 -1.76,-6.40 -1.70,-9.76 -1.64,-13.12 -1.59,-15.35 -1.55,-17.57 -1.61,-19.22 -1.68,-20.87 -1.63,-21.14 -1.59,-21.41 -1.46,-21.65 -1.33,-21.89 -1.14,-22.07 -0.94,-22.26 -0.69,-22.37 -0.44,-22.49 -0.17,-22.52 0.09,-22.55 0.35,-22.49 0.62,-22.43 0.85,-22.29 1.08,-22.15 1.26,-21.94 1.44,-21.74 1.54,-21.48 1.64,-21.23 1.65,-20.96 1.67,-20.69 1.59,-20.42 1.52,-20.16 1.37,-19.94 1.22,-19.71 1.00,-19.55 0.78,-19.38 0.52,-19.30 0.27,-19.21 -0.00,-19.21 -0.27,-19.21 -0.52,-19.30 -0.78,-19.38 -1.00,-19.55 -1.22,-19.71 -1.37,-19.94 -1.52,-20.16 -1.59,-20.43 -1.67,-20.69 -1.65,-20.96 -1.64,-21.23 -1.54,-21.48 -1.44,-21.74 -1.26,-21.94 -1.08,-22.15 -0.85,-22.29 -0.62,-22.43 -0.35,-22.49 -0.09,-22.55 0.17,-22.52 0.45,-22.49 0.69,-22.37 0.94,-22.26 1.14,-22.07 1.33,-21.89 1.46,-21.65 1.59,-21.40 1.63,-21.14 1.68,-20.87 1.68,-20.87 1.68,-20.87 1.61,-19.22 1.55,-17.57 1.59,-15.35 1.64,-13.12 1.70,-9.76 1.76,-6.40 1.84,-3.20 1.93,0 1.90,0.23 1.87,0.46 1.79,0.67 1.71,0.89 1.57,1.08 1.44,1.28 1.27,1.43 1.09,1.58 0.89,1.69 0.68,1.80 0.45,1.86 0.23,1.91 -0.00,1.91 -0.23,1.91 -0.45,1.86 -0.68,1.80 -0.89,1.69 -1.09,1.58 -1.27,1.43 -1.44,1.28 -1.57,1.08 -1.71,0.89 -1.79,0.67 -1.87,0.46 -1.90,0.23 -1.93,-0.00 -1.93,-0.00 L -1.93,0 Z"></path></g><g stroke-opacity="0.4" fill-opacity="0.4" transform="translate(741.9717932657245 192.29715763842182) rotate(0 0 -1.3915813560183778)" stroke="none"><path fill="#495057" d="M 2.12,-0.66 Q 2.12,-0.66 2.15,-0.13 2.18,0.40 1.96,0.88 1.74,1.36 1.32,1.69 0.91,2.02 0.38,2.12 -0.13,2.21 -0.64,2.05 -1.14,1.90 -1.52,1.52 -1.90,1.14 -2.05,0.64 -2.21,0.13 -2.12,-0.38 -2.02,-0.91 -1.69,-1.32 -1.36,-1.74 -0.88,-1.96 -0.39,-2.18 0.13,-2.15 0.66,-2.11 1.11,-1.84 1.57,-1.56 1.84,-1.11 L 2.12,-0.66 Z"></path></g><g stroke-opacity="0.4" fill-opacity="0.4" transform="translate(786.5023966583162 188.12241357036646) rotate(0 0 20.873720340277373)" stroke="none"><path fill="#495057" d="M 2.24,0 Q 2.24,0 2.12,5.60 2.00,11.20 1.90,16.78 1.81,22.36 1.74,25.93 1.68,29.50 1.68,31.42 1.68,33.34 1.77,34.56 1.86,35.77 2.02,38.76 2.17,41.74 2.12,42.09 2.06,42.44 1.90,42.75 1.73,43.06 1.47,43.30 1.22,43.55 0.90,43.69 0.58,43.84 0.23,43.88 -0.11,43.92 -0.46,43.84 -0.80,43.77 -1.10,43.59 -1.41,43.40 -1.63,43.13 -1.86,42.87 -1.99,42.54 -2.12,42.21 -2.14,41.86 -2.16,41.51 -2.07,41.17 -1.97,40.83 -1.77,40.54 -1.58,40.24 -1.30,40.03 -1.02,39.82 -0.68,39.70 -0.35,39.59 0.00,39.59 0.35,39.59 0.68,39.70 1.02,39.82 1.30,40.03 1.58,40.24 1.78,40.54 1.97,40.83 2.07,41.17 2.16,41.51 2.14,41.86 2.12,42.21 1.99,42.54 1.86,42.87 1.63,43.14 1.41,43.40 1.10,43.59 0.80,43.77 0.46,43.84 0.11,43.92 -0.23,43.88 -0.58,43.84 -0.90,43.69 -1.22,43.55 -1.47,43.30 -1.73,43.06 -1.90,42.75 -2.06,42.44 -2.12,42.09 -2.17,41.74 -2.17,41.74 -2.17,41.74 -2.02,38.76 -1.86,35.77 -1.77,34.56 -1.68,33.34 -1.68,31.42 -1.68,29.50 -1.74,25.93 -1.81,22.36 -1.90,16.78 -2.00,11.20 -2.12,5.60 -2.24,0 -2.21,-0.26 -2.18,-0.53 -2.08,-0.79 -1.99,-1.04 -1.83,-1.26 -1.68,-1.49 -1.47,-1.67 -1.27,-1.85 -1.03,-1.97 -0.79,-2.10 -0.53,-2.16 -0.27,-2.23 0.00,-2.23 0.27,-2.23 0.53,-2.16 0.79,-2.10 1.03,-1.97 1.27,-1.84 1.47,-1.67 1.68,-1.49 1.83,-1.26 1.99,-1.04 2.08,-0.79 2.18,-0.53 2.21,-0.26 2.24,0.00 2.24,0.00 L 2.24,0 Z"></path></g><g stroke-opacity="0.4" fill-opacity="0.4" transform="translate(783.7192339462792 218.73720340277328) rotate(0 -2.087372034027794 6.957906780092344)" stroke="none"><path fill="#495057" d="M 0,2.64 Q 0,2.64 -1.15,2.65 -2.30,2.65 -2.44,4.30 -2.58,5.94 -2.61,7.02 -2.63,8.10 -2.61,9.74 -2.58,11.39 -0.57,11.06 1.43,10.73 1.94,10.82 2.45,10.91 2.90,11.16 3.35,11.41 3.70,11.79 4.04,12.17 4.25,12.64 4.46,13.11 4.51,13.62 4.56,14.13 4.44,14.63 4.32,15.13 4.05,15.57 3.78,16.01 3.38,16.33 2.99,16.66 2.50,16.84 2.02,17.03 1.51,17.05 1.00,17.07 0.50,16.92 0.01,16.78 -0.40,16.48 -0.82,16.19 -1.13,15.77 -1.44,15.36 -1.59,14.87 -1.75,14.38 -1.74,13.86 -1.73,13.35 -1.56,12.86 -1.39,12.38 -1.07,11.97 -0.76,11.57 -0.33,11.29 0.09,11.00 0.59,10.87 1.09,10.74 1.60,10.78 2.12,10.82 2.59,11.01 3.07,11.21 3.45,11.55 3.84,11.89 4.10,12.33 4.36,12.78 4.46,13.28 4.56,13.79 4.50,14.30 4.44,14.81 4.21,15.27 3.99,15.73 3.63,16.10 3.27,16.47 2.81,16.71 2.36,16.94 1.85,17.02 1.34,17.09 1.34,17.09 1.34,17.09 -1.48,16.92 -4.32,16.74 -5.43,16.33 -6.53,15.92 -7.33,14.83 -8.12,13.75 -8.32,12.55 -8.53,11.35 -8.46,9.65 -8.40,7.95 -8.26,5.76 -8.12,3.58 -7.73,2.02 -7.35,0.47 -6.42,-0.53 -5.49,-1.55 -3.99,-2.10 -2.49,-2.65 -1.24,-2.65 0,-2.64 0.31,-2.60 0.63,-2.57 0.93,-2.45 1.23,-2.34 1.49,-2.16 1.75,-1.98 1.96,-1.74 2.17,-1.50 2.32,-1.22 2.47,-0.93 2.55,-0.62 2.62,-0.31 2.62,0.00 2.62,0.31 2.55,0.62 2.47,0.93 2.32,1.22 2.17,1.50 1.96,1.74 1.75,1.98 1.49,2.16 1.23,2.34 0.93,2.45 0.63,2.57 0.31,2.60 -0.00,2.64 -0.00,2.64 L 0,2.64 Z"></path></g><g stroke-opacity="0.4" fill-opacity="0.4" transform="translate(818.5087678467414 214.5624593347177) rotate(0 4.8705347460646635 7.65369745810176)" stroke="none"><path fill="#495057" d="M -1.30,-1.08 Q -1.30,-1.08 0.73,-3.44 2.76,-5.81 4.35,-9.05 5.93,-12.29 6.61,-14.81 7.29,-17.32 7.48,-18.08 7.67,-18.83 7.74,-19.02 7.82,-19.21 7.93,-19.37 8.05,-19.54 8.21,-19.67 8.36,-19.80 8.54,-19.90 8.72,-19.99 8.92,-20.03 9.12,-20.08 9.32,-20.07 9.53,-20.07 9.72,-20.02 9.92,-19.97 10.10,-19.87 10.28,-19.77 10.43,-19.63 10.58,-19.50 10.69,-19.33 10.80,-19.16 10.87,-18.97 10.94,-18.78 10.96,-18.57 10.98,-18.37 10.95,-18.17 10.93,-17.97 11.03,-16.55 11.14,-15.14 11.16,-11.57 11.17,-8.00 10.77,-2.05 10.36,3.90 10.18,9.58 10.00,15.26 9.92,20.47 9.84,25.69 9.80,28.70 9.76,31.72 9.73,33.96 9.70,36.19 9.66,36.41 9.62,36.62 9.52,36.81 9.42,37.01 9.25,37.16 9.09,37.30 8.89,37.39 8.69,37.48 8.48,37.51 8.26,37.53 8.04,37.48 7.83,37.43 7.64,37.31 7.46,37.20 7.32,37.03 7.18,36.86 7.10,36.66 7.02,36.45 7.01,36.24 7.00,36.02 7.06,35.81 7.12,35.60 7.25,35.42 7.37,35.23 7.55,35.10 7.72,34.97 7.93,34.91 8.14,34.84 8.36,34.84 8.58,34.84 8.78,34.91 8.99,34.99 9.16,35.12 9.34,35.25 9.46,35.44 9.58,35.62 9.64,35.83 9.69,36.04 9.68,36.26 9.66,36.48 9.58,36.68 9.50,36.89 9.35,37.05 9.21,37.22 9.02,37.33 8.83,37.44 8.62,37.48 8.40,37.53 8.19,37.50 7.97,37.48 7.77,37.38 7.57,37.29 7.42,37.14 7.26,36.99 7.16,36.79 7.06,36.60 7.02,36.38 6.99,36.16 6.99,36.16 6.99,36.16 7.00,33.93 7.02,31.70 7.04,28.67 7.05,25.65 7.11,20.41 7.16,15.18 7.30,9.44 7.44,3.71 7.79,-2.12 8.14,-7.96 8.05,-11.43 7.96,-14.90 7.81,-16.87 7.67,-18.83 7.74,-19.02 7.82,-19.21 7.93,-19.37 8.05,-19.54 8.21,-19.67 8.36,-19.80 8.54,-19.90 8.72,-19.99 8.92,-20.03 9.12,-20.08 9.32,-20.07 9.53,-20.07 9.72,-20.02 9.92,-19.97 10.10,-19.87 10.28,-19.77 10.43,-19.63 10.58,-19.50 10.69,-19.33 10.80,-19.16 10.87,-18.97 10.94,-18.78 10.96,-18.58 10.98,-18.37 10.95,-18.17 10.93,-17.97 10.52,-17.27 10.11,-16.57 9.39,-13.78 8.67,-10.98 6.95,-7.38 5.23,-3.79 3.26,-1.35 1.30,1.08 1.15,1.22 1.00,1.36 0.82,1.46 0.65,1.56 0.45,1.62 0.25,1.67 0.05,1.68 -0.15,1.69 -0.35,1.64 -0.55,1.60 -0.73,1.51 -0.92,1.42 -1.07,1.29 -1.23,1.16 -1.35,0.99 -1.47,0.83 -1.55,0.64 -1.63,0.45 -1.66,0.25 -1.69,0.05 -1.67,-0.15 -1.66,-0.35 -1.59,-0.55 -1.52,-0.74 -1.41,-0.91 -1.30,-1.08 -1.30,-1.08 L -1.30,-1.08 Z"></path></g></svg>