<svg version="1.1" xmlns="http://www.w3.org/2000/svg" viewBox="0 0 929.8184928630135 589.0068873507003" width="929.8184928630135" height="589.0068873507003">
  <!-- svg-source:excalidraw -->
  
  <defs>
    <style>
      @font-face {
        font-family: "Virgil";
        src: url("https://excalidraw.com/Virgil.woff2");
      }
      @font-face {
        font-family: "Cascadia";
        src: url("https://excalidraw.com/Cascadia.woff2");
      }
    </style>
  </defs>
  <rect x="0" y="0" width="929.8184928630135" height="589.0068873507003" fill="#ffffff"></rect><g transform="translate(556.6316567249369 547.1173114946737) rotate(0 176.27848875970062 -168.30609479569387)" stroke="none"><path fill="#000000" d="M -1.56,0 Q -1.56,0 -1.52,-3.05 -1.49,-6.11 -1.46,-11.48 -1.44,-16.85 -1.42,-24.74 -1.40,-32.63 -1.39,-45.15 -1.38,-57.67 -1.88,-74.17 -2.38,-90.68 -3.60,-108.88 -4.83,-127.09 -5.86,-146.56 -6.89,-166.03 -7.33,-179.41 -7.76,-192.79 -7.95,-204.09 -8.13,-215.38 -8.72,-225.24 -9.30,-235.10 -10.06,-241.81 -10.81,-248.53 -11.14,-253.47 -11.46,-258.40 -11.60,-261.52 -11.74,-264.64 -11.80,-266.99 -11.85,-269.34 -11.99,-270.85 -12.12,-272.36 -11.57,-274.70 -11.02,-277.04 -9.75,-280.58 -8.47,-284.12 -5.88,-289.73 -3.28,-295.33 -0.64,-300.75 1.98,-306.17 5.14,-312.55 8.30,-318.92 11.68,-325.71 15.06,-332.49 18.03,-338.43 20.99,-344.37 23.25,-349.90 25.51,-355.44 27.00,-358.84 28.49,-362.24 29.09,-364.16 29.69,-366.08 31.16,-367.35 32.63,-368.62 34.21,-367.90 35.79,-367.19 36.77,-365.10 37.74,-363.01 38.55,-360.09 39.36,-357.17 41.70,-350.40 44.03,-343.63 47.06,-333.05 50.09,-322.47 53.40,-311.38 56.70,-300.28 59.13,-291.47 61.55,-282.66 63.07,-277.93 64.59,-273.21 65.65,-271.35 66.71,-269.48 68.03,-268.91 69.34,-268.34 71.27,-268.03 73.21,-267.72 77.60,-267.55 81.99,-267.39 88.02,-266.80 94.04,-266.20 103.16,-265.95 112.27,-265.70 123.79,-265.59 135.32,-265.48 148.36,-265.43 161.41,-265.38 172.56,-265.35 183.71,-265.33 199.65,-265.32 215.60,-265.31 227.52,-264.28 239.45,-263.26 248.58,-262.31 257.71,-261.36 264.61,-260.96 271.52,-260.56 276.05,-259.88 280.59,-259.19 283.47,-258.91 286.36,-258.62 288.55,-258.49 290.74,-258.36 291.93,-260.69 293.11,-263.01 294.53,-266.97 295.95,-270.93 298.12,-275.74 300.28,-280.54 302.72,-286.61 305.15,-292.68 309.28,-300.42 313.41,-308.17 318.19,-319.03 322.97,-329.89 326.54,-337.59 330.12,-345.29 331.60,-350.50 333.09,-355.71 334.24,-357.96 335.40,-360.21 335.46,-360.36 335.52,-360.51 335.62,-360.64 335.71,-360.76 335.84,-360.87 335.96,-360.97 336.10,-361.04 336.25,-361.11 336.41,-361.14 336.56,-361.17 336.72,-361.17 336.88,-361.16 337.04,-361.12 337.19,-361.07 337.33,-360.99 337.47,-360.91 337.58,-360.80 337.70,-360.69 337.79,-360.56 337.87,-360.42 337.92,-360.27 337.97,-360.12 337.99,-359.96 338.00,-359.80 337.98,-359.64 337.95,-359.48 340.49,-353.96 343.02,-348.43 344.63,-341.55 346.24,-334.67 347.44,-326.09 348.63,-317.50 350.14,-309.85 351.65,-302.19 353.31,-295.38 354.96,-288.57 356.66,-283.69 358.36,-278.81 359.60,-275.18 360.84,-271.55 361.85,-270.19 362.85,-268.82 363.48,-267.55 364.10,-266.28 364.43,-265.15 364.75,-264.03 364.90,-262.46 365.05,-260.90 365.00,-254.63 364.94,-248.37 363.36,-233.41 361.77,-218.45 359.55,-201.93 357.33,-185.41 355.35,-163.15 353.38,-140.89 352.02,-126.83 350.66,-112.77 350.07,-100.21 349.49,-87.65 349.23,-80.77 348.98,-73.90 348.87,-69.45 348.75,-65.01 348.70,-62.61 348.65,-60.21 348.63,-57.67 348.61,-55.13 348.59,-52.52 348.58,-49.91 348.58,-46.77 348.57,-43.62 348.57,-37.70 348.56,-31.78 348.56,-27.74 348.56,-23.69 349.06,-18.47 349.57,-13.25 350.28,-10.06 350.99,-6.88 351.31,-3.89 351.63,-0.90 351.84,0.85 352.05,2.62 352.16,4.41 352.27,6.20 352.76,8.87 353.24,11.54 353.45,13.81 353.66,16.07 354.24,17.89 354.82,19.71 355.14,21.67 355.46,23.62 355.67,24.95 355.89,26.28 356.04,28.76 356.18,31.24 356.14,31.54 356.09,31.84 355.96,32.11 355.82,32.38 355.61,32.59 355.39,32.81 355.12,32.94 354.85,33.07 354.55,33.11 354.25,33.15 353.95,33.09 353.66,33.03 353.39,32.88 353.13,32.73 352.93,32.50 352.73,32.28 352.61,32.00 352.50,31.72 352.47,31.42 352.45,31.12 352.52,30.82 352.60,30.53 352.76,30.28 352.93,30.02 353.17,29.84 353.40,29.65 353.69,29.55 353.97,29.44 354.27,29.44 354.58,29.43 354.86,29.52 355.15,29.61 355.40,29.79 355.64,29.97 355.82,30.22 355.99,30.46 356.08,30.75 356.16,31.04 356.15,31.34 356.14,31.65 356.04,31.93 355.93,32.21 355.74,32.45 355.55,32.68 355.29,32.84 355.04,33.00 354.74,33.07 354.45,33.14 354.15,33.12 353.85,33.09 353.57,32.97 353.29,32.85 353.07,32.65 352.85,32.44 352.70,32.18 352.55,31.91 352.50,31.62 352.44,31.32 352.44,31.32 352.44,31.32 352.44,28.95 352.43,26.57 352.43,25.31 352.43,24.05 352.23,22.30 352.04,20.56 351.41,18.47 350.77,16.38 350.53,14.24 350.29,12.10 349.70,9.20 349.12,6.30 349.12,4.57 349.12,2.83 349.07,1.10 349.02,-0.62 348.72,-3.47 348.42,-6.31 347.68,-9.65 346.94,-12.99 346.43,-18.34 345.92,-23.69 345.92,-27.74 345.92,-31.78 345.91,-37.70 345.91,-43.62 345.91,-46.77 345.92,-49.92 345.92,-52.54 345.92,-55.15 345.94,-57.71 345.95,-60.26 345.99,-62.67 346.02,-65.07 346.11,-69.53 346.21,-74.00 346.43,-80.88 346.66,-87.77 347.21,-100.41 347.76,-113.04 349.07,-127.10 350.38,-141.15 352.29,-163.49 354.20,-185.82 356.32,-202.31 358.44,-218.79 359.88,-233.57 361.32,-248.35 361.20,-254.52 361.08,-260.68 361.02,-262.89 360.96,-265.10 360.70,-266.16 360.44,-267.22 359.37,-268.94 358.31,-270.66 357.06,-274.29 355.81,-277.92 354.05,-282.92 352.30,-287.92 350.61,-294.78 348.93,-301.65 347.38,-309.38 345.83,-317.11 344.62,-325.55 343.41,-334.00 341.75,-340.82 340.10,-347.64 338.88,-352.63 337.67,-357.61 336.53,-358.91 335.40,-360.21 335.46,-360.36 335.52,-360.51 335.62,-360.64 335.71,-360.76 335.84,-360.87 335.96,-360.97 336.10,-361.04 336.25,-361.11 336.41,-361.14 336.56,-361.17 336.72,-361.17 336.88,-361.16 337.04,-361.12 337.19,-361.07 337.33,-360.99 337.47,-360.91 337.58,-360.80 337.70,-360.69 337.79,-360.56 337.87,-360.42 337.92,-360.27 337.97,-360.12 337.99,-359.96 338.00,-359.80 337.98,-359.64 337.95,-359.48 336.80,-357.23 335.65,-354.97 334.10,-349.57 332.55,-344.16 329.00,-336.48 325.44,-328.80 320.63,-317.84 315.82,-306.89 311.77,-299.27 307.72,-291.65 305.29,-285.52 302.86,-279.39 300.78,-274.68 298.69,-269.97 297.29,-265.92 295.89,-261.87 294.72,-259.32 293.55,-256.77 292.15,-256.27 290.75,-255.77 288.43,-255.88 286.10,-256.00 283.14,-256.29 280.19,-256.59 275.78,-257.26 271.36,-257.93 264.40,-258.33 257.44,-258.74 248.33,-259.68 239.22,-260.62 227.41,-261.64 215.60,-262.65 199.65,-262.66 183.71,-262.66 172.55,-262.68 161.40,-262.69 148.35,-262.73 135.29,-262.77 123.75,-262.87 112.20,-262.96 102.99,-263.20 93.77,-263.44 87.83,-264.00 81.89,-264.55 77.31,-264.70 72.73,-264.84 70.32,-265.26 67.91,-265.68 66.19,-266.83 64.48,-267.97 63.21,-270.15 61.94,-272.33 60.37,-277.12 58.80,-281.90 56.35,-290.67 53.89,-299.44 50.53,-310.53 47.16,-321.62 44.08,-332.09 41.00,-342.57 38.54,-349.37 36.08,-356.18 35.21,-358.84 34.34,-361.51 33.28,-363.33 32.22,-365.15 31.57,-363.17 30.92,-361.18 29.45,-357.81 27.98,-354.43 25.68,-348.80 23.39,-343.18 20.43,-337.23 17.47,-331.29 14.10,-324.51 10.73,-317.72 7.59,-311.35 4.45,-304.97 1.85,-299.57 -0.74,-294.16 -3.26,-288.66 -5.78,-283.17 -6.97,-279.77 -8.16,-276.38 -8.61,-274.39 -9.06,-272.39 -9.14,-270.90 -9.22,-269.41 -9.16,-267.08 -9.11,-264.75 -8.97,-261.67 -8.83,-258.58 -8.51,-253.70 -8.19,-248.83 -7.43,-242.04 -6.66,-235.26 -6.07,-225.34 -5.48,-215.42 -5.29,-204.15 -5.10,-192.88 -4.66,-179.53 -4.21,-166.18 -3.18,-146.72 -2.14,-127.27 -0.89,-109.02 0.34,-90.76 0.86,-74.22 1.38,-57.67 1.39,-45.15 1.40,-32.63 1.42,-24.74 1.44,-16.85 1.46,-11.48 1.49,-6.11 1.52,-3.05 1.56,0 1.53,0.18 1.51,0.37 1.45,0.54 1.38,0.72 1.27,0.88 1.16,1.03 1.02,1.16 0.88,1.28 0.72,1.37 0.55,1.46 0.37,1.50 0.18,1.55 -0.00,1.55 -0.18,1.55 -0.37,1.50 -0.55,1.46 -0.72,1.37 -0.88,1.28 -1.02,1.16 -1.16,1.03 -1.27,0.88 -1.38,0.72 -1.45,0.54 -1.51,0.37 -1.53,0.18 -1.56,-0.00 -1.56,-0.00 L -1.56,0 Z"></path></g><g transform="translate(602.6943774058636 369.9530011834172) rotate(0 36.31868361380771 0.8858215515563188)" stroke="none"><path fill="#000000" d="M 0,-1.59 Q 0,-1.59 2.54,-1.55 5.09,-1.51 8.82,-0.97 12.55,-0.42 19.61,-0.19 26.68,0.03 32.76,0.13 38.84,0.24 43.47,0.29 48.09,0.34 51.58,0.36 55.07,0.39 58.08,0.40 61.09,0.41 63.39,0.42 65.69,0.43 68.54,0.31 71.38,0.19 71.63,0.23 71.88,0.27 72.11,0.39 72.34,0.51 72.51,0.69 72.69,0.88 72.79,1.11 72.90,1.34 72.93,1.60 72.96,1.85 72.90,2.10 72.85,2.35 72.71,2.57 72.58,2.79 72.39,2.96 72.19,3.12 71.95,3.22 71.72,3.31 71.46,3.32 71.21,3.34 70.96,3.27 70.71,3.20 70.50,3.06 70.29,2.91 70.14,2.71 69.98,2.51 69.90,2.26 69.82,2.02 69.82,1.76 69.82,1.51 69.90,1.27 69.98,1.02 70.14,0.82 70.29,0.62 70.50,0.47 70.72,0.33 70.96,0.26 71.21,0.19 71.46,0.21 71.72,0.22 71.96,0.32 72.19,0.41 72.39,0.58 72.58,0.74 72.72,0.96 72.85,1.18 72.90,1.43 72.96,1.68 72.93,1.94 72.90,2.19 72.79,2.42 72.69,2.65 72.51,2.84 72.33,3.03 72.11,3.14 71.88,3.26 71.63,3.31 71.38,3.35 71.38,3.35 71.38,3.35 68.53,3.22 65.69,3.10 63.39,3.10 61.09,3.10 58.07,3.10 55.06,3.10 51.56,3.09 48.06,3.08 43.43,3.05 38.80,3.02 32.70,2.94 26.59,2.87 19.37,2.66 12.14,2.46 8.62,1.99 5.09,1.51 2.54,1.55 0,1.59 -0.19,1.57 -0.38,1.54 -0.56,1.47 -0.74,1.41 -0.89,1.30 -1.05,1.19 -1.18,1.04 -1.31,0.90 -1.40,0.73 -1.49,0.56 -1.53,0.37 -1.58,0.19 -1.58,-0.00 -1.58,-0.19 -1.53,-0.37 -1.49,-0.56 -1.40,-0.73 -1.31,-0.90 -1.18,-1.04 -1.05,-1.19 -0.89,-1.30 -0.74,-1.41 -0.56,-1.47 -0.38,-1.54 -0.19,-1.57 0.00,-1.59 0.00,-1.59 L 0,-1.59 Z"></path></g><g transform="translate(619.5699115682901 372.76223321834595) rotate(0 18.75100380722438 11.66107201941827)" stroke="none"><path fill="#000000" d="M 2.46,0.06 Q 2.46,0.06 2.31,1.99 2.16,3.92 2.20,5.38 2.24,6.84 2.78,8.70 3.32,10.56 4.41,12.11 5.51,13.66 6.30,14.47 7.10,15.29 8.79,16.50 10.47,17.71 12.11,18.50 13.75,19.30 15.21,19.75 16.67,20.20 18.48,20.23 20.29,20.27 21.46,19.93 22.62,19.58 23.86,18.86 25.10,18.14 26.43,17.01 27.76,15.88 28.92,14.70 30.08,13.51 30.81,12.20 31.54,10.88 32.08,9.59 32.62,8.29 33.03,7.26 33.44,6.22 33.69,4.97 33.94,3.71 34.15,2.47 34.37,1.22 34.51,0.70 34.65,0.18 34.95,-0.25 35.25,-0.70 35.67,-1.03 36.10,-1.36 36.61,-1.53 37.12,-1.71 37.66,-1.71 38.20,-1.71 38.71,-1.54 39.22,-1.37 39.65,-1.05 40.08,-0.73 40.38,-0.28 40.69,0.15 40.84,0.67 40.98,1.19 40.96,1.73 40.93,2.26 40.73,2.77 40.54,3.27 40.19,3.68 39.84,4.09 39.38,4.37 38.92,4.65 38.40,4.77 37.87,4.89 37.34,4.83 36.80,4.78 36.31,4.55 35.82,4.33 35.43,3.96 35.04,3.59 34.78,3.12 34.53,2.64 34.44,2.11 34.35,1.58 34.43,1.05 34.52,0.52 34.77,0.04 35.02,-0.42 35.41,-0.80 35.79,-1.17 36.28,-1.40 36.77,-1.63 37.30,-1.69 37.84,-1.75 38.37,-1.64 38.89,-1.52 39.35,-1.25 39.82,-0.97 40.17,-0.56 40.52,-0.15 40.72,0.34 40.92,0.83 40.95,1.37 40.99,1.91 40.99,1.91 40.99,1.91 40.68,3.62 40.38,5.33 40.12,6.38 39.86,7.43 39.40,8.60 38.95,9.78 38.35,11.05 37.74,12.32 36.90,13.93 36.06,15.54 35.36,16.65 34.66,17.75 33.28,19.12 31.90,20.48 31.05,21.25 30.20,22.02 28.39,23.24 26.58,24.47 24.55,25.23 22.53,25.99 21.35,26.15 20.17,26.31 18.49,26.19 16.80,26.07 15.01,25.58 13.21,25.09 11.38,24.23 9.56,23.37 8.54,22.76 7.52,22.15 6.43,21.39 5.34,20.64 4.33,19.75 3.32,18.86 2.34,17.80 1.36,16.73 0.57,15.61 -0.20,14.48 -0.77,13.30 -1.34,12.11 -1.69,10.86 -2.04,9.61 -2.18,8.28 -2.33,6.94 -2.35,5.37 -2.37,3.79 -2.42,1.86 -2.46,-0.06 -2.42,-0.36 -2.37,-0.65 -2.26,-0.93 -2.15,-1.20 -1.97,-1.44 -1.79,-1.68 -1.57,-1.87 -1.34,-2.06 -1.07,-2.19 -0.81,-2.32 -0.51,-2.39 -0.22,-2.45 0.06,-2.44 0.36,-2.43 0.65,-2.36 0.93,-2.28 1.19,-2.13 1.45,-1.98 1.67,-1.78 1.89,-1.58 2.05,-1.33 2.21,-1.08 2.31,-0.80 2.41,-0.52 2.43,-0.22 2.46,0.06 2.46,0.06 L 2.46,0.06 Z"></path></g><g transform="translate(791.8057128715973 375.6119505160209) rotate(0 25.2203994641568 1.8231614070475644)" stroke="none"><path fill="#000000" d="M 0.11,-1.67 Q 0.11,-1.67 1.42,-1.67 2.74,-1.67 4.69,-1.52 6.64,-1.36 9.23,-1.07 11.83,-0.77 14.65,-0.54 17.47,-0.31 20.83,-0.20 24.19,-0.09 27.30,0.05 30.41,0.19 33.24,0.44 36.07,0.69 38.93,0.97 41.79,1.26 43.72,1.42 45.64,1.59 48.03,1.84 50.42,2.10 50.65,2.17 50.89,2.25 51.09,2.39 51.29,2.54 51.43,2.74 51.57,2.94 51.64,3.17 51.72,3.41 51.71,3.66 51.70,3.90 51.61,4.14 51.53,4.37 51.37,4.56 51.21,4.75 51.01,4.88 50.80,5.01 50.56,5.07 50.32,5.13 50.07,5.11 49.83,5.09 49.60,4.99 49.37,4.89 49.19,4.72 49.01,4.56 48.89,4.34 48.77,4.13 48.72,3.88 48.68,3.64 48.71,3.40 48.75,3.15 48.86,2.93 48.97,2.71 49.14,2.54 49.32,2.36 49.54,2.26 49.76,2.15 50.01,2.12 50.25,2.08 50.49,2.13 50.74,2.18 50.95,2.30 51.16,2.42 51.33,2.61 51.49,2.79 51.59,3.02 51.68,3.25 51.70,3.49 51.72,3.74 51.66,3.98 51.60,4.22 51.47,4.43 51.33,4.63 51.14,4.79 50.95,4.94 50.71,5.02 50.48,5.11 50.23,5.11 49.99,5.12 49.99,5.12 49.99,5.12 47.66,4.80 45.33,4.49 43.43,4.25 41.53,4.01 38.69,3.76 35.85,3.50 33.07,3.29 30.30,3.09 27.21,2.99 24.12,2.90 20.69,2.85 17.27,2.81 14.40,2.67 11.53,2.53 8.97,2.37 6.41,2.21 4.45,2.11 2.49,2.02 1.19,1.85 -0.11,1.67 -0.31,1.63 -0.50,1.60 -0.69,1.51 -0.87,1.43 -1.03,1.30 -1.19,1.18 -1.31,1.02 -1.44,0.85 -1.52,0.67 -1.60,0.48 -1.64,0.29 -1.67,0.09 -1.66,-0.11 -1.65,-0.31 -1.58,-0.50 -1.52,-0.69 -1.42,-0.87 -1.31,-1.04 -1.17,-1.18 -1.02,-1.32 -0.85,-1.43 -0.67,-1.53 -0.48,-1.59 -0.29,-1.65 -0.09,-1.66 0.11,-1.67 0.11,-1.67 L 0.11,-1.67 Z"></path></g><g transform="translate(809.1257462385483 378.0428323920837) rotate(0 9.419667269745332 7.900366097205733)" stroke="none"><path fill="#000000" d="M 2.53,0.54 Q 2.53,0.54 2.28,1.73 2.03,2.93 2.24,4.06 2.45,5.19 3.29,6.81 4.12,8.42 5.03,9.79 5.95,11.16 6.82,11.84 7.69,12.51 8.98,12.62 10.27,12.74 11.63,12.51 12.99,12.29 13.92,11.36 14.85,10.44 15.52,9.19 16.19,7.94 16.34,5.57 16.49,3.20 16.68,2.71 16.88,2.22 17.22,1.81 17.56,1.41 18.01,1.13 18.47,0.86 18.98,0.74 19.50,0.63 20.03,0.68 20.56,0.74 21.04,0.96 21.52,1.18 21.91,1.54 22.29,1.90 22.54,2.37 22.79,2.84 22.88,3.36 22.97,3.89 22.88,4.41 22.80,4.93 22.55,5.40 22.31,5.87 21.92,6.24 21.54,6.60 21.06,6.83 20.58,7.05 20.05,7.11 19.52,7.17 19.01,7.06 18.49,6.94 18.03,6.67 17.58,6.40 17.23,6.00 16.89,5.60 16.69,5.10 16.49,4.61 16.46,4.08 16.43,3.55 16.57,3.04 16.71,2.53 17.01,2.09 17.30,1.65 17.73,1.33 18.15,1.01 18.65,0.84 19.15,0.66 19.68,0.66 20.21,0.66 20.71,0.83 21.22,1.00 21.64,1.32 22.06,1.64 22.36,2.07 22.66,2.51 22.80,3.02 22.95,3.53 22.92,4.06 22.89,4.59 22.89,4.59 22.89,4.59 22.68,6.76 22.46,8.93 21.92,10.39 21.38,11.84 20.52,13.07 19.67,14.30 18.96,15.09 18.24,15.89 17.34,16.53 16.44,17.17 15.43,17.61 14.42,18.05 13.33,18.27 12.23,18.48 10.97,18.52 9.71,18.55 8.39,18.39 7.08,18.23 5.91,17.81 4.75,17.39 3.10,15.88 1.44,14.37 0.52,12.74 -0.40,11.12 -1.08,9.86 -1.77,8.61 -2.16,7.28 -2.55,5.96 -2.81,3.96 -3.08,1.95 -2.80,0.70 -2.53,-0.54 -2.42,-0.83 -2.32,-1.13 -2.15,-1.39 -1.98,-1.65 -1.76,-1.87 -1.53,-2.08 -1.26,-2.23 -0.99,-2.39 -0.69,-2.47 -0.39,-2.55 -0.07,-2.56 0.23,-2.57 0.53,-2.51 0.84,-2.44 1.12,-2.31 1.40,-2.17 1.64,-1.97 1.88,-1.77 2.06,-1.52 2.25,-1.27 2.37,-0.98 2.49,-0.69 2.53,-0.38 2.58,-0.07 2.55,0.23 2.53,0.54 2.53,0.54 L 2.53,0.54 Z"></path></g><g transform="translate(715.536794010111 416.0253617055728) rotate(0 0.15193011725386896 5.317554103888369)" stroke="none"><path fill="#000000" d="M 2.45,-0.13 Q 2.45,-0.13 2.51,1.43 2.58,3.01 2.65,4.23 2.72,5.45 2.77,7.90 2.82,10.35 2.76,10.75 2.70,11.16 2.51,11.52 2.32,11.88 2.02,12.16 1.73,12.45 1.36,12.62 0.99,12.79 0.58,12.84 0.18,12.89 -0.21,12.80 -0.61,12.72 -0.96,12.51 -1.31,12.30 -1.58,11.99 -1.85,11.68 -2.00,11.30 -2.16,10.92 -2.18,10.52 -2.20,10.11 -2.10,9.71 -1.99,9.32 -1.76,8.98 -1.54,8.64 -1.21,8.39 -0.89,8.14 -0.50,8.01 -0.12,7.88 0.28,7.87 0.69,7.87 1.08,8.00 1.47,8.13 1.79,8.37 2.12,8.62 2.35,8.95 2.58,9.29 2.69,9.68 2.81,10.08 2.79,10.48 2.77,10.89 2.62,11.27 2.47,11.65 2.21,11.97 1.94,12.28 1.60,12.49 1.25,12.70 0.85,12.79 0.45,12.89 0.04,12.84 -0.35,12.80 -0.72,12.63 -1.10,12.46 -1.39,12.19 -1.69,11.91 -1.89,11.55 -2.08,11.19 -2.15,10.78 -2.22,10.38 -2.22,10.38 -2.22,10.38 -2.22,7.99 -2.23,5.60 -2.23,4.44 -2.23,3.27 -2.34,1.70 -2.45,0.13 -2.43,-0.15 -2.41,-0.45 -2.32,-0.73 -2.23,-1.01 -2.08,-1.27 -1.92,-1.52 -1.71,-1.73 -1.50,-1.94 -1.25,-2.09 -0.99,-2.24 -0.71,-2.33 -0.43,-2.41 -0.13,-2.43 0.16,-2.45 0.45,-2.39 0.74,-2.34 1.01,-2.21 1.28,-2.09 1.51,-1.91 1.74,-1.72 1.92,-1.49 2.10,-1.26 2.22,-0.98 2.34,-0.71 2.40,-0.42 2.45,-0.13 2.45,-0.13 L 2.45,-0.13 Z"></path></g><g transform="translate(731.0336659700142 415.72150147106504) rotate(0 -0.3038602345079653 4.55790351761857)" stroke="none"><path fill="#000000" d="M 2.31,0.22 Q 2.31,0.22 2.08,2.04 1.84,3.87 1.77,6.28 1.70,8.69 1.63,9.05 1.55,9.41 1.37,9.74 1.18,10.06 0.90,10.30 0.62,10.55 0.28,10.69 -0.05,10.83 -0.43,10.86 -0.80,10.88 -1.16,10.79 -1.51,10.70 -1.82,10.49 -2.14,10.29 -2.36,10.00 -2.59,9.70 -2.72,9.35 -2.84,9.00 -2.85,8.63 -2.85,8.26 -2.74,7.91 -2.63,7.55 -2.41,7.26 -2.19,6.96 -1.88,6.74 -1.58,6.53 -1.22,6.42 -0.87,6.32 -0.50,6.33 -0.12,6.35 0.21,6.48 0.56,6.61 0.85,6.85 1.13,7.09 1.33,7.40 1.53,7.72 1.61,8.08 1.70,8.44 1.66,8.81 1.63,9.18 1.48,9.52 1.33,9.86 1.08,10.13 0.82,10.40 0.50,10.58 0.17,10.76 -0.18,10.83 -0.55,10.89 -0.92,10.84 -1.28,10.78 -1.61,10.62 -1.94,10.45 -2.20,10.18 -2.46,9.92 -2.62,9.58 -2.79,9.25 -2.83,8.88 -2.88,8.51 -2.88,8.51 -2.88,8.51 -2.71,5.98 -2.54,3.46 -2.42,1.61 -2.31,-0.22 -2.25,-0.49 -2.19,-0.76 -2.07,-1.01 -1.94,-1.27 -1.76,-1.48 -1.58,-1.69 -1.35,-1.86 -1.13,-2.02 -0.87,-2.13 -0.61,-2.24 -0.33,-2.28 -0.06,-2.32 0.21,-2.29 0.49,-2.27 0.76,-2.17 1.02,-2.08 1.26,-1.93 1.49,-1.77 1.68,-1.57 1.87,-1.36 2.01,-1.12 2.15,-0.88 2.22,-0.60 2.29,-0.33 2.30,-0.05 2.31,0.22 2.31,0.22 L 2.31,0.22 Z"></path></g><g transform="translate(686.4076103471712 488.5428787216765) rotate(0 27.90955436490708 1.2313038690401754)" stroke="none"><path fill="#000000" d="M 0.62,-1.86 Q 0.62,-1.86 2.04,-1.43 3.45,-1.00 12.28,-0.51 21.11,-0.03 27.79,0.22 34.47,0.48 39.43,0.61 44.39,0.74 47.44,0.81 50.49,0.89 52.68,0.81 54.87,0.73 55.14,0.77 55.41,0.82 55.66,0.96 55.90,1.09 56.09,1.29 56.28,1.50 56.40,1.75 56.51,2.00 56.54,2.28 56.57,2.56 56.51,2.83 56.44,3.10 56.30,3.34 56.15,3.58 55.94,3.75 55.72,3.93 55.46,4.03 55.20,4.13 54.93,4.15 54.65,4.16 54.38,4.08 54.11,4.00 53.88,3.85 53.65,3.69 53.49,3.46 53.32,3.24 53.23,2.98 53.15,2.71 53.15,2.43 53.15,2.15 53.24,1.89 53.34,1.63 53.51,1.41 53.68,1.19 53.91,1.03 54.14,0.88 54.41,0.81 54.68,0.74 54.96,0.75 55.24,0.77 55.49,0.88 55.75,0.98 55.96,1.16 56.17,1.35 56.31,1.59 56.46,1.83 56.51,2.10 56.57,2.37 56.54,2.65 56.50,2.93 56.38,3.18 56.27,3.43 56.07,3.63 55.88,3.83 55.63,3.96 55.38,4.09 55.11,4.13 54.83,4.17 54.83,4.17 54.83,4.17 52.65,4.05 50.46,3.93 47.40,3.94 44.34,3.94 39.35,3.92 34.37,3.89 27.65,3.78 20.93,3.66 11.57,3.27 2.20,2.89 0.79,2.37 -0.62,1.86 -0.83,1.76 -1.05,1.66 -1.23,1.51 -1.41,1.36 -1.56,1.17 -1.70,0.98 -1.79,0.76 -1.88,0.54 -1.92,0.31 -1.96,0.08 -1.94,-0.15 -1.92,-0.39 -1.85,-0.61 -1.77,-0.84 -1.65,-1.04 -1.52,-1.24 -1.35,-1.40 -1.18,-1.57 -0.97,-1.69 -0.77,-1.80 -0.54,-1.87 -0.31,-1.94 -0.07,-1.95 0.15,-1.96 0.38,-1.91 0.62,-1.86 0.62,-1.86 L 0.62,-1.86 Z"></path></g><g stroke-opacity="0.4" fill-opacity="0.4" transform="translate(663.6534930805637 191.96499018265354) rotate(0 4.87053474606455 28.527417798379133)" stroke="none"><path fill="#495057" d="M 1.85,0 Q 1.85,0 1.78,2.39 1.70,4.79 3.24,13.27 4.77,21.75 6.21,30.23 7.66,38.71 8.26,43.95 8.87,49.19 9.91,52.18 10.94,55.17 10.98,55.44 11.02,55.72 10.96,55.99 10.91,56.26 10.77,56.49 10.64,56.73 10.43,56.92 10.23,57.10 9.97,57.21 9.72,57.31 9.45,57.34 9.17,57.36 8.90,57.29 8.64,57.22 8.41,57.07 8.18,56.92 8.00,56.71 7.83,56.49 7.74,56.23 7.64,55.97 7.64,55.70 7.63,55.42 7.71,55.16 7.80,54.90 7.96,54.68 8.12,54.45 8.34,54.29 8.57,54.13 8.83,54.06 9.09,53.98 9.37,53.98 9.65,53.99 9.90,54.09 10.16,54.19 10.37,54.36 10.59,54.53 10.74,54.76 10.88,55.00 10.95,55.26 11.01,55.53 10.99,55.81 10.97,56.08 10.86,56.33 10.75,56.58 10.56,56.79 10.38,56.99 10.14,57.13 9.90,57.26 9.63,57.31 9.35,57.36 9.08,57.32 8.81,57.29 8.56,57.16 8.32,57.04 8.12,56.84 7.93,56.65 7.81,56.40 7.69,56.15 7.69,56.15 7.69,56.15 6.82,52.85 5.96,49.55 5.31,44.39 4.66,39.23 3.14,30.78 1.62,22.33 -0.04,13.57 -1.70,4.80 -1.78,2.40 -1.85,0 -1.82,-0.22 -1.80,-0.44 -1.72,-0.65 -1.64,-0.86 -1.51,-1.04 -1.38,-1.23 -1.22,-1.37 -1.05,-1.52 -0.85,-1.63 -0.65,-1.73 -0.44,-1.78 -0.22,-1.84 0.00,-1.84 0.22,-1.84 0.44,-1.78 0.65,-1.73 0.85,-1.63 1.05,-1.52 1.22,-1.37 1.38,-1.23 1.51,-1.04 1.64,-0.86 1.72,-0.65 1.80,-0.44 1.82,-0.22 1.85,0.00 1.85,0.00 L 1.85,0 Z"></path></g><g stroke-opacity="0.4" fill-opacity="0.4" transform="translate(669.2198185046377 200.31447831876426) rotate(0 11.132650848147705 8.34948813611095)" stroke="none"><path fill="#495057" d="M -0.21,-1.74 Q -0.21,-1.74 2.99,-2.08 6.20,-2.42 10.50,-2.15 14.80,-1.88 16.99,-1.75 19.17,-1.61 20.56,-1.02 21.95,-0.44 22.71,1.38 23.47,3.21 22.79,5.47 22.12,7.73 20.06,10.30 17.99,12.86 16.23,14.35 14.46,15.85 11.89,16.56 9.31,17.27 7.50,17.58 5.69,17.88 5.82,17.14 5.95,16.41 6.18,16.56 6.41,16.71 6.58,16.92 6.74,17.14 6.83,17.40 6.93,17.66 6.93,17.93 6.93,18.20 6.85,18.46 6.76,18.73 6.60,18.94 6.44,19.16 6.21,19.32 5.99,19.48 5.72,19.55 5.46,19.63 5.19,19.62 4.91,19.61 4.66,19.51 4.40,19.41 4.19,19.23 3.98,19.06 3.84,18.83 3.70,18.59 3.63,18.33 3.57,18.06 3.60,17.79 3.62,17.52 3.74,17.27 3.85,17.02 4.03,16.82 4.22,16.62 4.46,16.48 4.70,16.35 4.97,16.31 5.24,16.26 5.51,16.30 5.78,16.34 6.02,16.47 6.27,16.59 6.46,16.79 6.65,16.99 6.77,17.23 6.88,17.48 6.92,17.75 6.95,18.02 6.89,18.29 6.84,18.56 6.70,18.79 6.56,19.03 6.35,19.21 6.15,19.39 5.89,19.49 5.64,19.60 5.37,19.62 5.10,19.63 4.83,19.56 4.57,19.49 4.57,19.49 4.57,19.49 4.83,17.13 5.10,14.76 6.82,14.55 8.55,14.35 10.53,13.87 12.51,13.39 13.93,12.08 15.36,10.76 17.03,8.61 18.71,6.45 19.30,5.13 19.90,3.81 19.42,2.57 18.94,1.32 16.79,1.26 14.63,1.20 10.61,1.01 6.59,0.82 3.40,1.28 0.21,1.74 0.00,1.74 -0.20,1.74 -0.41,1.69 -0.61,1.64 -0.80,1.54 -0.99,1.45 -1.15,1.31 -1.31,1.17 -1.43,0.99 -1.55,0.82 -1.62,0.62 -1.70,0.42 -1.73,0.21 -1.75,0.00 -1.73,-0.20 -1.70,-0.41 -1.63,-0.61 -1.55,-0.81 -1.43,-0.98 -1.32,-1.16 -1.16,-1.30 -1.00,-1.44 -0.81,-1.54 -0.62,-1.64 -0.42,-1.69 -0.21,-1.74 -0.21,-1.74 L -0.21,-1.74 Z"></path></g><g stroke-opacity="0.4" fill-opacity="0.4" transform="translate(706.7925151171366 221.18819865904175) rotate(0 0 -10.436860170138743)" stroke="none"><path fill="#495057" d="M -1.99,0 Q -1.99,0 -1.90,-3.20 -1.81,-6.40 -1.74,-9.76 -1.67,-13.12 -1.77,-16.29 -1.88,-19.47 -1.83,-19.77 -1.78,-20.07 -1.63,-20.34 -1.49,-20.61 -1.27,-20.82 -1.05,-21.03 -0.77,-21.15 -0.50,-21.28 -0.20,-21.31 0.10,-21.35 0.39,-21.28 0.69,-21.22 0.95,-21.06 1.21,-20.90 1.41,-20.67 1.61,-20.44 1.72,-20.16 1.83,-19.87 1.85,-19.57 1.86,-19.27 1.78,-18.97 1.70,-18.68 1.53,-18.43 1.36,-18.18 1.12,-17.99 0.88,-17.81 0.59,-17.71 0.30,-17.61 -0.00,-17.61 -0.30,-17.61 -0.59,-17.71 -0.88,-17.81 -1.12,-17.99 -1.36,-18.18 -1.53,-18.43 -1.70,-18.68 -1.78,-18.97 -1.86,-19.27 -1.85,-19.57 -1.83,-19.87 -1.72,-20.16 -1.61,-20.44 -1.41,-20.67 -1.21,-20.90 -0.95,-21.06 -0.69,-21.22 -0.39,-21.28 -0.10,-21.35 0.20,-21.31 0.50,-21.28 0.77,-21.15 1.05,-21.03 1.27,-20.82 1.49,-20.61 1.63,-20.34 1.78,-20.07 1.83,-19.77 1.88,-19.47 1.88,-19.47 1.88,-19.47 1.77,-16.29 1.67,-13.12 1.74,-9.76 1.81,-6.40 1.90,-3.20 1.99,0 1.96,0.23 1.93,0.47 1.84,0.70 1.76,0.92 1.62,1.12 1.49,1.32 1.31,1.48 1.13,1.64 0.91,1.75 0.70,1.86 0.47,1.92 0.24,1.97 -0.00,1.97 -0.24,1.97 -0.47,1.92 -0.70,1.86 -0.91,1.75 -1.13,1.64 -1.31,1.48 -1.49,1.32 -1.62,1.12 -1.76,0.92 -1.84,0.70 -1.93,0.47 -1.96,0.23 -1.99,-0.00 -1.99,-0.00 L -1.99,0 Z"></path></g><g stroke-opacity="0.4" fill-opacity="0.4" transform="translate(705.4009337611183 178.0491766224684) rotate(0 0 -1.3915813560183778)" stroke="none"><path fill="#495057" d="M 2.12,-0.66 Q 2.12,-0.66 2.15,-0.13 2.18,0.40 1.96,0.88 1.74,1.36 1.32,1.69 0.91,2.02 0.38,2.12 -0.13,2.21 -0.64,2.05 -1.14,1.90 -1.52,1.52 -1.90,1.14 -2.05,0.64 -2.21,0.13 -2.12,-0.38 -2.02,-0.91 -1.69,-1.32 -1.36,-1.74 -0.88,-1.96 -0.39,-2.18 0.13,-2.15 0.66,-2.11 1.11,-1.84 1.57,-1.56 1.84,-1.11 L 2.12,-0.66 Z"></path></g><g stroke-opacity="0.4" fill-opacity="0.4" transform="translate(749.93153715371 173.8744325544128) rotate(0 0 20.873720340277373)" stroke="none"><path fill="#495057" d="M 2.22,0 Q 2.22,0 2.10,5.60 1.98,11.20 1.89,16.78 1.80,22.36 1.74,25.93 1.67,29.50 1.67,31.42 1.67,33.34 1.77,34.56 1.86,35.77 1.99,38.53 2.13,41.28 2.07,41.62 2.02,41.96 1.86,42.27 1.69,42.57 1.44,42.81 1.19,43.05 0.88,43.19 0.57,43.34 0.22,43.37 -0.11,43.41 -0.45,43.34 -0.79,43.26 -1.08,43.09 -1.38,42.91 -1.60,42.64 -1.82,42.38 -1.95,42.06 -2.08,41.74 -2.10,41.39 -2.12,41.05 -2.02,40.72 -1.93,40.38 -1.74,40.10 -1.54,39.81 -1.27,39.60 -0.99,39.39 -0.67,39.28 -0.34,39.17 0.00,39.17 0.34,39.17 0.67,39.28 1.00,39.39 1.27,39.60 1.54,39.81 1.74,40.10 1.93,40.38 2.02,40.72 2.12,41.05 2.10,41.39 2.08,41.74 1.95,42.06 1.82,42.38 1.60,42.64 1.38,42.91 1.08,43.09 0.78,43.26 0.45,43.34 0.11,43.41 -0.22,43.37 -0.57,43.34 -0.88,43.19 -1.19,43.05 -1.44,42.81 -1.69,42.57 -1.86,42.27 -2.02,41.96 -2.07,41.62 -2.13,41.28 -2.13,41.28 -2.13,41.28 -1.99,38.53 -1.86,35.77 -1.77,34.56 -1.67,33.34 -1.67,31.42 -1.67,29.50 -1.74,25.93 -1.80,22.36 -1.89,16.78 -1.98,11.20 -2.10,5.60 -2.22,0 -2.19,-0.26 -2.16,-0.53 -2.06,-0.78 -1.97,-1.03 -1.82,-1.25 -1.66,-1.47 -1.46,-1.65 -1.26,-1.83 -1.02,-1.96 -0.79,-2.08 -0.52,-2.14 -0.26,-2.21 0.00,-2.21 0.26,-2.21 0.52,-2.14 0.79,-2.08 1.02,-1.95 1.26,-1.83 1.46,-1.65 1.66,-1.47 1.82,-1.25 1.97,-1.03 2.06,-0.78 2.16,-0.53 2.19,-0.26 2.22,0.00 2.22,0.00 L 2.22,0 Z"></path></g><g stroke-opacity="0.4" fill-opacity="0.4" transform="translate(747.1483744416728 204.48922238681985) rotate(0 -2.087372034027794 6.957906780092344)" stroke="none"><path fill="#495057" d="M 0,2.64 Q 0,2.64 -1.15,2.65 -2.30,2.65 -2.44,4.30 -2.58,5.94 -2.61,7.02 -2.63,8.10 -2.61,9.74 -2.58,11.39 -0.78,11.06 1.00,10.73 1.51,10.82 2.01,10.91 2.46,11.16 2.91,11.41 3.26,11.78 3.61,12.16 3.82,12.63 4.03,13.10 4.07,13.61 4.12,14.12 4.00,14.62 3.89,15.12 3.62,15.56 3.34,16.00 2.95,16.32 2.55,16.65 2.07,16.83 1.59,17.01 1.08,17.03 0.57,17.06 0.07,16.91 -0.41,16.77 -0.83,16.47 -1.25,16.18 -1.56,15.76 -1.86,15.35 -2.02,14.86 -2.17,14.37 -2.17,13.86 -2.16,13.34 -1.99,12.86 -1.82,12.38 -1.50,11.97 -1.18,11.57 -0.75,11.29 -0.32,11.00 0.16,10.87 0.66,10.74 1.17,10.78 1.68,10.81 2.16,11.01 2.63,11.21 3.02,11.55 3.41,11.89 3.66,12.33 3.92,12.77 4.02,13.28 4.13,13.78 4.06,14.29 4.00,14.80 3.78,15.26 3.56,15.73 3.20,16.09 2.84,16.46 2.38,16.69 1.92,16.93 1.42,17.00 0.91,17.08 0.91,17.08 0.91,17.08 -1.70,16.91 -4.32,16.74 -5.43,16.33 -6.53,15.92 -7.33,14.83 -8.12,13.75 -8.32,12.55 -8.53,11.35 -8.46,9.65 -8.40,7.95 -8.26,5.76 -8.12,3.58 -7.73,2.02 -7.35,0.47 -6.42,-0.53 -5.49,-1.55 -3.99,-2.10 -2.49,-2.65 -1.24,-2.65 0,-2.64 0.31,-2.60 0.63,-2.57 0.93,-2.45 1.23,-2.34 1.49,-2.16 1.75,-1.98 1.96,-1.74 2.17,-1.50 2.32,-1.22 2.47,-0.93 2.55,-0.62 2.62,-0.31 2.62,0.00 2.62,0.31 2.55,0.62 2.47,0.93 2.32,1.22 2.17,1.50 1.96,1.74 1.75,1.98 1.49,2.16 1.23,2.34 0.93,2.45 0.63,2.57 0.31,2.60 -0.00,2.64 -0.00,2.64 L 0,2.64 Z"></path></g><g stroke-opacity="0.4" fill-opacity="0.4" transform="translate(781.9379083421354 200.31447831876426) rotate(0 4.87053474606455 7.65369745810176)" stroke="none"><path fill="#495057" d="M -1.30,-1.08 Q -1.30,-1.08 0.73,-3.44 2.76,-5.81 4.35,-9.05 5.93,-12.29 6.61,-14.81 7.29,-17.32 7.48,-18.08 7.67,-18.83 7.74,-19.02 7.82,-19.21 7.93,-19.37 8.05,-19.54 8.21,-19.67 8.36,-19.80 8.54,-19.90 8.72,-19.99 8.92,-20.03 9.12,-20.08 9.32,-20.07 9.53,-20.07 9.72,-20.02 9.92,-19.97 10.10,-19.87 10.28,-19.77 10.43,-19.63 10.58,-19.50 10.69,-19.33 10.80,-19.16 10.87,-18.97 10.94,-18.78 10.96,-18.57 10.98,-18.37 10.95,-18.17 10.93,-17.97 11.03,-16.55 11.14,-15.14 11.16,-11.57 11.17,-8.00 10.77,-2.05 10.36,3.90 10.18,9.58 10.00,15.26 9.92,20.47 9.84,25.69 9.91,29.99 9.99,34.29 9.94,34.55 9.90,34.81 9.77,35.04 9.65,35.27 9.45,35.45 9.26,35.63 9.02,35.74 8.78,35.85 8.52,35.87 8.26,35.90 8.00,35.84 7.75,35.78 7.52,35.64 7.30,35.51 7.13,35.30 6.96,35.10 6.87,34.86 6.77,34.61 6.76,34.35 6.75,34.09 6.82,33.83 6.89,33.58 7.04,33.37 7.19,33.15 7.40,32.99 7.62,32.83 7.87,32.75 8.12,32.67 8.38,32.67 8.64,32.68 8.89,32.76 9.14,32.85 9.35,33.01 9.55,33.17 9.70,33.39 9.84,33.61 9.91,33.86 9.98,34.12 9.96,34.38 9.95,34.64 9.85,34.89 9.75,35.13 9.57,35.33 9.40,35.53 9.18,35.66 8.95,35.79 8.69,35.85 8.43,35.90 8.17,35.87 7.91,35.84 7.67,35.73 7.44,35.61 7.25,35.43 7.06,35.25 6.94,35.02 6.82,34.78 6.78,34.52 6.74,34.26 6.74,34.26 6.74,34.26 6.90,29.96 7.05,25.65 7.11,20.41 7.16,15.18 7.30,9.44 7.44,3.71 7.79,-2.12 8.14,-7.96 8.05,-11.43 7.96,-14.90 7.81,-16.87 7.67,-18.83 7.74,-19.02 7.82,-19.21 7.93,-19.37 8.05,-19.54 8.21,-19.67 8.36,-19.80 8.54,-19.90 8.72,-19.99 8.92,-20.03 9.12,-20.08 9.32,-20.07 9.53,-20.07 9.72,-20.02 9.92,-19.97 10.10,-19.87 10.28,-19.77 10.43,-19.63 10.58,-19.50 10.69,-19.33 10.80,-19.16 10.87,-18.97 10.94,-18.78 10.96,-18.58 10.98,-18.37 10.95,-18.17 10.93,-17.97 10.52,-17.27 10.11,-16.57 9.39,-13.78 8.67,-10.98 6.95,-7.38 5.23,-3.79 3.26,-1.35 1.30,1.08 1.15,1.22 1.00,1.36 0.82,1.46 0.65,1.56 0.45,1.62 0.25,1.67 0.05,1.68 -0.15,1.69 -0.35,1.64 -0.55,1.60 -0.73,1.51 -0.92,1.42 -1.07,1.29 -1.23,1.16 -1.35,0.99 -1.47,0.83 -1.55,0.64 -1.63,0.45 -1.66,0.25 -1.69,0.05 -1.67,-0.15 -1.66,-0.35 -1.59,-0.55 -1.52,-0.74 -1.41,-0.91 -1.30,-1.08 -1.30,-1.08 L -1.30,-1.08 Z"></path></g><g transform="translate(159.56761630716642 165.79960031996416) rotate(0 15.579960031996507 105.32052981629636)" stroke="none"><path fill="#000000" d="M -0.86,1.29 Q -0.86,1.29 -2.97,-0.15 -5.08,-1.60 -10.03,-2.49 -14.98,-3.38 -23.20,-3.79 -31.41,-4.21 -42.77,-4.04 -54.13,-3.87 -64.91,-0.96 -75.69,1.94 -85.56,7.42 -95.43,12.90 -104.19,22.29 -112.95,31.67 -119.85,48.07 -126.74,64.46 -128.61,86.35 -130.47,108.24 -124.17,127.02 -117.88,145.80 -100.31,160.45 -82.73,175.11 -61.37,184.58 -40.00,194.05 -18.05,199.87 3.89,205.69 27.87,208.88 51.85,212.07 71.28,212.00 90.71,211.93 105.57,205.15 120.43,198.37 129.56,190.19 138.69,182.02 145.77,172.50 152.86,162.99 157.26,152.95 161.67,142.91 162.81,125.54 163.95,108.17 161.25,94.80 158.55,81.43 148.54,68.02 138.53,54.61 127.50,44.24 116.47,33.86 106.09,26.61 95.71,19.36 87.06,15.23 78.41,11.10 71.50,8.26 64.60,5.43 57.40,3.16 50.20,0.89 43.57,-0.78 36.95,-2.46 30.58,-3.52 24.22,-4.59 17.26,-5.04 10.30,-5.49 3.75,-5.68 -2.78,-5.87 -7.10,-4.87 -11.42,-3.86 -11.67,-3.85 -11.92,-3.84 -12.16,-3.91 -12.40,-3.98 -12.61,-4.13 -12.81,-4.27 -12.96,-4.47 -13.11,-4.68 -13.19,-4.92 -13.26,-5.16 -13.26,-5.41 -13.25,-5.66 -13.17,-5.89 -13.08,-6.13 -12.93,-6.33 -12.77,-6.52 -12.56,-6.66 -12.35,-6.80 -12.11,-6.86 -11.87,-6.92 -11.62,-6.91 -11.37,-6.89 -11.13,-6.79 -10.90,-6.69 -10.71,-6.53 -10.53,-6.36 -10.40,-6.14 -10.27,-5.93 -10.23,-5.68 -10.18,-5.43 -10.21,-5.19 -10.24,-4.94 -10.35,-4.71 -10.46,-4.49 -10.63,-4.31 -10.81,-4.13 -11.03,-4.01 -11.26,-3.90 -11.51,-3.86 -11.75,-3.83 -12.00,-3.87 -12.25,-3.92 -12.47,-4.04 -12.69,-4.16 -12.86,-4.35 -13.03,-4.53 -13.13,-4.76 -13.23,-4.99 -13.25,-5.24 -13.27,-5.49 -13.21,-5.74 -13.16,-5.98 -13.02,-6.19 -12.89,-6.40 -12.70,-6.56 -12.50,-6.72 -12.27,-6.81 -12.03,-6.90 -12.03,-6.90 -12.03,-6.90 -7.37,-7.70 -2.72,-8.50 3.87,-8.30 10.47,-8.11 17.56,-7.64 24.65,-7.18 31.12,-6.09 37.59,-5.00 44.29,-3.30 50.99,-1.61 58.29,0.69 65.60,3.00 72.57,5.86 79.55,8.73 88.38,12.97 97.21,17.20 107.74,24.58 118.27,31.95 129.46,42.49 140.64,53.04 150.86,66.93 161.08,80.81 163.82,94.57 166.57,108.33 165.33,126.12 164.09,143.92 159.53,154.24 154.97,164.55 147.71,174.26 140.45,183.97 131.00,192.36 121.55,200.74 106.18,207.64 90.81,214.54 71.16,214.61 51.50,214.68 27.36,211.46 3.21,208.24 -18.92,202.35 -41.06,196.46 -62.74,186.80 -84.41,177.15 -102.34,161.98 -120.27,146.81 -126.69,127.45 -133.10,108.10 -131.16,85.78 -129.21,63.46 -122.07,46.68 -114.94,29.89 -105.85,20.23 -96.77,10.56 -86.59,4.94 -76.42,-0.68 -65.31,-3.65 -54.20,-6.63 -42.73,-6.83 -31.27,-7.03 -22.86,-6.62 -14.46,-6.22 -8.99,-5.17 -3.51,-4.12 -1.32,-2.71 0.86,-1.29 1.00,-1.17 1.15,-1.05 1.26,-0.90 1.37,-0.74 1.44,-0.57 1.51,-0.39 1.53,-0.21 1.56,-0.02 1.54,0.16 1.52,0.34 1.45,0.52 1.39,0.70 1.29,0.86 1.18,1.01 1.04,1.14 0.90,1.27 0.74,1.36 0.57,1.45 0.39,1.49 0.21,1.54 0.02,1.55 -0.16,1.55 -0.34,1.51 -0.53,1.46 -0.69,1.38 -0.86,1.29 -0.86,1.29 L -0.86,1.29 Z"></path></g><g transform="translate(99.74056978429985 230.61223405306964) rotate(0 -1.246396802559616 3.115992006399324)" stroke="none"><path fill="#000000" d="M 0,-2.32 Q 0,-2.32 1.95,-2.03 3.90,-1.74 5.07,-0.27 6.24,1.20 6.24,3.09 6.24,4.99 5.15,6.51 4.06,8.03 2.13,8.71 0.20,9.39 -1.73,9.52 -3.67,9.65 -5.44,8.47 -7.22,7.29 -7.17,5.59 -7.13,3.89 -4.87,2.37 -2.61,0.85 -1.48,0.96 -0.36,1.08 -0.05,-0.22 0.24,-1.53 0.50,-1.64 0.77,-1.74 1.05,-1.78 1.32,-1.82 1.61,-1.79 1.89,-1.76 2.15,-1.67 2.42,-1.57 2.65,-1.42 2.89,-1.26 3.08,-1.05 3.27,-0.85 3.40,-0.60 3.54,-0.35 3.61,-0.08 3.68,0.18 3.69,0.47 3.69,0.75 3.63,1.02 3.57,1.30 3.44,1.55 3.31,1.80 3.13,2.02 2.95,2.23 2.72,2.39 2.49,2.56 0.77,3.06 -0.93,3.56 -2.10,3.64 -3.28,3.72 -4.83,3.83 -6.37,3.94 -6.70,3.91 -7.02,3.88 -7.33,3.77 -7.64,3.66 -7.91,3.48 -8.19,3.30 -8.41,3.06 -8.63,2.82 -8.79,2.53 -8.94,2.24 -9.03,1.93 -9.11,1.61 -9.12,1.28 -9.13,0.96 -9.05,0.64 -8.98,0.32 -8.84,0.03 -8.69,-0.26 -8.48,-0.50 -8.27,-0.75 -8.00,-0.94 -7.73,-1.14 -7.43,-1.26 -7.13,-1.38 -6.80,-1.43 -6.48,-1.47 -4.95,-1.66 -3.43,-1.84 -2.85,-2.11 -2.27,-2.39 -1.82,-2.40 -1.37,-2.42 -0.94,-2.29 -0.50,-2.16 -0.14,-1.90 0.22,-1.64 0.49,-1.27 0.75,-0.91 0.89,-0.48 1.03,-0.05 1.02,0.40 1.01,0.85 0.85,1.27 0.70,1.70 0.42,2.05 0.14,2.40 -0.23,2.65 -0.61,2.90 -1.04,3.01 -1.48,3.12 -1.93,3.09 -2.38,3.05 -2.80,2.88 -3.21,2.70 -3.55,2.40 -3.89,2.10 -4.12,1.71 -4.34,1.32 -4.43,0.88 -4.52,0.43 -4.46,-0.00 -4.40,-0.45 -4.20,-0.86 -4.00,-1.26 -3.69,-1.58 -3.37,-1.91 -2.97,-2.11 -2.56,-2.31 -2.12,-2.38 -1.67,-2.44 -1.23,-2.36 -0.78,-2.28 -0.39,-2.06 0.00,-1.84 0.30,-1.50 0.60,-1.17 0.79,-0.76 0.97,-0.34 1.01,0.10 1.05,0.55 0.94,0.99 0.83,1.43 0.59,1.81 0.35,2.19 0.00,2.47 -0.34,2.76 -0.76,2.92 -1.18,3.08 -1.18,3.08 -1.18,3.08 -2.56,2.85 -3.93,2.63 -5.15,3.29 -6.37,3.94 -6.70,3.91 -7.02,3.88 -7.33,3.77 -7.64,3.66 -7.91,3.48 -8.19,3.30 -8.41,3.06 -8.63,2.82 -8.79,2.53 -8.94,2.24 -9.03,1.93 -9.11,1.61 -9.12,1.28 -9.13,0.96 -9.05,0.64 -8.98,0.32 -8.84,0.03 -8.69,-0.26 -8.48,-0.50 -8.27,-0.75 -8.00,-0.94 -7.73,-1.14 -7.43,-1.26 -7.13,-1.38 -6.80,-1.43 -6.48,-1.47 -4.97,-1.41 -3.45,-1.34 -1.60,-1.44 0.24,-1.53 0.50,-1.64 0.77,-1.74 1.05,-1.78 1.32,-1.82 1.60,-1.79 1.89,-1.76 2.15,-1.67 2.42,-1.57 2.65,-1.42 2.89,-1.26 3.08,-1.05 3.27,-0.85 3.40,-0.60 3.54,-0.35 3.61,-0.08 3.68,0.18 3.69,0.47 3.69,0.75 3.63,1.02 3.57,1.30 3.44,1.55 3.31,1.80 3.13,2.02 2.95,2.23 2.72,2.39 2.49,2.56 2.96,1.94 3.43,1.32 1.58,3.07 -0.26,4.81 -2.06,4.82 -3.85,4.84 -2.45,4.66 -1.06,4.48 0.23,4.24 1.53,4.00 1.68,2.87 1.83,1.74 0.91,2.03 0,2.32 -0.27,2.28 -0.55,2.25 -0.81,2.15 -1.07,2.05 -1.30,1.89 -1.53,1.73 -1.72,1.52 -1.91,1.31 -2.04,1.07 -2.17,0.82 -2.23,0.55 -2.30,0.27 -2.30,-0.00 -2.30,-0.27 -2.23,-0.55 -2.17,-0.82 -2.04,-1.07 -1.91,-1.31 -1.72,-1.52 -1.53,-1.73 -1.30,-1.89 -1.07,-2.05 -0.81,-2.15 -0.55,-2.25 -0.27,-2.28 0.00,-2.32 0.00,-2.32 L 0,-2.32 Z"></path></g><g transform="translate(245.56899568378708 243.07620207866694) rotate(0 -2.4927936051194592 -0.6231984012799785)" stroke="none"><path fill="#000000" d="M 0,2.54 Q 0,2.54 -1.43,2.54 -2.86,2.53 -3.83,2.57 -4.80,2.61 -5.11,2.57 -5.42,2.53 -5.72,2.42 -6.01,2.31 -6.27,2.13 -6.53,1.95 -6.74,1.72 -6.95,1.48 -7.10,1.20 -7.24,0.92 -7.32,0.62 -7.39,0.31 -7.39,-0.00 -7.39,-0.31 -7.32,-0.62 -7.24,-0.92 -7.10,-1.20 -6.95,-1.48 -6.74,-1.72 -6.53,-1.95 -6.27,-2.13 -6.01,-2.31 -5.72,-2.42 -5.42,-2.53 -5.11,-2.57 -4.80,-2.61 -3.48,-3.07 -2.15,-3.54 -1.95,-3.68 -1.75,-3.83 -1.42,-3.84 -1.09,-3.85 -0.78,-3.78 -0.46,-3.71 -0.16,-3.57 0.12,-3.42 0.37,-3.21 0.62,-3.00 0.82,-2.74 1.01,-2.48 1.14,-2.18 1.26,-1.87 1.31,-1.55 1.36,-1.23 1.33,-0.90 1.30,-0.58 1.19,-0.27 1.09,0.03 0.91,0.30 0.73,0.58 0.50,0.80 0.26,1.03 -0.02,1.19 -0.30,1.35 -0.62,1.44 -0.93,1.52 -1.35,-0.72 -1.76,-2.97 -1.33,-2.85 -0.90,-2.73 -0.53,-2.48 -0.16,-2.23 0.10,-1.87 0.37,-1.52 0.51,-1.09 0.66,-0.67 0.66,-0.22 0.66,0.22 0.52,0.64 0.37,1.07 0.10,1.42 -0.16,1.78 -0.53,2.03 -0.90,2.28 -1.33,2.40 -1.76,2.52 -2.20,2.50 -2.65,2.47 -3.07,2.31 -3.48,2.14 -3.82,1.85 -4.17,1.57 -4.40,1.18 -4.63,0.80 -4.72,0.36 -4.82,-0.06 -4.77,-0.51 -4.72,-0.95 -4.54,-1.36 -4.35,-1.77 -4.04,-2.09 -3.74,-2.42 -3.34,-2.63 -2.95,-2.84 -2.50,-2.91 -2.06,-2.98 -1.62,-2.91 -1.18,-2.84 -0.78,-2.63 -0.39,-2.42 -0.08,-2.10 0.22,-1.77 0.40,-1.37 0.59,-0.96 0.64,-0.51 0.69,-0.07 0.59,0.36 0.50,0.79 0.27,1.18 0.04,1.56 -0.29,1.85 -0.63,2.14 -1.05,2.31 -1.46,2.47 -1.91,2.50 -2.36,2.52 -2.36,2.52 -2.36,2.52 -2.05,-0.65 -1.75,-3.83 -1.42,-3.84 -1.09,-3.85 -0.78,-3.78 -0.46,-3.71 -0.16,-3.57 0.12,-3.42 0.37,-3.21 0.62,-3.00 0.82,-2.74 1.01,-2.48 1.14,-2.18 1.26,-1.87 1.31,-1.55 1.36,-1.23 1.33,-0.90 1.30,-0.58 1.19,-0.27 1.09,0.03 0.91,0.30 0.73,0.58 0.50,0.80 0.26,1.03 -0.02,1.19 -0.30,1.35 -0.62,1.44 -0.93,1.52 -1.60,1.57 -2.27,1.61 -3.53,2.11 -4.80,2.61 -5.11,2.57 -5.42,2.53 -5.72,2.42 -6.01,2.31 -6.27,2.13 -6.53,1.95 -6.74,1.72 -6.95,1.48 -7.10,1.20 -7.24,0.92 -7.32,0.62 -7.39,0.31 -7.39,0.00 -7.39,-0.31 -7.32,-0.62 -7.24,-0.92 -7.10,-1.20 -6.95,-1.48 -6.74,-1.72 -6.53,-1.95 -6.27,-2.13 -6.01,-2.31 -5.72,-2.42 -5.42,-2.53 -5.11,-2.57 -4.80,-2.61 -3.83,-2.57 -2.86,-2.53 -1.43,-2.54 0,-2.54 0.30,-2.51 0.61,-2.47 0.89,-2.36 1.18,-2.25 1.43,-2.08 1.69,-1.90 1.89,-1.67 2.09,-1.44 2.24,-1.17 2.38,-0.90 2.45,-0.60 2.53,-0.30 2.53,0.00 2.53,0.30 2.45,0.60 2.38,0.90 2.24,1.17 2.09,1.44 1.89,1.67 1.69,1.90 1.43,2.08 1.18,2.25 0.89,2.36 0.60,2.47 0.30,2.51 -0.00,2.54 -0.00,2.54 L 0,2.54 Z"></path></g><g transform="translate(128.4076962431734 316.6136134296903) rotate(0 53.59506251006792 -6.231984012798648)" stroke="none"><path fill="#000000" d="M -1.39,-1.39 Q -1.39,-1.39 0.49,-3.15 2.39,-4.90 8.51,-6.87 14.64,-8.84 21.55,-9.61 28.47,-10.37 33.48,-11.03 38.49,-11.68 40.93,-11.51 43.37,-11.33 44.72,-10.09 46.08,-8.84 46.67,-7.02 47.26,-5.20 47.67,-4.10 48.07,-3.01 50.71,-2.62 53.34,-2.24 55.69,-2.76 58.03,-3.28 61.64,-4.19 65.25,-5.10 69.20,-6.87 73.14,-8.63 77.82,-10.14 82.50,-11.64 85.97,-12.28 89.45,-12.92 91.65,-13.18 93.85,-13.45 95.23,-13.66 96.60,-13.88 98.96,-12.73 101.31,-11.58 102.69,-10.44 104.07,-9.31 105.81,-8.29 107.54,-7.26 107.79,-7.03 108.05,-6.80 108.21,-6.50 108.38,-6.21 108.44,-5.87 108.50,-5.54 108.45,-5.20 108.40,-4.86 108.25,-4.56 108.10,-4.25 107.85,-4.01 107.61,-3.77 107.31,-3.62 107.00,-3.48 106.66,-3.43 106.32,-3.39 105.99,-3.46 105.65,-3.52 105.36,-3.69 105.06,-3.86 104.84,-4.12 104.61,-4.37 104.48,-4.69 104.35,-5.00 104.32,-5.34 104.30,-5.68 104.38,-6.01 104.47,-6.34 104.65,-6.63 104.84,-6.91 105.11,-7.12 105.37,-7.33 105.69,-7.45 106.01,-7.56 106.35,-7.57 106.69,-7.58 107.02,-7.48 107.34,-7.37 107.62,-7.17 107.90,-6.97 108.09,-6.69 108.29,-6.42 108.39,-6.09 108.48,-5.76 108.47,-5.42 108.46,-5.08 108.34,-4.76 108.22,-4.44 108.01,-4.18 107.79,-3.92 107.50,-3.73 107.21,-3.55 106.88,-3.47 106.55,-3.39 106.21,-3.42 105.87,-3.45 105.56,-3.59 105.25,-3.73 105.25,-3.73 105.25,-3.73 103.40,-5.03 101.55,-6.33 100.39,-7.35 99.23,-8.37 97.89,-9.54 96.55,-10.70 95.38,-10.69 94.20,-10.67 92.09,-10.39 89.99,-10.11 86.70,-9.47 83.41,-8.83 78.91,-7.33 74.41,-5.83 70.26,-3.90 66.10,-1.97 62.46,-0.93 58.81,0.10 55.88,0.80 52.96,1.50 50.67,1.24 48.38,0.98 46.74,-0.03 45.10,-1.04 44.46,-2.69 43.82,-4.34 43.64,-5.60 43.46,-6.87 43.00,-7.83 42.55,-8.79 40.72,-8.75 38.89,-8.70 33.86,-7.98 28.83,-7.25 22.23,-6.45 15.63,-5.66 10.20,-3.96 4.77,-2.26 3.08,-0.43 1.39,1.39 1.21,1.54 1.02,1.69 0.80,1.79 0.58,1.88 0.35,1.93 0.11,1.97 -0.11,1.96 -0.35,1.94 -0.58,1.87 -0.81,1.80 -1.01,1.68 -1.22,1.55 -1.38,1.38 -1.55,1.22 -1.68,1.01 -1.80,0.81 -1.87,0.58 -1.94,0.35 -1.96,0.11 -1.97,-0.11 -1.93,-0.35 -1.88,-0.58 -1.79,-0.80 -1.69,-1.02 -1.54,-1.21 -1.39,-1.39 -1.39,-1.39 L -1.39,-1.39 Z"></path></g><g transform="translate(163.3068067148456 188.23474276603906) rotate(0 -9.971174420477723 -47.986276898549136)" stroke="none"><path fill="#000000" d="M -1.29,-1.10 Q -1.29,-1.10 0.89,-3.57 3.07,-6.04 4.62,-9.41 6.17,-12.78 6.83,-17.32 7.49,-21.86 7.81,-28.07 8.12,-34.28 4.37,-42.78 0.62,-51.28 -5.95,-61.73 -12.53,-72.18 -17.06,-78.74 -21.60,-85.31 -25.20,-86.45 -28.80,-87.60 -29.02,-87.73 -29.25,-87.86 -29.42,-88.05 -29.59,-88.25 -29.69,-88.49 -29.79,-88.73 -29.80,-88.98 -29.82,-89.24 -29.75,-89.49 -29.69,-89.74 -29.55,-89.96 -29.40,-90.18 -29.20,-90.34 -29.00,-90.50 -28.75,-90.58 -28.51,-90.67 -28.25,-90.67 -27.99,-90.67 -27.74,-90.60 -27.50,-90.52 -27.29,-90.36 -27.08,-90.21 -26.93,-90.00 -26.78,-89.78 -26.71,-89.53 -26.64,-89.29 -26.65,-89.03 -26.66,-88.77 -26.75,-88.53 -26.84,-88.28 -27.01,-88.08 -27.17,-87.88 -27.39,-87.75 -27.61,-87.61 -27.87,-87.55 -28.12,-87.49 -28.38,-87.52 -28.63,-87.54 -28.87,-87.65 -29.11,-87.75 -29.30,-87.93 -29.49,-88.11 -29.61,-88.33 -29.74,-88.56 -29.78,-88.82 -29.83,-89.07 -29.79,-89.33 -29.75,-89.58 -29.63,-89.81 -29.51,-90.04 -29.33,-90.22 -29.14,-90.40 -28.91,-90.52 -28.67,-90.63 -28.42,-90.66 -28.16,-90.69 -27.91,-90.64 -27.65,-90.59 -27.65,-90.59 -27.65,-90.59 -23.62,-88.81 -19.59,-87.03 -14.90,-80.33 -10.21,-73.64 -3.51,-63.02 3.17,-52.39 7.06,-43.34 10.94,-34.28 10.66,-27.86 10.39,-21.44 9.67,-16.49 8.94,-11.55 7.23,-7.77 5.52,-3.99 3.40,-1.44 1.29,1.10 1.14,1.24 0.99,1.38 0.81,1.48 0.62,1.58 0.43,1.63 0.23,1.68 0.02,1.69 -0.17,1.69 -0.37,1.64 -0.57,1.60 -0.76,1.50 -0.94,1.41 -1.10,1.28 -1.25,1.15 -1.37,0.98 -1.49,0.81 -1.57,0.62 -1.64,0.43 -1.67,0.23 -1.70,0.02 -1.68,-0.17 -1.66,-0.38 -1.59,-0.57 -1.52,-0.76 -1.40,-0.93 -1.29,-1.10 -1.29,-1.10 L -1.29,-1.10 Z"></path></g><g transform="translate(190.72753637115943 178.26356834556145) rotate(0 33.02951526783261 -42.37749128703058)" stroke="none"><path fill="#000000" d="M -1.34,-0.89 Q -1.34,-0.89 -0.71,-2.00 -0.08,-3.11 0.88,-7.21 1.84,-11.32 3.40,-18.19 4.95,-25.05 6.70,-33.69 8.45,-42.34 12.48,-50.84 16.52,-59.34 20.40,-65.80 24.28,-72.27 28.57,-76.57 32.86,-80.87 39.18,-82.78 45.50,-84.70 50.31,-85.46 55.12,-86.22 59.63,-86.29 64.14,-86.36 64.39,-86.32 64.64,-86.27 64.87,-86.15 65.10,-86.03 65.27,-85.84 65.44,-85.65 65.55,-85.42 65.65,-85.18 65.68,-84.92 65.70,-84.67 65.64,-84.42 65.59,-84.17 65.45,-83.95 65.32,-83.73 65.12,-83.57 64.92,-83.40 64.68,-83.31 64.44,-83.22 64.18,-83.21 63.93,-83.20 63.68,-83.27 63.43,-83.34 63.22,-83.49 63.01,-83.63 62.86,-83.84 62.70,-84.05 62.62,-84.29 62.55,-84.54 62.55,-84.79 62.55,-85.05 62.64,-85.29 62.72,-85.54 62.88,-85.74 63.04,-85.94 63.25,-86.08 63.47,-86.23 63.72,-86.29 63.97,-86.36 64.22,-86.34 64.48,-86.32 64.72,-86.22 64.95,-86.13 65.15,-85.96 65.34,-85.79 65.47,-85.57 65.60,-85.34 65.65,-85.09 65.71,-84.84 65.67,-84.58 65.64,-84.33 65.53,-84.10 65.42,-83.87 65.24,-83.68 65.06,-83.50 64.83,-83.38 64.61,-83.26 64.35,-83.22 64.10,-83.19 64.10,-83.19 64.10,-83.19 59.82,-83.37 55.54,-83.55 50.90,-82.81 46.26,-82.07 40.47,-80.45 34.67,-78.83 30.69,-74.81 26.70,-70.80 22.92,-64.45 19.14,-58.09 15.27,-49.91 11.39,-41.73 9.71,-33.05 8.03,-24.38 6.56,-17.47 5.10,-10.56 4.02,-5.87 2.95,-1.18 2.14,-0.14 1.34,0.89 1.21,1.04 1.09,1.19 0.93,1.30 0.77,1.41 0.59,1.48 0.41,1.56 0.21,1.58 0.02,1.61 -0.16,1.59 -0.36,1.57 -0.54,1.50 -0.72,1.44 -0.88,1.33 -1.05,1.22 -1.18,1.08 -1.31,0.93 -1.40,0.76 -1.50,0.59 -1.55,0.40 -1.59,0.22 -1.60,0.02 -1.60,-0.16 -1.56,-0.35 -1.51,-0.54 -1.43,-0.72 -1.34,-0.89 -1.34,-0.89 L -1.34,-0.89 Z"></path></g><g transform="translate(145.8572514790094 180.7563619506809) rotate(0 -21.188745643515176 -21.811944044795155)" stroke="none"><path fill="#000000" d="M -1.41,0.94 Q -1.41,0.94 -2.80,-1.23 -4.19,-3.41 -7.28,-8.30 -10.37,-13.18 -14.48,-18.05 -18.59,-22.92 -23.18,-27.49 -27.77,-32.06 -32.15,-35.02 -36.52,-37.98 -38.42,-39.28 -40.32,-40.58 -40.48,-40.73 -40.65,-40.88 -40.75,-41.08 -40.85,-41.28 -40.89,-41.49 -40.93,-41.71 -40.89,-41.93 -40.85,-42.15 -40.75,-42.35 -40.65,-42.54 -40.49,-42.69 -40.33,-42.85 -40.12,-42.94 -39.92,-43.03 -39.70,-43.06 -39.48,-43.08 -39.27,-43.04 -39.05,-42.99 -38.86,-42.87 -38.67,-42.76 -38.53,-42.59 -38.38,-42.42 -38.30,-42.22 -38.22,-42.01 -38.21,-41.79 -38.19,-41.57 -38.25,-41.35 -38.31,-41.14 -38.44,-40.96 -38.56,-40.77 -38.74,-40.64 -38.91,-40.50 -39.12,-40.43 -39.33,-40.36 -39.55,-40.36 -39.78,-40.36 -39.99,-40.43 -40.20,-40.50 -40.37,-40.64 -40.55,-40.77 -40.67,-40.95 -40.80,-41.14 -40.86,-41.35 -40.92,-41.56 -40.91,-41.79 -40.89,-42.01 -40.81,-42.21 -40.73,-42.42 -40.59,-42.59 -40.44,-42.76 -40.25,-42.87 -40.06,-42.99 -39.85,-43.03 -39.63,-43.08 -39.41,-43.06 -39.19,-43.03 -38.99,-42.94 -38.79,-42.85 -38.79,-42.85 -38.79,-42.85 -36.88,-41.57 -34.96,-40.29 -30.37,-37.19 -25.78,-34.09 -21.07,-29.45 -16.37,-24.81 -12.09,-19.82 -7.82,-14.83 -4.68,-10.00 -1.54,-5.18 -0.06,-3.06 1.41,-0.94 1.50,-0.75 1.59,-0.57 1.64,-0.37 1.68,-0.17 1.68,0.02 1.68,0.23 1.63,0.42 1.57,0.62 1.48,0.80 1.38,0.98 1.24,1.13 1.10,1.28 0.93,1.40 0.76,1.51 0.57,1.58 0.37,1.65 0.17,1.67 -0.02,1.69 -0.23,1.67 -0.43,1.64 -0.62,1.56 -0.81,1.49 -0.98,1.37 -1.14,1.25 -1.28,1.09 -1.41,0.94 -1.41,0.94 L -1.41,0.94 Z"></path></g><g stroke-opacity="0.5" fill-opacity="0.5" transform="translate(21.217571223037567 453.7172617112592) rotate(0 9.971174420477723 -23.681539248634635)" stroke="none"><path fill="#495057" d="M 1.65,0.55 Q 1.65,0.55 1.38,1.65 1.11,2.75 1.01,2.96 0.91,3.17 0.76,3.35 0.61,3.53 0.43,3.67 0.24,3.81 0.03,3.91 -0.17,4.00 -0.40,4.03 -0.63,4.07 -0.86,4.05 -1.10,4.03 -1.32,3.96 -1.54,3.89 -1.73,3.76 -1.93,3.64 -2.09,3.47 -2.25,3.30 -2.37,3.10 -2.49,2.90 -2.55,2.68 -2.61,2.46 -2.62,2.22 -2.63,1.99 -2.59,1.76 -2.54,1.54 -1.06,-0.94 0.41,-3.43 3.14,-8.38 5.87,-13.33 8.44,-20.34 11.00,-27.35 13.56,-33.28 16.13,-39.21 17.19,-42.71 18.25,-46.21 18.84,-48.26 19.43,-50.31 19.41,-50.20 19.39,-50.10 19.46,-50.27 19.52,-50.45 19.63,-50.60 19.73,-50.75 19.87,-50.88 20.01,-51.00 20.18,-51.09 20.34,-51.18 20.52,-51.22 20.70,-51.27 20.89,-51.27 21.08,-51.27 21.26,-51.23 21.44,-51.18 21.61,-51.09 21.77,-51.01 21.91,-50.89 22.05,-50.76 22.16,-50.61 22.27,-50.45 22.33,-50.28 22.40,-50.11 22.42,-49.92 22.45,-49.73 22.43,-49.55 22.40,-49.36 21.35,-45.46 20.29,-41.57 18.79,-34.56 17.28,-27.56 16.64,-21.77 16.01,-15.98 15.73,-12.09 15.46,-8.19 15.36,-6.17 15.26,-4.16 15.30,-2.04 15.34,0.06 15.28,0.32 15.23,0.58 15.10,0.81 14.96,1.03 14.77,1.21 14.57,1.38 14.32,1.48 14.08,1.58 13.82,1.60 13.55,1.62 13.30,1.55 13.04,1.49 12.82,1.34 12.60,1.20 12.44,0.99 12.27,0.78 12.19,0.53 12.10,0.28 12.10,0.02 12.09,-0.24 12.17,-0.49 12.25,-0.74 12.41,-0.95 12.57,-1.16 12.78,-1.32 13.00,-1.47 13.25,-1.54 13.51,-1.61 13.77,-1.60 14.03,-1.59 14.28,-1.50 14.53,-1.40 14.73,-1.24 14.93,-1.07 15.07,-0.84 15.21,-0.62 15.27,-0.36 15.33,-0.11 15.31,0.15 15.28,0.41 15.18,0.65 15.07,0.89 14.89,1.09 14.71,1.28 14.48,1.41 14.25,1.53 13.99,1.58 13.73,1.63 13.47,1.59 13.21,1.55 12.97,1.43 12.74,1.31 12.55,1.12 12.37,0.93 12.25,0.69 12.14,0.45 12.11,0.19 12.07,-0.06 12.07,-0.06 12.07,-0.06 12.28,-2.19 12.49,-4.31 12.62,-6.35 12.75,-8.38 13.02,-12.33 13.28,-16.28 13.92,-22.21 14.56,-28.13 16.04,-35.20 17.53,-42.27 18.46,-46.18 19.39,-50.10 19.45,-50.27 19.52,-50.45 19.63,-50.60 19.73,-50.75 19.87,-50.88 20.01,-51.00 20.18,-51.09 20.34,-51.18 20.52,-51.22 20.70,-51.27 20.89,-51.27 21.08,-51.27 21.26,-51.23 21.44,-51.18 21.61,-51.10 21.77,-51.01 21.91,-50.89 22.05,-50.76 22.16,-50.61 22.27,-50.45 22.33,-50.28 22.40,-50.11 22.42,-49.92 22.45,-49.73 22.43,-49.55 22.40,-49.36 22.00,-49.09 21.59,-48.82 21.26,-47.11 20.94,-45.40 19.85,-41.74 18.76,-38.08 16.27,-32.21 13.78,-26.35 11.18,-19.11 8.58,-11.86 5.93,-6.88 3.28,-1.90 2.19,0.42 1.11,2.75 1.01,2.96 0.91,3.17 0.76,3.35 0.61,3.53 0.43,3.67 0.24,3.81 0.03,3.91 -0.17,4.00 -0.40,4.03 -0.63,4.07 -0.86,4.05 -1.10,4.03 -1.32,3.96 -1.54,3.89 -1.73,3.76 -1.93,3.64 -2.09,3.47 -2.25,3.30 -2.37,3.10 -2.48,2.90 -2.55,2.68 -2.61,2.46 -2.62,2.22 -2.63,1.99 -2.59,1.76 -2.54,1.54 -2.09,0.49 -1.65,-0.55 -1.56,-0.74 -1.47,-0.93 -1.33,-1.09 -1.20,-1.25 -1.03,-1.38 -0.87,-1.50 -0.67,-1.59 -0.48,-1.67 -0.27,-1.70 -0.07,-1.73 0.13,-1.72 0.34,-1.70 0.54,-1.63 0.74,-1.57 0.92,-1.46 1.10,-1.34 1.24,-1.19 1.39,-1.04 1.49,-0.86 1.60,-0.68 1.66,-0.48 1.71,-0.27 1.72,-0.07 1.73,0.13 1.69,0.34 1.65,0.55 1.65,0.55 L 1.65,0.55 Z"></path></g><g stroke-opacity="0.5" fill-opacity="0.5" transform="translate(10 433.7749128703035) rotate(0 28.04392805759369 0.6231984012797511)" stroke="none"><path fill="#495057" d="M 0.11,-1.75 Q 0.11,-1.75 5.48,-1.33 10.85,-0.91 18.12,-0.72 25.38,-0.52 31.34,-0.43 37.30,-0.33 42.70,-0.28 48.10,-0.23 52.10,-0.19 56.09,-0.15 56.31,-0.11 56.54,-0.08 56.74,0.02 56.94,0.13 57.09,0.29 57.25,0.46 57.34,0.67 57.44,0.87 57.46,1.10 57.48,1.32 57.43,1.55 57.38,1.77 57.27,1.96 57.15,2.16 56.97,2.30 56.80,2.45 56.59,2.53 56.38,2.61 56.15,2.63 55.92,2.64 55.71,2.57 55.49,2.51 55.30,2.38 55.11,2.26 54.98,2.07 54.84,1.89 54.77,1.68 54.70,1.46 54.70,1.23 54.70,1.01 54.77,0.79 54.85,0.58 54.98,0.40 55.12,0.22 55.31,0.09 55.50,-0.03 55.72,-0.09 55.94,-0.15 56.17,-0.13 56.39,-0.12 56.60,-0.03 56.81,0.04 56.99,0.19 57.16,0.34 57.27,0.53 57.39,0.73 57.44,0.95 57.49,1.17 57.46,1.40 57.43,1.62 57.34,1.83 57.24,2.04 57.08,2.20 56.93,2.36 56.73,2.47 56.52,2.57 56.30,2.61 56.08,2.65 56.08,2.65 56.08,2.65 52.08,2.64 48.09,2.64 42.68,2.63 37.27,2.63 31.29,2.60 25.32,2.57 17.98,2.46 10.64,2.35 5.26,2.05 -0.11,1.75 -0.32,1.71 -0.53,1.67 -0.72,1.58 -0.91,1.49 -1.08,1.36 -1.25,1.23 -1.38,1.06 -1.51,0.90 -1.59,0.70 -1.68,0.51 -1.71,0.30 -1.75,0.09 -1.74,-0.11 -1.72,-0.32 -1.66,-0.52 -1.59,-0.73 -1.48,-0.91 -1.37,-1.09 -1.22,-1.24 -1.07,-1.39 -0.89,-1.49 -0.71,-1.60 -0.50,-1.66 -0.30,-1.73 -0.09,-1.74 0.11,-1.75 0.11,-1.75 L 0.11,-1.75 Z"></path></g><g stroke-opacity="0.5" fill-opacity="0.5" transform="translate(112.20453780989692 457.4564521189386) rotate(0 2.4927936051194592 -18.695952038395717)" stroke="none"><path fill="#495057" d="M -1.67,-0.27 Q -1.67,-0.27 -1.26,-2.42 -0.85,-4.56 -0.30,-7.96 0.23,-11.36 0.83,-15.67 1.43,-19.97 2.06,-23.62 2.69,-27.27 2.95,-30.19 3.22,-33.11 3.42,-35.31 3.62,-37.50 3.67,-37.72 3.72,-37.93 3.84,-38.12 3.97,-38.31 4.14,-38.44 4.31,-38.58 4.52,-38.66 4.73,-38.73 4.95,-38.74 5.17,-38.74 5.38,-38.68 5.60,-38.61 5.77,-38.48 5.95,-38.35 6.08,-38.17 6.21,-37.99 6.27,-37.78 6.34,-37.57 6.33,-37.34 6.32,-37.12 6.25,-36.91 6.17,-36.71 6.03,-36.53 5.89,-36.36 5.70,-36.24 5.52,-36.13 5.30,-36.07 5.09,-36.02 4.86,-36.04 4.64,-36.06 4.44,-36.15 4.24,-36.24 4.07,-36.38 3.91,-36.53 3.80,-36.73 3.69,-36.92 3.65,-37.14 3.61,-37.36 3.64,-37.58 3.67,-37.80 3.77,-37.99 3.87,-38.19 4.03,-38.35 4.19,-38.50 4.39,-38.60 4.58,-38.70 4.80,-38.73 5.02,-38.76 5.24,-38.71 5.46,-38.67 5.65,-38.56 5.84,-38.45 5.99,-38.28 6.14,-38.12 6.23,-37.92 6.31,-37.71 6.33,-37.49 6.35,-37.27 6.35,-37.27 6.35,-37.27 6.17,-35.07 5.99,-32.87 5.74,-29.84 5.49,-26.81 4.91,-23.20 4.33,-19.59 3.78,-15.25 3.23,-10.92 2.76,-7.47 2.28,-4.03 1.98,-1.87 1.67,0.27 1.61,0.47 1.55,0.67 1.45,0.84 1.35,1.02 1.21,1.17 1.06,1.32 0.89,1.42 0.72,1.53 0.52,1.60 0.33,1.66 0.12,1.68 -0.07,1.69 -0.27,1.66 -0.47,1.62 -0.66,1.54 -0.85,1.46 -1.01,1.34 -1.18,1.22 -1.31,1.06 -1.43,0.90 -1.52,0.71 -1.61,0.53 -1.65,0.33 -1.69,0.12 -1.68,-0.07 -1.67,-0.27 -1.67,-0.27 L -1.67,-0.27 Z"></path></g><g stroke-opacity="0.5" fill-opacity="0.5" transform="translate(99.74056978429985 411.33977042422885) rotate(0 19.31915043967558 2.4927936051194592)" stroke="none"><path fill="#495057" d="M 0,-2.03 Q 0,-2.03 2.50,-1.94 5.01,-1.84 9.02,-1.41 13.03,-0.97 16.19,-0.40 19.35,0.16 21.00,0.32 22.66,0.48 25.12,0.85 27.59,1.21 29.44,1.78 31.29,2.35 33.05,2.58 34.80,2.80 36.80,2.88 38.80,2.95 39.12,3.03 39.44,3.11 39.72,3.29 40.00,3.46 40.20,3.72 40.41,3.98 40.52,4.29 40.64,4.60 40.64,4.93 40.65,5.26 40.56,5.57 40.46,5.89 40.27,6.15 40.07,6.42 39.81,6.61 39.54,6.81 39.22,6.90 38.91,7.00 38.58,6.99 38.25,6.98 37.94,6.87 37.63,6.75 37.37,6.55 37.12,6.34 36.94,6.06 36.76,5.79 36.68,5.47 36.60,5.14 36.63,4.82 36.66,4.49 36.79,4.18 36.92,3.88 37.14,3.64 37.36,3.39 37.64,3.23 37.93,3.07 38.26,3.00 38.58,2.94 38.91,2.99 39.23,3.03 39.53,3.18 39.82,3.33 40.06,3.56 40.29,3.79 40.44,4.09 40.58,4.38 40.63,4.71 40.67,5.04 40.61,5.36 40.55,5.68 40.38,5.97 40.22,6.26 39.98,6.48 39.73,6.70 39.43,6.83 39.12,6.96 38.80,6.99 38.47,7.01 38.47,7.01 38.47,7.01 36.42,6.75 34.37,6.50 32.33,6.27 30.29,6.05 27.35,5.14 24.41,4.24 23.32,4.05 22.22,3.85 20.53,3.58 18.83,3.31 15.78,2.86 12.72,2.41 8.87,2.12 5.01,1.84 2.50,1.94 0,2.03 -0.24,2.00 -0.48,1.97 -0.71,1.89 -0.94,1.80 -1.14,1.66 -1.35,1.52 -1.51,1.34 -1.67,1.15 -1.79,0.94 -1.90,0.72 -1.96,0.48 -2.02,0.24 -2.02,-0.00 -2.02,-0.24 -1.96,-0.48 -1.90,-0.72 -1.79,-0.94 -1.67,-1.15 -1.51,-1.34 -1.35,-1.52 -1.14,-1.66 -0.94,-1.80 -0.71,-1.89 -0.48,-1.97 -0.24,-2.00 0.00,-2.03 0.00,-2.03 L 0,-2.03 Z"></path></g><g stroke-opacity="0.5" fill-opacity="0.5" transform="translate(162.06040991228565 411.33977042422885) rotate(0 -4.985587210238805 30.536721662713262)" stroke="none"><path fill="#495057" d="M 1.71,0.57 Q 1.71,0.57 0.93,2.69 0.15,4.82 -0.89,9.23 -1.94,13.64 -3.49,19.50 -5.03,25.37 -6.05,31.37 -7.06,37.37 -7.49,42.76 -7.93,48.14 -8.12,51.51 -8.32,54.88 -8.33,58.01 -8.35,61.14 -8.41,61.39 -8.46,61.65 -8.59,61.87 -8.72,62.10 -8.92,62.27 -9.12,62.44 -9.36,62.54 -9.60,62.64 -9.86,62.66 -10.12,62.68 -10.37,62.61 -10.63,62.54 -10.85,62.40 -11.06,62.25 -11.22,62.05 -11.38,61.84 -11.47,61.59 -11.56,61.35 -11.56,61.09 -11.56,60.83 -11.48,60.58 -11.40,60.33 -11.25,60.12 -11.09,59.91 -10.88,59.76 -10.66,59.61 -10.41,59.54 -10.16,59.47 -9.90,59.48 -9.64,59.49 -9.39,59.58 -9.15,59.68 -8.95,59.84 -8.75,60.01 -8.61,60.23 -8.47,60.45 -8.41,60.71 -8.35,60.96 -8.38,61.22 -8.41,61.48 -8.51,61.72 -8.62,61.96 -8.80,62.15 -8.97,62.34 -9.20,62.47 -9.43,62.59 -9.69,62.64 -9.95,62.68 -10.21,62.64 -10.46,62.60 -10.70,62.48 -10.93,62.36 -11.11,62.18 -11.29,61.99 -11.40,61.75 -11.52,61.52 -11.55,61.26 -11.58,61.00 -11.58,61.00 -11.58,61.00 -11.33,57.87 -11.08,54.74 -10.92,51.33 -10.75,47.92 -10.33,42.41 -9.92,36.90 -8.93,30.76 -7.94,24.62 -6.47,18.78 -5.01,12.94 -4.01,8.35 -3.01,3.77 -2.36,1.60 -1.71,-0.57 -1.61,-0.76 -1.52,-0.96 -1.38,-1.13 -1.24,-1.29 -1.07,-1.43 -0.90,-1.56 -0.70,-1.64 -0.50,-1.73 -0.28,-1.76 -0.07,-1.80 0.14,-1.78 0.35,-1.76 0.56,-1.69 0.77,-1.62 0.95,-1.51 1.13,-1.39 1.29,-1.24 1.44,-1.08 1.54,-0.89 1.65,-0.70 1.71,-0.49 1.77,-0.28 1.78,-0.07 1.79,0.14 1.75,0.35 1.71,0.57 1.71,0.57 L 1.71,0.57 Z"></path></g><g stroke-opacity="0.5" fill-opacity="0.5" transform="translate(157.07482270204696 449.9780713035798) rotate(0 9.971174420477723 9.347976019197858)" stroke="none"><path fill="#495057" d="M 0.09,-1.78 Q 0.09,-1.78 6.90,-1.36 13.70,-0.93 17.55,0.06 21.40,1.06 22.65,3.03 23.89,5.00 22.80,6.86 21.71,8.72 19.25,10.59 16.78,12.45 13.96,14.25 11.14,16.06 8.80,17.21 6.46,18.35 3.88,18.87 1.31,19.39 -0.07,19.71 -1.46,20.02 -3.78,20.28 -6.10,20.54 -6.40,20.51 -6.70,20.48 -6.98,20.36 -7.25,20.24 -7.47,20.04 -7.69,19.83 -7.83,19.57 -7.98,19.30 -8.03,19.01 -8.08,18.71 -8.04,18.42 -7.99,18.12 -7.86,17.85 -7.72,17.59 -7.50,17.38 -7.29,17.17 -7.02,17.04 -6.75,16.91 -6.45,16.87 -6.15,16.84 -5.86,16.90 -5.56,16.96 -5.30,17.11 -5.04,17.26 -4.85,17.49 -4.65,17.72 -4.53,17.99 -4.42,18.27 -4.40,18.57 -4.38,18.87 -4.46,19.16 -4.53,19.45 -4.70,19.70 -4.86,19.95 -5.10,20.14 -5.34,20.32 -5.62,20.42 -5.90,20.52 -6.20,20.52 -6.50,20.53 -6.79,20.43 -7.08,20.34 -7.32,20.16 -7.56,19.98 -7.73,19.74 -7.90,19.49 -7.99,19.20 -8.07,18.91 -8.06,18.61 -8.04,18.31 -7.94,18.03 -7.83,17.75 -7.64,17.52 -7.45,17.29 -7.19,17.13 -6.93,16.98 -6.64,16.91 -6.35,16.84 -6.35,16.84 -6.35,16.84 -4.15,16.80 -1.95,16.76 -0.59,16.67 0.75,16.57 2.95,16.13 5.15,15.69 7.30,14.59 9.44,13.48 12.12,11.67 14.80,9.85 16.84,8.26 18.88,6.67 19.57,5.25 20.26,3.84 16.89,3.10 13.52,2.37 6.71,2.07 -0.09,1.78 -0.30,1.74 -0.51,1.71 -0.71,1.62 -0.91,1.53 -1.08,1.40 -1.25,1.27 -1.38,1.10 -1.52,0.93 -1.61,0.74 -1.70,0.54 -1.74,0.33 -1.78,0.12 -1.77,-0.09 -1.76,-0.30 -1.69,-0.51 -1.63,-0.72 -1.52,-0.90 -1.41,-1.09 -1.26,-1.24 -1.11,-1.39 -0.92,-1.51 -0.74,-1.62 -0.54,-1.68 -0.33,-1.75 -0.12,-1.77 0.09,-1.78 0.09,-1.78 L 0.09,-1.78 Z"></path></g><g stroke-opacity="0.5" fill-opacity="0.5" transform="translate(199.45231398907754 416.32535763446776) rotate(0 -3.1159920063994377 31.78311846527299)" stroke="none"><path fill="#495057" d="M 1.63,0.46 Q 1.63,0.46 0.86,2.96 0.10,5.45 -0.57,9.29 -1.26,13.13 -1.56,18.30 -1.86,23.47 -2.36,29.30 -2.86,35.14 -3.43,41.20 -4.01,47.26 -4.26,51.60 -4.51,55.94 -4.61,58.14 -4.72,60.35 -4.71,61.99 -4.70,63.63 -4.75,63.87 -4.80,64.12 -4.93,64.33 -5.05,64.54 -5.24,64.70 -5.43,64.86 -5.66,64.96 -5.89,65.05 -6.13,65.07 -6.38,65.08 -6.62,65.02 -6.86,64.95 -7.06,64.82 -7.27,64.68 -7.42,64.48 -7.57,64.29 -7.65,64.05 -7.73,63.82 -7.74,63.57 -7.74,63.33 -7.66,63.09 -7.58,62.86 -7.44,62.66 -7.29,62.46 -7.08,62.32 -6.88,62.18 -6.64,62.11 -6.40,62.04 -6.16,62.05 -5.91,62.07 -5.68,62.15 -5.45,62.24 -5.26,62.40 -5.07,62.56 -4.94,62.77 -4.81,62.98 -4.76,63.22 -4.70,63.47 -4.73,63.71 -4.75,63.96 -4.85,64.18 -4.95,64.41 -5.12,64.59 -5.29,64.77 -5.51,64.89 -5.73,65.01 -5.97,65.05 -6.21,65.09 -6.46,65.05 -6.70,65.01 -6.92,64.90 -7.14,64.79 -7.31,64.61 -7.49,64.43 -7.59,64.21 -7.70,63.98 -7.73,63.74 -7.75,63.49 -7.75,63.49 -7.75,63.49 -7.59,61.86 -7.43,60.23 -7.34,58.01 -7.24,55.79 -7.01,51.39 -6.78,47.00 -6.24,40.95 -5.69,34.90 -5.23,29.11 -4.78,23.31 -4.52,17.97 -4.25,12.63 -3.61,8.60 -2.96,4.57 -2.30,2.05 -1.63,-0.46 -1.55,-0.65 -1.47,-0.84 -1.35,-1.00 -1.23,-1.17 -1.07,-1.30 -0.91,-1.43 -0.72,-1.52 -0.54,-1.61 -0.34,-1.65 -0.14,-1.69 0.06,-1.68 0.26,-1.68 0.46,-1.62 0.66,-1.56 0.83,-1.46 1.01,-1.36 1.16,-1.22 1.31,-1.08 1.42,-0.90 1.53,-0.73 1.60,-0.54 1.66,-0.34 1.68,-0.14 1.70,0.06 1.66,0.26 1.63,0.46 1.63,0.46 L 1.63,0.46 Z"></path></g><g stroke-opacity="0.5" fill-opacity="0.5" transform="translate(289.19288377337716 477.3988009598943) rotate(0 4.985587210238805 -25.551134452474344)" stroke="none"><path fill="#495057" d="M -1.70,0 Q -1.70,0 -1.78,-1.43 -1.85,-2.87 -1.05,-7.55 -0.25,-12.23 1.18,-18.16 2.63,-24.08 3.97,-29.44 5.31,-34.80 6.61,-39.60 7.92,-44.39 8.46,-47.44 9.01,-50.48 9.42,-52.78 9.84,-55.07 9.91,-55.29 9.99,-55.50 10.13,-55.68 10.26,-55.86 10.45,-55.98 10.64,-56.11 10.86,-56.17 11.07,-56.22 11.30,-56.21 11.53,-56.20 11.73,-56.11 11.94,-56.02 12.11,-55.88 12.28,-55.73 12.40,-55.53 12.51,-55.34 12.56,-55.12 12.61,-54.90 12.58,-54.67 12.55,-54.45 12.46,-54.25 12.36,-54.04 12.20,-53.88 12.05,-53.72 11.85,-53.61 11.65,-53.51 11.42,-53.48 11.20,-53.44 10.98,-53.48 10.75,-53.52 10.56,-53.63 10.36,-53.73 10.20,-53.90 10.05,-54.07 9.96,-54.27 9.87,-54.48 9.84,-54.70 9.82,-54.93 9.87,-55.15 9.92,-55.36 10.04,-55.56 10.16,-55.75 10.33,-55.89 10.51,-56.04 10.72,-56.12 10.93,-56.20 11.15,-56.21 11.38,-56.22 11.59,-56.16 11.81,-56.10 12.00,-55.97 12.18,-55.84 12.32,-55.66 12.45,-55.48 12.52,-55.26 12.59,-55.05 12.59,-54.82 12.59,-54.60 12.59,-54.60 12.59,-54.60 12.20,-52.30 11.82,-50.00 11.29,-46.82 10.75,-43.64 9.51,-38.86 8.27,-34.08 7.01,-28.72 5.75,-23.35 4.43,-17.52 3.12,-11.70 2.49,-7.28 1.85,-2.86 1.78,-1.43 1.70,0 1.68,0.20 1.65,0.40 1.58,0.60 1.51,0.79 1.39,0.96 1.27,1.13 1.12,1.27 0.97,1.40 0.78,1.50 0.60,1.59 0.40,1.64 0.20,1.69 -0.00,1.69 -0.20,1.69 -0.40,1.64 -0.60,1.59 -0.78,1.50 -0.97,1.40 -1.12,1.26 -1.27,1.13 -1.39,0.96 -1.51,0.79 -1.58,0.60 -1.65,0.40 -1.68,0.20 -1.70,-0.00 -1.70,-0.00 L -1.70,0 Z"></path></g><g stroke-opacity="0.5" fill-opacity="0.5" transform="translate(294.1784709836161 464.93483293429654) rotate(0 19.319150439675695 -13.710364828156798)" stroke="none"><path fill="#495057" d="M -1.14,-1.65 Q -1.14,-1.65 3.56,-4.80 8.27,-7.95 14.25,-11.78 20.23,-15.62 24.92,-18.65 29.61,-21.69 31.89,-23.62 34.18,-25.56 34.37,-26.30 34.56,-27.04 34.54,-27.30 34.52,-27.56 34.59,-27.82 34.66,-28.07 34.80,-28.29 34.94,-28.51 35.15,-28.67 35.35,-28.84 35.60,-28.92 35.85,-29.01 36.11,-29.02 36.37,-29.02 36.62,-28.94 36.87,-28.86 37.09,-28.71 37.30,-28.55 37.45,-28.34 37.60,-28.12 37.68,-27.87 37.75,-27.62 37.74,-27.36 37.73,-27.10 37.64,-26.85 37.55,-26.60 37.38,-26.40 37.21,-26.20 36.99,-26.06 36.77,-25.92 36.51,-25.86 36.26,-25.80 36.00,-25.82 35.73,-25.84 35.49,-25.95 35.25,-26.06 35.06,-26.23 34.87,-26.41 34.74,-26.64 34.61,-26.87 34.57,-27.13 34.52,-27.39 34.56,-27.65 34.59,-27.91 34.71,-28.14 34.83,-28.37 35.02,-28.56 35.21,-28.74 35.44,-28.86 35.68,-28.97 35.94,-29.00 36.20,-29.04 36.46,-28.99 36.71,-28.93 36.94,-28.80 37.17,-28.67 37.34,-28.47 37.52,-28.28 37.62,-28.04 37.72,-27.79 37.72,-27.79 37.72,-27.79 36.94,-25.54 36.17,-23.28 33.77,-21.16 31.36,-19.04 26.72,-15.92 22.08,-12.79 16.22,-8.86 10.35,-4.94 5.75,-1.64 1.14,1.65 0.93,1.77 0.71,1.88 0.48,1.94 0.24,2.00 0.00,2.00 -0.24,2.00 -0.47,1.94 -0.71,1.88 -0.92,1.77 -1.14,1.66 -1.32,1.50 -1.50,1.34 -1.64,1.14 -1.78,0.94 -1.87,0.71 -1.95,0.48 -1.98,0.24 -2.01,0.00 -1.98,-0.23 -1.95,-0.48 -1.87,-0.70 -1.78,-0.93 -1.65,-1.13 -1.51,-1.33 -1.33,-1.49 -1.14,-1.65 -1.14,-1.65 L -1.14,-1.65 Z"></path></g><g stroke-opacity="0.5" fill-opacity="0.5" transform="translate(294.1784709836161 459.9492457240576) rotate(0 13.087166426877047 13.087166426877047)" stroke="none"><path fill="#495057" d="M 1.57,-1.04 Q 1.57,-1.04 2.94,1.14 4.30,3.33 6.24,5.63 8.17,7.93 11.13,11.07 14.09,14.22 16.38,16.25 18.67,18.28 20.70,19.86 22.72,21.44 24.98,23.16 27.24,24.89 27.41,25.09 27.59,25.30 27.69,25.55 27.79,25.80 27.81,26.06 27.83,26.33 27.76,26.59 27.69,26.85 27.54,27.08 27.39,27.30 27.18,27.47 26.96,27.63 26.71,27.72 26.45,27.81 26.18,27.81 25.92,27.82 25.66,27.73 25.40,27.65 25.19,27.49 24.97,27.33 24.82,27.10 24.66,26.88 24.59,26.62 24.51,26.37 24.53,26.10 24.54,25.83 24.64,25.58 24.73,25.32 24.91,25.12 25.08,24.91 25.31,24.77 25.54,24.63 25.80,24.57 26.06,24.51 26.33,24.53 26.60,24.56 26.85,24.67 27.09,24.78 27.29,24.97 27.49,25.15 27.61,25.39 27.74,25.62 27.79,25.89 27.84,26.15 27.79,26.42 27.75,26.69 27.63,26.93 27.50,27.17 27.31,27.35 27.12,27.54 26.87,27.65 26.63,27.77 26.36,27.80 26.09,27.83 25.83,27.78 25.57,27.72 25.33,27.59 25.10,27.45 25.10,27.45 25.10,27.45 23.04,25.58 20.98,23.71 18.86,22.11 16.73,20.51 14.30,18.43 11.87,16.35 8.80,13.20 5.72,10.05 3.57,7.66 1.42,5.26 -0.07,3.15 -1.57,1.04 -1.67,0.84 -1.77,0.64 -1.82,0.41 -1.87,0.19 -1.87,-0.03 -1.87,-0.25 -1.81,-0.47 -1.75,-0.69 -1.64,-0.89 -1.53,-1.09 -1.38,-1.26 -1.23,-1.43 -1.04,-1.56 -0.85,-1.68 -0.63,-1.76 -0.42,-1.84 -0.19,-1.86 0.03,-1.88 0.25,-1.85 0.48,-1.82 0.69,-1.74 0.90,-1.65 1.09,-1.52 1.27,-1.39 1.42,-1.22 1.57,-1.04 1.57,-1.04 L 1.57,-1.04 Z"></path></g><g stroke-opacity="0.5" fill-opacity="0.5" transform="translate(371.4550727423184 446.2388808959013) rotate(0 -1.2463968025597296 24.927936051194365)" stroke="none"><path fill="#495057" d="M 1.80,0.20 Q 1.80,0.20 1.38,3.41 0.95,6.63 0.39,11.57 -0.16,16.52 -0.41,21.80 -0.66,27.08 -0.78,31.48 -0.90,35.88 -0.95,39.54 -1.01,43.20 -0.94,46.53 -0.86,49.87 -0.91,50.12 -0.95,50.38 -1.08,50.62 -1.20,50.85 -1.39,51.03 -1.59,51.21 -1.83,51.31 -2.07,51.42 -2.33,51.45 -2.59,51.47 -2.85,51.42 -3.10,51.36 -3.33,51.22 -3.55,51.08 -3.72,50.88 -3.89,50.68 -3.98,50.43 -4.08,50.19 -4.09,49.92 -4.10,49.66 -4.03,49.41 -3.96,49.15 -3.81,48.94 -3.66,48.72 -3.45,48.56 -3.24,48.41 -2.99,48.33 -2.74,48.24 -2.47,48.25 -2.21,48.25 -1.96,48.33 -1.71,48.42 -1.51,48.58 -1.30,48.74 -1.15,48.96 -1.01,49.18 -0.94,49.44 -0.87,49.69 -0.89,49.95 -0.90,50.21 -1.00,50.46 -1.10,50.70 -1.27,50.90 -1.45,51.10 -1.67,51.23 -1.90,51.37 -2.16,51.42 -2.41,51.48 -2.68,51.45 -2.94,51.41 -3.17,51.30 -3.41,51.19 -3.60,51.01 -3.79,50.82 -3.91,50.59 -4.03,50.36 -4.07,50.10 -4.11,49.84 -4.11,49.84 -4.11,49.84 -3.98,46.50 -3.85,43.17 -3.83,39.49 -3.81,35.81 -3.74,31.38 -3.68,26.95 -3.49,21.57 -3.31,16.19 -2.85,11.23 -2.39,6.26 -2.10,3.03 -1.80,-0.20 -1.75,-0.41 -1.70,-0.62 -1.60,-0.82 -1.50,-1.01 -1.36,-1.18 -1.22,-1.35 -1.04,-1.47 -0.86,-1.60 -0.65,-1.68 -0.45,-1.76 -0.23,-1.79 -0.01,-1.82 0.19,-1.79 0.41,-1.77 0.62,-1.69 0.82,-1.62 1.01,-1.49 1.19,-1.37 1.34,-1.21 1.48,-1.04 1.59,-0.85 1.69,-0.66 1.75,-0.45 1.80,-0.23 1.80,-0.01 1.80,0.20 1.80,0.20 L 1.80,0.20 Z"></path></g><g stroke-opacity="0.5" fill-opacity="0.5" transform="translate(357.74470791416206 442.49969048822186) rotate(0 15.579960031996507 2.2737367544323206e-13)" stroke="none"><path fill="#495057" d="M 0.22,-2.01 Q 0.22,-2.01 3.43,-1.56 6.65,-1.10 11.17,-0.89 15.69,-0.67 20.14,-0.55 24.58,-0.44 26.42,-0.78 28.26,-1.12 28.28,-1.38 28.30,-1.65 28.41,-1.90 28.52,-2.14 28.70,-2.34 28.88,-2.54 29.11,-2.67 29.35,-2.80 29.61,-2.85 29.87,-2.90 30.14,-2.86 30.41,-2.82 30.64,-2.70 30.88,-2.58 31.07,-2.39 31.26,-2.20 31.38,-1.96 31.49,-1.72 31.53,-1.45 31.56,-1.19 31.51,-0.92 31.46,-0.66 31.33,-0.43 31.19,-0.20 30.99,-0.02 30.79,0.15 30.54,0.25 30.30,0.36 30.03,0.38 29.76,0.40 29.50,0.33 29.24,0.27 29.02,0.12 28.79,-0.02 28.63,-0.23 28.46,-0.44 28.37,-0.69 28.28,-0.94 28.27,-1.21 28.27,-1.48 28.35,-1.73 28.43,-1.99 28.59,-2.20 28.75,-2.42 28.96,-2.58 29.18,-2.73 29.44,-2.81 29.70,-2.88 29.96,-2.87 30.23,-2.87 30.48,-2.77 30.73,-2.68 30.94,-2.51 31.15,-2.34 31.29,-2.11 31.43,-1.89 31.50,-1.62 31.56,-1.36 31.56,-1.36 31.56,-1.36 28.05,0.68 24.54,2.74 20.06,2.72 15.58,2.71 10.91,2.62 6.24,2.54 3.01,2.27 -0.22,2.01 -0.46,1.95 -0.69,1.90 -0.91,1.79 -1.13,1.68 -1.31,1.51 -1.50,1.35 -1.64,1.15 -1.78,0.96 -1.87,0.73 -1.96,0.50 -1.99,0.26 -2.02,0.02 -2.00,-0.22 -1.97,-0.46 -1.88,-0.69 -1.80,-0.92 -1.66,-1.12 -1.53,-1.32 -1.34,-1.49 -1.16,-1.65 -0.95,-1.77 -0.73,-1.88 -0.50,-1.94 -0.26,-2.00 -0.02,-2.01 0.22,-2.01 0.22,-2.01 L 0.22,-2.01 Z"></path></g><g stroke-opacity="0.5" fill-opacity="0.5" transform="translate(432.52851606774493 452.4708649086997) rotate(0 5.608785611518783 26.174332853754095)" stroke="none"><path fill="#495057" d="M 0,1.56 Q 0,1.56 -2.75,1.48 -5.51,1.41 -8.15,3.75 -10.79,6.08 -12.64,9.79 -14.48,13.51 -15.64,18.60 -16.81,23.70 -17.32,27.97 -17.83,32.25 -16.32,36.31 -14.80,40.38 -11.45,43.42 -8.10,46.47 -3.63,47.73 0.84,49.00 6.20,48.86 11.57,48.73 15.80,46.26 20.03,43.80 22.83,39.68 25.62,35.56 26.80,30.36 27.99,25.15 28.16,20.84 28.32,16.52 27.36,13.41 26.39,10.29 25.01,8.37 23.62,6.44 21.41,5.36 19.19,4.28 16.89,3.80 14.58,3.32 12.52,3.10 10.47,2.89 5.14,2.09 -0.19,1.29 -0.39,1.23 -0.59,1.16 -0.76,1.04 -0.94,0.91 -1.06,0.74 -1.18,0.56 -1.24,0.36 -1.30,0.16 -1.29,-0.05 -1.28,-0.26 -1.21,-0.46 -1.13,-0.66 -1.00,-0.82 -0.86,-0.98 -0.68,-1.10 -0.50,-1.21 -0.29,-1.26 -0.08,-1.31 0.12,-1.29 0.33,-1.27 0.52,-1.18 0.72,-1.09 0.87,-0.95 1.03,-0.80 1.13,-0.62 1.23,-0.43 1.27,-0.22 1.31,-0.01 1.28,0.19 1.25,0.40 1.15,0.59 1.05,0.78 0.90,0.92 0.75,1.07 0.56,1.16 0.36,1.26 0.15,1.28 -0.05,1.31 -0.26,1.27 -0.46,1.22 -0.65,1.12 -0.83,1.01 -0.97,0.85 -1.11,0.69 -1.19,0.49 -1.27,0.30 -1.29,0.08 -1.30,-0.12 -1.25,-0.32 -1.20,-0.53 -1.08,-0.71 -0.96,-0.88 -0.79,-1.02 -0.63,-1.15 -0.43,-1.22 -0.23,-1.29 -0.01,-1.29 0.19,-1.29 0.19,-1.29 0.19,-1.29 5.47,-0.51 10.75,0.27 12.94,0.51 15.14,0.75 17.76,1.34 20.38,1.94 23.03,3.39 25.67,4.83 27.28,7.17 28.89,9.50 29.92,13.04 30.95,16.58 30.75,21.16 30.55,25.75 29.19,31.38 27.82,37.01 24.62,41.52 21.42,46.02 16.60,48.68 11.77,51.34 5.95,51.45 0.13,51.56 -4.84,50.02 -9.82,48.49 -13.54,44.95 -17.26,41.41 -18.89,36.74 -20.53,32.06 -20.01,27.57 -19.50,23.08 -18.25,17.66 -17.00,12.25 -14.85,8.09 -12.70,3.94 -9.33,1.26 -5.95,-1.41 -2.97,-1.48 0,-1.56 0.18,-1.53 0.37,-1.51 0.54,-1.45 0.72,-1.38 0.88,-1.27 1.03,-1.16 1.16,-1.02 1.28,-0.88 1.37,-0.72 1.46,-0.55 1.50,-0.37 1.55,-0.18 1.55,0.00 1.55,0.18 1.50,0.37 1.46,0.55 1.37,0.72 1.28,0.88 1.16,1.02 1.03,1.16 0.88,1.27 0.72,1.38 0.54,1.45 0.37,1.51 0.18,1.53 -0.00,1.56 -0.00,1.56 L 0,1.56 Z"></path></g><g stroke-opacity="0.5" fill-opacity="0.5" transform="translate(486.1235785778117 432.528516067744) rotate(0 11.840769624317545 24.927936051194138)" stroke="none"><path fill="#495057" d="M -0.48,-1.62 Q -0.48,-1.62 3.11,-2.64 6.71,-3.67 11.67,-3.90 16.63,-4.14 19.15,-0.18 21.67,3.76 21.97,8.88 22.26,14.01 21.25,18.39 20.24,22.77 19.07,25.74 17.89,28.70 15.86,31.16 13.83,33.63 11.88,35.38 9.92,37.13 9.30,38.18 8.68,39.22 8.07,41.08 7.46,42.94 6.37,44.08 5.28,45.21 4.76,46.34 4.24,47.48 4.01,48.87 3.78,50.26 3.63,52.07 3.47,53.87 3.37,54.22 3.26,54.57 3.06,54.87 2.85,55.17 2.55,55.38 2.26,55.60 1.91,55.71 1.56,55.82 1.20,55.81 0.84,55.80 0.49,55.68 0.15,55.56 -0.12,55.33 -0.41,55.11 -0.61,54.80 -0.81,54.50 -0.90,54.14 -0.99,53.79 -0.96,53.43 -0.94,53.07 -0.79,52.73 -0.65,52.40 -0.41,52.12 -0.17,51.85 0.13,51.67 0.45,51.49 0.80,51.41 1.16,51.34 1.52,51.39 1.88,51.43 2.21,51.59 2.54,51.75 2.80,52.01 3.06,52.26 3.22,52.59 3.39,52.91 3.44,53.27 3.49,53.63 3.42,53.99 3.36,54.35 3.18,54.67 3.01,54.98 2.74,55.23 2.47,55.47 2.14,55.62 1.80,55.77 1.44,55.80 1.08,55.83 0.72,55.75 0.37,55.66 0.06,55.47 -0.24,55.28 -0.47,55.00 -0.70,54.71 -0.82,54.37 -0.95,54.03 -0.97,53.67 -0.98,53.31 -0.98,53.31 -0.98,53.31 -0.66,51.39 -0.34,49.47 0.06,47.50 0.47,45.54 2.23,43.34 3.99,41.15 4.53,40.19 5.08,39.23 5.61,38.29 6.14,37.35 7.13,36.25 8.12,35.14 9.94,33.51 11.76,31.89 13.56,29.77 15.36,27.65 16.45,24.90 17.54,22.14 18.48,18.13 19.43,14.11 19.27,9.60 19.11,5.09 17.18,1.55 15.25,-1.98 11.43,-1.30 7.61,-0.62 4.05,0.49 0.48,1.62 0.28,1.65 0.08,1.69 -0.11,1.67 -0.32,1.66 -0.51,1.60 -0.71,1.53 -0.88,1.43 -1.05,1.32 -1.20,1.17 -1.34,1.03 -1.44,0.85 -1.55,0.67 -1.61,0.48 -1.67,0.28 -1.68,0.08 -1.69,-0.12 -1.65,-0.32 -1.61,-0.52 -1.52,-0.70 -1.44,-0.89 -1.31,-1.05 -1.18,-1.21 -1.02,-1.33 -0.86,-1.45 -0.67,-1.54 -0.48,-1.62 -0.48,-1.62 L -0.48,-1.62 Z"></path></g><g stroke-opacity="0.5" fill-opacity="0.5" transform="translate(488.6163721829316 502.32673701108797) rotate(0 0.6231984012795238 0.6231984012799785)" stroke="none"><path fill="#495057" d="M 1.10,-2.20 Q 1.10,-2.20 1.84,-1.89 2.58,-1.57 2.83,-1.40 3.09,-1.23 3.30,-1.01 3.51,-0.78 3.66,-0.51 3.81,-0.24 3.89,0.05 3.97,0.35 3.98,0.66 3.98,0.97 3.91,1.27 3.85,1.57 3.71,1.85 3.57,2.13 3.37,2.36 3.17,2.60 2.92,2.78 2.67,2.96 2.38,3.08 2.09,3.19 1.78,3.23 1.48,3.28 1.17,3.25 0.86,3.22 0.57,3.11 0.28,3.01 -0.74,0.52 -1.76,-1.97 -1.40,-2.20 -1.04,-2.43 -0.62,-2.53 -0.21,-2.64 0.21,-2.60 0.64,-2.57 1.03,-2.40 1.42,-2.23 1.74,-1.94 2.06,-1.65 2.27,-1.28 2.48,-0.91 2.56,-0.49 2.64,-0.07 2.58,0.35 2.53,0.77 2.34,1.16 2.15,1.54 1.84,1.84 1.54,2.15 1.15,2.34 0.77,2.53 0.35,2.59 -0.07,2.64 -0.49,2.56 -0.91,2.48 -1.28,2.27 -1.66,2.06 -1.94,1.74 -2.23,1.42 -2.40,1.03 -2.57,0.63 -2.60,0.21 -2.63,-0.21 -2.53,-0.63 -2.43,-1.04 -2.20,-1.40 -1.97,-1.77 -1.63,-2.03 -1.30,-2.30 -0.89,-2.45 -0.49,-2.60 -0.06,-2.61 0.35,-2.62 0.76,-2.49 1.17,-2.37 1.52,-2.12 1.87,-1.87 2.12,-1.52 2.37,-1.17 2.49,-0.76 2.62,-0.35 2.61,0.07 2.60,0.50 2.45,0.90 2.30,1.30 2.03,1.63 1.76,1.97 1.76,1.97 1.76,1.97 0.58,0.23 -0.60,-1.49 0.98,-1.53 2.58,-1.57 2.83,-1.40 3.09,-1.23 3.30,-1.01 3.51,-0.78 3.66,-0.51 3.81,-0.24 3.89,0.05 3.97,0.35 3.98,0.66 3.98,0.97 3.91,1.27 3.85,1.57 3.71,1.85 3.57,2.13 3.37,2.36 3.17,2.60 2.92,2.78 2.67,2.96 2.38,3.08 2.09,3.19 1.79,3.23 1.48,3.28 1.17,3.25 0.86,3.22 0.57,3.11 0.28,3.01 -0.40,2.60 -1.10,2.20 -1.35,2.04 -1.59,1.87 -1.80,1.65 -2.00,1.44 -2.14,1.18 -2.28,0.91 -2.36,0.63 -2.44,0.34 -2.44,0.04 -2.45,-0.24 -2.38,-0.53 -2.32,-0.82 -2.19,-1.09 -2.05,-1.36 -1.86,-1.58 -1.67,-1.81 -1.43,-1.98 -1.18,-2.16 -0.91,-2.27 -0.63,-2.38 -0.34,-2.42 -0.04,-2.46 0.24,-2.43 0.54,-2.40 0.82,-2.30 1.10,-2.20 1.10,-2.20 L 1.10,-2.20 Z"></path></g><g stroke-linecap="round"><g stroke-opacity="0.7" fill-opacity="0.7" transform="translate(120.92931542781525 249.3081860914658) rotate(0 235.56899568378685 59.82704652286634)"><path d="M0 0 C78.52 19.94, 392.61 99.71, 471.14 119.65" stroke="#495057" stroke-width="1.5" fill="none" stroke-dasharray="8 9"></path></g><g stroke-opacity="0.7" fill-opacity="0.7" transform="translate(120.92931542781525 249.3081860914658) rotate(0 235.56899568378685 59.82704652286634)"><path d="M29.85 -3.01 C22.71 -2.29, 15.56 -1.57, 0 0" stroke="#495057" stroke-width="1.5" fill="none"></path></g><g stroke-opacity="0.7" fill-opacity="0.7" transform="translate(120.92931542781525 249.3081860914658) rotate(0 235.56899568378685 59.82704652286634)"><path d="M24.8 16.88 C18.86 12.84, 12.93 8.8, 0 0" stroke="#495057" stroke-width="1.5" fill="none"></path></g><g stroke-opacity="0.7" fill-opacity="0.7" transform="translate(120.92931542781525 249.3081860914658) rotate(0 235.56899568378685 59.82704652286634)"><path d="M441.29 122.66 C448.43 121.94, 455.57 121.22, 471.14 119.65" stroke="#495057" stroke-width="1.5" fill="none"></path></g><g stroke-opacity="0.7" fill-opacity="0.7" transform="translate(120.92931542781525 249.3081860914658) rotate(0 235.56899568378685 59.82704652286634)"><path d="M446.34 102.77 C452.27 106.81, 458.21 110.85, 471.14 119.65" stroke="#495057" stroke-width="1.5" fill="none"></path></g></g><g stroke-linecap="round"><g stroke-opacity="0.7" fill-opacity="0.7" transform="translate(261.7721541170631 248.06178928890586) rotate(0 256.757741327302 60.45024492414632)"><path d="M0 0 C85.59 20.15, 427.93 100.75, 513.52 120.9" stroke="#495057" stroke-width="1.5" fill="none" stroke-dasharray="8 9"></path></g><g stroke-opacity="0.7" fill-opacity="0.7" transform="translate(261.7721541170631 248.06178928890586) rotate(0 256.757741327302 60.45024492414632)"><path d="M29.79 -3.53 C18.84 -2.23, 7.9 -0.93, 0 0" stroke="#495057" stroke-width="1.5" fill="none"></path></g><g stroke-opacity="0.7" fill-opacity="0.7" transform="translate(261.7721541170631 248.06178928890586) rotate(0 256.757741327302 60.45024492414632)"><path d="M25.09 16.45 C15.87 10.4, 6.65 4.36, 0 0" stroke="#495057" stroke-width="1.5" fill="none"></path></g><g stroke-opacity="0.7" fill-opacity="0.7" transform="translate(261.7721541170631 248.06178928890586) rotate(0 256.757741327302 60.45024492414632)"><path d="M483.72 124.43 C494.67 123.13, 505.62 121.84, 513.52 120.9" stroke="#495057" stroke-width="1.5" fill="none"></path></g><g stroke-opacity="0.7" fill-opacity="0.7" transform="translate(261.7721541170631 248.06178928890586) rotate(0 256.757741327302 60.45024492414632)"><path d="M488.43 104.45 C497.65 110.5, 506.87 116.54, 513.52 120.9" stroke="#495057" stroke-width="1.5" fill="none"></path></g></g><g stroke-opacity="0.3" fill-opacity="0.3" transform="translate(138.3788706636517 74.81263373310549) rotate(0 14.333563229436663 -30.53672166271315)" stroke="none"><path fill="#495057" d="M -1.78,0 Q -1.78,0 -1.72,-2.86 -1.65,-5.73 -1.61,-10.17 -1.56,-14.62 -1.53,-20.45 -1.49,-26.28 -1.47,-32.70 -1.44,-39.11 -1.42,-44.71 -1.41,-50.30 -1.39,-53.76 -1.38,-57.21 -1.50,-58.32 -1.63,-59.43 -1.60,-59.62 -1.58,-59.82 -1.51,-60.00 -1.44,-60.19 -1.33,-60.35 -1.22,-60.51 -1.07,-60.64 -0.92,-60.77 -0.75,-60.86 -0.57,-60.95 -0.38,-61.00 -0.19,-61.05 0.00,-61.05 0.19,-61.05 0.38,-61.00 0.57,-60.95 0.75,-60.86 0.92,-60.77 1.07,-60.64 1.22,-60.51 1.33,-60.35 1.44,-60.19 1.51,-60.00 1.58,-59.82 1.60,-59.62 1.63,-59.43 4.07,-56.30 6.51,-53.17 8.21,-50.27 9.92,-47.38 12.07,-43.63 14.22,-39.88 15.51,-37.17 16.80,-34.45 17.70,-33.52 18.59,-32.60 19.12,-34.82 19.64,-37.05 21.14,-39.28 22.63,-41.52 23.57,-43.35 24.50,-45.18 25.26,-47.34 26.02,-49.49 26.27,-51.08 26.51,-52.67 26.55,-53.76 26.59,-54.85 26.66,-55.07 26.73,-55.29 26.85,-55.48 26.97,-55.68 27.13,-55.84 27.30,-56.00 27.49,-56.12 27.69,-56.24 27.91,-56.30 28.13,-56.37 28.36,-56.38 28.59,-56.40 28.81,-56.35 29.04,-56.31 29.25,-56.22 29.46,-56.12 29.64,-55.98 29.82,-55.83 29.96,-55.65 30.10,-55.47 30.19,-55.26 30.28,-55.05 30.32,-54.83 30.36,-54.60 30.35,-54.37 30.33,-54.14 30.31,-50.01 30.30,-45.88 30.26,-39.85 30.22,-33.83 29.83,-26.57 29.44,-19.32 29.26,-14.11 29.09,-8.91 29.01,-5.98 28.92,-3.06 28.86,-0.89 28.80,1.27 28.76,1.49 28.72,1.71 28.61,1.91 28.50,2.10 28.33,2.25 28.17,2.41 27.96,2.49 27.76,2.58 27.53,2.60 27.31,2.62 27.09,2.57 26.87,2.52 26.69,2.40 26.50,2.28 26.35,2.10 26.21,1.93 26.13,1.72 26.06,1.51 26.05,1.29 26.04,1.06 26.11,0.85 26.17,0.63 26.30,0.45 26.43,0.27 26.61,0.13 26.79,0.00 27.01,-0.05 27.22,-0.12 27.45,-0.12 27.67,-0.11 27.88,-0.03 28.09,0.03 28.27,0.17 28.44,0.31 28.56,0.50 28.69,0.69 28.74,0.90 28.80,1.12 28.78,1.35 28.76,1.57 28.67,1.78 28.59,1.98 28.44,2.15 28.29,2.32 28.09,2.43 27.90,2.54 27.68,2.58 27.46,2.63 27.24,2.60 27.02,2.57 26.81,2.47 26.61,2.37 26.45,2.21 26.29,2.06 26.19,1.86 26.09,1.65 26.06,1.43 26.03,1.21 26.03,1.21 26.03,1.21 26.06,-0.95 26.10,-3.12 26.14,-6.06 26.19,-9.00 26.31,-14.23 26.44,-19.46 26.76,-26.64 27.07,-33.82 27.01,-39.84 26.95,-45.86 26.77,-50.36 26.59,-54.85 26.66,-55.07 26.73,-55.29 26.85,-55.48 26.97,-55.68 27.13,-55.84 27.30,-56.00 27.49,-56.12 27.69,-56.24 27.91,-56.30 28.13,-56.37 28.36,-56.38 28.59,-56.40 28.81,-56.35 29.04,-56.31 29.25,-56.22 29.46,-56.12 29.64,-55.98 29.82,-55.83 29.96,-55.65 30.10,-55.47 30.19,-55.26 30.28,-55.05 30.32,-54.83 30.36,-54.60 30.35,-54.37 30.33,-54.14 30.10,-53.09 29.87,-52.03 29.48,-50.26 29.09,-48.49 28.36,-46.11 27.62,-43.72 26.72,-41.62 25.81,-39.52 24.68,-37.57 23.54,-35.61 22.95,-34.00 22.36,-32.39 20.54,-30.72 18.72,-29.04 17.42,-29.80 16.13,-30.56 15.21,-31.90 14.30,-33.23 13.03,-35.84 11.77,-38.45 9.59,-42.16 7.41,-45.88 5.66,-48.74 3.91,-51.61 2.49,-53.97 1.07,-56.33 -0.27,-57.88 -1.63,-59.43 -1.60,-59.62 -1.58,-59.82 -1.51,-60.00 -1.44,-60.19 -1.33,-60.35 -1.22,-60.51 -1.07,-60.64 -0.92,-60.77 -0.75,-60.86 -0.57,-60.95 -0.38,-61.00 -0.19,-61.05 -0.00,-61.05 0.19,-61.05 0.38,-61.00 0.57,-60.95 0.75,-60.86 0.92,-60.77 1.07,-60.64 1.22,-60.51 1.33,-60.35 1.44,-60.19 1.51,-60.00 1.58,-59.82 1.60,-59.62 1.63,-59.43 1.50,-58.32 1.38,-57.21 1.39,-53.76 1.41,-50.30 1.42,-44.71 1.44,-39.11 1.47,-32.70 1.49,-26.28 1.53,-20.45 1.56,-14.62 1.61,-10.17 1.65,-5.73 1.72,-2.86 1.78,0 1.76,0.21 1.73,0.42 1.65,0.62 1.58,0.83 1.46,1.00 1.33,1.18 1.17,1.32 1.01,1.47 0.82,1.57 0.63,1.67 0.42,1.72 0.21,1.77 -0.00,1.77 -0.21,1.77 -0.42,1.72 -0.63,1.67 -0.82,1.57 -1.01,1.47 -1.17,1.32 -1.33,1.18 -1.46,1.00 -1.58,0.83 -1.65,0.62 -1.73,0.42 -1.76,0.21 -1.78,-0.00 -1.78,-0.00 L -1.78,0 Z"></path></g><g stroke-opacity="0.3" fill-opacity="0.3" transform="translate(196.95952038395853 10) rotate(0 -3.739190407679189 33.65271366911247)" stroke="none"><path fill="#495057" d="M 1.69,0 Q 1.69,0 1.64,4.30 1.59,8.60 0.11,16.65 -1.37,24.70 -2.72,33.42 -4.07,42.13 -4.65,48.31 -5.23,54.49 -5.48,58.19 -5.73,61.89 -5.92,64.64 -6.11,67.39 -6.16,67.60 -6.21,67.82 -6.32,68.01 -6.44,68.20 -6.61,68.34 -6.78,68.48 -6.99,68.56 -7.19,68.64 -7.41,68.65 -7.64,68.66 -7.85,68.60 -8.06,68.54 -8.24,68.41 -8.43,68.29 -8.56,68.11 -8.69,67.93 -8.76,67.72 -8.83,67.51 -8.83,67.29 -8.82,67.06 -8.75,66.86 -8.68,66.65 -8.54,66.47 -8.41,66.30 -8.22,66.17 -8.04,66.05 -7.82,65.99 -7.61,65.94 -7.39,65.95 -7.17,65.97 -6.96,66.05 -6.75,66.13 -6.59,66.28 -6.42,66.42 -6.31,66.62 -6.20,66.81 -6.15,67.02 -6.10,67.24 -6.13,67.46 -6.16,67.68 -6.25,67.88 -6.35,68.08 -6.50,68.24 -6.66,68.40 -6.85,68.50 -7.05,68.60 -7.27,68.64 -7.49,68.67 -7.71,68.63 -7.92,68.59 -8.12,68.49 -8.31,68.38 -8.46,68.22 -8.62,68.06 -8.71,67.86 -8.80,67.65 -8.82,67.43 -8.84,67.21 -8.84,67.21 -8.84,67.21 -8.67,64.46 -8.51,61.71 -8.28,57.97 -8.06,54.23 -7.51,47.96 -6.96,41.70 -5.66,32.93 -4.36,24.16 -2.97,16.38 -1.59,8.59 -1.64,4.29 -1.69,0 -1.67,-0.20 -1.64,-0.40 -1.57,-0.59 -1.50,-0.78 -1.38,-0.95 -1.27,-1.12 -1.11,-1.26 -0.96,-1.39 -0.78,-1.49 -0.60,-1.58 -0.40,-1.63 -0.20,-1.68 0.00,-1.68 0.20,-1.68 0.40,-1.63 0.60,-1.58 0.78,-1.49 0.96,-1.39 1.11,-1.26 1.27,-1.12 1.38,-0.95 1.50,-0.78 1.57,-0.59 1.64,-0.40 1.67,-0.20 1.69,0.00 1.69,0.00 L 1.69,0 Z"></path></g><g stroke-opacity="0.3" fill-opacity="0.3" transform="translate(189.48113956860016 54.87028489214981) rotate(0 10.594372821757588 10.594372821757702)" stroke="none"><path fill="#495057" d="M 0,-1.75 Q 0,-1.75 2.50,-1.69 5.01,-1.63 6.45,-1.71 7.89,-1.79 10.20,-0.96 12.50,-0.13 14.93,1.35 17.35,2.85 19.17,4.64 20.98,6.44 21.77,7.43 22.57,8.42 22.70,8.58 22.82,8.74 22.91,8.93 23.00,9.11 23.04,9.32 23.08,9.52 23.07,9.73 23.05,9.93 23.00,10.13 22.94,10.33 22.83,10.51 22.73,10.68 22.58,10.83 22.44,10.98 22.26,11.09 22.08,11.20 21.89,11.26 21.69,11.32 21.48,11.34 21.28,11.35 21.08,11.32 20.87,11.28 20.68,11.20 20.49,11.11 20.33,10.99 20.17,10.86 17.85,12.76 15.53,14.67 12.39,16.85 9.25,19.04 7.49,20.05 5.72,21.06 4.11,21.62 2.49,22.18 0.45,21.96 -1.59,21.75 -1.87,21.64 -2.15,21.54 -2.38,21.35 -2.61,21.17 -2.77,20.92 -2.93,20.67 -3.01,20.38 -3.08,20.09 -3.05,19.79 -3.03,19.49 -2.91,19.22 -2.79,18.94 -2.59,18.72 -2.40,18.50 -2.14,18.35 -1.88,18.21 -1.58,18.15 -1.29,18.09 -1.00,18.14 -0.70,18.18 -0.43,18.31 -0.17,18.44 0.04,18.65 0.25,18.86 0.38,19.13 0.51,19.40 0.55,19.69 0.59,19.99 0.53,20.28 0.48,20.57 0.33,20.83 0.18,21.09 -0.03,21.29 -0.25,21.49 -0.52,21.61 -0.80,21.73 -1.09,21.75 -1.39,21.77 -1.68,21.70 -1.97,21.63 -2.22,21.47 -2.47,21.31 -2.66,21.08 -2.85,20.84 -2.95,20.56 -3.05,20.28 -3.06,19.99 -3.07,19.69 -2.98,19.40 -2.89,19.12 -2.72,18.88 -2.54,18.63 -2.30,18.46 -2.06,18.29 -1.77,18.20 -1.49,18.11 -1.19,18.12 -0.89,18.13 -0.89,18.13 -0.89,18.13 0.43,18.56 1.77,19.00 3.04,18.75 4.32,18.50 5.97,17.61 7.63,16.72 10.86,14.44 14.09,12.15 18.33,10.28 22.57,8.42 22.69,8.58 22.82,8.74 22.91,8.93 23.00,9.11 23.04,9.32 23.08,9.52 23.07,9.73 23.05,9.93 23.00,10.13 22.94,10.33 22.83,10.51 22.73,10.68 22.58,10.83 22.44,10.98 22.26,11.09 22.08,11.20 21.89,11.26 21.69,11.32 21.49,11.34 21.28,11.35 21.08,11.32 20.87,11.28 20.68,11.20 20.49,11.11 20.33,10.99 20.17,10.86 19.52,9.72 18.87,8.58 17.30,7.05 15.72,5.53 13.55,4.26 11.38,3.00 9.60,2.39 7.83,1.79 6.42,1.71 5.01,1.63 2.50,1.69 0,1.75 -0.20,1.72 -0.41,1.70 -0.61,1.62 -0.81,1.55 -0.98,1.43 -1.16,1.31 -1.30,1.15 -1.44,0.99 -1.54,0.80 -1.63,0.62 -1.68,0.41 -1.74,0.21 -1.74,-0.00 -1.74,-0.21 -1.68,-0.41 -1.63,-0.62 -1.54,-0.80 -1.44,-0.99 -1.30,-1.15 -1.16,-1.31 -0.98,-1.43 -0.81,-1.55 -0.61,-1.62 -0.41,-1.70 -0.20,-1.72 0.00,-1.75 0.00,-1.75 L 0,-1.75 Z"></path></g><g stroke-opacity="0.3" fill-opacity="0.3" transform="translate(236.84421806586943 10) rotate(0 -4.36238880895894 32.40631686655274)" stroke="none"><path fill="#495057" d="M 1.58,0.45 Q 1.58,0.45 0.82,2.94 0.06,5.44 -1.35,10.09 -2.76,14.73 -4.07,21.29 -5.38,27.86 -5.94,34.89 -6.50,41.93 -6.75,47.44 -6.99,52.95 -7.10,56.36 -7.21,59.78 -7.29,62.31 -7.37,64.85 -7.41,65.06 -7.45,65.28 -7.56,65.47 -7.67,65.65 -7.83,65.80 -8.00,65.95 -8.20,66.03 -8.40,66.12 -8.61,66.13 -8.83,66.15 -9.04,66.10 -9.26,66.05 -9.44,65.93 -9.62,65.81 -9.76,65.64 -9.90,65.47 -9.97,65.26 -10.05,65.06 -10.05,64.84 -10.06,64.62 -9.99,64.41 -9.93,64.21 -9.80,64.03 -9.67,63.85 -9.49,63.72 -9.32,63.60 -9.11,63.53 -8.90,63.47 -8.68,63.48 -8.46,63.48 -8.26,63.56 -8.05,63.63 -7.88,63.77 -7.71,63.91 -7.60,64.09 -7.48,64.28 -7.43,64.49 -7.38,64.70 -7.39,64.92 -7.41,65.14 -7.50,65.34 -7.58,65.54 -7.73,65.70 -7.88,65.86 -8.07,65.97 -8.26,66.07 -8.47,66.12 -8.69,66.16 -8.90,66.13 -9.12,66.10 -9.31,66.00 -9.51,65.90 -9.66,65.75 -9.82,65.59 -9.91,65.40 -10.01,65.20 -10.04,64.98 -10.07,64.77 -10.07,64.77 -10.07,64.77 -10.00,62.24 -9.93,59.70 -9.84,56.27 -9.75,52.83 -9.53,47.27 -9.30,41.71 -8.76,34.51 -8.21,27.30 -6.91,20.60 -5.62,13.89 -4.27,9.24 -2.92,4.58 -2.25,2.06 -1.58,-0.45 -1.50,-0.63 -1.42,-0.81 -1.31,-0.97 -1.19,-1.13 -1.03,-1.26 -0.88,-1.38 -0.70,-1.47 -0.52,-1.55 -0.33,-1.60 -0.13,-1.64 0.05,-1.63 0.25,-1.62 0.44,-1.57 0.63,-1.51 0.81,-1.41 0.98,-1.31 1.12,-1.18 1.27,-1.04 1.37,-0.87 1.48,-0.71 1.54,-0.52 1.61,-0.33 1.62,-0.13 1.64,0.06 1.61,0.25 1.58,0.45 1.58,0.45 L 1.58,0.45 Z"></path></g></svg>