<svg version="1.1" xmlns="http://www.w3.org/2000/svg" viewBox="0 0 929.8184928630135 589.0068873507003" width="929.8184928630135" height="589.0068873507003">
  <!-- svg-source:excalidraw -->
  
  <defs>
    <style>
      @font-face {
        font-family: "Virgil";
        src: url("https://excalidraw.com/Virgil.woff2");
      }
      @font-face {
        font-family: "Cascadia";
        src: url("https://excalidraw.com/Cascadia.woff2");
      }
    </style>
  </defs>
  <rect x="0" y="0" width="929.8184928630135" height="589.0068873507003" fill="#ffffff"></rect><g transform="translate(556.6316567249369 547.1173114946737) rotate(0 176.27848875970062 -168.30609479569387)" stroke="none"><path fill="#000000" d="M -1.56,0 Q -1.56,0 -1.52,-3.05 -1.49,-6.11 -1.46,-11.48 -1.44,-16.85 -1.42,-24.74 -1.40,-32.63 -1.39,-45.15 -1.38,-57.67 -1.88,-74.17 -2.38,-90.68 -3.60,-108.88 -4.83,-127.09 -5.86,-146.56 -6.89,-166.03 -7.33,-179.41 -7.76,-192.79 -7.95,-204.09 -8.13,-215.38 -8.72,-225.24 -9.30,-235.10 -10.06,-241.81 -10.81,-248.53 -11.14,-253.47 -11.46,-258.40 -11.60,-261.52 -11.74,-264.64 -11.80,-266.99 -11.85,-269.34 -11.99,-270.85 -12.12,-272.36 -11.57,-274.70 -11.02,-277.04 -9.75,-280.58 -8.47,-284.12 -5.88,-289.73 -3.28,-295.33 -0.64,-300.75 1.98,-306.17 5.14,-312.55 8.30,-318.92 11.68,-325.71 15.06,-332.49 18.03,-338.43 20.99,-344.37 23.25,-349.90 25.51,-355.44 27.00,-358.84 28.49,-362.24 29.09,-364.16 29.69,-366.08 31.16,-367.35 32.63,-368.62 34.21,-367.90 35.79,-367.19 36.77,-365.10 37.74,-363.01 38.55,-360.09 39.36,-357.17 41.70,-350.40 44.03,-343.63 47.06,-333.05 50.09,-322.47 53.40,-311.38 56.70,-300.28 59.13,-291.47 61.55,-282.66 63.07,-277.93 64.59,-273.21 65.65,-271.35 66.71,-269.48 68.03,-268.91 69.34,-268.34 71.27,-268.03 73.21,-267.72 77.60,-267.55 81.99,-267.39 88.02,-266.80 94.04,-266.20 103.16,-265.95 112.27,-265.70 123.79,-265.59 135.32,-265.48 148.36,-265.43 161.41,-265.38 172.56,-265.35 183.71,-265.33 199.65,-265.32 215.60,-265.31 227.52,-264.28 239.45,-263.26 248.58,-262.31 257.71,-261.36 264.61,-260.96 271.52,-260.56 276.05,-259.88 280.59,-259.19 283.47,-258.91 286.36,-258.62 288.55,-258.49 290.74,-258.36 291.93,-260.69 293.11,-263.01 294.53,-266.97 295.95,-270.93 298.12,-275.74 300.28,-280.54 302.72,-286.61 305.15,-292.68 309.28,-300.42 313.41,-308.17 318.19,-319.03 322.97,-329.89 326.54,-337.59 330.12,-345.29 331.60,-350.50 333.09,-355.71 334.24,-357.96 335.40,-360.21 335.46,-360.36 335.52,-360.51 335.62,-360.64 335.71,-360.76 335.84,-360.87 335.96,-360.97 336.10,-361.04 336.25,-361.11 336.41,-361.14 336.56,-361.17 336.72,-361.17 336.88,-361.16 337.04,-361.12 337.19,-361.07 337.33,-360.99 337.47,-360.91 337.58,-360.80 337.70,-360.69 337.79,-360.56 337.87,-360.42 337.92,-360.27 337.97,-360.12 337.99,-359.96 338.00,-359.80 337.98,-359.64 337.95,-359.48 340.49,-353.96 343.02,-348.43 344.63,-341.55 346.24,-334.67 347.44,-326.09 348.63,-317.50 350.14,-309.85 351.65,-302.19 353.31,-295.38 354.96,-288.57 356.66,-283.69 358.36,-278.81 359.60,-275.18 360.84,-271.55 361.85,-270.19 362.85,-268.82 363.48,-267.55 364.10,-266.28 364.43,-265.15 364.75,-264.03 364.90,-262.46 365.05,-260.90 365.00,-254.63 364.94,-248.37 363.36,-233.41 361.77,-218.45 359.55,-201.93 357.33,-185.41 355.35,-163.15 353.38,-140.89 352.02,-126.83 350.66,-112.77 350.07,-100.21 349.49,-87.65 349.23,-80.77 348.98,-73.90 348.87,-69.45 348.75,-65.01 348.70,-62.61 348.65,-60.21 348.63,-57.67 348.61,-55.13 348.59,-52.52 348.58,-49.91 348.58,-46.77 348.57,-43.62 348.57,-37.70 348.56,-31.78 348.56,-27.74 348.56,-23.69 349.06,-18.47 349.57,-13.25 350.28,-10.06 350.99,-6.88 351.31,-3.89 351.63,-0.90 351.84,0.85 352.05,2.62 352.16,4.41 352.27,6.20 352.76,8.87 353.24,11.54 353.45,13.81 353.66,16.07 354.24,17.89 354.82,19.71 355.14,21.67 355.46,23.62 355.67,24.95 355.89,26.28 356.04,28.76 356.18,31.24 356.14,31.54 356.09,31.84 355.96,32.11 355.82,32.38 355.61,32.59 355.39,32.81 355.12,32.94 354.85,33.07 354.55,33.11 354.25,33.15 353.95,33.09 353.66,33.03 353.39,32.88 353.13,32.73 352.93,32.50 352.73,32.28 352.61,32.00 352.50,31.72 352.47,31.42 352.45,31.12 352.52,30.82 352.60,30.53 352.76,30.28 352.93,30.02 353.17,29.84 353.40,29.65 353.69,29.55 353.97,29.44 354.27,29.44 354.58,29.43 354.86,29.52 355.15,29.61 355.40,29.79 355.64,29.97 355.82,30.22 355.99,30.46 356.08,30.75 356.16,31.04 356.15,31.34 356.14,31.65 356.04,31.93 355.93,32.21 355.74,32.45 355.55,32.68 355.29,32.84 355.04,33.00 354.74,33.07 354.45,33.14 354.15,33.12 353.85,33.09 353.57,32.97 353.29,32.85 353.07,32.65 352.85,32.44 352.70,32.18 352.55,31.91 352.50,31.62 352.44,31.32 352.44,31.32 352.44,31.32 352.44,28.95 352.43,26.57 352.43,25.31 352.43,24.05 352.23,22.30 352.04,20.56 351.41,18.47 350.77,16.38 350.53,14.24 350.29,12.10 349.70,9.20 349.12,6.30 349.12,4.57 349.12,2.83 349.07,1.10 349.02,-0.62 348.72,-3.47 348.42,-6.31 347.68,-9.65 346.94,-12.99 346.43,-18.34 345.92,-23.69 345.92,-27.74 345.92,-31.78 345.91,-37.70 345.91,-43.62 345.91,-46.77 345.92,-49.92 345.92,-52.54 345.92,-55.15 345.94,-57.71 345.95,-60.26 345.99,-62.67 346.02,-65.07 346.11,-69.53 346.21,-74.00 346.43,-80.88 346.66,-87.77 347.21,-100.41 347.76,-113.04 349.07,-127.10 350.38,-141.15 352.29,-163.49 354.20,-185.82 356.32,-202.31 358.44,-218.79 359.88,-233.57 361.32,-248.35 361.20,-254.52 361.08,-260.68 361.02,-262.89 360.96,-265.10 360.70,-266.16 360.44,-267.22 359.37,-268.94 358.31,-270.66 357.06,-274.29 355.81,-277.92 354.05,-282.92 352.30,-287.92 350.61,-294.78 348.93,-301.65 347.38,-309.38 345.83,-317.11 344.62,-325.55 343.41,-334.00 341.75,-340.82 340.10,-347.64 338.88,-352.63 337.67,-357.61 336.53,-358.91 335.40,-360.21 335.46,-360.36 335.52,-360.51 335.62,-360.64 335.71,-360.76 335.84,-360.87 335.96,-360.97 336.10,-361.04 336.25,-361.11 336.41,-361.14 336.56,-361.17 336.72,-361.17 336.88,-361.16 337.04,-361.12 337.19,-361.07 337.33,-360.99 337.47,-360.91 337.58,-360.80 337.70,-360.69 337.79,-360.56 337.87,-360.42 337.92,-360.27 337.97,-360.12 337.99,-359.96 338.00,-359.80 337.98,-359.64 337.95,-359.48 336.80,-357.23 335.65,-354.97 334.10,-349.57 332.55,-344.16 329.00,-336.48 325.44,-328.80 320.63,-317.84 315.82,-306.89 311.77,-299.27 307.72,-291.65 305.29,-285.52 302.86,-279.39 300.78,-274.68 298.69,-269.97 297.29,-265.92 295.89,-261.87 294.72,-259.32 293.55,-256.77 292.15,-256.27 290.75,-255.77 288.43,-255.88 286.10,-256.00 283.14,-256.29 280.19,-256.59 275.78,-257.26 271.36,-257.93 264.40,-258.33 257.44,-258.74 248.33,-259.68 239.22,-260.62 227.41,-261.64 215.60,-262.65 199.65,-262.66 183.71,-262.66 172.55,-262.68 161.40,-262.69 148.35,-262.73 135.29,-262.77 123.75,-262.87 112.20,-262.96 102.99,-263.20 93.77,-263.44 87.83,-264.00 81.89,-264.55 77.31,-264.70 72.73,-264.84 70.32,-265.26 67.91,-265.68 66.19,-266.83 64.48,-267.97 63.21,-270.15 61.94,-272.33 60.37,-277.12 58.80,-281.90 56.35,-290.67 53.89,-299.44 50.53,-310.53 47.16,-321.62 44.08,-332.09 41.00,-342.57 38.54,-349.37 36.08,-356.18 35.21,-358.84 34.34,-361.51 33.28,-363.33 32.22,-365.15 31.57,-363.17 30.92,-361.18 29.45,-357.81 27.98,-354.43 25.68,-348.80 23.39,-343.18 20.43,-337.23 17.47,-331.29 14.10,-324.51 10.73,-317.72 7.59,-311.35 4.45,-304.97 1.85,-299.57 -0.74,-294.16 -3.26,-288.66 -5.78,-283.17 -6.97,-279.77 -8.16,-276.38 -8.61,-274.39 -9.06,-272.39 -9.14,-270.90 -9.22,-269.41 -9.16,-267.08 -9.11,-264.75 -8.97,-261.67 -8.83,-258.58 -8.51,-253.70 -8.19,-248.83 -7.43,-242.04 -6.66,-235.26 -6.07,-225.34 -5.48,-215.42 -5.29,-204.15 -5.10,-192.88 -4.66,-179.53 -4.21,-166.18 -3.18,-146.72 -2.14,-127.27 -0.89,-109.02 0.34,-90.76 0.86,-74.22 1.38,-57.67 1.39,-45.15 1.40,-32.63 1.42,-24.74 1.44,-16.85 1.46,-11.48 1.49,-6.11 1.52,-3.05 1.56,0 1.53,0.18 1.51,0.37 1.45,0.54 1.38,0.72 1.27,0.88 1.16,1.03 1.02,1.16 0.88,1.28 0.72,1.37 0.55,1.46 0.37,1.50 0.18,1.55 -0.00,1.55 -0.18,1.55 -0.37,1.50 -0.55,1.46 -0.72,1.37 -0.88,1.28 -1.02,1.16 -1.16,1.03 -1.27,0.88 -1.38,0.72 -1.45,0.54 -1.51,0.37 -1.53,0.18 -1.56,-0.00 -1.56,-0.00 L -1.56,0 Z"></path></g><g transform="translate(602.6943774058636 369.9530011834172) rotate(0 36.31868361380771 0.8858215515563188)" stroke="none"><path fill="#000000" d="M 0,-1.59 Q 0,-1.59 2.54,-1.55 5.09,-1.51 8.82,-0.97 12.55,-0.42 19.61,-0.19 26.68,0.03 32.76,0.13 38.84,0.24 43.47,0.29 48.09,0.34 51.58,0.36 55.07,0.39 58.08,0.40 61.09,0.41 63.39,0.42 65.69,0.43 68.54,0.31 71.38,0.19 71.63,0.23 71.88,0.27 72.11,0.39 72.34,0.51 72.51,0.69 72.69,0.88 72.79,1.11 72.90,1.34 72.93,1.60 72.96,1.85 72.90,2.10 72.85,2.35 72.71,2.57 72.58,2.79 72.39,2.96 72.19,3.12 71.95,3.22 71.72,3.31 71.46,3.32 71.21,3.34 70.96,3.27 70.71,3.20 70.50,3.06 70.29,2.91 70.14,2.71 69.98,2.51 69.90,2.26 69.82,2.02 69.82,1.76 69.82,1.51 69.90,1.27 69.98,1.02 70.14,0.82 70.29,0.62 70.50,0.47 70.72,0.33 70.96,0.26 71.21,0.19 71.46,0.21 71.72,0.22 71.96,0.32 72.19,0.41 72.39,0.58 72.58,0.74 72.72,0.96 72.85,1.18 72.90,1.43 72.96,1.68 72.93,1.94 72.90,2.19 72.79,2.42 72.69,2.65 72.51,2.84 72.33,3.03 72.11,3.14 71.88,3.26 71.63,3.31 71.38,3.35 71.38,3.35 71.38,3.35 68.53,3.22 65.69,3.10 63.39,3.10 61.09,3.10 58.07,3.10 55.06,3.10 51.56,3.09 48.06,3.08 43.43,3.05 38.80,3.02 32.70,2.94 26.59,2.87 19.37,2.66 12.14,2.46 8.62,1.99 5.09,1.51 2.54,1.55 0,1.59 -0.19,1.57 -0.38,1.54 -0.56,1.47 -0.74,1.41 -0.89,1.30 -1.05,1.19 -1.18,1.04 -1.31,0.90 -1.40,0.73 -1.49,0.56 -1.53,0.37 -1.58,0.19 -1.58,-0.00 -1.58,-0.19 -1.53,-0.37 -1.49,-0.56 -1.40,-0.73 -1.31,-0.90 -1.18,-1.04 -1.05,-1.19 -0.89,-1.30 -0.74,-1.41 -0.56,-1.47 -0.38,-1.54 -0.19,-1.57 0.00,-1.59 0.00,-1.59 L 0,-1.59 Z"></path></g><g transform="translate(619.5699115682901 372.76223321834595) rotate(0 18.75100380722438 11.66107201941827)" stroke="none"><path fill="#000000" d="M 2.46,0.06 Q 2.46,0.06 2.31,1.99 2.16,3.92 2.20,5.38 2.24,6.84 2.78,8.70 3.32,10.56 4.41,12.11 5.51,13.66 6.30,14.47 7.10,15.29 8.79,16.50 10.47,17.71 12.11,18.50 13.75,19.30 15.21,19.75 16.67,20.20 18.48,20.23 20.29,20.27 21.46,19.93 22.62,19.58 23.86,18.86 25.10,18.14 26.43,17.01 27.76,15.88 28.92,14.70 30.08,13.51 30.81,12.20 31.54,10.88 32.08,9.59 32.62,8.29 33.03,7.26 33.44,6.22 33.69,4.97 33.94,3.71 34.15,2.47 34.37,1.22 34.51,0.70 34.65,0.18 34.95,-0.25 35.25,-0.70 35.67,-1.03 36.10,-1.36 36.61,-1.53 37.12,-1.71 37.66,-1.71 38.20,-1.71 38.71,-1.54 39.22,-1.37 39.65,-1.05 40.08,-0.73 40.38,-0.28 40.69,0.15 40.84,0.67 40.98,1.19 40.96,1.73 40.93,2.26 40.73,2.77 40.54,3.27 40.19,3.68 39.84,4.09 39.38,4.37 38.92,4.65 38.40,4.77 37.87,4.89 37.34,4.83 36.80,4.78 36.31,4.55 35.82,4.33 35.43,3.96 35.04,3.59 34.78,3.12 34.53,2.64 34.44,2.11 34.35,1.58 34.43,1.05 34.52,0.52 34.77,0.04 35.02,-0.42 35.41,-0.80 35.79,-1.17 36.28,-1.40 36.77,-1.63 37.30,-1.69 37.84,-1.75 38.37,-1.64 38.89,-1.52 39.35,-1.25 39.82,-0.97 40.17,-0.56 40.52,-0.15 40.72,0.34 40.92,0.83 40.95,1.37 40.99,1.91 40.99,1.91 40.99,1.91 40.68,3.62 40.38,5.33 40.12,6.38 39.86,7.43 39.40,8.60 38.95,9.78 38.35,11.05 37.74,12.32 36.90,13.93 36.06,15.54 35.36,16.65 34.66,17.75 33.28,19.12 31.90,20.48 31.05,21.25 30.20,22.02 28.39,23.24 26.58,24.47 24.55,25.23 22.53,25.99 21.35,26.15 20.17,26.31 18.49,26.19 16.80,26.07 15.01,25.58 13.21,25.09 11.38,24.23 9.56,23.37 8.54,22.76 7.52,22.15 6.43,21.39 5.34,20.64 4.33,19.75 3.32,18.86 2.34,17.80 1.36,16.73 0.57,15.61 -0.20,14.48 -0.77,13.30 -1.34,12.11 -1.69,10.86 -2.04,9.61 -2.18,8.28 -2.33,6.94 -2.35,5.37 -2.37,3.79 -2.42,1.86 -2.46,-0.06 -2.42,-0.36 -2.37,-0.65 -2.26,-0.93 -2.15,-1.20 -1.97,-1.44 -1.79,-1.68 -1.57,-1.87 -1.34,-2.06 -1.07,-2.19 -0.81,-2.32 -0.51,-2.39 -0.22,-2.45 0.06,-2.44 0.36,-2.43 0.65,-2.36 0.93,-2.28 1.19,-2.13 1.45,-1.98 1.67,-1.78 1.89,-1.58 2.05,-1.33 2.21,-1.08 2.31,-0.80 2.41,-0.52 2.43,-0.22 2.46,0.06 2.46,0.06 L 2.46,0.06 Z"></path></g><g transform="translate(791.8057128715973 375.6119505160209) rotate(0 25.2203994641568 1.8231614070475644)" stroke="none"><path fill="#000000" d="M 0.11,-1.67 Q 0.11,-1.67 1.42,-1.67 2.74,-1.67 4.69,-1.52 6.64,-1.36 9.23,-1.07 11.83,-0.77 14.65,-0.54 17.47,-0.31 20.83,-0.20 24.19,-0.09 27.30,0.05 30.41,0.19 33.24,0.44 36.07,0.69 38.93,0.97 41.79,1.26 43.72,1.42 45.64,1.59 48.03,1.84 50.42,2.10 50.65,2.17 50.89,2.25 51.09,2.39 51.29,2.54 51.43,2.74 51.57,2.94 51.64,3.17 51.72,3.41 51.71,3.66 51.70,3.90 51.61,4.14 51.53,4.37 51.37,4.56 51.21,4.75 51.01,4.88 50.80,5.01 50.56,5.07 50.32,5.13 50.07,5.11 49.83,5.09 49.60,4.99 49.37,4.89 49.19,4.72 49.01,4.56 48.89,4.34 48.77,4.13 48.72,3.88 48.68,3.64 48.71,3.40 48.75,3.15 48.86,2.93 48.97,2.71 49.14,2.54 49.32,2.36 49.54,2.26 49.76,2.15 50.01,2.12 50.25,2.08 50.49,2.13 50.74,2.18 50.95,2.30 51.16,2.42 51.33,2.61 51.49,2.79 51.59,3.02 51.68,3.25 51.70,3.49 51.72,3.74 51.66,3.98 51.60,4.22 51.47,4.43 51.33,4.63 51.14,4.79 50.95,4.94 50.71,5.02 50.48,5.11 50.23,5.11 49.99,5.12 49.99,5.12 49.99,5.12 47.66,4.80 45.33,4.49 43.43,4.25 41.53,4.01 38.69,3.76 35.85,3.50 33.07,3.29 30.30,3.09 27.21,2.99 24.12,2.90 20.69,2.85 17.27,2.81 14.40,2.67 11.53,2.53 8.97,2.37 6.41,2.21 4.45,2.11 2.49,2.02 1.19,1.85 -0.11,1.67 -0.31,1.63 -0.50,1.60 -0.69,1.51 -0.87,1.43 -1.03,1.30 -1.19,1.18 -1.31,1.02 -1.44,0.85 -1.52,0.67 -1.60,0.48 -1.64,0.29 -1.67,0.09 -1.66,-0.11 -1.65,-0.31 -1.58,-0.50 -1.52,-0.69 -1.42,-0.87 -1.31,-1.04 -1.17,-1.18 -1.02,-1.32 -0.85,-1.43 -0.67,-1.53 -0.48,-1.59 -0.29,-1.65 -0.09,-1.66 0.11,-1.67 0.11,-1.67 L 0.11,-1.67 Z"></path></g><g transform="translate(809.1257462385483 378.0428323920837) rotate(0 9.419667269745332 7.900366097205733)" stroke="none"><path fill="#000000" d="M 2.53,0.54 Q 2.53,0.54 2.28,1.73 2.03,2.93 2.24,4.06 2.45,5.19 3.29,6.81 4.12,8.42 5.03,9.79 5.95,11.16 6.82,11.84 7.69,12.51 8.98,12.62 10.27,12.74 11.63,12.51 12.99,12.29 13.92,11.36 14.85,10.44 15.52,9.19 16.19,7.94 16.34,5.57 16.49,3.20 16.68,2.71 16.88,2.22 17.22,1.81 17.56,1.41 18.01,1.13 18.47,0.86 18.98,0.74 19.50,0.63 20.03,0.68 20.56,0.74 21.04,0.96 21.52,1.18 21.91,1.54 22.29,1.90 22.54,2.37 22.79,2.84 22.88,3.36 22.97,3.89 22.88,4.41 22.80,4.93 22.55,5.40 22.31,5.87 21.92,6.24 21.54,6.60 21.06,6.83 20.58,7.05 20.05,7.11 19.52,7.17 19.01,7.06 18.49,6.94 18.03,6.67 17.58,6.40 17.23,6.00 16.89,5.60 16.69,5.10 16.49,4.61 16.46,4.08 16.43,3.55 16.57,3.04 16.71,2.53 17.01,2.09 17.30,1.65 17.73,1.33 18.15,1.01 18.65,0.84 19.15,0.66 19.68,0.66 20.21,0.66 20.71,0.83 21.22,1.00 21.64,1.32 22.06,1.64 22.36,2.07 22.66,2.51 22.80,3.02 22.95,3.53 22.92,4.06 22.89,4.59 22.89,4.59 22.89,4.59 22.68,6.76 22.46,8.93 21.92,10.39 21.38,11.84 20.52,13.07 19.67,14.30 18.96,15.09 18.24,15.89 17.34,16.53 16.44,17.17 15.43,17.61 14.42,18.05 13.33,18.27 12.23,18.48 10.97,18.52 9.71,18.55 8.39,18.39 7.08,18.23 5.91,17.81 4.75,17.39 3.10,15.88 1.44,14.37 0.52,12.74 -0.40,11.12 -1.08,9.86 -1.77,8.61 -2.16,7.28 -2.55,5.96 -2.81,3.96 -3.08,1.95 -2.80,0.70 -2.53,-0.54 -2.42,-0.83 -2.32,-1.13 -2.15,-1.39 -1.98,-1.65 -1.76,-1.87 -1.53,-2.08 -1.26,-2.23 -0.99,-2.39 -0.69,-2.47 -0.39,-2.55 -0.07,-2.56 0.23,-2.57 0.53,-2.51 0.84,-2.44 1.12,-2.31 1.40,-2.17 1.64,-1.97 1.88,-1.77 2.06,-1.52 2.25,-1.27 2.37,-0.98 2.49,-0.69 2.53,-0.38 2.58,-0.07 2.55,0.23 2.53,0.54 2.53,0.54 L 2.53,0.54 Z"></path></g><g transform="translate(715.536794010111 416.0253617055728) rotate(0 0.15193011725386896 5.317554103888369)" stroke="none"><path fill="#000000" d="M 2.45,-0.13 Q 2.45,-0.13 2.51,1.43 2.58,3.01 2.65,4.23 2.72,5.45 2.77,7.90 2.82,10.35 2.76,10.75 2.70,11.16 2.51,11.52 2.32,11.88 2.02,12.16 1.73,12.45 1.36,12.62 0.99,12.79 0.58,12.84 0.18,12.89 -0.21,12.80 -0.61,12.72 -0.96,12.51 -1.31,12.30 -1.58,11.99 -1.85,11.68 -2.00,11.30 -2.16,10.92 -2.18,10.52 -2.20,10.11 -2.10,9.71 -1.99,9.32 -1.76,8.98 -1.54,8.64 -1.21,8.39 -0.89,8.14 -0.50,8.01 -0.12,7.88 0.28,7.87 0.69,7.87 1.08,8.00 1.47,8.13 1.79,8.37 2.12,8.62 2.35,8.95 2.58,9.29 2.69,9.68 2.81,10.08 2.79,10.48 2.77,10.89 2.62,11.27 2.47,11.65 2.21,11.97 1.94,12.28 1.60,12.49 1.25,12.70 0.85,12.79 0.45,12.89 0.04,12.84 -0.35,12.80 -0.72,12.63 -1.10,12.46 -1.39,12.19 -1.69,11.91 -1.89,11.55 -2.08,11.19 -2.15,10.78 -2.22,10.38 -2.22,10.38 -2.22,10.38 -2.22,7.99 -2.23,5.60 -2.23,4.44 -2.23,3.27 -2.34,1.70 -2.45,0.13 -2.43,-0.15 -2.41,-0.45 -2.32,-0.73 -2.23,-1.01 -2.08,-1.27 -1.92,-1.52 -1.71,-1.73 -1.50,-1.94 -1.25,-2.09 -0.99,-2.24 -0.71,-2.33 -0.43,-2.41 -0.13,-2.43 0.16,-2.45 0.45,-2.39 0.74,-2.34 1.01,-2.21 1.28,-2.09 1.51,-1.91 1.74,-1.72 1.92,-1.49 2.10,-1.26 2.22,-0.98 2.34,-0.71 2.40,-0.42 2.45,-0.13 2.45,-0.13 L 2.45,-0.13 Z"></path></g><g transform="translate(731.0336659700142 415.72150147106504) rotate(0 -0.3038602345079653 4.55790351761857)" stroke="none"><path fill="#000000" d="M 2.31,0.22 Q 2.31,0.22 2.08,2.04 1.84,3.87 1.77,6.28 1.70,8.69 1.63,9.05 1.55,9.41 1.37,9.74 1.18,10.06 0.90,10.30 0.62,10.55 0.28,10.69 -0.05,10.83 -0.43,10.86 -0.80,10.88 -1.16,10.79 -1.51,10.70 -1.82,10.49 -2.14,10.29 -2.36,10.00 -2.59,9.70 -2.72,9.35 -2.84,9.00 -2.85,8.63 -2.85,8.26 -2.74,7.91 -2.63,7.55 -2.41,7.26 -2.19,6.96 -1.88,6.74 -1.58,6.53 -1.22,6.42 -0.87,6.32 -0.50,6.33 -0.12,6.35 0.21,6.48 0.56,6.61 0.85,6.85 1.13,7.09 1.33,7.40 1.53,7.72 1.61,8.08 1.70,8.44 1.66,8.81 1.63,9.18 1.48,9.52 1.33,9.86 1.08,10.13 0.82,10.40 0.50,10.58 0.17,10.76 -0.18,10.83 -0.55,10.89 -0.92,10.84 -1.28,10.78 -1.61,10.62 -1.94,10.45 -2.20,10.18 -2.46,9.92 -2.62,9.58 -2.79,9.25 -2.83,8.88 -2.88,8.51 -2.88,8.51 -2.88,8.51 -2.71,5.98 -2.54,3.46 -2.42,1.61 -2.31,-0.22 -2.25,-0.49 -2.19,-0.76 -2.07,-1.01 -1.94,-1.27 -1.76,-1.48 -1.58,-1.69 -1.35,-1.86 -1.13,-2.02 -0.87,-2.13 -0.61,-2.24 -0.33,-2.28 -0.06,-2.32 0.21,-2.29 0.49,-2.27 0.76,-2.17 1.02,-2.08 1.26,-1.93 1.49,-1.77 1.68,-1.57 1.87,-1.36 2.01,-1.12 2.15,-0.88 2.22,-0.60 2.29,-0.33 2.30,-0.05 2.31,0.22 2.31,0.22 L 2.31,0.22 Z"></path></g><g transform="translate(686.4076103471712 488.5428787216765) rotate(0 27.90955436490708 1.2313038690401754)" stroke="none"><path fill="#000000" d="M 0.62,-1.86 Q 0.62,-1.86 2.04,-1.43 3.45,-1.00 12.28,-0.51 21.11,-0.03 27.79,0.22 34.47,0.48 39.43,0.61 44.39,0.74 47.44,0.81 50.49,0.89 52.68,0.81 54.87,0.73 55.14,0.77 55.41,0.82 55.66,0.96 55.90,1.09 56.09,1.29 56.28,1.50 56.40,1.75 56.51,2.00 56.54,2.28 56.57,2.56 56.51,2.83 56.44,3.10 56.30,3.34 56.15,3.58 55.94,3.75 55.72,3.93 55.46,4.03 55.20,4.13 54.93,4.15 54.65,4.16 54.38,4.08 54.11,4.00 53.88,3.85 53.65,3.69 53.49,3.46 53.32,3.24 53.23,2.98 53.15,2.71 53.15,2.43 53.15,2.15 53.24,1.89 53.34,1.63 53.51,1.41 53.68,1.19 53.91,1.03 54.14,0.88 54.41,0.81 54.68,0.74 54.96,0.75 55.24,0.77 55.49,0.88 55.75,0.98 55.96,1.16 56.17,1.35 56.31,1.59 56.46,1.83 56.51,2.10 56.57,2.37 56.54,2.65 56.50,2.93 56.38,3.18 56.27,3.43 56.07,3.63 55.88,3.83 55.63,3.96 55.38,4.09 55.11,4.13 54.83,4.17 54.83,4.17 54.83,4.17 52.65,4.05 50.46,3.93 47.40,3.94 44.34,3.94 39.35,3.92 34.37,3.89 27.65,3.78 20.93,3.66 11.57,3.27 2.20,2.89 0.79,2.37 -0.62,1.86 -0.83,1.76 -1.05,1.66 -1.23,1.51 -1.41,1.36 -1.56,1.17 -1.70,0.98 -1.79,0.76 -1.88,0.54 -1.92,0.31 -1.96,0.08 -1.94,-0.15 -1.92,-0.39 -1.85,-0.61 -1.77,-0.84 -1.65,-1.04 -1.52,-1.24 -1.35,-1.40 -1.18,-1.57 -0.97,-1.69 -0.77,-1.80 -0.54,-1.87 -0.31,-1.94 -0.07,-1.95 0.15,-1.96 0.38,-1.91 0.62,-1.86 0.62,-1.86 L 0.62,-1.86 Z"></path></g><g transform="translate(159.56761630716642 165.79960031996416) rotate(0 15.579960031996507 105.32052981629636)" stroke="none"><path fill="#000000" d="M -0.86,1.29 Q -0.86,1.29 -2.97,-0.15 -5.08,-1.60 -10.03,-2.49 -14.98,-3.38 -23.20,-3.79 -31.41,-4.21 -42.77,-4.04 -54.13,-3.87 -64.91,-0.96 -75.69,1.94 -85.56,7.42 -95.43,12.90 -104.19,22.29 -112.95,31.67 -119.85,48.07 -126.74,64.46 -128.61,86.35 -130.47,108.24 -124.17,127.02 -117.88,145.80 -100.31,160.45 -82.73,175.11 -61.37,184.58 -40.00,194.05 -18.05,199.87 3.89,205.69 27.87,208.88 51.85,212.07 71.28,212.00 90.71,211.93 105.57,205.15 120.43,198.37 129.56,190.19 138.69,182.02 145.77,172.50 152.86,162.99 157.26,152.95 161.67,142.91 162.81,125.54 163.95,108.17 161.25,94.80 158.55,81.43 148.54,68.02 138.53,54.61 127.50,44.24 116.47,33.86 106.09,26.61 95.71,19.36 87.06,15.23 78.41,11.10 71.50,8.26 64.60,5.43 57.40,3.16 50.20,0.89 43.57,-0.78 36.95,-2.46 30.58,-3.52 24.22,-4.59 17.26,-5.04 10.30,-5.49 3.75,-5.68 -2.78,-5.87 -7.10,-4.87 -11.42,-3.86 -11.67,-3.85 -11.92,-3.84 -12.16,-3.91 -12.40,-3.98 -12.61,-4.13 -12.81,-4.27 -12.96,-4.47 -13.11,-4.68 -13.19,-4.92 -13.26,-5.16 -13.26,-5.41 -13.25,-5.66 -13.17,-5.89 -13.08,-6.13 -12.93,-6.33 -12.77,-6.52 -12.56,-6.66 -12.35,-6.80 -12.11,-6.86 -11.87,-6.92 -11.62,-6.91 -11.37,-6.89 -11.13,-6.79 -10.90,-6.69 -10.71,-6.53 -10.53,-6.36 -10.40,-6.14 -10.27,-5.93 -10.23,-5.68 -10.18,-5.43 -10.21,-5.19 -10.24,-4.94 -10.35,-4.71 -10.46,-4.49 -10.63,-4.31 -10.81,-4.13 -11.03,-4.01 -11.26,-3.90 -11.51,-3.86 -11.75,-3.83 -12.00,-3.87 -12.25,-3.92 -12.47,-4.04 -12.69,-4.16 -12.86,-4.35 -13.03,-4.53 -13.13,-4.76 -13.23,-4.99 -13.25,-5.24 -13.27,-5.49 -13.21,-5.74 -13.16,-5.98 -13.02,-6.19 -12.89,-6.40 -12.70,-6.56 -12.50,-6.72 -12.27,-6.81 -12.03,-6.90 -12.03,-6.90 -12.03,-6.90 -7.37,-7.70 -2.72,-8.50 3.87,-8.30 10.47,-8.11 17.56,-7.64 24.65,-7.18 31.12,-6.09 37.59,-5.00 44.29,-3.30 50.99,-1.61 58.29,0.69 65.60,3.00 72.57,5.86 79.55,8.73 88.38,12.97 97.21,17.20 107.74,24.58 118.27,31.95 129.46,42.49 140.64,53.04 150.86,66.93 161.08,80.81 163.82,94.57 166.57,108.33 165.33,126.12 164.09,143.92 159.53,154.24 154.97,164.55 147.71,174.26 140.45,183.97 131.00,192.36 121.55,200.74 106.18,207.64 90.81,214.54 71.16,214.61 51.50,214.68 27.36,211.46 3.21,208.24 -18.92,202.35 -41.06,196.46 -62.74,186.80 -84.41,177.15 -102.34,161.98 -120.27,146.81 -126.69,127.45 -133.10,108.10 -131.16,85.78 -129.21,63.46 -122.07,46.68 -114.94,29.89 -105.85,20.23 -96.77,10.56 -86.59,4.94 -76.42,-0.68 -65.31,-3.65 -54.20,-6.63 -42.73,-6.83 -31.27,-7.03 -22.86,-6.62 -14.46,-6.22 -8.99,-5.17 -3.51,-4.12 -1.32,-2.71 0.86,-1.29 1.00,-1.17 1.15,-1.05 1.26,-0.90 1.37,-0.74 1.44,-0.57 1.51,-0.39 1.53,-0.21 1.56,-0.02 1.54,0.16 1.52,0.34 1.45,0.52 1.39,0.70 1.29,0.86 1.18,1.01 1.04,1.14 0.90,1.27 0.74,1.36 0.57,1.45 0.39,1.49 0.21,1.54 0.02,1.55 -0.16,1.55 -0.34,1.51 -0.53,1.46 -0.69,1.38 -0.86,1.29 -0.86,1.29 L -0.86,1.29 Z"></path></g><g transform="translate(99.74056978429985 230.61223405306964) rotate(0 -1.246396802559616 3.115992006399324)" stroke="none"><path fill="#000000" d="M 0,-2.32 Q 0,-2.32 1.95,-2.03 3.90,-1.74 5.07,-0.27 6.24,1.20 6.24,3.09 6.24,4.99 5.15,6.51 4.06,8.03 2.13,8.71 0.20,9.39 -1.73,9.52 -3.67,9.65 -5.44,8.47 -7.22,7.29 -7.17,5.59 -7.13,3.89 -4.87,2.37 -2.61,0.85 -1.48,0.96 -0.36,1.08 -0.05,-0.22 0.24,-1.53 0.50,-1.64 0.77,-1.74 1.05,-1.78 1.32,-1.82 1.61,-1.79 1.89,-1.76 2.15,-1.67 2.42,-1.57 2.65,-1.42 2.89,-1.26 3.08,-1.05 3.27,-0.85 3.40,-0.60 3.54,-0.35 3.61,-0.08 3.68,0.18 3.69,0.47 3.69,0.75 3.63,1.02 3.57,1.30 3.44,1.55 3.31,1.80 3.13,2.02 2.95,2.23 2.72,2.39 2.49,2.56 0.77,3.06 -0.93,3.56 -2.10,3.64 -3.28,3.72 -4.83,3.83 -6.37,3.94 -6.70,3.91 -7.02,3.88 -7.33,3.77 -7.64,3.66 -7.91,3.48 -8.19,3.30 -8.41,3.06 -8.63,2.82 -8.79,2.53 -8.94,2.24 -9.03,1.93 -9.11,1.61 -9.12,1.28 -9.13,0.96 -9.05,0.64 -8.98,0.32 -8.84,0.03 -8.69,-0.26 -8.48,-0.50 -8.27,-0.75 -8.00,-0.94 -7.73,-1.14 -7.43,-1.26 -7.13,-1.38 -6.80,-1.43 -6.48,-1.47 -4.95,-1.66 -3.43,-1.84 -2.85,-2.11 -2.27,-2.39 -1.82,-2.40 -1.37,-2.42 -0.94,-2.29 -0.50,-2.16 -0.14,-1.90 0.22,-1.64 0.49,-1.27 0.75,-0.91 0.89,-0.48 1.03,-0.05 1.02,0.40 1.01,0.85 0.85,1.27 0.70,1.70 0.42,2.05 0.14,2.40 -0.23,2.65 -0.61,2.90 -1.04,3.01 -1.48,3.12 -1.93,3.09 -2.38,3.05 -2.80,2.88 -3.21,2.70 -3.55,2.40 -3.89,2.10 -4.12,1.71 -4.34,1.32 -4.43,0.88 -4.52,0.43 -4.46,-0.00 -4.40,-0.45 -4.20,-0.86 -4.00,-1.26 -3.69,-1.58 -3.37,-1.91 -2.97,-2.11 -2.56,-2.31 -2.12,-2.38 -1.67,-2.44 -1.23,-2.36 -0.78,-2.28 -0.39,-2.06 0.00,-1.84 0.30,-1.50 0.60,-1.17 0.79,-0.76 0.97,-0.34 1.01,0.10 1.05,0.55 0.94,0.99 0.83,1.43 0.59,1.81 0.35,2.19 0.00,2.47 -0.34,2.76 -0.76,2.92 -1.18,3.08 -1.18,3.08 -1.18,3.08 -2.56,2.85 -3.93,2.63 -5.15,3.29 -6.37,3.94 -6.70,3.91 -7.02,3.88 -7.33,3.77 -7.64,3.66 -7.91,3.48 -8.19,3.30 -8.41,3.06 -8.63,2.82 -8.79,2.53 -8.94,2.24 -9.03,1.93 -9.11,1.61 -9.12,1.28 -9.13,0.96 -9.05,0.64 -8.98,0.32 -8.84,0.03 -8.69,-0.26 -8.48,-0.50 -8.27,-0.75 -8.00,-0.94 -7.73,-1.14 -7.43,-1.26 -7.13,-1.38 -6.80,-1.43 -6.48,-1.47 -4.97,-1.41 -3.45,-1.34 -1.60,-1.44 0.24,-1.53 0.50,-1.64 0.77,-1.74 1.05,-1.78 1.32,-1.82 1.60,-1.79 1.89,-1.76 2.15,-1.67 2.42,-1.57 2.65,-1.42 2.89,-1.26 3.08,-1.05 3.27,-0.85 3.40,-0.60 3.54,-0.35 3.61,-0.08 3.68,0.18 3.69,0.47 3.69,0.75 3.63,1.02 3.57,1.30 3.44,1.55 3.31,1.80 3.13,2.02 2.95,2.23 2.72,2.39 2.49,2.56 2.96,1.94 3.43,1.32 1.58,3.07 -0.26,4.81 -2.06,4.82 -3.85,4.84 -2.45,4.66 -1.06,4.48 0.23,4.24 1.53,4.00 1.68,2.87 1.83,1.74 0.91,2.03 0,2.32 -0.27,2.28 -0.55,2.25 -0.81,2.15 -1.07,2.05 -1.30,1.89 -1.53,1.73 -1.72,1.52 -1.91,1.31 -2.04,1.07 -2.17,0.82 -2.23,0.55 -2.30,0.27 -2.30,-0.00 -2.30,-0.27 -2.23,-0.55 -2.17,-0.82 -2.04,-1.07 -1.91,-1.31 -1.72,-1.52 -1.53,-1.73 -1.30,-1.89 -1.07,-2.05 -0.81,-2.15 -0.55,-2.25 -0.27,-2.28 0.00,-2.32 0.00,-2.32 L 0,-2.32 Z"></path></g><g transform="translate(245.56899568378708 243.07620207866694) rotate(0 -2.4927936051194592 -0.6231984012799785)" stroke="none"><path fill="#000000" d="M 0,2.54 Q 0,2.54 -1.43,2.54 -2.86,2.53 -3.83,2.57 -4.80,2.61 -5.11,2.57 -5.42,2.53 -5.72,2.42 -6.01,2.31 -6.27,2.13 -6.53,1.95 -6.74,1.72 -6.95,1.48 -7.10,1.20 -7.24,0.92 -7.32,0.62 -7.39,0.31 -7.39,-0.00 -7.39,-0.31 -7.32,-0.62 -7.24,-0.92 -7.10,-1.20 -6.95,-1.48 -6.74,-1.72 -6.53,-1.95 -6.27,-2.13 -6.01,-2.31 -5.72,-2.42 -5.42,-2.53 -5.11,-2.57 -4.80,-2.61 -3.48,-3.07 -2.15,-3.54 -1.95,-3.68 -1.75,-3.83 -1.42,-3.84 -1.09,-3.85 -0.78,-3.78 -0.46,-3.71 -0.16,-3.57 0.12,-3.42 0.37,-3.21 0.62,-3.00 0.82,-2.74 1.01,-2.48 1.14,-2.18 1.26,-1.87 1.31,-1.55 1.36,-1.23 1.33,-0.90 1.30,-0.58 1.19,-0.27 1.09,0.03 0.91,0.30 0.73,0.58 0.50,0.80 0.26,1.03 -0.02,1.19 -0.30,1.35 -0.62,1.44 -0.93,1.52 -1.35,-0.72 -1.76,-2.97 -1.33,-2.85 -0.90,-2.73 -0.53,-2.48 -0.16,-2.23 0.10,-1.87 0.37,-1.52 0.51,-1.09 0.66,-0.67 0.66,-0.22 0.66,0.22 0.52,0.64 0.37,1.07 0.10,1.42 -0.16,1.78 -0.53,2.03 -0.90,2.28 -1.33,2.40 -1.76,2.52 -2.20,2.50 -2.65,2.47 -3.07,2.31 -3.48,2.14 -3.82,1.85 -4.17,1.57 -4.40,1.18 -4.63,0.80 -4.72,0.36 -4.82,-0.06 -4.77,-0.51 -4.72,-0.95 -4.54,-1.36 -4.35,-1.77 -4.04,-2.09 -3.74,-2.42 -3.34,-2.63 -2.95,-2.84 -2.50,-2.91 -2.06,-2.98 -1.62,-2.91 -1.18,-2.84 -0.78,-2.63 -0.39,-2.42 -0.08,-2.10 0.22,-1.77 0.40,-1.37 0.59,-0.96 0.64,-0.51 0.69,-0.07 0.59,0.36 0.50,0.79 0.27,1.18 0.04,1.56 -0.29,1.85 -0.63,2.14 -1.05,2.31 -1.46,2.47 -1.91,2.50 -2.36,2.52 -2.36,2.52 -2.36,2.52 -2.05,-0.65 -1.75,-3.83 -1.42,-3.84 -1.09,-3.85 -0.78,-3.78 -0.46,-3.71 -0.16,-3.57 0.12,-3.42 0.37,-3.21 0.62,-3.00 0.82,-2.74 1.01,-2.48 1.14,-2.18 1.26,-1.87 1.31,-1.55 1.36,-1.23 1.33,-0.90 1.30,-0.58 1.19,-0.27 1.09,0.03 0.91,0.30 0.73,0.58 0.50,0.80 0.26,1.03 -0.02,1.19 -0.30,1.35 -0.62,1.44 -0.93,1.52 -1.60,1.57 -2.27,1.61 -3.53,2.11 -4.80,2.61 -5.11,2.57 -5.42,2.53 -5.72,2.42 -6.01,2.31 -6.27,2.13 -6.53,1.95 -6.74,1.72 -6.95,1.48 -7.10,1.20 -7.24,0.92 -7.32,0.62 -7.39,0.31 -7.39,0.00 -7.39,-0.31 -7.32,-0.62 -7.24,-0.92 -7.10,-1.20 -6.95,-1.48 -6.74,-1.72 -6.53,-1.95 -6.27,-2.13 -6.01,-2.31 -5.72,-2.42 -5.42,-2.53 -5.11,-2.57 -4.80,-2.61 -3.83,-2.57 -2.86,-2.53 -1.43,-2.54 0,-2.54 0.30,-2.51 0.61,-2.47 0.89,-2.36 1.18,-2.25 1.43,-2.08 1.69,-1.90 1.89,-1.67 2.09,-1.44 2.24,-1.17 2.38,-0.90 2.45,-0.60 2.53,-0.30 2.53,0.00 2.53,0.30 2.45,0.60 2.38,0.90 2.24,1.17 2.09,1.44 1.89,1.67 1.69,1.90 1.43,2.08 1.18,2.25 0.89,2.36 0.60,2.47 0.30,2.51 -0.00,2.54 -0.00,2.54 L 0,2.54 Z"></path></g><g transform="translate(128.4076962431734 316.6136134296903) rotate(0 53.59506251006792 -6.231984012798648)" stroke="none"><path fill="#000000" d="M -1.39,-1.39 Q -1.39,-1.39 0.49,-3.15 2.39,-4.90 8.51,-6.87 14.64,-8.84 21.55,-9.61 28.47,-10.37 33.48,-11.03 38.49,-11.68 40.93,-11.51 43.37,-11.33 44.72,-10.09 46.08,-8.84 46.67,-7.02 47.26,-5.20 47.67,-4.10 48.07,-3.01 50.71,-2.62 53.34,-2.24 55.69,-2.76 58.03,-3.28 61.64,-4.19 65.25,-5.10 69.20,-6.87 73.14,-8.63 77.82,-10.14 82.50,-11.64 85.97,-12.28 89.45,-12.92 91.65,-13.18 93.85,-13.45 95.23,-13.66 96.60,-13.88 98.96,-12.73 101.31,-11.58 102.69,-10.44 104.07,-9.31 105.81,-8.29 107.54,-7.26 107.79,-7.03 108.05,-6.80 108.21,-6.50 108.38,-6.21 108.44,-5.87 108.50,-5.54 108.45,-5.20 108.40,-4.86 108.25,-4.56 108.10,-4.25 107.85,-4.01 107.61,-3.77 107.31,-3.62 107.00,-3.48 106.66,-3.43 106.32,-3.39 105.99,-3.46 105.65,-3.52 105.36,-3.69 105.06,-3.86 104.84,-4.12 104.61,-4.37 104.48,-4.69 104.35,-5.00 104.32,-5.34 104.30,-5.68 104.38,-6.01 104.47,-6.34 104.65,-6.63 104.84,-6.91 105.11,-7.12 105.37,-7.33 105.69,-7.45 106.01,-7.56 106.35,-7.57 106.69,-7.58 107.02,-7.48 107.34,-7.37 107.62,-7.17 107.90,-6.97 108.09,-6.69 108.29,-6.42 108.39,-6.09 108.48,-5.76 108.47,-5.42 108.46,-5.08 108.34,-4.76 108.22,-4.44 108.01,-4.18 107.79,-3.92 107.50,-3.73 107.21,-3.55 106.88,-3.47 106.55,-3.39 106.21,-3.42 105.87,-3.45 105.56,-3.59 105.25,-3.73 105.25,-3.73 105.25,-3.73 103.40,-5.03 101.55,-6.33 100.39,-7.35 99.23,-8.37 97.89,-9.54 96.55,-10.70 95.38,-10.69 94.20,-10.67 92.09,-10.39 89.99,-10.11 86.70,-9.47 83.41,-8.83 78.91,-7.33 74.41,-5.83 70.26,-3.90 66.10,-1.97 62.46,-0.93 58.81,0.10 55.88,0.80 52.96,1.50 50.67,1.24 48.38,0.98 46.74,-0.03 45.10,-1.04 44.46,-2.69 43.82,-4.34 43.64,-5.60 43.46,-6.87 43.00,-7.83 42.55,-8.79 40.72,-8.75 38.89,-8.70 33.86,-7.98 28.83,-7.25 22.23,-6.45 15.63,-5.66 10.20,-3.96 4.77,-2.26 3.08,-0.43 1.39,1.39 1.21,1.54 1.02,1.69 0.80,1.79 0.58,1.88 0.35,1.93 0.11,1.97 -0.11,1.96 -0.35,1.94 -0.58,1.87 -0.81,1.80 -1.01,1.68 -1.22,1.55 -1.38,1.38 -1.55,1.22 -1.68,1.01 -1.80,0.81 -1.87,0.58 -1.94,0.35 -1.96,0.11 -1.97,-0.11 -1.93,-0.35 -1.88,-0.58 -1.79,-0.80 -1.69,-1.02 -1.54,-1.21 -1.39,-1.39 -1.39,-1.39 L -1.39,-1.39 Z"></path></g><g transform="translate(163.3068067148456 188.23474276603906) rotate(0 -9.971174420477723 -47.986276898549136)" stroke="none"><path fill="#000000" d="M -1.29,-1.10 Q -1.29,-1.10 0.89,-3.57 3.07,-6.04 4.62,-9.41 6.17,-12.78 6.83,-17.32 7.49,-21.86 7.81,-28.07 8.12,-34.28 4.37,-42.78 0.62,-51.28 -5.95,-61.73 -12.53,-72.18 -17.06,-78.74 -21.60,-85.31 -25.20,-86.45 -28.80,-87.60 -29.02,-87.73 -29.25,-87.86 -29.42,-88.05 -29.59,-88.25 -29.69,-88.49 -29.79,-88.73 -29.80,-88.98 -29.82,-89.24 -29.75,-89.49 -29.69,-89.74 -29.55,-89.96 -29.40,-90.18 -29.20,-90.34 -29.00,-90.50 -28.75,-90.58 -28.51,-90.67 -28.25,-90.67 -27.99,-90.67 -27.74,-90.60 -27.50,-90.52 -27.29,-90.36 -27.08,-90.21 -26.93,-90.00 -26.78,-89.78 -26.71,-89.53 -26.64,-89.29 -26.65,-89.03 -26.66,-88.77 -26.75,-88.53 -26.84,-88.28 -27.01,-88.08 -27.17,-87.88 -27.39,-87.75 -27.61,-87.61 -27.87,-87.55 -28.12,-87.49 -28.38,-87.52 -28.63,-87.54 -28.87,-87.65 -29.11,-87.75 -29.30,-87.93 -29.49,-88.11 -29.61,-88.33 -29.74,-88.56 -29.78,-88.82 -29.83,-89.07 -29.79,-89.33 -29.75,-89.58 -29.63,-89.81 -29.51,-90.04 -29.33,-90.22 -29.14,-90.40 -28.91,-90.52 -28.67,-90.63 -28.42,-90.66 -28.16,-90.69 -27.91,-90.64 -27.65,-90.59 -27.65,-90.59 -27.65,-90.59 -23.62,-88.81 -19.59,-87.03 -14.90,-80.33 -10.21,-73.64 -3.51,-63.02 3.17,-52.39 7.06,-43.34 10.94,-34.28 10.66,-27.86 10.39,-21.44 9.67,-16.49 8.94,-11.55 7.23,-7.77 5.52,-3.99 3.40,-1.44 1.29,1.10 1.14,1.24 0.99,1.38 0.81,1.48 0.62,1.58 0.43,1.63 0.23,1.68 0.02,1.69 -0.17,1.69 -0.37,1.64 -0.57,1.60 -0.76,1.50 -0.94,1.41 -1.10,1.28 -1.25,1.15 -1.37,0.98 -1.49,0.81 -1.57,0.62 -1.64,0.43 -1.67,0.23 -1.70,0.02 -1.68,-0.17 -1.66,-0.38 -1.59,-0.57 -1.52,-0.76 -1.40,-0.93 -1.29,-1.10 -1.29,-1.10 L -1.29,-1.10 Z"></path></g><g transform="translate(190.72753637115943 178.26356834556145) rotate(0 33.02951526783261 -42.37749128703058)" stroke="none"><path fill="#000000" d="M -1.34,-0.89 Q -1.34,-0.89 -0.71,-2.00 -0.08,-3.11 0.88,-7.21 1.84,-11.32 3.40,-18.19 4.95,-25.05 6.70,-33.69 8.45,-42.34 12.48,-50.84 16.52,-59.34 20.40,-65.80 24.28,-72.27 28.57,-76.57 32.86,-80.87 39.18,-82.78 45.50,-84.70 50.31,-85.46 55.12,-86.22 59.63,-86.29 64.14,-86.36 64.39,-86.32 64.64,-86.27 64.87,-86.15 65.10,-86.03 65.27,-85.84 65.44,-85.65 65.55,-85.42 65.65,-85.18 65.68,-84.92 65.70,-84.67 65.64,-84.42 65.59,-84.17 65.45,-83.95 65.32,-83.73 65.12,-83.57 64.92,-83.40 64.68,-83.31 64.44,-83.22 64.18,-83.21 63.93,-83.20 63.68,-83.27 63.43,-83.34 63.22,-83.49 63.01,-83.63 62.86,-83.84 62.70,-84.05 62.62,-84.29 62.55,-84.54 62.55,-84.79 62.55,-85.05 62.64,-85.29 62.72,-85.54 62.88,-85.74 63.04,-85.94 63.25,-86.08 63.47,-86.23 63.72,-86.29 63.97,-86.36 64.22,-86.34 64.48,-86.32 64.72,-86.22 64.95,-86.13 65.15,-85.96 65.34,-85.79 65.47,-85.57 65.60,-85.34 65.65,-85.09 65.71,-84.84 65.67,-84.58 65.64,-84.33 65.53,-84.10 65.42,-83.87 65.24,-83.68 65.06,-83.50 64.83,-83.38 64.61,-83.26 64.35,-83.22 64.10,-83.19 64.10,-83.19 64.10,-83.19 59.82,-83.37 55.54,-83.55 50.90,-82.81 46.26,-82.07 40.47,-80.45 34.67,-78.83 30.69,-74.81 26.70,-70.80 22.92,-64.45 19.14,-58.09 15.27,-49.91 11.39,-41.73 9.71,-33.05 8.03,-24.38 6.56,-17.47 5.10,-10.56 4.02,-5.87 2.95,-1.18 2.14,-0.14 1.34,0.89 1.21,1.04 1.09,1.19 0.93,1.30 0.77,1.41 0.59,1.48 0.41,1.56 0.21,1.58 0.02,1.61 -0.16,1.59 -0.36,1.57 -0.54,1.50 -0.72,1.44 -0.88,1.33 -1.05,1.22 -1.18,1.08 -1.31,0.93 -1.40,0.76 -1.50,0.59 -1.55,0.40 -1.59,0.22 -1.60,0.02 -1.60,-0.16 -1.56,-0.35 -1.51,-0.54 -1.43,-0.72 -1.34,-0.89 -1.34,-0.89 L -1.34,-0.89 Z"></path></g><g transform="translate(145.8572514790094 180.7563619506809) rotate(0 -21.188745643515176 -21.811944044795155)" stroke="none"><path fill="#000000" d="M -1.41,0.94 Q -1.41,0.94 -2.80,-1.23 -4.19,-3.41 -7.28,-8.30 -10.37,-13.18 -14.48,-18.05 -18.59,-22.92 -23.18,-27.49 -27.77,-32.06 -32.15,-35.02 -36.52,-37.98 -38.42,-39.28 -40.32,-40.58 -40.48,-40.73 -40.65,-40.88 -40.75,-41.08 -40.85,-41.28 -40.89,-41.49 -40.93,-41.71 -40.89,-41.93 -40.85,-42.15 -40.75,-42.35 -40.65,-42.54 -40.49,-42.69 -40.33,-42.85 -40.12,-42.94 -39.92,-43.03 -39.70,-43.06 -39.48,-43.08 -39.27,-43.04 -39.05,-42.99 -38.86,-42.87 -38.67,-42.76 -38.53,-42.59 -38.38,-42.42 -38.30,-42.22 -38.22,-42.01 -38.21,-41.79 -38.19,-41.57 -38.25,-41.35 -38.31,-41.14 -38.44,-40.96 -38.56,-40.77 -38.74,-40.64 -38.91,-40.50 -39.12,-40.43 -39.33,-40.36 -39.55,-40.36 -39.78,-40.36 -39.99,-40.43 -40.20,-40.50 -40.37,-40.64 -40.55,-40.77 -40.67,-40.95 -40.80,-41.14 -40.86,-41.35 -40.92,-41.56 -40.91,-41.79 -40.89,-42.01 -40.81,-42.21 -40.73,-42.42 -40.59,-42.59 -40.44,-42.76 -40.25,-42.87 -40.06,-42.99 -39.85,-43.03 -39.63,-43.08 -39.41,-43.06 -39.19,-43.03 -38.99,-42.94 -38.79,-42.85 -38.79,-42.85 -38.79,-42.85 -36.88,-41.57 -34.96,-40.29 -30.37,-37.19 -25.78,-34.09 -21.07,-29.45 -16.37,-24.81 -12.09,-19.82 -7.82,-14.83 -4.68,-10.00 -1.54,-5.18 -0.06,-3.06 1.41,-0.94 1.50,-0.75 1.59,-0.57 1.64,-0.37 1.68,-0.17 1.68,0.02 1.68,0.23 1.63,0.42 1.57,0.62 1.48,0.80 1.38,0.98 1.24,1.13 1.10,1.28 0.93,1.40 0.76,1.51 0.57,1.58 0.37,1.65 0.17,1.67 -0.02,1.69 -0.23,1.67 -0.43,1.64 -0.62,1.56 -0.81,1.49 -0.98,1.37 -1.14,1.25 -1.28,1.09 -1.41,0.94 -1.41,0.94 L -1.41,0.94 Z"></path></g><g stroke-opacity="0.5" fill-opacity="0.5" transform="translate(21.217571223037567 453.7172617112592) rotate(0 9.971174420477723 -23.681539248634635)" stroke="none"><path fill="#495057" d="M 1.65,0.55 Q 1.65,0.55 1.38,1.65 1.11,2.75 1.01,2.96 0.91,3.17 0.76,3.35 0.61,3.53 0.43,3.67 0.24,3.81 0.03,3.91 -0.17,4.00 -0.40,4.03 -0.63,4.07 -0.86,4.05 -1.10,4.03 -1.32,3.96 -1.54,3.89 -1.73,3.76 -1.93,3.64 -2.09,3.47 -2.25,3.30 -2.37,3.10 -2.49,2.90 -2.55,2.68 -2.61,2.46 -2.62,2.22 -2.63,1.99 -2.59,1.76 -2.54,1.54 -1.06,-0.94 0.41,-3.43 3.14,-8.38 5.87,-13.33 8.44,-20.34 11.00,-27.35 13.56,-33.28 16.13,-39.21 17.19,-42.71 18.25,-46.21 18.84,-48.26 19.43,-50.31 19.41,-50.20 19.39,-50.10 19.46,-50.27 19.52,-50.45 19.63,-50.60 19.73,-50.75 19.87,-50.88 20.01,-51.00 20.18,-51.09 20.34,-51.18 20.52,-51.22 20.70,-51.27 20.89,-51.27 21.08,-51.27 21.26,-51.23 21.44,-51.18 21.61,-51.09 21.77,-51.01 21.91,-50.89 22.05,-50.76 22.16,-50.61 22.27,-50.45 22.33,-50.28 22.40,-50.11 22.42,-49.92 22.45,-49.73 22.43,-49.55 22.40,-49.36 21.35,-45.46 20.29,-41.57 18.79,-34.56 17.28,-27.56 16.64,-21.77 16.01,-15.98 15.73,-12.09 15.46,-8.19 15.36,-6.17 15.26,-4.16 15.29,-2.43 15.31,-0.70 15.26,-0.45 15.21,-0.20 15.08,0.01 14.95,0.23 14.76,0.40 14.57,0.57 14.33,0.66 14.10,0.76 13.84,0.78 13.59,0.80 13.34,0.73 13.10,0.67 12.88,0.53 12.67,0.39 12.51,0.19 12.36,-0.00 12.27,-0.24 12.19,-0.48 12.18,-0.74 12.18,-0.99 12.26,-1.24 12.33,-1.48 12.49,-1.68 12.64,-1.89 12.85,-2.03 13.05,-2.18 13.30,-2.25 13.54,-2.32 13.80,-2.31 14.05,-2.30 14.29,-2.21 14.53,-2.12 14.73,-1.96 14.92,-1.80 15.06,-1.58 15.19,-1.36 15.25,-1.12 15.31,-0.87 15.28,-0.61 15.26,-0.36 15.16,-0.13 15.05,0.09 14.88,0.28 14.71,0.47 14.48,0.59 14.26,0.71 14.01,0.76 13.76,0.80 13.51,0.77 13.25,0.73 13.03,0.61 12.80,0.50 12.62,0.31 12.45,0.13 12.33,-0.09 12.22,-0.32 12.19,-0.57 12.16,-0.82 12.16,-0.82 12.16,-0.82 12.33,-2.57 12.49,-4.31 12.62,-6.35 12.75,-8.38 13.02,-12.33 13.28,-16.28 13.92,-22.21 14.56,-28.13 16.04,-35.20 17.53,-42.27 18.46,-46.18 19.39,-50.10 19.45,-50.27 19.52,-50.45 19.63,-50.60 19.73,-50.75 19.87,-50.88 20.01,-51.00 20.18,-51.09 20.34,-51.18 20.52,-51.22 20.70,-51.27 20.89,-51.27 21.08,-51.27 21.26,-51.23 21.44,-51.18 21.61,-51.10 21.77,-51.01 21.91,-50.89 22.05,-50.76 22.16,-50.61 22.27,-50.45 22.33,-50.28 22.40,-50.11 22.42,-49.92 22.45,-49.73 22.43,-49.55 22.40,-49.36 22.00,-49.09 21.59,-48.82 21.26,-47.11 20.94,-45.40 19.85,-41.74 18.76,-38.08 16.27,-32.21 13.78,-26.35 11.18,-19.11 8.58,-11.86 5.93,-6.88 3.28,-1.90 2.19,0.42 1.11,2.75 1.01,2.96 0.91,3.17 0.76,3.35 0.61,3.53 0.43,3.67 0.24,3.81 0.03,3.91 -0.17,4.00 -0.40,4.03 -0.63,4.07 -0.86,4.05 -1.10,4.03 -1.32,3.96 -1.54,3.89 -1.73,3.76 -1.93,3.64 -2.09,3.47 -2.25,3.30 -2.37,3.10 -2.48,2.90 -2.55,2.68 -2.61,2.46 -2.62,2.22 -2.63,1.99 -2.59,1.76 -2.54,1.54 -2.09,0.49 -1.65,-0.55 -1.56,-0.74 -1.47,-0.93 -1.33,-1.09 -1.20,-1.25 -1.03,-1.38 -0.87,-1.50 -0.67,-1.59 -0.48,-1.67 -0.27,-1.70 -0.07,-1.73 0.13,-1.72 0.34,-1.70 0.54,-1.63 0.74,-1.57 0.92,-1.46 1.10,-1.34 1.24,-1.19 1.39,-1.04 1.49,-0.86 1.60,-0.68 1.66,-0.48 1.71,-0.27 1.72,-0.07 1.73,0.13 1.69,0.34 1.65,0.55 1.65,0.55 L 1.65,0.55 Z"></path></g><g stroke-opacity="0.5" fill-opacity="0.5" transform="translate(10 433.7749128703035) rotate(0 28.04392805759369 0.6231984012797511)" stroke="none"><path fill="#495057" d="M 0.11,-1.75 Q 0.11,-1.75 5.48,-1.33 10.85,-0.91 18.12,-0.72 25.38,-0.52 31.34,-0.43 37.30,-0.33 42.70,-0.28 48.10,-0.23 50.40,-0.20 52.69,-0.17 52.92,-0.13 53.14,-0.09 53.34,0.00 53.54,0.11 53.70,0.28 53.85,0.44 53.95,0.65 54.04,0.86 54.07,1.08 54.09,1.31 54.04,1.53 53.99,1.75 53.87,1.94 53.75,2.14 53.58,2.28 53.41,2.43 53.19,2.51 52.98,2.60 52.76,2.61 52.53,2.62 52.31,2.56 52.09,2.50 51.90,2.37 51.72,2.24 51.58,2.06 51.44,1.88 51.37,1.66 51.30,1.44 51.30,1.22 51.30,0.99 51.38,0.77 51.45,0.56 51.59,0.38 51.73,0.20 51.92,0.07 52.11,-0.04 52.32,-0.10 52.54,-0.16 52.77,-0.15 53.00,-0.14 53.21,-0.05 53.42,0.02 53.59,0.17 53.76,0.32 53.88,0.52 53.99,0.71 54.04,0.93 54.09,1.16 54.06,1.38 54.04,1.61 53.94,1.81 53.85,2.02 53.69,2.18 53.53,2.35 53.33,2.45 53.13,2.56 52.90,2.59 52.68,2.63 52.68,2.63 52.68,2.63 50.38,2.63 48.09,2.64 42.68,2.63 37.27,2.63 31.29,2.60 25.32,2.57 17.98,2.46 10.64,2.35 5.26,2.05 -0.11,1.75 -0.32,1.71 -0.53,1.67 -0.72,1.58 -0.91,1.49 -1.08,1.36 -1.25,1.23 -1.38,1.06 -1.51,0.90 -1.59,0.70 -1.68,0.51 -1.71,0.30 -1.75,0.09 -1.74,-0.11 -1.72,-0.32 -1.66,-0.52 -1.59,-0.73 -1.48,-0.91 -1.37,-1.09 -1.22,-1.24 -1.07,-1.39 -0.89,-1.49 -0.71,-1.60 -0.50,-1.66 -0.30,-1.73 -0.09,-1.74 0.11,-1.75 0.11,-1.75 L 0.11,-1.75 Z"></path></g><g stroke-opacity="0.5" fill-opacity="0.5" transform="translate(112.20453780989692 457.4564521189386) rotate(0 2.4927936051194592 -18.695952038395717)" stroke="none"><path fill="#495057" d="M -1.81,-0.30 Q -1.81,-0.30 -1.38,-2.44 -0.96,-4.57 -0.40,-7.97 0.16,-11.37 0.77,-15.68 1.38,-19.98 2.01,-23.63 2.65,-27.28 2.89,-31.47 3.14,-35.66 3.21,-35.93 3.28,-36.19 3.42,-36.42 3.57,-36.65 3.78,-36.82 4.00,-36.99 4.25,-37.08 4.51,-37.17 4.78,-37.18 5.05,-37.19 5.32,-37.10 5.58,-37.02 5.80,-36.86 6.02,-36.70 6.17,-36.48 6.33,-36.26 6.41,-36.00 6.49,-35.74 6.48,-35.46 6.47,-35.19 6.38,-34.94 6.28,-34.68 6.11,-34.47 5.94,-34.26 5.71,-34.11 5.48,-33.97 5.21,-33.90 4.95,-33.84 4.68,-33.86 4.41,-33.88 4.16,-33.99 3.91,-34.10 3.70,-34.29 3.50,-34.47 3.37,-34.71 3.24,-34.94 3.19,-35.21 3.14,-35.48 3.17,-35.75 3.21,-36.02 3.33,-36.26 3.46,-36.51 3.65,-36.70 3.84,-36.89 4.09,-37.01 4.33,-37.13 4.60,-37.17 4.87,-37.20 5.14,-37.15 5.41,-37.10 5.64,-36.96 5.88,-36.83 6.06,-36.62 6.24,-36.42 6.35,-36.17 6.46,-35.92 6.48,-35.64 6.50,-35.37 6.50,-35.37 6.50,-35.37 6.02,-31.09 5.53,-26.80 4.96,-23.19 4.39,-19.58 3.85,-15.24 3.31,-10.90 2.85,-7.46 2.39,-4.02 2.10,-1.85 1.81,0.30 1.75,0.51 1.69,0.72 1.58,0.92 1.46,1.11 1.31,1.27 1.15,1.43 0.97,1.55 0.78,1.66 0.57,1.73 0.36,1.80 0.13,1.82 -0.08,1.84 -0.30,1.80 -0.52,1.76 -0.72,1.68 -0.92,1.59 -1.10,1.45 -1.28,1.32 -1.42,1.15 -1.56,0.97 -1.65,0.77 -1.75,0.57 -1.79,0.35 -1.83,0.14 -1.82,-0.08 -1.81,-0.30 -1.81,-0.30 L -1.81,-0.30 Z"></path></g><g stroke-opacity="0.5" fill-opacity="0.5" transform="translate(99.74056978429985 411.33977042422885) rotate(0 19.31915043967558 2.4927936051194592)" stroke="none"><path fill="#495057" d="M 0,-2.03 Q 0,-2.03 2.50,-1.94 5.01,-1.84 9.02,-1.41 13.03,-0.97 16.19,-0.40 19.35,0.16 21.00,0.32 22.66,0.48 25.12,0.85 27.59,1.21 29.44,1.78 31.29,2.35 33.05,2.58 34.80,2.80 36.43,2.86 38.07,2.92 38.38,3.00 38.69,3.08 38.97,3.26 39.24,3.43 39.44,3.68 39.65,3.94 39.76,4.24 39.87,4.54 39.88,4.87 39.89,5.19 39.79,5.50 39.70,5.81 39.51,6.07 39.32,6.34 39.05,6.53 38.79,6.72 38.48,6.81 38.17,6.91 37.85,6.90 37.52,6.89 37.22,6.78 36.92,6.66 36.66,6.46 36.41,6.26 36.24,5.98 36.06,5.71 35.98,5.40 35.91,5.08 35.93,4.76 35.96,4.44 36.09,4.14 36.21,3.84 36.43,3.60 36.65,3.36 36.93,3.20 37.21,3.04 37.53,2.98 37.85,2.92 38.17,2.96 38.49,3.01 38.78,3.15 39.07,3.29 39.30,3.52 39.53,3.75 39.67,4.04 39.82,4.33 39.86,4.66 39.90,4.98 39.84,5.29 39.78,5.61 39.62,5.89 39.46,6.18 39.22,6.39 38.98,6.61 38.68,6.74 38.38,6.86 38.06,6.89 37.74,6.92 37.74,6.92 37.74,6.92 36.05,6.71 34.37,6.50 32.33,6.27 30.29,6.05 27.35,5.14 24.41,4.24 23.32,4.05 22.22,3.85 20.53,3.58 18.83,3.31 15.78,2.86 12.72,2.41 8.87,2.12 5.01,1.84 2.50,1.94 0,2.03 -0.24,2.00 -0.48,1.97 -0.71,1.89 -0.94,1.80 -1.14,1.66 -1.35,1.52 -1.51,1.34 -1.67,1.15 -1.79,0.94 -1.90,0.72 -1.96,0.48 -2.02,0.24 -2.02,-0.00 -2.02,-0.24 -1.96,-0.48 -1.90,-0.72 -1.79,-0.94 -1.67,-1.15 -1.51,-1.34 -1.35,-1.52 -1.14,-1.66 -0.94,-1.80 -0.71,-1.89 -0.48,-1.97 -0.24,-2.00 0.00,-2.03 0.00,-2.03 L 0,-2.03 Z"></path></g><g stroke-opacity="0.5" fill-opacity="0.5" transform="translate(162.06040991228565 411.33977042422885) rotate(0 -4.985587210238805 30.536721662713262)" stroke="none"><path fill="#495057" d="M 1.72,0.57 Q 1.72,0.57 0.94,2.70 0.16,4.83 -0.88,9.23 -1.93,13.64 -3.48,19.51 -5.03,25.37 -6.04,31.37 -7.05,37.37 -7.49,42.76 -7.93,48.14 -8.12,51.51 -8.31,54.88 -8.31,57.45 -8.30,60.01 -8.35,60.26 -8.41,60.52 -8.54,60.75 -8.67,60.97 -8.87,61.14 -9.07,61.31 -9.31,61.41 -9.55,61.51 -9.81,61.53 -10.07,61.55 -10.33,61.48 -10.58,61.41 -10.80,61.27 -11.02,61.13 -11.18,60.92 -11.34,60.71 -11.43,60.47 -11.51,60.22 -11.51,59.96 -11.52,59.69 -11.44,59.45 -11.36,59.20 -11.20,58.99 -11.04,58.78 -10.83,58.63 -10.61,58.48 -10.36,58.40 -10.11,58.33 -9.85,58.34 -9.59,58.35 -9.34,58.45 -9.10,58.54 -8.90,58.71 -8.70,58.88 -8.56,59.10 -8.42,59.32 -8.36,59.58 -8.30,59.83 -8.33,60.09 -8.35,60.35 -8.46,60.59 -8.57,60.83 -8.75,61.02 -8.92,61.22 -9.15,61.34 -9.38,61.47 -9.64,61.51 -9.90,61.56 -10.16,61.52 -10.42,61.48 -10.65,61.36 -10.88,61.24 -11.06,61.05 -11.25,60.86 -11.36,60.62 -11.47,60.39 -11.50,60.13 -11.53,59.87 -11.53,59.87 -11.53,59.87 -11.31,57.30 -11.09,54.74 -10.92,51.33 -10.75,47.92 -10.34,42.41 -9.92,36.90 -8.94,30.76 -7.95,24.62 -6.48,18.78 -5.01,12.94 -4.02,8.35 -3.02,3.76 -2.37,1.59 -1.72,-0.57 -1.62,-0.77 -1.53,-0.96 -1.39,-1.13 -1.25,-1.30 -1.08,-1.44 -0.90,-1.57 -0.70,-1.65 -0.50,-1.74 -0.28,-1.77 -0.07,-1.81 0.14,-1.79 0.36,-1.77 0.57,-1.70 0.77,-1.64 0.96,-1.52 1.14,-1.40 1.29,-1.24 1.45,-1.09 1.56,-0.90 1.67,-0.71 1.73,-0.50 1.79,-0.29 1.80,-0.07 1.80,0.14 1.76,0.35 1.72,0.57 1.72,0.57 L 1.72,0.57 Z"></path></g><g stroke-opacity="0.5" fill-opacity="0.5" transform="translate(157.07482270204696 449.9780713035798) rotate(0 9.971174420477723 9.347976019197858)" stroke="none"><path fill="#495057" d="M 0.09,-1.78 Q 0.09,-1.78 6.90,-1.36 13.70,-0.93 17.55,0.06 21.40,1.06 22.65,3.03 23.89,5.00 22.80,6.86 21.71,8.72 19.25,10.59 16.78,12.45 13.96,14.25 11.14,16.06 8.80,17.21 6.46,18.35 3.88,18.87 1.31,19.39 -0.07,19.71 -1.46,20.02 -3.38,20.23 -5.29,20.45 -5.58,20.42 -5.87,20.39 -6.14,20.27 -6.41,20.15 -6.63,19.95 -6.84,19.75 -6.98,19.50 -7.13,19.24 -7.18,18.95 -7.23,18.66 -7.18,18.37 -7.14,18.08 -7.01,17.82 -6.87,17.55 -6.66,17.35 -6.45,17.14 -6.18,17.02 -5.92,16.89 -5.63,16.86 -5.33,16.82 -5.05,16.88 -4.76,16.94 -4.50,17.09 -4.25,17.24 -4.06,17.46 -3.86,17.68 -3.75,17.95 -3.64,18.22 -3.62,18.52 -3.60,18.81 -3.68,19.10 -3.75,19.38 -3.91,19.63 -4.08,19.87 -4.31,20.05 -4.54,20.23 -4.82,20.33 -5.09,20.43 -5.39,20.43 -5.68,20.43 -5.96,20.34 -6.24,20.25 -6.48,20.08 -6.71,19.90 -6.88,19.66 -7.05,19.42 -7.13,19.14 -7.21,18.85 -7.20,18.56 -7.19,18.27 -7.08,17.99 -6.98,17.72 -6.79,17.49 -6.60,17.27 -6.35,17.11 -6.10,16.96 -5.82,16.89 -5.53,16.82 -5.53,16.82 -5.53,16.82 -3.74,16.79 -1.95,16.76 -0.59,16.67 0.75,16.57 2.95,16.13 5.15,15.69 7.30,14.59 9.44,13.48 12.12,11.67 14.80,9.85 16.84,8.26 18.88,6.67 19.57,5.25 20.26,3.84 16.89,3.10 13.52,2.37 6.71,2.07 -0.09,1.78 -0.30,1.74 -0.51,1.71 -0.71,1.62 -0.91,1.53 -1.08,1.40 -1.25,1.27 -1.38,1.10 -1.52,0.93 -1.61,0.74 -1.70,0.54 -1.74,0.33 -1.78,0.12 -1.77,-0.09 -1.76,-0.30 -1.69,-0.51 -1.63,-0.72 -1.52,-0.90 -1.41,-1.09 -1.26,-1.24 -1.11,-1.39 -0.92,-1.51 -0.74,-1.62 -0.54,-1.68 -0.33,-1.75 -0.12,-1.77 0.09,-1.78 0.09,-1.78 L 0.09,-1.78 Z"></path></g><g stroke-opacity="0.5" fill-opacity="0.5" transform="translate(199.45231398907754 416.32535763446776) rotate(0 -3.1159920063994377 31.78311846527299)" stroke="none"><path fill="#495057" d="M 1.68,0.48 Q 1.68,0.48 0.91,2.97 0.13,5.46 -0.54,9.30 -1.23,13.13 -1.53,18.30 -1.84,23.47 -2.34,29.30 -2.84,35.14 -3.42,41.20 -4.00,47.26 -4.25,51.60 -4.50,55.94 -4.52,59.09 -4.54,62.24 -4.59,62.50 -4.65,62.76 -4.78,62.99 -4.92,63.21 -5.12,63.38 -5.31,63.56 -5.56,63.65 -5.80,63.75 -6.06,63.77 -6.33,63.79 -6.58,63.72 -6.83,63.65 -7.05,63.50 -7.27,63.36 -7.43,63.15 -7.59,62.94 -7.68,62.69 -7.76,62.45 -7.77,62.18 -7.77,61.92 -7.69,61.67 -7.60,61.42 -7.45,61.21 -7.29,61.00 -7.07,60.85 -6.86,60.70 -6.60,60.63 -6.35,60.56 -6.09,60.57 -5.83,60.58 -5.58,60.68 -5.34,60.77 -5.14,60.94 -4.93,61.11 -4.80,61.33 -4.66,61.56 -4.60,61.81 -4.54,62.07 -4.57,62.33 -4.59,62.59 -4.70,62.83 -4.81,63.07 -4.99,63.26 -5.17,63.46 -5.40,63.58 -5.63,63.71 -5.89,63.75 -6.15,63.79 -6.41,63.75 -6.67,63.71 -6.90,63.59 -7.14,63.47 -7.32,63.28 -7.50,63.09 -7.61,62.86 -7.72,62.62 -7.76,62.36 -7.79,62.10 -7.79,62.10 -7.79,62.10 -7.52,58.94 -7.25,55.79 -7.02,51.39 -6.79,47.00 -6.25,40.95 -5.71,34.90 -5.25,29.11 -4.80,23.31 -4.54,17.96 -4.28,12.62 -3.64,8.59 -3.00,4.56 -2.34,2.04 -1.68,-0.48 -1.60,-0.67 -1.51,-0.87 -1.39,-1.03 -1.26,-1.20 -1.10,-1.34 -0.94,-1.47 -0.75,-1.56 -0.56,-1.65 -0.35,-1.70 -0.14,-1.74 0.06,-1.73 0.27,-1.72 0.47,-1.67 0.68,-1.61 0.86,-1.50 1.04,-1.40 1.19,-1.25 1.35,-1.11 1.46,-0.93 1.57,-0.75 1.64,-0.55 1.71,-0.35 1.73,-0.14 1.75,0.06 1.71,0.27 1.68,0.48 1.68,0.48 L 1.68,0.48 Z"></path></g><g stroke-opacity="0.5" fill-opacity="0.5" transform="translate(289.19288377337716 477.3988009598943) rotate(0 4.985587210238805 -25.551134452474344)" stroke="none"><path fill="#495057" d="M -1.84,0 Q -1.84,0 -1.90,-1.43 -1.96,-2.87 -1.15,-7.55 -0.33,-12.24 1.11,-18.17 2.57,-24.10 3.92,-29.45 5.27,-34.81 6.58,-39.61 7.89,-44.40 8.54,-48.79 9.19,-53.17 9.28,-53.43 9.37,-53.70 9.54,-53.91 9.71,-54.13 9.94,-54.28 10.17,-54.44 10.44,-54.51 10.71,-54.58 10.98,-54.56 11.26,-54.54 11.51,-54.44 11.77,-54.33 11.97,-54.15 12.18,-53.97 12.32,-53.74 12.46,-53.50 12.52,-53.23 12.58,-52.96 12.54,-52.68 12.51,-52.41 12.39,-52.16 12.28,-51.91 12.08,-51.71 11.89,-51.52 11.65,-51.39 11.40,-51.26 11.13,-51.22 10.86,-51.18 10.59,-51.23 10.31,-51.27 10.07,-51.40 9.83,-51.54 9.64,-51.74 9.45,-51.94 9.34,-52.19 9.23,-52.44 9.20,-52.72 9.17,-52.99 9.23,-53.26 9.30,-53.53 9.44,-53.76 9.58,-54.00 9.80,-54.18 10.01,-54.35 10.27,-54.45 10.52,-54.55 10.80,-54.56 11.07,-54.58 11.34,-54.50 11.60,-54.42 11.83,-54.27 12.06,-54.11 12.22,-53.89 12.39,-53.67 12.47,-53.40 12.56,-53.14 12.56,-52.87 12.55,-52.59 12.55,-52.59 12.55,-52.59 11.67,-48.11 10.78,-43.64 9.55,-38.85 8.32,-34.07 7.06,-28.70 5.81,-23.34 4.50,-17.51 3.20,-11.68 2.58,-7.27 1.96,-2.86 1.90,-1.43 1.84,0 1.82,0.22 1.79,0.44 1.71,0.65 1.63,0.85 1.50,1.04 1.38,1.22 1.21,1.37 1.04,1.52 0.85,1.62 0.65,1.72 0.43,1.78 0.22,1.83 -0.00,1.83 -0.22,1.83 -0.43,1.78 -0.65,1.72 -0.85,1.62 -1.05,1.52 -1.21,1.37 -1.38,1.22 -1.51,1.04 -1.63,0.85 -1.71,0.65 -1.79,0.44 -1.82,0.22 -1.84,-0.00 -1.84,-0.00 L -1.84,0 Z"></path></g><g stroke-opacity="0.5" fill-opacity="0.5" transform="translate(294.1784709836161 464.93483293429654) rotate(0 19.319150439675695 -13.710364828156798)" stroke="none"><path fill="#495057" d="M -1.13,-1.64 Q -1.13,-1.64 3.57,-4.79 8.28,-7.94 14.26,-11.77 20.23,-15.61 24.92,-18.65 29.62,-21.69 31.90,-23.62 34.18,-25.55 34.42,-26.19 34.66,-26.82 34.64,-27.07 34.63,-27.33 34.69,-27.57 34.75,-27.82 34.89,-28.03 35.03,-28.25 35.23,-28.41 35.43,-28.56 35.67,-28.65 35.91,-28.74 36.17,-28.74 36.42,-28.75 36.67,-28.67 36.91,-28.59 37.11,-28.44 37.32,-28.29 37.47,-28.08 37.61,-27.87 37.69,-27.63 37.76,-27.38 37.75,-27.13 37.74,-26.88 37.65,-26.64 37.56,-26.40 37.40,-26.20 37.24,-26.00 37.02,-25.87 36.81,-25.73 36.56,-25.67 36.31,-25.61 36.06,-25.64 35.80,-25.66 35.57,-25.76 35.34,-25.87 35.15,-26.04 34.96,-26.21 34.84,-26.43 34.71,-26.66 34.67,-26.91 34.62,-27.16 34.66,-27.41 34.69,-27.66 34.81,-27.89 34.92,-28.12 35.11,-28.30 35.29,-28.47 35.52,-28.59 35.75,-28.70 36.00,-28.73 36.25,-28.76 36.50,-28.71 36.75,-28.66 36.97,-28.53 37.19,-28.41 37.36,-28.21 37.53,-28.02 37.63,-27.79 37.73,-27.55 37.73,-27.55 37.73,-27.55 36.95,-25.42 36.16,-23.29 33.76,-21.17 31.36,-19.05 26.72,-15.92 22.08,-12.80 16.21,-8.87 10.35,-4.95 5.74,-1.65 1.13,1.64 0.92,1.75 0.71,1.87 0.47,1.92 0.24,1.98 0.00,1.98 -0.23,1.98 -0.47,1.92 -0.70,1.87 -0.92,1.76 -1.13,1.64 -1.31,1.48 -1.49,1.32 -1.63,1.13 -1.77,0.93 -1.85,0.70 -1.94,0.48 -1.97,0.24 -2.00,0.00 -1.97,-0.23 -1.94,-0.47 -1.85,-0.70 -1.77,-0.92 -1.63,-1.12 -1.49,-1.32 -1.31,-1.48 -1.13,-1.64 -1.13,-1.64 L -1.13,-1.64 Z"></path></g><g stroke-opacity="0.5" fill-opacity="0.5" transform="translate(294.1784709836161 459.9492457240576) rotate(0 13.087166426877047 13.087166426877047)" stroke="none"><path fill="#495057" d="M 1.57,-1.04 Q 1.57,-1.04 2.94,1.14 4.31,3.33 6.24,5.63 8.17,7.92 11.13,11.07 14.09,14.22 16.38,16.25 18.67,18.28 20.70,19.86 22.72,21.44 24.58,22.85 26.44,24.26 26.62,24.46 26.79,24.66 26.89,24.90 26.99,25.15 27.01,25.42 27.03,25.68 26.96,25.94 26.89,26.20 26.74,26.42 26.60,26.64 26.38,26.80 26.17,26.97 25.92,27.05 25.67,27.14 25.40,27.14 25.14,27.15 24.89,27.06 24.63,26.98 24.42,26.82 24.21,26.66 24.05,26.44 23.90,26.22 23.83,25.97 23.75,25.71 23.77,25.45 23.78,25.18 23.88,24.93 23.97,24.68 24.14,24.48 24.31,24.28 24.54,24.14 24.77,24.00 25.03,23.94 25.29,23.88 25.55,23.90 25.82,23.93 26.06,24.04 26.30,24.15 26.50,24.33 26.69,24.51 26.82,24.75 26.94,24.98 26.99,25.24 27.04,25.50 26.99,25.77 26.95,26.03 26.83,26.27 26.71,26.50 26.52,26.69 26.33,26.87 26.09,26.99 25.84,27.10 25.58,27.13 25.32,27.16 25.06,27.11 24.79,27.05 24.57,26.92 24.34,26.78 24.34,26.78 24.34,26.78 22.66,25.25 20.98,23.71 18.86,22.11 16.73,20.51 14.30,18.43 11.87,16.35 8.80,13.20 5.72,10.05 3.57,7.66 1.42,5.26 -0.07,3.15 -1.57,1.04 -1.67,0.84 -1.77,0.64 -1.83,0.41 -1.88,0.19 -1.87,-0.03 -1.87,-0.25 -1.81,-0.47 -1.75,-0.69 -1.64,-0.89 -1.53,-1.09 -1.38,-1.26 -1.23,-1.43 -1.04,-1.56 -0.85,-1.68 -0.63,-1.76 -0.42,-1.84 -0.19,-1.86 0.03,-1.89 0.25,-1.86 0.48,-1.82 0.69,-1.74 0.90,-1.66 1.09,-1.52 1.27,-1.39 1.42,-1.22 1.57,-1.04 1.57,-1.04 L 1.57,-1.04 Z"></path></g><g stroke-opacity="0.5" fill-opacity="0.5" transform="translate(371.4550727423184 446.2388808959013) rotate(0 -1.2463968025597296 24.927936051194365)" stroke="none"><path fill="#495057" d="M 1.83,0.20 Q 1.83,0.20 1.40,3.42 0.97,6.63 0.41,11.57 -0.15,16.52 -0.40,21.80 -0.65,27.08 -0.77,31.48 -0.89,35.88 -0.95,39.54 -1.01,43.20 -0.92,45.93 -0.82,48.66 -0.87,48.92 -0.92,49.19 -1.04,49.42 -1.17,49.66 -1.37,49.84 -1.56,50.02 -1.81,50.13 -2.05,50.24 -2.32,50.27 -2.58,50.30 -2.84,50.24 -3.10,50.18 -3.33,50.04 -3.56,49.90 -3.73,49.69 -3.90,49.49 -4.00,49.24 -4.10,48.99 -4.11,48.72 -4.12,48.45 -4.05,48.20 -3.97,47.94 -3.82,47.72 -3.67,47.50 -3.45,47.34 -3.24,47.18 -2.98,47.10 -2.73,47.01 -2.46,47.01 -2.20,47.02 -1.94,47.10 -1.69,47.19 -1.48,47.36 -1.27,47.52 -1.12,47.74 -0.97,47.97 -0.90,48.22 -0.83,48.48 -0.85,48.75 -0.87,49.02 -0.97,49.26 -1.07,49.51 -1.24,49.71 -1.42,49.92 -1.65,50.05 -1.88,50.19 -2.14,50.24 -2.40,50.30 -2.67,50.27 -2.93,50.24 -3.18,50.12 -3.42,50.01 -3.61,49.82 -3.80,49.64 -3.93,49.40 -4.05,49.16 -4.09,48.90 -4.13,48.63 -4.13,48.63 -4.13,48.63 -3.99,45.90 -3.85,43.17 -3.83,39.49 -3.81,35.81 -3.75,31.38 -3.68,26.95 -3.50,21.57 -3.32,16.19 -2.86,11.22 -2.40,6.26 -2.12,3.02 -1.83,-0.20 -1.78,-0.42 -1.73,-0.63 -1.62,-0.83 -1.52,-1.03 -1.38,-1.20 -1.23,-1.36 -1.05,-1.49 -0.87,-1.62 -0.66,-1.70 -0.45,-1.78 -0.23,-1.81 -0.01,-1.84 0.20,-1.81 0.42,-1.79 0.63,-1.71 0.84,-1.64 1.02,-1.51 1.20,-1.39 1.35,-1.22 1.50,-1.06 1.61,-0.86 1.71,-0.67 1.77,-0.45 1.82,-0.24 1.83,-0.01 1.83,0.20 1.83,0.20 L 1.83,0.20 Z"></path></g><g stroke-opacity="0.5" fill-opacity="0.5" transform="translate(357.74470791416206 442.49969048822186) rotate(0 15.579960031996507 2.2737367544323206e-13)" stroke="none"><path fill="#495057" d="M 0.22,-2.00 Q 0.22,-2.00 3.43,-1.55 6.65,-1.10 11.17,-0.88 15.69,-0.66 20.13,-0.55 24.58,-0.43 26.44,-0.71 28.30,-0.99 28.32,-1.25 28.34,-1.51 28.45,-1.75 28.55,-1.99 28.73,-2.19 28.91,-2.38 29.14,-2.51 29.37,-2.64 29.63,-2.69 29.89,-2.73 30.15,-2.70 30.41,-2.66 30.64,-2.54 30.88,-2.42 31.06,-2.24 31.25,-2.05 31.36,-1.81 31.48,-1.57 31.51,-1.31 31.54,-1.05 31.49,-0.80 31.44,-0.54 31.31,-0.31 31.18,-0.08 30.98,0.08 30.78,0.26 30.54,0.36 30.30,0.46 30.04,0.48 29.78,0.50 29.52,0.44 29.27,0.37 29.05,0.23 28.82,0.08 28.66,-0.11 28.50,-0.32 28.41,-0.57 28.32,-0.81 28.31,-1.08 28.31,-1.34 28.39,-1.59 28.47,-1.84 28.62,-2.05 28.78,-2.27 28.99,-2.42 29.21,-2.57 29.46,-2.65 29.71,-2.72 29.97,-2.71 30.24,-2.70 30.48,-2.61 30.73,-2.52 30.93,-2.35 31.14,-2.19 31.28,-1.96 31.42,-1.74 31.48,-1.48 31.54,-1.23 31.54,-1.23 31.54,-1.23 28.04,0.75 24.54,2.73 20.06,2.72 15.58,2.71 10.91,2.62 6.24,2.53 3.01,2.26 -0.22,2.00 -0.45,1.94 -0.69,1.89 -0.91,1.78 -1.12,1.67 -1.31,1.51 -1.49,1.35 -1.63,1.15 -1.77,0.95 -1.86,0.72 -1.95,0.50 -1.98,0.26 -2.01,0.02 -1.98,-0.22 -1.96,-0.46 -1.87,-0.69 -1.79,-0.91 -1.65,-1.12 -1.52,-1.32 -1.34,-1.48 -1.16,-1.64 -0.94,-1.76 -0.73,-1.87 -0.49,-1.93 -0.26,-1.99 -0.02,-2.00 0.22,-2.00 0.22,-2.00 L 0.22,-2.00 Z"></path></g><g stroke-opacity="0.5" fill-opacity="0.5" transform="translate(432.52851606774493 452.4708649086997) rotate(0 5.608785611518783 26.174332853754095)" stroke="none"><path fill="#495057" d="M 0,1.56 Q 0,1.56 -2.75,1.48 -5.51,1.41 -8.15,3.75 -10.79,6.08 -12.64,9.79 -14.48,13.51 -15.64,18.60 -16.81,23.70 -17.32,27.97 -17.83,32.25 -16.32,36.31 -14.80,40.38 -11.45,43.42 -8.10,46.47 -3.63,47.73 0.84,49.00 6.20,48.86 11.57,48.73 15.80,46.26 20.03,43.80 22.83,39.68 25.62,35.56 26.80,30.36 27.99,25.15 28.16,20.84 28.32,16.52 27.36,13.41 26.39,10.29 25.01,8.37 23.62,6.44 21.41,5.36 19.19,4.28 16.89,3.80 14.58,3.32 12.52,3.10 10.47,2.89 7.39,2.43 4.31,1.97 4.11,1.90 3.91,1.84 3.74,1.71 3.57,1.59 3.44,1.41 3.32,1.24 3.26,1.03 3.20,0.83 3.21,0.62 3.22,0.40 3.30,0.21 3.37,0.01 3.51,-0.15 3.64,-0.31 3.82,-0.42 4.00,-0.54 4.21,-0.58 4.42,-0.63 4.63,-0.61 4.84,-0.59 5.03,-0.51 5.23,-0.42 5.39,-0.28 5.54,-0.13 5.64,0.04 5.75,0.23 5.78,0.44 5.82,0.65 5.79,0.86 5.76,1.07 5.66,1.26 5.56,1.45 5.41,1.60 5.26,1.74 5.07,1.84 4.88,1.93 4.67,1.95 4.45,1.98 4.25,1.94 4.04,1.90 3.85,1.79 3.67,1.68 3.53,1.52 3.39,1.36 3.31,1.17 3.23,0.97 3.21,0.76 3.20,0.54 3.25,0.34 3.31,0.13 3.42,-0.03 3.54,-0.21 3.71,-0.34 3.88,-0.47 4.08,-0.54 4.28,-0.62 4.49,-0.62 4.70,-0.62 4.70,-0.62 4.70,-0.62 7.73,-0.17 10.75,0.27 12.94,0.51 15.14,0.75 17.76,1.34 20.38,1.94 23.03,3.39 25.67,4.83 27.28,7.17 28.89,9.50 29.92,13.04 30.95,16.58 30.75,21.16 30.55,25.75 29.19,31.38 27.82,37.01 24.62,41.52 21.42,46.02 16.60,48.68 11.77,51.34 5.95,51.45 0.13,51.56 -4.84,50.02 -9.82,48.49 -13.54,44.95 -17.26,41.41 -18.89,36.74 -20.53,32.06 -20.01,27.57 -19.50,23.08 -18.25,17.66 -17.00,12.25 -14.85,8.09 -12.70,3.94 -9.33,1.26 -5.95,-1.41 -2.97,-1.48 0,-1.56 0.18,-1.53 0.37,-1.51 0.54,-1.45 0.72,-1.38 0.88,-1.27 1.03,-1.16 1.16,-1.02 1.28,-0.88 1.37,-0.72 1.46,-0.55 1.50,-0.37 1.55,-0.18 1.55,0.00 1.55,0.18 1.50,0.37 1.46,0.55 1.37,0.72 1.28,0.88 1.16,1.02 1.03,1.16 0.88,1.27 0.72,1.38 0.54,1.45 0.37,1.51 0.18,1.53 -0.00,1.56 -0.00,1.56 L 0,1.56 Z"></path></g><g stroke-opacity="0.5" fill-opacity="0.5" transform="translate(486.1235785778117 432.528516067744) rotate(0 11.840769624317545 24.927936051194138)" stroke="none"><path fill="#495057" d="M -0.48,-1.62 Q -0.48,-1.62 3.11,-2.64 6.71,-3.67 11.67,-3.90 16.63,-4.14 19.15,-0.18 21.67,3.76 21.97,8.88 22.26,14.01 21.25,18.39 20.24,22.77 19.07,25.74 17.89,28.70 15.86,31.16 13.83,33.63 11.88,35.38 9.92,37.13 9.30,38.18 8.68,39.22 8.07,41.08 7.46,42.94 6.37,44.08 5.28,45.21 4.76,46.34 4.24,47.48 4.01,48.87 3.78,50.26 3.66,51.73 3.53,53.20 3.43,53.54 3.32,53.89 3.12,54.18 2.91,54.47 2.62,54.68 2.33,54.90 1.99,55.01 1.65,55.11 1.29,55.11 0.93,55.10 0.59,54.98 0.25,54.86 -0.02,54.64 -0.30,54.41 -0.50,54.11 -0.69,53.81 -0.78,53.46 -0.87,53.12 -0.85,52.76 -0.82,52.40 -0.68,52.07 -0.54,51.74 -0.31,51.47 -0.07,51.20 0.23,51.02 0.54,50.84 0.89,50.77 1.25,50.70 1.60,50.74 1.96,50.79 2.28,50.95 2.61,51.10 2.86,51.35 3.12,51.61 3.28,51.93 3.44,52.25 3.50,52.60 3.55,52.96 3.48,53.31 3.42,53.66 3.24,53.98 3.07,54.29 2.80,54.53 2.54,54.78 2.21,54.92 1.88,55.07 1.52,55.10 1.17,55.13 0.82,55.05 0.47,54.96 0.16,54.77 -0.13,54.58 -0.36,54.30 -0.59,54.03 -0.71,53.69 -0.84,53.35 -0.85,53.00 -0.87,52.64 -0.87,52.64 -0.87,52.64 -0.60,51.05 -0.34,49.47 0.06,47.50 0.47,45.54 2.23,43.34 3.99,41.15 4.53,40.19 5.08,39.23 5.61,38.29 6.14,37.35 7.13,36.25 8.12,35.14 9.94,33.51 11.76,31.89 13.56,29.77 15.36,27.65 16.45,24.90 17.54,22.14 18.48,18.13 19.43,14.11 19.27,9.60 19.11,5.09 17.18,1.55 15.25,-1.98 11.43,-1.30 7.61,-0.62 4.05,0.49 0.48,1.62 0.28,1.65 0.08,1.69 -0.11,1.67 -0.32,1.66 -0.51,1.60 -0.71,1.53 -0.88,1.43 -1.05,1.32 -1.20,1.17 -1.34,1.03 -1.44,0.85 -1.55,0.67 -1.61,0.48 -1.67,0.28 -1.68,0.08 -1.69,-0.12 -1.65,-0.32 -1.61,-0.52 -1.52,-0.70 -1.44,-0.89 -1.31,-1.05 -1.18,-1.21 -1.02,-1.33 -0.86,-1.45 -0.67,-1.54 -0.48,-1.62 -0.48,-1.62 L -0.48,-1.62 Z"></path></g><g stroke-opacity="0.5" fill-opacity="0.5" transform="translate(488.6163721829316 502.32673701108797) rotate(0 0.6231984012795238 0.6231984012799785)" stroke="none"><path fill="#495057" d="M 1.10,-2.20 Q 1.10,-2.20 1.84,-1.89 2.58,-1.57 2.83,-1.40 3.09,-1.23 3.30,-1.00 3.51,-0.78 3.66,-0.51 3.81,-0.23 3.89,0.05 3.97,0.35 3.97,0.66 3.98,0.97 3.91,1.27 3.84,1.57 3.71,1.85 3.57,2.13 3.37,2.36 3.17,2.60 2.92,2.78 2.66,2.96 2.38,3.07 2.09,3.19 1.78,3.23 1.48,3.28 1.17,3.25 0.86,3.21 0.57,3.11 0.28,3.01 -0.99,0.80 -2.27,-1.39 -1.93,-1.61 -1.58,-1.83 -1.17,-1.93 -0.77,-2.03 -0.36,-2.00 0.04,-1.97 0.42,-1.80 0.80,-1.64 1.11,-1.36 1.42,-1.08 1.62,-0.72 1.83,-0.36 1.90,0.03 1.98,0.44 1.93,0.85 1.87,1.26 1.68,1.63 1.50,2.00 1.21,2.29 0.91,2.59 0.54,2.77 0.17,2.95 -0.23,3.01 -0.64,3.07 -1.04,2.99 -1.45,2.91 -1.81,2.70 -2.17,2.50 -2.45,2.19 -2.72,1.88 -2.89,1.50 -3.05,1.12 -3.08,0.71 -3.12,0.30 -3.02,-0.09 -2.92,-0.50 -2.69,-0.84 -2.47,-1.19 -2.15,-1.45 -1.82,-1.71 -1.44,-1.85 -1.05,-2.00 -0.63,-2.01 -0.22,-2.02 0.17,-1.90 0.56,-1.77 0.90,-1.53 1.23,-1.29 1.48,-0.95 1.72,-0.62 1.84,-0.22 1.96,0.16 1.95,0.58 1.94,0.99 1.79,1.38 1.65,1.77 1.39,2.09 1.13,2.41 1.13,2.41 1.13,2.41 1.85,0.42 2.58,-1.57 2.83,-1.40 3.09,-1.23 3.30,-1.00 3.51,-0.78 3.66,-0.51 3.81,-0.24 3.89,0.05 3.97,0.35 3.97,0.66 3.98,0.97 3.91,1.27 3.84,1.57 3.71,1.85 3.57,2.13 3.37,2.36 3.17,2.60 2.92,2.78 2.67,2.96 2.38,3.07 2.09,3.19 1.79,3.23 1.48,3.28 1.17,3.25 0.86,3.21 0.57,3.11 0.28,3.01 -0.40,2.60 -1.10,2.20 -1.35,2.04 -1.59,1.87 -1.79,1.65 -2.00,1.43 -2.14,1.17 -2.28,0.91 -2.36,0.63 -2.44,0.34 -2.44,0.04 -2.45,-0.24 -2.38,-0.53 -2.32,-0.82 -2.18,-1.09 -2.05,-1.36 -1.86,-1.58 -1.67,-1.81 -1.42,-1.98 -1.18,-2.15 -0.91,-2.27 -0.63,-2.38 -0.34,-2.42 -0.04,-2.46 0.24,-2.43 0.54,-2.40 0.82,-2.30 1.10,-2.20 1.10,-2.20 L 1.10,-2.20 Z"></path></g><g stroke-linecap="round"><g stroke-opacity="0.7" fill-opacity="0.7" transform="translate(120.92931542781525 249.3081860914658) rotate(0 235.56899568378685 59.82704652286634)"><path d="M0 0 C78.52 19.94, 392.61 99.71, 471.14 119.65" stroke="#495057" stroke-width="1.5" fill="none" stroke-dasharray="8 9"></path></g><g stroke-opacity="0.7" fill-opacity="0.7" transform="translate(120.92931542781525 249.3081860914658) rotate(0 235.56899568378685 59.82704652286634)"><path d="M29.85 -3.01 C22.71 -2.29, 15.56 -1.57, 0 0" stroke="#495057" stroke-width="1.5" fill="none"></path></g><g stroke-opacity="0.7" fill-opacity="0.7" transform="translate(120.92931542781525 249.3081860914658) rotate(0 235.56899568378685 59.82704652286634)"><path d="M24.8 16.88 C18.86 12.84, 12.93 8.8, 0 0" stroke="#495057" stroke-width="1.5" fill="none"></path></g><g stroke-opacity="0.7" fill-opacity="0.7" transform="translate(120.92931542781525 249.3081860914658) rotate(0 235.56899568378685 59.82704652286634)"><path d="M441.29 122.66 C448.43 121.94, 455.57 121.22, 471.14 119.65" stroke="#495057" stroke-width="1.5" fill="none"></path></g><g stroke-opacity="0.7" fill-opacity="0.7" transform="translate(120.92931542781525 249.3081860914658) rotate(0 235.56899568378685 59.82704652286634)"><path d="M446.34 102.77 C452.27 106.81, 458.21 110.85, 471.14 119.65" stroke="#495057" stroke-width="1.5" fill="none"></path></g></g><g stroke-linecap="round"><g stroke-opacity="0.7" fill-opacity="0.7" transform="translate(261.7721541170631 248.06178928890586) rotate(0 256.757741327302 60.45024492414632)"><path d="M0 0 C85.59 20.15, 427.93 100.75, 513.52 120.9" stroke="#495057" stroke-width="1.5" fill="none" stroke-dasharray="8 9"></path></g><g stroke-opacity="0.7" fill-opacity="0.7" transform="translate(261.7721541170631 248.06178928890586) rotate(0 256.757741327302 60.45024492414632)"><path d="M29.79 -3.53 C18.84 -2.23, 7.9 -0.93, 0 0" stroke="#495057" stroke-width="1.5" fill="none"></path></g><g stroke-opacity="0.7" fill-opacity="0.7" transform="translate(261.7721541170631 248.06178928890586) rotate(0 256.757741327302 60.45024492414632)"><path d="M25.09 16.45 C15.87 10.4, 6.65 4.36, 0 0" stroke="#495057" stroke-width="1.5" fill="none"></path></g><g stroke-opacity="0.7" fill-opacity="0.7" transform="translate(261.7721541170631 248.06178928890586) rotate(0 256.757741327302 60.45024492414632)"><path d="M483.72 124.43 C494.67 123.13, 505.62 121.84, 513.52 120.9" stroke="#495057" stroke-width="1.5" fill="none"></path></g><g stroke-opacity="0.7" fill-opacity="0.7" transform="translate(261.7721541170631 248.06178928890586) rotate(0 256.757741327302 60.45024492414632)"><path d="M488.43 104.45 C497.65 110.5, 506.87 116.54, 513.52 120.9" stroke="#495057" stroke-width="1.5" fill="none"></path></g></g><g stroke-opacity="0.3" fill-opacity="0.3" transform="translate(138.3788706636517 74.81263373310549) rotate(0 14.333563229436663 -30.53672166271315)" stroke="none"><path fill="#495057" d="M -1.78,0 Q -1.78,0 -1.72,-2.86 -1.65,-5.73 -1.61,-10.17 -1.56,-14.62 -1.53,-20.45 -1.49,-26.28 -1.47,-32.70 -1.44,-39.11 -1.42,-44.71 -1.41,-50.30 -1.39,-53.76 -1.38,-57.21 -1.50,-58.32 -1.63,-59.43 -1.60,-59.62 -1.58,-59.82 -1.51,-60.00 -1.44,-60.19 -1.33,-60.35 -1.22,-60.51 -1.07,-60.64 -0.92,-60.77 -0.75,-60.86 -0.57,-60.95 -0.38,-61.00 -0.19,-61.05 0.00,-61.05 0.19,-61.05 0.38,-61.00 0.57,-60.95 0.75,-60.86 0.92,-60.77 1.07,-60.64 1.22,-60.51 1.33,-60.35 1.44,-60.19 1.51,-60.00 1.58,-59.82 1.60,-59.62 1.63,-59.43 4.07,-56.30 6.51,-53.17 8.21,-50.27 9.92,-47.38 12.07,-43.63 14.22,-39.88 15.51,-37.17 16.80,-34.45 17.70,-33.52 18.59,-32.60 19.12,-34.82 19.64,-37.05 21.14,-39.28 22.63,-41.52 23.57,-43.35 24.50,-45.18 25.26,-47.34 26.02,-49.49 26.27,-51.08 26.51,-52.67 26.55,-53.76 26.59,-54.85 26.66,-55.07 26.73,-55.29 26.85,-55.48 26.97,-55.68 27.13,-55.84 27.30,-56.00 27.49,-56.12 27.69,-56.24 27.91,-56.30 28.13,-56.37 28.36,-56.38 28.59,-56.40 28.81,-56.35 29.04,-56.31 29.25,-56.22 29.46,-56.12 29.64,-55.98 29.82,-55.83 29.96,-55.65 30.10,-55.47 30.19,-55.26 30.28,-55.05 30.32,-54.83 30.36,-54.60 30.35,-54.37 30.33,-54.14 30.31,-50.01 30.30,-45.88 30.26,-39.85 30.22,-33.83 29.83,-26.57 29.44,-19.32 29.26,-14.11 29.09,-8.91 29.11,-4.73 29.13,-0.56 29.08,-0.29 29.03,-0.02 28.90,0.21 28.77,0.44 28.57,0.62 28.37,0.81 28.12,0.92 27.87,1.02 27.60,1.05 27.33,1.07 27.06,1.01 26.80,0.94 26.57,0.80 26.34,0.65 26.17,0.44 26.00,0.23 25.90,-0.01 25.81,-0.27 25.80,-0.54 25.79,-0.81 25.87,-1.07 25.95,-1.33 26.11,-1.55 26.26,-1.77 26.48,-1.93 26.70,-2.09 26.96,-2.17 27.22,-2.25 27.49,-2.25 27.76,-2.24 28.02,-2.15 28.27,-2.06 28.49,-1.89 28.70,-1.72 28.85,-1.49 28.99,-1.26 29.06,-1.00 29.13,-0.74 29.11,-0.47 29.09,-0.20 28.98,0.04 28.87,0.29 28.69,0.50 28.51,0.70 28.28,0.83 28.04,0.97 27.78,1.02 27.51,1.07 27.24,1.04 26.97,1.00 26.73,0.88 26.48,0.77 26.29,0.57 26.10,0.38 25.98,0.14 25.85,-0.09 25.82,-0.36 25.78,-0.63 25.78,-0.63 25.78,-0.63 25.98,-4.81 26.19,-9.00 26.31,-14.23 26.44,-19.46 26.76,-26.64 27.07,-33.82 27.01,-39.84 26.95,-45.86 26.77,-50.36 26.59,-54.85 26.66,-55.07 26.73,-55.29 26.85,-55.48 26.97,-55.68 27.13,-55.84 27.30,-56.00 27.49,-56.12 27.69,-56.24 27.91,-56.30 28.13,-56.37 28.36,-56.38 28.59,-56.40 28.81,-56.35 29.04,-56.31 29.25,-56.22 29.46,-56.12 29.64,-55.98 29.82,-55.83 29.96,-55.65 30.10,-55.47 30.19,-55.26 30.28,-55.05 30.32,-54.83 30.36,-54.60 30.35,-54.37 30.33,-54.14 30.10,-53.09 29.87,-52.03 29.48,-50.26 29.09,-48.49 28.36,-46.11 27.62,-43.72 26.72,-41.62 25.81,-39.52 24.68,-37.57 23.54,-35.61 22.95,-34.00 22.36,-32.39 20.54,-30.72 18.72,-29.04 17.42,-29.80 16.13,-30.56 15.21,-31.90 14.30,-33.23 13.03,-35.84 11.77,-38.45 9.59,-42.16 7.41,-45.88 5.66,-48.74 3.91,-51.61 2.49,-53.97 1.07,-56.33 -0.27,-57.88 -1.63,-59.43 -1.60,-59.62 -1.58,-59.82 -1.51,-60.00 -1.44,-60.19 -1.33,-60.35 -1.22,-60.51 -1.07,-60.64 -0.92,-60.77 -0.75,-60.86 -0.57,-60.95 -0.38,-61.00 -0.19,-61.05 -0.00,-61.05 0.19,-61.05 0.38,-61.00 0.57,-60.95 0.75,-60.86 0.92,-60.77 1.07,-60.64 1.22,-60.51 1.33,-60.35 1.44,-60.19 1.51,-60.00 1.58,-59.82 1.60,-59.62 1.63,-59.43 1.50,-58.32 1.38,-57.21 1.39,-53.76 1.41,-50.30 1.42,-44.71 1.44,-39.11 1.47,-32.70 1.49,-26.28 1.53,-20.45 1.56,-14.62 1.61,-10.17 1.65,-5.73 1.72,-2.86 1.78,0 1.76,0.21 1.73,0.42 1.65,0.62 1.58,0.83 1.46,1.00 1.33,1.18 1.17,1.32 1.01,1.47 0.82,1.57 0.63,1.67 0.42,1.72 0.21,1.77 -0.00,1.77 -0.21,1.77 -0.42,1.72 -0.63,1.67 -0.82,1.57 -1.01,1.47 -1.17,1.32 -1.33,1.18 -1.46,1.00 -1.58,0.83 -1.65,0.62 -1.73,0.42 -1.76,0.21 -1.78,-0.00 -1.78,-0.00 L -1.78,0 Z"></path></g><g stroke-opacity="0.3" fill-opacity="0.3" transform="translate(196.95952038395853 10) rotate(0 -3.739190407679189 33.65271366911247)" stroke="none"><path fill="#495057" d="M 1.80,0 Q 1.80,0 1.74,4.30 1.67,8.60 0.17,16.66 -1.31,24.71 -2.67,33.43 -4.03,42.14 -4.61,48.32 -5.19,54.49 -5.45,58.19 -5.71,61.89 -5.72,63.48 -5.74,65.07 -5.79,65.32 -5.85,65.57 -5.99,65.79 -6.12,66.00 -6.32,66.17 -6.52,66.33 -6.76,66.43 -7.00,66.52 -7.25,66.53 -7.51,66.54 -7.76,66.47 -8.00,66.40 -8.22,66.25 -8.43,66.11 -8.58,65.90 -8.73,65.69 -8.81,65.45 -8.89,65.20 -8.89,64.95 -8.89,64.69 -8.80,64.45 -8.72,64.20 -8.56,64.00 -8.40,63.80 -8.19,63.66 -7.98,63.51 -7.73,63.45 -7.48,63.38 -7.22,63.40 -6.97,63.41 -6.73,63.51 -6.49,63.61 -6.30,63.78 -6.10,63.95 -5.97,64.17 -5.84,64.39 -5.79,64.64 -5.73,64.89 -5.77,65.15 -5.80,65.40 -5.91,65.64 -6.02,65.87 -6.20,66.05 -6.37,66.24 -6.60,66.36 -6.83,66.47 -7.09,66.51 -7.34,66.55 -7.59,66.51 -7.85,66.46 -8.07,66.34 -8.30,66.22 -8.47,66.03 -8.65,65.84 -8.75,65.61 -8.86,65.37 -8.88,65.12 -8.91,64.86 -8.91,64.86 -8.91,64.86 -8.72,63.29 -8.53,61.71 -8.31,57.97 -8.09,54.23 -7.54,47.96 -7.00,41.69 -5.71,32.92 -4.41,24.15 -3.04,16.37 -1.67,8.59 -1.74,4.29 -1.80,0 -1.78,-0.21 -1.75,-0.43 -1.67,-0.63 -1.60,-0.84 -1.47,-1.02 -1.35,-1.19 -1.19,-1.34 -1.02,-1.48 -0.83,-1.59 -0.64,-1.69 -0.42,-1.74 -0.21,-1.79 0.00,-1.79 0.21,-1.79 0.42,-1.74 0.64,-1.69 0.83,-1.59 1.02,-1.48 1.19,-1.34 1.35,-1.19 1.47,-1.02 1.60,-0.84 1.67,-0.63 1.75,-0.43 1.78,-0.21 1.80,0.00 1.80,0.00 L 1.80,0 Z"></path></g><g stroke-opacity="0.3" fill-opacity="0.3" transform="translate(189.48113956860016 54.87028489214981) rotate(0 10.594372821757588 10.594372821757702)" stroke="none"><path fill="#495057" d="M 0,-1.75 Q 0,-1.75 2.50,-1.69 5.01,-1.63 6.45,-1.71 7.89,-1.79 10.20,-0.96 12.50,-0.13 14.93,1.35 17.35,2.85 19.17,4.64 20.98,6.44 21.77,7.43 22.57,8.42 22.70,8.58 22.82,8.74 22.91,8.93 23.00,9.11 23.04,9.32 23.08,9.52 23.07,9.73 23.05,9.93 23.00,10.13 22.94,10.33 22.83,10.51 22.73,10.68 22.58,10.83 22.44,10.98 22.26,11.09 22.08,11.20 21.89,11.26 21.69,11.32 21.48,11.34 21.28,11.35 21.08,11.32 20.87,11.28 20.68,11.20 20.49,11.11 20.33,10.99 20.17,10.86 17.85,12.76 15.53,14.67 12.39,16.85 9.25,19.04 7.49,20.05 5.72,21.06 2.39,21.35 -0.94,21.64 -1.18,21.55 -1.43,21.46 -1.63,21.30 -1.84,21.13 -1.98,20.91 -2.12,20.69 -2.18,20.44 -2.24,20.19 -2.22,19.92 -2.20,19.66 -2.10,19.42 -1.99,19.18 -1.82,18.99 -1.64,18.79 -1.42,18.66 -1.19,18.54 -0.93,18.49 -0.67,18.44 -0.41,18.47 -0.16,18.51 0.07,18.62 0.30,18.74 0.49,18.93 0.67,19.11 0.79,19.35 0.91,19.58 0.94,19.84 0.98,20.10 0.93,20.36 0.88,20.61 0.75,20.84 0.62,21.07 0.42,21.24 0.23,21.42 -0.00,21.52 -0.24,21.62 -0.50,21.65 -0.76,21.67 -1.02,21.60 -1.27,21.54 -1.49,21.40 -1.71,21.26 -1.88,21.05 -2.04,20.85 -2.13,20.60 -2.22,20.36 -2.23,20.10 -2.23,19.84 -2.16,19.59 -2.08,19.34 -1.93,19.12 -1.77,18.91 -1.56,18.76 -1.35,18.61 -1.10,18.53 -0.85,18.45 -0.59,18.46 -0.32,18.47 -0.33,18.47 -0.33,18.47 1.99,18.48 4.32,18.50 5.97,17.61 7.63,16.72 10.86,14.44 14.09,12.15 18.33,10.28 22.57,8.42 22.69,8.58 22.82,8.74 22.91,8.93 23.00,9.11 23.04,9.32 23.08,9.52 23.07,9.73 23.05,9.93 23.00,10.13 22.94,10.33 22.83,10.51 22.73,10.68 22.58,10.83 22.44,10.98 22.26,11.09 22.08,11.20 21.89,11.26 21.69,11.32 21.49,11.34 21.28,11.35 21.08,11.32 20.87,11.28 20.68,11.20 20.49,11.11 20.33,10.99 20.17,10.86 19.52,9.72 18.87,8.58 17.30,7.05 15.72,5.53 13.55,4.26 11.38,3.00 9.60,2.39 7.83,1.79 6.42,1.71 5.01,1.63 2.50,1.69 0,1.75 -0.20,1.72 -0.41,1.70 -0.61,1.62 -0.81,1.55 -0.98,1.43 -1.16,1.31 -1.30,1.15 -1.44,0.99 -1.54,0.80 -1.63,0.62 -1.68,0.41 -1.74,0.21 -1.74,-0.00 -1.74,-0.21 -1.68,-0.41 -1.63,-0.62 -1.54,-0.80 -1.44,-0.99 -1.30,-1.15 -1.16,-1.31 -0.98,-1.43 -0.81,-1.55 -0.61,-1.62 -0.41,-1.70 -0.20,-1.72 0.00,-1.75 0.00,-1.75 L 0,-1.75 Z"></path></g><g stroke-opacity="0.3" fill-opacity="0.3" transform="translate(236.84421806586943 10) rotate(0 -4.36238880895894 32.40631686655274)" stroke="none"><path fill="#495057" d="M 1.70,0.48 Q 1.70,0.48 0.92,2.97 0.15,5.46 -1.27,10.11 -2.69,14.75 -4.01,21.31 -5.33,27.87 -5.90,34.90 -6.46,41.93 -6.71,47.44 -6.97,52.95 -7.01,57.82 -7.05,62.70 -7.10,62.96 -7.15,63.21 -7.27,63.44 -7.40,63.67 -7.60,63.84 -7.79,64.01 -8.03,64.12 -8.27,64.22 -8.53,64.24 -8.79,64.26 -9.04,64.20 -9.30,64.13 -9.52,63.99 -9.74,63.85 -9.90,63.65 -10.06,63.44 -10.15,63.20 -10.24,62.95 -10.25,62.69 -10.25,62.43 -10.18,62.18 -10.10,61.94 -9.95,61.72 -9.79,61.51 -9.58,61.36 -9.37,61.21 -9.12,61.13 -8.87,61.06 -8.61,61.07 -8.35,61.07 -8.11,61.16 -7.86,61.25 -7.66,61.42 -7.46,61.58 -7.32,61.80 -7.18,62.02 -7.11,62.27 -7.05,62.53 -7.07,62.79 -7.09,63.05 -7.20,63.29 -7.30,63.53 -7.48,63.72 -7.65,63.91 -7.88,64.04 -8.10,64.17 -8.36,64.22 -8.62,64.27 -8.88,64.23 -9.13,64.19 -9.37,64.08 -9.60,63.96 -9.78,63.78 -9.97,63.59 -10.08,63.36 -10.20,63.12 -10.23,62.87 -10.27,62.61 -10.27,62.61 -10.27,62.61 -10.02,57.72 -9.78,52.83 -9.56,47.27 -9.34,41.71 -8.80,34.50 -8.26,27.29 -6.97,20.58 -5.68,13.87 -4.35,9.21 -3.01,4.56 -2.36,2.03 -1.70,-0.48 -1.62,-0.68 -1.53,-0.88 -1.40,-1.05 -1.28,-1.22 -1.11,-1.35 -0.95,-1.49 -0.75,-1.58 -0.56,-1.67 -0.35,-1.72 -0.14,-1.76 0.06,-1.75 0.27,-1.74 0.48,-1.69 0.68,-1.63 0.87,-1.52 1.05,-1.41 1.21,-1.27 1.36,-1.12 1.48,-0.94 1.59,-0.76 1.66,-0.56 1.73,-0.36 1.75,-0.14 1.77,0.06 1.73,0.27 1.70,0.48 1.70,0.48 L 1.70,0.48 Z"></path></g><g stroke-opacity="0.3" fill-opacity="0.3" transform="translate(644.4159725028981 167.04599712252457) rotate(0 3.7391904076789615 44.24708649087006)" stroke="none"><path fill="#495057" d="M 1.69,0 Q 1.69,0 1.64,2.15 1.59,4.30 1.91,13.42 2.23,22.55 2.71,35.04 3.19,47.53 4.46,56.71 5.72,65.89 6.62,72.33 7.51,78.78 8.17,83.54 8.83,88.30 8.83,88.52 8.82,88.74 8.74,88.95 8.67,89.16 8.53,89.33 8.39,89.50 8.21,89.63 8.02,89.75 7.81,89.80 7.59,89.85 7.37,89.84 7.15,89.82 6.94,89.73 6.74,89.65 6.58,89.50 6.41,89.35 6.30,89.16 6.19,88.97 6.15,88.75 6.10,88.53 6.13,88.31 6.16,88.09 6.26,87.89 6.36,87.69 6.51,87.54 6.67,87.38 6.87,87.28 7.07,87.18 7.28,87.15 7.50,87.12 7.72,87.16 7.94,87.20 8.13,87.31 8.33,87.42 8.48,87.58 8.62,87.75 8.71,87.95 8.80,88.15 8.82,88.37 8.84,88.59 8.79,88.81 8.73,89.03 8.62,89.21 8.50,89.40 8.33,89.54 8.15,89.68 7.95,89.76 7.74,89.83 7.52,89.84 7.29,89.85 7.08,89.78 6.87,89.72 6.69,89.59 6.51,89.46 6.38,89.28 6.25,89.10 6.18,88.89 6.12,88.68 6.12,88.68 6.12,88.68 5.44,83.92 4.75,79.16 3.83,72.72 2.91,66.29 1.59,56.97 0.27,47.65 -0.26,35.16 -0.79,22.67 -1.19,13.48 -1.59,4.30 -1.64,2.15 -1.69,0 -1.67,-0.20 -1.64,-0.40 -1.57,-0.59 -1.50,-0.78 -1.38,-0.95 -1.27,-1.12 -1.11,-1.26 -0.96,-1.39 -0.78,-1.49 -0.60,-1.58 -0.40,-1.63 -0.20,-1.68 0.00,-1.68 0.20,-1.68 0.40,-1.63 0.60,-1.58 0.78,-1.49 0.96,-1.39 1.11,-1.26 1.27,-1.12 1.38,-0.95 1.50,-0.78 1.57,-0.59 1.64,-0.40 1.67,-0.20 1.69,0.00 1.69,0.00 L 1.69,0 Z"></path></g><g stroke-opacity="0.3" fill-opacity="0.3" transform="translate(651.894353318256 226.87304364539114) rotate(0 7.478380815358378 11.840769624317318)" stroke="none"><path fill="#495057" d="M 0,-1.75 Q 0,-1.75 3.95,-1.69 7.90,-1.63 10.58,-0.78 13.27,0.06 14.66,1.66 16.06,3.26 16.59,5.59 17.12,7.91 16.88,10.51 16.64,13.12 14.58,15.52 12.53,17.92 9.72,19.29 6.91,20.65 4.61,21.20 2.31,21.76 1.19,23.15 0.07,24.54 -0.09,24.73 -0.26,24.92 -0.48,25.04 -0.71,25.16 -0.96,25.21 -1.21,25.26 -1.46,25.22 -1.72,25.18 -1.94,25.07 -2.17,24.95 -2.35,24.77 -2.53,24.59 -2.64,24.36 -2.76,24.13 -2.79,23.88 -2.82,23.62 -2.77,23.37 -2.72,23.12 -2.59,22.90 -2.47,22.68 -2.27,22.51 -2.08,22.34 -1.85,22.24 -1.61,22.14 -1.36,22.12 -1.10,22.10 -0.85,22.17 -0.61,22.23 -0.39,22.37 -0.18,22.51 -0.02,22.71 0.13,22.91 0.22,23.15 0.30,23.39 0.31,23.65 0.31,23.90 0.24,24.14 0.16,24.39 0.01,24.60 -0.13,24.80 -0.34,24.95 -0.55,25.10 -0.79,25.17 -1.04,25.24 -1.29,25.24 -1.55,25.23 -1.79,25.14 -2.03,25.05 -2.23,24.89 -2.43,24.72 -2.56,24.51 -2.70,24.29 -2.76,24.04 -2.82,23.79 -2.79,23.54 -2.77,23.28 -2.67,23.05 -2.57,22.82 -2.57,22.82 -2.57,22.82 -0.47,20.94 1.61,19.07 3.66,18.57 5.70,18.08 8.07,16.99 10.43,15.90 12.11,14.20 13.78,12.50 13.89,10.52 14.00,8.54 13.67,6.83 13.34,5.11 12.70,3.96 12.06,2.80 9.96,2.22 7.86,1.63 3.93,1.69 0,1.75 -0.21,1.73 -0.42,1.70 -0.61,1.63 -0.81,1.55 -0.99,1.43 -1.16,1.31 -1.30,1.15 -1.44,0.99 -1.54,0.81 -1.64,0.62 -1.69,0.41 -1.74,0.21 -1.74,-0.00 -1.74,-0.21 -1.69,-0.41 -1.64,-0.62 -1.54,-0.81 -1.44,-0.99 -1.30,-1.15 -1.16,-1.31 -0.99,-1.43 -0.81,-1.55 -0.61,-1.63 -0.42,-1.70 -0.21,-1.73 0.00,-1.75 0.00,-1.75 L 0,-1.75 Z"></path></g><g stroke-opacity="0.3" fill-opacity="0.3" transform="translate(648.155162910577 170.78518753020376) rotate(0 13.710364828157026 0)" stroke="none"><path fill="#495057" d="M 0,-1.77 Q 0,-1.77 2.50,-1.71 5.01,-1.65 8.23,-1.60 11.44,-1.56 14.60,-1.52 17.76,-1.49 20.54,-1.46 23.31,-1.44 25.36,-1.44 27.42,-1.44 27.65,-1.40 27.88,-1.36 28.08,-1.25 28.29,-1.14 28.45,-0.97 28.61,-0.81 28.71,-0.59 28.81,-0.38 28.83,-0.15 28.86,0.07 28.81,0.30 28.76,0.53 28.64,0.73 28.52,0.93 28.34,1.08 28.16,1.23 27.94,1.32 27.73,1.41 27.49,1.42 27.26,1.43 27.03,1.37 26.81,1.31 26.62,1.17 26.42,1.04 26.28,0.86 26.14,0.67 26.07,0.45 25.99,0.23 25.99,-0.00 25.99,-0.23 26.07,-0.45 26.14,-0.67 26.28,-0.86 26.42,-1.04 26.62,-1.17 26.81,-1.31 27.03,-1.37 27.26,-1.43 27.49,-1.42 27.73,-1.41 27.94,-1.32 28.16,-1.23 28.34,-1.08 28.52,-0.93 28.64,-0.73 28.76,-0.53 28.81,-0.30 28.86,-0.07 28.83,0.15 28.81,0.38 28.71,0.59 28.61,0.81 28.45,0.98 28.29,1.14 28.08,1.25 27.88,1.36 27.65,1.40 27.42,1.44 27.42,1.44 27.42,1.44 25.36,1.44 23.31,1.44 20.54,1.46 17.76,1.49 14.60,1.52 11.44,1.56 8.23,1.60 5.01,1.65 2.50,1.71 0,1.77 -0.21,1.75 -0.42,1.72 -0.62,1.65 -0.82,1.57 -1.00,1.45 -1.17,1.33 -1.32,1.17 -1.46,1.00 -1.56,0.82 -1.66,0.63 -1.71,0.42 -1.76,0.21 -1.76,-0.00 -1.76,-0.21 -1.71,-0.42 -1.66,-0.63 -1.56,-0.82 -1.46,-1.00 -1.32,-1.17 -1.17,-1.33 -1.00,-1.45 -0.82,-1.57 -0.62,-1.65 -0.42,-1.72 -0.21,-1.75 0.00,-1.77 0.00,-1.77 L 0,-1.77 Z"></path></g><g stroke-opacity="0.3" fill-opacity="0.3" transform="translate(688.0398605924879 243.07620207866785) rotate(0 8.101579216638129 -16.826356834556236)" stroke="none"><path fill="#495057" d="M -1.59,-0.35 Q -1.59,-0.35 -0.83,-3.57 -0.07,-6.78 1.33,-12.81 2.74,-18.83 4.07,-23.57 5.41,-28.31 5.99,-30.67 6.56,-33.03 6.71,-33.30 6.86,-33.58 6.93,-33.75 6.99,-33.93 7.10,-34.08 7.20,-34.24 7.34,-34.36 7.48,-34.49 7.64,-34.58 7.81,-34.66 7.99,-34.71 8.17,-34.76 8.35,-34.76 8.54,-34.76 8.72,-34.72 8.90,-34.68 9.07,-34.59 9.24,-34.51 9.38,-34.39 9.52,-34.26 9.63,-34.11 9.73,-33.96 9.80,-33.78 9.87,-33.61 9.89,-33.43 9.92,-33.24 9.90,-33.06 9.88,-32.87 9.91,-29.97 9.95,-27.06 10.69,-22.61 11.43,-18.15 12.10,-14.44 12.78,-10.73 13.75,-8.19 14.72,-5.64 16.16,-3.19 17.60,-0.74 17.68,-0.49 17.76,-0.25 17.76,0.00 17.76,0.25 17.68,0.50 17.60,0.74 17.44,0.94 17.29,1.15 17.07,1.29 16.86,1.43 16.61,1.50 16.37,1.57 16.11,1.56 15.86,1.54 15.62,1.45 15.38,1.35 15.18,1.19 14.99,1.02 14.86,0.80 14.72,0.58 14.67,0.33 14.62,0.08 14.64,-0.17 14.67,-0.42 14.78,-0.65 14.89,-0.89 15.06,-1.07 15.24,-1.26 15.47,-1.38 15.69,-1.50 15.95,-1.54 16.20,-1.58 16.45,-1.54 16.71,-1.50 16.93,-1.38 17.16,-1.26 17.34,-1.07 17.51,-0.88 17.62,-0.65 17.73,-0.42 17.75,-0.16 17.78,0.08 17.73,0.33 17.67,0.58 17.54,0.80 17.40,1.02 17.21,1.19 17.01,1.35 16.77,1.45 16.54,1.54 16.28,1.56 16.02,1.57 15.78,1.50 15.53,1.43 15.32,1.29 15.11,1.14 14.95,0.94 14.80,0.74 14.80,0.74 14.80,0.74 13.50,-1.97 12.21,-4.69 11.17,-7.47 10.13,-10.24 9.44,-13.97 8.75,-17.71 7.97,-22.34 7.19,-26.97 7.03,-30.27 6.86,-33.58 6.93,-33.75 6.99,-33.93 7.10,-34.08 7.20,-34.24 7.34,-34.36 7.48,-34.49 7.64,-34.58 7.81,-34.66 7.99,-34.71 8.17,-34.76 8.35,-34.76 8.54,-34.76 8.72,-34.72 8.90,-34.68 9.07,-34.59 9.24,-34.51 9.38,-34.39 9.52,-34.26 9.63,-34.11 9.73,-33.96 9.80,-33.78 9.87,-33.61 9.89,-33.43 9.92,-33.24 9.90,-33.06 9.88,-32.87 9.56,-32.57 9.24,-32.27 8.71,-29.91 8.18,-27.55 6.91,-22.86 5.63,-18.17 4.29,-12.14 2.94,-6.11 2.27,-2.87 1.59,0.35 1.53,0.54 1.46,0.72 1.35,0.89 1.24,1.05 1.10,1.18 0.95,1.32 0.78,1.41 0.61,1.51 0.42,1.56 0.23,1.61 0.03,1.62 -0.15,1.62 -0.35,1.58 -0.54,1.54 -0.72,1.45 -0.89,1.36 -1.04,1.23 -1.19,1.11 -1.31,0.95 -1.43,0.79 -1.50,0.61 -1.57,0.42 -1.60,0.23 -1.63,0.03 -1.61,-0.15 -1.59,-0.35 -1.59,-0.35 L -1.59,-0.35 Z"></path></g><g stroke-opacity="0.3" fill-opacity="0.3" transform="translate(681.8078765796895 231.85863085563005) rotate(0 9.347976019197858 0)" stroke="none"><path fill="#495057" d="M 0,-1.95 Q 0,-1.95 1.79,-1.94 3.58,-1.94 6.85,-1.85 10.12,-1.77 12.58,-1.71 15.05,-1.64 16.87,-1.67 18.69,-1.69 18.96,-1.65 19.23,-1.60 19.47,-1.47 19.72,-1.34 19.91,-1.15 20.09,-0.95 20.21,-0.70 20.32,-0.45 20.35,-0.18 20.38,0.09 20.32,0.35 20.27,0.62 20.12,0.86 19.98,1.09 19.77,1.27 19.56,1.45 19.31,1.55 19.06,1.65 18.78,1.67 18.51,1.68 18.24,1.61 17.98,1.53 17.75,1.38 17.53,1.23 17.36,1.01 17.19,0.79 17.11,0.53 17.02,0.27 17.02,-0.00 17.02,-0.27 17.11,-0.53 17.19,-0.79 17.36,-1.01 17.53,-1.23 17.75,-1.38 17.98,-1.53 18.24,-1.61 18.51,-1.68 18.78,-1.66 19.06,-1.65 19.31,-1.55 19.57,-1.45 19.77,-1.27 19.98,-1.09 20.12,-0.86 20.27,-0.62 20.32,-0.35 20.38,-0.09 20.35,0.18 20.32,0.45 20.21,0.70 20.09,0.95 19.90,1.15 19.72,1.34 19.47,1.47 19.23,1.60 18.96,1.65 18.69,1.69 18.69,1.69 18.69,1.69 16.87,1.67 15.05,1.64 12.58,1.71 10.12,1.77 6.85,1.85 3.58,1.94 1.79,1.94 0,1.95 -0.23,1.92 -0.46,1.89 -0.68,1.81 -0.90,1.73 -1.10,1.59 -1.29,1.46 -1.45,1.28 -1.60,1.11 -1.71,0.90 -1.82,0.69 -1.88,0.46 -1.94,0.23 -1.94,-0.00 -1.94,-0.23 -1.88,-0.46 -1.82,-0.69 -1.71,-0.90 -1.60,-1.11 -1.45,-1.28 -1.29,-1.46 -1.10,-1.59 -0.90,-1.73 -0.68,-1.81 -0.46,-1.89 -0.23,-1.92 0.00,-1.95 0.00,-1.95 L 0,-1.95 Z"></path></g><g stroke-opacity="0.3" fill-opacity="0.3" transform="translate(714.214193446242 205.68429800187573) rotate(0 5.60878561151867 24.92793605119448)" stroke="none"><path fill="#495057" d="M 1.75,-0.13 Q 1.75,-0.13 2.05,4.52 2.34,9.19 3.52,15.75 4.69,22.31 6.59,28.63 8.50,34.96 9.67,39.14 10.84,43.31 11.70,46.39 12.56,49.46 12.59,49.69 12.62,49.92 12.57,50.14 12.52,50.36 12.41,50.56 12.29,50.75 12.12,50.90 11.95,51.05 11.74,51.13 11.53,51.22 11.30,51.23 11.07,51.25 10.85,51.19 10.63,51.13 10.44,51.00 10.26,50.88 10.12,50.70 9.98,50.52 9.90,50.30 9.83,50.09 9.83,49.86 9.83,49.63 9.90,49.42 9.97,49.20 10.10,49.02 10.24,48.84 10.43,48.71 10.61,48.58 10.83,48.52 11.05,48.46 11.28,48.47 11.50,48.48 11.72,48.56 11.93,48.64 12.10,48.79 12.28,48.93 12.39,49.13 12.51,49.32 12.56,49.54 12.61,49.76 12.59,49.99 12.57,50.22 12.47,50.42 12.38,50.63 12.23,50.80 12.07,50.96 11.87,51.07 11.67,51.18 11.45,51.22 11.22,51.25 11.00,51.22 10.77,51.18 10.57,51.08 10.37,50.98 10.21,50.81 10.06,50.65 9.96,50.44 9.86,50.24 9.86,50.24 9.86,50.24 8.97,47.17 8.07,44.10 6.86,39.97 5.66,35.83 3.65,29.35 1.64,22.87 0.36,16.15 -0.91,9.44 -1.33,4.78 -1.75,0.13 -1.74,-0.07 -1.73,-0.28 -1.67,-0.49 -1.61,-0.69 -1.50,-0.87 -1.40,-1.06 -1.25,-1.21 -1.10,-1.36 -0.92,-1.47 -0.74,-1.59 -0.54,-1.65 -0.34,-1.72 -0.13,-1.74 0.07,-1.75 0.28,-1.72 0.49,-1.68 0.69,-1.60 0.88,-1.51 1.05,-1.39 1.22,-1.26 1.35,-1.09 1.49,-0.93 1.58,-0.74 1.67,-0.55 1.71,-0.34 1.75,-0.13 1.75,-0.13 L 1.75,-0.13 Z"></path></g><g stroke-opacity="0.3" fill-opacity="0.3" transform="translate(712.9677966436825 215.65547242235357) rotate(0 6.231984012798421 6.855182414078513)" stroke="none"><path fill="#495057" d="M 0.36,-2.19 Q 0.36,-2.19 2.49,-1.71 4.62,-1.24 6.52,-1.04 8.42,-0.84 9.70,-0.82 10.98,-0.80 12.04,-0.24 13.11,0.30 13.69,1.36 14.28,2.41 14.05,4.03 13.83,5.65 12.34,7.22 10.85,8.78 10.13,9.82 9.41,10.86 7.73,12.23 6.05,13.60 4.20,14.69 2.35,15.78 1.99,15.90 1.63,16.02 1.25,16.02 0.87,16.03 0.51,15.91 0.15,15.79 -0.14,15.56 -0.45,15.33 -0.66,15.01 -0.88,14.70 -0.98,14.33 -1.08,13.97 -1.06,13.59 -1.04,13.21 -0.91,12.86 -0.77,12.50 -0.52,12.21 -0.28,11.92 0.04,11.72 0.36,11.53 0.73,11.44 1.11,11.36 1.48,11.40 1.86,11.44 2.21,11.60 2.55,11.76 2.83,12.02 3.11,12.28 3.29,12.61 3.46,12.95 3.53,13.32 3.59,13.70 3.53,14.07 3.47,14.45 3.29,14.78 3.12,15.12 2.84,15.38 2.57,15.65 2.22,15.81 1.88,15.97 1.50,16.01 1.12,16.05 0.75,15.97 0.38,15.89 0.05,15.70 -0.26,15.50 -0.51,15.21 -0.76,14.92 -0.90,14.57 -1.04,14.22 -1.06,13.84 -1.09,13.46 -0.98,13.09 -0.88,12.73 -0.67,12.41 -0.46,12.10 -0.16,11.86 0.13,11.63 0.13,11.63 0.13,11.63 1.66,10.92 3.19,10.20 4.39,9.12 5.60,8.05 6.60,6.70 7.61,5.36 8.99,4.23 10.38,3.10 9.26,2.99 8.13,2.88 6.05,2.78 3.97,2.67 1.80,2.43 -0.36,2.19 -0.62,2.11 -0.88,2.04 -1.11,1.90 -1.34,1.77 -1.53,1.58 -1.72,1.39 -1.87,1.17 -2.01,0.94 -2.09,0.69 -2.18,0.43 -2.20,0.16 -2.22,-0.09 -2.17,-0.36 -2.13,-0.62 -2.02,-0.87 -1.92,-1.12 -1.75,-1.33 -1.59,-1.54 -1.38,-1.71 -1.18,-1.88 -0.93,-1.99 -0.69,-2.11 -0.43,-2.16 -0.16,-2.21 0.09,-2.20 0.36,-2.19 0.36,-2.19 L 0.36,-2.19 Z"></path></g><g stroke-opacity="0.3" fill-opacity="0.3" transform="translate(754.0988911281534 213.1626788172341) rotate(0 -6.2319840127988755 11.217571223037567)" stroke="none"><path fill="#495057" d="M -1.34,1.34 Q -1.34,1.34 -1.88,0.78 -2.41,0.22 -3.56,0.45 -4.71,0.68 -6.10,1.53 -7.49,2.38 -8.40,3.95 -9.31,5.51 -9.74,7.50 -10.18,9.48 -10.42,11.73 -10.65,13.97 -9.74,16.12 -8.82,18.26 -8.01,19.54 -7.20,20.82 -6.06,21.71 -4.91,22.61 -3.02,22.63 -1.13,22.66 -0.77,22.73 -0.41,22.81 -0.10,23.00 0.21,23.19 0.45,23.47 0.69,23.74 0.82,24.09 0.96,24.43 0.98,24.79 1.00,25.16 0.91,25.51 0.81,25.87 0.61,26.17 0.40,26.48 0.11,26.70 -0.17,26.92 -0.52,27.04 -0.86,27.16 -1.23,27.16 -1.60,27.16 -1.95,27.05 -2.30,26.93 -2.59,26.71 -2.88,26.49 -3.09,26.19 -3.30,25.88 -3.40,25.53 -3.50,25.18 -3.48,24.81 -3.46,24.44 -3.32,24.10 -3.19,23.76 -2.95,23.48 -2.72,23.20 -2.40,23.01 -2.09,22.82 -1.73,22.74 -1.37,22.66 -1.01,22.70 -0.64,22.73 -0.31,22.89 0.01,23.04 0.28,23.29 0.55,23.54 0.72,23.87 0.90,24.19 0.96,24.55 1.02,24.91 0.96,25.28 0.90,25.64 0.73,25.96 0.56,26.29 0.29,26.54 0.03,26.80 -0.29,26.95 -0.63,27.11 -0.99,27.15 -1.35,27.19 -1.35,27.19 -1.35,27.19 -4.17,26.61 -6.98,26.04 -7.83,25.33 -8.69,24.62 -9.37,23.51 -10.04,22.40 -10.79,20.88 -11.54,19.36 -12.60,16.61 -13.67,13.86 -13.49,11.34 -13.32,8.81 -12.80,6.31 -12.27,3.82 -10.92,1.58 -9.57,-0.64 -7.33,-1.99 -5.10,-3.34 -2.77,-3.21 -0.44,-3.09 0.44,-2.21 1.34,-1.34 1.48,-1.16 1.63,-0.98 1.72,-0.77 1.81,-0.56 1.86,-0.34 1.90,-0.11 1.88,0.11 1.87,0.34 1.80,0.56 1.73,0.78 1.61,0.97 1.49,1.17 1.33,1.33 1.17,1.49 0.97,1.61 0.78,1.73 0.56,1.80 0.34,1.87 0.11,1.88 -0.11,1.90 -0.34,1.86 -0.56,1.81 -0.77,1.72 -0.98,1.63 -1.16,1.48 -1.34,1.34 -1.34,1.34 L -1.34,1.34 Z"></path></g><g stroke-opacity="0.3" fill-opacity="0.3" transform="translate(770.3020495614296 213.1626788172341) rotate(0 11.21757122303734 13.087166426877275)" stroke="none"><path fill="#495057" d="M 1.80,0 Q 1.80,0 1.73,2.50 1.67,5.01 1.62,7.51 1.57,10.01 1.88,12.75 2.19,15.49 3.01,16.78 3.83,18.07 5.66,16.36 7.49,14.66 8.82,11.76 10.16,8.85 11.12,6.19 12.08,3.54 12.84,1.88 13.60,0.22 13.84,-0.08 14.09,-0.38 14.21,-0.56 14.33,-0.75 14.49,-0.90 14.65,-1.05 14.84,-1.15 15.04,-1.26 15.25,-1.32 15.46,-1.37 15.68,-1.38 15.90,-1.38 16.12,-1.34 16.33,-1.29 16.53,-1.19 16.73,-1.09 16.89,-0.95 17.06,-0.81 17.19,-0.63 17.32,-0.45 17.40,-0.25 17.49,-0.04 17.52,0.16 17.55,0.38 17.53,0.60 17.51,0.82 17.43,1.03 17.36,1.23 17.73,2.71 18.11,4.18 18.04,6.57 17.98,8.96 17.93,11.04 17.89,13.12 18.19,16.04 18.49,18.97 19.60,21.09 20.71,23.21 22.23,24.74 23.74,26.26 23.89,26.50 24.04,26.74 24.11,27.02 24.17,27.29 24.15,27.58 24.12,27.86 24.01,28.12 23.89,28.37 23.70,28.58 23.51,28.79 23.26,28.93 23.01,29.06 22.74,29.11 22.46,29.16 22.18,29.12 21.90,29.08 21.65,28.95 21.39,28.82 21.20,28.62 21.00,28.42 20.88,28.16 20.75,27.91 20.72,27.63 20.68,27.35 20.74,27.07 20.80,26.79 20.94,26.55 21.08,26.30 21.29,26.12 21.51,25.93 21.77,25.82 22.03,25.71 22.31,25.69 22.59,25.67 22.87,25.75 23.14,25.82 23.38,25.97 23.61,26.13 23.79,26.35 23.96,26.57 24.06,26.84 24.15,27.11 24.16,27.39 24.16,27.67 24.07,27.94 23.99,28.21 23.82,28.44 23.65,28.67 23.42,28.83 23.19,28.99 22.92,29.07 22.65,29.15 22.36,29.14 22.08,29.13 21.82,29.03 21.55,28.93 21.33,28.75 21.12,28.57 21.12,28.57 21.12,28.57 19.57,26.60 18.02,24.63 16.68,22.03 15.33,19.42 14.90,16.28 14.48,13.14 14.41,11.07 14.35,9.00 14.23,6.67 14.11,4.35 14.15,3.19 14.18,2.02 14.14,0.82 14.09,-0.38 14.21,-0.56 14.33,-0.75 14.49,-0.90 14.65,-1.05 14.84,-1.15 15.04,-1.26 15.25,-1.32 15.46,-1.37 15.68,-1.38 15.90,-1.38 16.12,-1.34 16.33,-1.29 16.53,-1.19 16.73,-1.09 16.89,-0.95 17.06,-0.81 17.19,-0.63 17.32,-0.45 17.40,-0.25 17.49,-0.04 17.52,0.16 17.55,0.38 17.53,0.60 17.51,0.82 17.43,1.03 17.36,1.23 16.96,1.51 16.56,1.78 15.81,3.17 15.06,4.56 14.15,7.38 13.23,10.21 11.85,13.46 10.47,16.71 8.56,19.21 6.66,21.72 4.88,21.70 3.11,21.68 2.09,20.67 1.07,19.65 0.15,17.80 -0.76,15.94 -1.16,12.98 -1.57,10.01 -1.62,7.51 -1.67,5.01 -1.73,2.50 -1.80,0 -1.77,-0.21 -1.75,-0.43 -1.67,-0.63 -1.59,-0.83 -1.47,-1.01 -1.35,-1.19 -1.18,-1.34 -1.02,-1.48 -0.83,-1.58 -0.64,-1.68 -0.42,-1.73 -0.21,-1.79 0.00,-1.79 0.21,-1.79 0.42,-1.73 0.64,-1.68 0.83,-1.58 1.02,-1.48 1.18,-1.34 1.35,-1.19 1.47,-1.01 1.59,-0.83 1.67,-0.63 1.75,-0.43 1.77,-0.21 1.80,0.00 1.80,0.00 L 1.80,0 Z"></path></g><g stroke-opacity="0.3" fill-opacity="0.3" transform="translate(811.4331440459005 234.35142446074929) rotate(0 1.2463968025595022 -18.695952038395717)" stroke="none"><path fill="#495057" d="M -1.85,-0.37 Q -1.85,-0.37 -1.49,-2.16 -1.12,-3.95 -0.55,-7.86 0.02,-11.77 0.29,-17.33 0.55,-22.89 0.69,-26.70 0.82,-30.52 0.80,-33.97 0.78,-37.42 0.83,-37.69 0.88,-37.96 1.01,-38.21 1.15,-38.45 1.35,-38.63 1.56,-38.82 1.81,-38.93 2.06,-39.04 2.34,-39.07 2.61,-39.09 2.88,-39.03 3.15,-38.96 3.39,-38.82 3.62,-38.67 3.80,-38.45 3.97,-38.24 4.07,-37.98 4.16,-37.72 4.17,-37.44 4.18,-37.17 4.10,-36.90 4.02,-36.64 3.87,-36.41 3.71,-36.19 3.48,-36.02 3.26,-35.86 2.99,-35.78 2.73,-35.69 2.45,-35.70 2.18,-35.71 1.92,-35.80 1.66,-35.89 1.44,-36.06 1.22,-36.24 1.07,-36.47 0.92,-36.70 0.85,-36.97 0.78,-37.24 0.81,-37.51 0.83,-37.79 0.93,-38.04 1.04,-38.30 1.22,-38.50 1.41,-38.71 1.65,-38.85 1.89,-38.99 2.16,-39.04 2.43,-39.10 2.70,-39.06 2.98,-39.02 3.23,-38.90 3.48,-38.78 3.67,-38.59 3.87,-38.39 3.99,-38.15 4.12,-37.90 4.16,-37.63 4.20,-37.35 4.20,-37.35 4.20,-37.35 4.04,-33.90 3.88,-30.44 3.83,-26.60 3.78,-22.76 3.61,-17.05 3.45,-11.33 3.00,-7.27 2.56,-3.21 2.20,-1.42 1.85,0.37 1.78,0.58 1.71,0.80 1.59,0.99 1.47,1.19 1.30,1.35 1.14,1.51 0.94,1.62 0.74,1.74 0.53,1.80 0.31,1.86 0.08,1.87 -0.14,1.88 -0.36,1.84 -0.59,1.79 -0.79,1.70 -1.00,1.60 -1.18,1.46 -1.36,1.31 -1.49,1.13 -1.63,0.95 -1.72,0.74 -1.81,0.53 -1.85,0.30 -1.89,0.08 -1.87,-0.14 -1.85,-0.37 -1.85,-0.37 L -1.85,-0.37 Z"></path></g><g stroke-opacity="0.3" fill-opacity="0.3" transform="translate(812.67954084846 223.13385323771195) rotate(0 8.72477761791788 -8.101579216638129)" stroke="none"><path fill="#495057" d="M -1.14,-1.53 Q -1.14,-1.53 1.76,-3.61 4.68,-5.70 8.05,-8.34 11.43,-10.97 12.77,-12.68 14.10,-14.38 15.12,-15.79 16.14,-17.20 16.33,-17.38 16.53,-17.57 16.77,-17.68 17.01,-17.79 17.28,-17.81 17.54,-17.84 17.80,-17.78 18.06,-17.73 18.29,-17.59 18.52,-17.45 18.69,-17.25 18.86,-17.04 18.96,-16.79 19.05,-16.55 19.07,-16.28 19.08,-16.01 19.01,-15.76 18.94,-15.50 18.79,-15.28 18.64,-15.06 18.42,-14.90 18.21,-14.74 17.96,-14.66 17.70,-14.57 17.44,-14.57 17.17,-14.57 16.92,-14.66 16.67,-14.75 16.46,-14.91 16.24,-15.07 16.09,-15.29 15.95,-15.51 15.88,-15.77 15.81,-16.03 15.82,-16.29 15.84,-16.56 15.94,-16.81 16.04,-17.05 16.21,-17.26 16.38,-17.46 16.61,-17.59 16.84,-17.73 17.10,-17.79 17.36,-17.84 17.63,-17.81 17.89,-17.78 18.13,-17.67 18.38,-17.56 18.57,-17.37 18.76,-17.19 18.88,-16.95 19.01,-16.72 19.05,-16.45 19.09,-16.19 19.05,-15.93 19.00,-15.67 18.88,-15.43 18.75,-15.20 18.75,-15.20 18.75,-15.20 17.65,-13.85 16.56,-12.50 15.03,-10.47 13.50,-8.44 10.14,-5.67 6.78,-2.89 3.96,-0.68 1.14,1.53 0.94,1.64 0.74,1.76 0.52,1.82 0.30,1.89 0.07,1.90 -0.15,1.90 -0.38,1.86 -0.60,1.81 -0.81,1.71 -1.02,1.61 -1.20,1.47 -1.38,1.32 -1.52,1.14 -1.65,0.95 -1.75,0.74 -1.84,0.53 -1.87,0.30 -1.91,0.07 -1.89,-0.15 -1.87,-0.38 -1.80,-0.60 -1.72,-0.82 -1.60,-1.01 -1.48,-1.21 -1.31,-1.37 -1.14,-1.53 -1.14,-1.53 L -1.14,-1.53 Z"></path></g><g stroke-opacity="0.3" fill-opacity="0.3" transform="translate(812.67954084846 221.88745643515222) rotate(0 9.971174420477837 6.855182414078513)" stroke="none"><path fill="#495057" d="M 0.86,-1.73 Q 0.86,-1.73 3.69,-0.22 6.52,1.28 8.91,3.09 11.29,4.90 13.61,6.33 15.93,7.76 18.54,10.11 21.14,12.45 21.31,12.68 21.48,12.90 21.57,13.17 21.66,13.43 21.65,13.72 21.65,14.00 21.56,14.26 21.47,14.53 21.30,14.75 21.13,14.98 20.89,15.13 20.66,15.29 20.39,15.36 20.11,15.44 19.83,15.42 19.55,15.40 19.29,15.30 19.03,15.19 18.82,15.01 18.60,14.82 18.46,14.58 18.32,14.34 18.26,14.06 18.20,13.79 18.23,13.51 18.26,13.23 18.38,12.97 18.50,12.72 18.70,12.52 18.89,12.31 19.14,12.18 19.39,12.05 19.67,12.01 19.95,11.97 20.23,12.01 20.50,12.06 20.75,12.19 21.00,12.33 21.19,12.53 21.38,12.74 21.50,13.00 21.62,13.25 21.64,13.53 21.67,13.81 21.61,14.09 21.55,14.36 21.40,14.60 21.26,14.84 21.04,15.02 20.82,15.20 20.56,15.30 20.30,15.41 20.02,15.42 19.74,15.43 19.47,15.36 19.20,15.28 18.97,15.12 18.73,14.96 18.73,14.96 18.73,14.96 16.53,12.69 14.33,10.43 11.83,8.99 9.34,7.56 7.14,6.00 4.93,4.44 2.03,3.09 -0.86,1.73 -1.06,1.60 -1.25,1.47 -1.41,1.30 -1.57,1.13 -1.68,0.92 -1.79,0.72 -1.85,0.49 -1.92,0.27 -1.92,0.03 -1.92,-0.19 -1.87,-0.42 -1.82,-0.65 -1.72,-0.86 -1.61,-1.07 -1.46,-1.24 -1.31,-1.42 -1.12,-1.56 -0.93,-1.69 -0.71,-1.78 -0.50,-1.87 -0.26,-1.90 -0.03,-1.93 0.19,-1.91 0.42,-1.89 0.64,-1.81 0.86,-1.73 0.86,-1.73 L 0.86,-1.73 Z"></path></g></svg>